<svg width="323.878" height="80.665" viewBox="0 0 323.878 80.665" xmlns="http://www.w3.org/2000/svg"><g id="svgGroup" stroke-linecap="round" fill-rule="evenodd" font-size="9pt" stroke="#000" stroke-width="0.5mm" fill="#00000000" style="stroke:#000;stroke-width:0.5mm;fill:#00000000"><path d="M 269.873 71.582 L 267.383 79.248 L 253.955 79.248 L 253.955 53.076 L 272.168 53.076 A 14.306 14.306 0 0 0 277.832 62.378 A 17.188 17.188 0 0 0 285.022 65.566 A 24.163 24.163 0 0 0 289.795 66.016 A 15.896 15.896 0 0 0 292.09 65.861 Q 294.421 65.52 295.898 64.429 A 5.042 5.042 0 0 0 298.009 60.777 A 6.642 6.642 0 0 0 298.047 60.059 A 6.054 6.054 0 0 0 297.724 58.033 Q 297.168 56.458 295.654 55.469 Q 293.262 53.907 289.307 53.028 Q 285.352 52.149 280.615 51.319 A 77.066 77.066 0 0 1 271.143 49.024 Q 266.406 47.559 262.451 44.727 A 19.467 19.467 0 0 1 257.225 39.065 A 23.923 23.923 0 0 1 256.104 37.036 Q 253.711 32.178 253.711 24.561 A 25.913 25.913 0 0 1 254.638 17.501 A 21.58 21.58 0 0 1 257.251 11.67 A 22.557 22.557 0 0 1 264.862 4.427 A 28.357 28.357 0 0 1 267.432 3.076 A 31.7 31.7 0 0 1 274.981 0.722 Q 278.856 0 283.35 0 A 47.806 47.806 0 0 1 289.191 0.337 Q 292.175 0.705 294.699 1.475 A 24.447 24.447 0 0 1 297.217 2.393 A 23.969 23.969 0 0 1 303.771 6.512 A 21.934 21.934 0 0 1 306.299 9.18 L 308.789 1.514 L 322.217 1.514 L 322.217 26.709 L 303.613 26.709 A 17.566 17.566 0 0 0 301.837 22.139 A 13.985 13.985 0 0 0 297.974 17.774 A 15.949 15.949 0 0 0 288.53 14.652 A 19.611 19.611 0 0 0 288.184 14.649 Q 284.229 14.649 281.885 16.138 A 5.027 5.027 0 0 0 280.252 17.757 Q 279.653 18.737 279.559 20.017 A 6.659 6.659 0 0 0 279.541 20.508 A 4.75 4.75 0 0 0 279.959 22.531 Q 280.432 23.55 281.44 24.286 A 6.171 6.171 0 0 0 281.934 24.61 Q 283.757 25.689 286.487 26.456 A 33.528 33.528 0 0 0 288.281 26.905 A 309.833 309.833 0 0 0 292.432 27.796 A 402.664 402.664 0 0 0 296.973 28.711 A 72.907 72.907 0 0 1 306.445 31.25 Q 311.182 32.862 315.137 35.767 A 20.291 20.291 0 0 1 320.532 41.761 A 24.491 24.491 0 0 1 321.484 43.506 A 21.07 21.07 0 0 1 323.12 48.231 Q 323.64 50.538 323.803 53.233 A 41.994 41.994 0 0 1 323.877 55.762 A 28.111 28.111 0 0 1 322.798 63.758 A 21.211 21.211 0 0 1 316.162 74.024 A 25.792 25.792 0 0 1 306.311 79.205 Q 302.505 80.3 297.974 80.573 A 51.46 51.46 0 0 1 294.873 80.664 A 57.504 57.504 0 0 1 288.494 80.332 Q 283.372 79.759 279.541 78.199 A 29.212 29.212 0 0 1 274.401 75.517 A 22.285 22.285 0 0 1 269.873 71.582 Z M 207.471 79.248 L 168.262 79.248 L 168.262 62.403 L 176.074 62.403 L 176.074 18.36 L 168.262 18.36 L 168.262 1.514 L 213.135 1.514 Q 227.686 1.514 235.498 6.958 A 17.561 17.561 0 0 1 243.12 19.743 A 25.303 25.303 0 0 1 243.311 22.901 Q 243.311 29.688 239.941 34.18 A 17.951 17.951 0 0 1 231.913 40.18 A 22.184 22.184 0 0 1 230.811 40.576 A 16.213 16.213 0 0 1 234.035 42.02 A 11.289 11.289 0 0 1 237.622 45.313 A 12.846 12.846 0 0 1 239.623 50.152 A 17.305 17.305 0 0 1 239.941 53.174 L 240.039 57.227 A 10.774 10.774 0 0 0 240.181 58.649 Q 240.306 59.376 240.535 59.962 A 4.272 4.272 0 0 0 241.187 61.109 Q 241.992 62.102 243.676 62.333 A 8.111 8.111 0 0 0 244.775 62.403 L 249.951 62.403 L 249.951 79.248 L 232.959 79.248 A 31.936 31.936 0 0 1 227.881 78.873 Q 225.272 78.451 223.194 77.558 A 13.251 13.251 0 0 1 219.165 74.927 Q 214.697 70.606 214.6 62.256 L 214.502 55.762 Q 214.376 49.064 209.154 48.108 A 10.448 10.448 0 0 0 207.275 47.95 L 200.879 47.95 L 200.879 62.403 L 207.471 62.403 L 207.471 79.248 Z M 32.178 79.248 L 0 79.248 L 0 62.403 L 7.08 62.403 L 21.68 18.36 L 11.182 18.36 L 11.182 1.514 L 59.424 1.514 L 77.686 62.403 L 84.766 62.403 L 84.766 79.248 L 40.967 79.248 L 40.967 62.403 L 49.023 62.403 L 46.777 53.858 L 26.66 53.858 L 24.121 62.403 L 32.178 62.403 L 32.178 79.248 Z M 135.693 79.248 L 88.916 79.248 L 88.916 62.403 L 96.729 62.403 L 96.729 18.36 L 88.916 18.36 L 88.916 1.514 L 130.859 1.514 A 65.748 65.748 0 0 1 139.622 2.058 Q 144.095 2.662 147.722 3.933 A 25.787 25.787 0 0 1 154.883 7.691 A 19.928 19.928 0 0 1 162.416 20.068 A 30.874 30.874 0 0 1 162.988 26.172 A 27.945 27.945 0 0 1 162.058 33.602 A 19.449 19.449 0 0 1 154.932 44.214 A 26.243 26.243 0 0 1 147.153 48.182 Q 143.5 49.38 139.036 49.914 A 64.898 64.898 0 0 1 131.348 50.342 L 121.533 50.342 L 121.533 62.403 L 135.693 62.403 L 135.693 79.248 Z M 37.354 17.92 L 30.273 41.651 L 43.555 41.651 L 37.354 17.92 Z M 208.447 17.871 L 200.879 17.871 L 200.879 34.375 L 208.447 34.375 A 15.502 15.502 0 0 0 211.985 34.008 Q 216.787 32.878 217.639 28.271 A 11.826 11.826 0 0 0 217.822 26.123 A 10.38 10.38 0 0 0 217.307 22.709 Q 215.625 17.871 208.447 17.871 Z M 128.027 17.871 L 121.533 17.871 L 121.533 35.45 L 127.539 35.45 Q 130.659 35.45 132.802 34.626 A 7.651 7.651 0 0 0 135.01 33.35 A 6.47 6.47 0 0 0 136.951 30.423 Q 137.5 28.816 137.5 26.66 Q 137.5 23.793 136.576 21.905 A 6.046 6.046 0 0 0 135.083 19.947 A 7.755 7.755 0 0 0 132.436 18.492 Q 130.564 17.871 128.027 17.871 Z" vector-effect="non-scaling-stroke"/></g></svg>