<?xml version="1.0" encoding="UTF-8" standalone="no"?>
<svg
   width="494mm"
   height="415mm"
   viewBox="0 0 494 415"
   version="1.1"
   preserveAspectRatio="xMidYMid meet"
   id="svg1"
   sodipodi:docname="box-nova-digi.svg"
   inkscape:version="1.3.2 (091e20e, 2023-11-25)"
   xmlns:inkscape="http://www.inkscape.org/namespaces/inkscape"
   xmlns:sodipodi="http://sodipodi.sourceforge.net/DTD/sodipodi-0.dtd"
   xmlns="http://www.w3.org/2000/svg"
   xmlns:svg="http://www.w3.org/2000/svg">
  <defs
     id="defs1" />
  <sodipodi:namedview
     id="namedview1"
     pagecolor="#ffffff"
     bordercolor="#000000"
     borderopacity="0.25"
     inkscape:showpageshadow="2"
     inkscape:pageopacity="0.0"
     inkscape:pagecheckerboard="0"
     inkscape:deskcolor="#d1d1d1"
     inkscape:document-units="mm"
     showgrid="true"
     inkscape:zoom="0.71498636"
     inkscape:cx="663.64902"
     inkscape:cy="627.98401"
     inkscape:window-width="1440"
     inkscape:window-height="777"
     inkscape:window-x="1080"
     inkscape:window-y="534"
     inkscape:window-maximized="0"
     inkscape:current-layer="svg1">
    <inkscape:grid
       id="grid1"
       units="mm"
       originx="0"
       originy="0"
       spacingx="0.99999997"
       spacingy="1"
       empcolor="#0099e5"
       empopacity="0.30196078"
       color="#0099e5"
       opacity="0.14901961"
       empspacing="5"
       dotted="false"
       gridanglex="30"
       gridanglez="30"
       visible="true" />
  </sodipodi:namedview>
  <path
     style="font-size:12px;fill:none;fill-rule:evenodd;stroke:#ff0000;stroke-width:0.1;stroke-linecap:round"
     d="m 151.29581,94.999992 v 22.749998 h -3 v 24.125 h 3.25 v 1.625 1.625 h -3.25 v 24.125 h 3 v 51.5 h -3 v 24.125 h 3.25 v 1.625 1.625 h -3.25 v 24.125 h 3 v 22.75 h 14.625 v 3 h 16 v -3.25 h 1.625 1.625 v 3.25 h 16 v -3 h 35.25 v 3 h 16 v -3.25 h 1.625 1.625 v 3.25 h 16 v -3 h 14.625 v -22.75 h 3 v -24.125 h -3.25 v -1.625 -1.625 h 3.25 v -24.125 h -3 v -51.5 h 3 v -24.125 h -3.25 v -1.625 -1.625 h 3.25 v -24.125 h -3 V 94.999992 h -14.625 v -3 h -16 v 3.25 h -1.625 -1.625 v -3.25 h -16 v 3 h -35.25 v -3 h -16 v 3.25 h -1.625 -1.625 v -3.25 h -16 v 3 z"
     id="top_outsideCutPath" />
  <path
     style="fill:none;fill-rule:evenodd;stroke:#008000;stroke-width:0.1;paint-order:fill markers stroke"
     d="M 1.3619103,357.86836 H 18.98691 v 3 h 35.25 v -3 h 35.25 v 3 h 35.24999 v -3 h 17.625 l -0.004,21 h -3.00002 v 5.375 h -1.95001 v -1.25 h -2.65001 v 1.25 h -2.65001 v 3.25 h 2.65002 v 1.25 h 2.65001 l 0.005,-1.25001 h 1.89383 l 0.0513,5.37501 h 3.00002 l 0.004,20.99999 h -17.625 v -2.99998 h -16 v -1.95001 h 1.25 v -2.65001 h -1.25 v -2.64999 h -3.25 v 2.64999 h -1.25 v 2.65001 h 1.25 v 1.95001 H 89.48691 v 2.99998 h -35.25 v -2.99998 h -16 v -1.95001 h 1.25 v -2.65001 h -1.25 v -2.64999 h -3.250001 v 2.64999 h -1.25 v 2.65001 h 1.25 v 1.95001 H 18.98691 v 2.99998 H 1.3619103 l -4e-7,-21.00666 h 2.9999998 l -0.054866,-5.36834 h 2 l 0.0049,1.24334 h 2.6500004 v -1.25 h 2.6499989 v -3.25 H 8.9619401 v -1.25 H 6.3119407 v 1.25 H 4.3619103 v -5.375 h -3 z"
     id="path2" />
  <path
     style="fill:none;fill-rule:evenodd;stroke:#008000;stroke-width:0.1;paint-order:fill markers stroke"
     d="M 1.4708332,300.00666 H 19.095833 v 3 h 35.25 v -3 h 35.25 v 3 h 35.249987 v -3 h 17.625 l -0.004,21 h -3.00002 v 5.375 h -1.95001 v -1.25 h -2.65001 v 1.25 h -2.65001 v 3.25 h 2.65002 v 1.25 h 2.65001 l 0.005,-1.25001 h 1.89383 l 0.0513,5.37501 h 3.00002 l 0.004,20.99999 h -17.625 v -2.99998 h -16 v -1.95001 h 1.25 v -2.65001 h -1.25 v -2.64999 h -3.25 v 2.64999 h -1.25 v 2.65001 h 1.25 v 1.95001 H 89.595833 v 2.99998 h -35.25 v -2.99998 h -16 v -1.95001 h 1.25 v -2.65001 h -1.25 v -2.64999 h -3.25 v 2.64999 h -1.25 v 2.65001 h 1.25 v 1.95001 h -16 v 2.99998 H 1.4708332 v -21.00666 h 3 l -0.05487,-5.36834 h 2 l 0.0049,1.24334 h 2.65 v -1.25 h 2.6499988 v -3.25 H 9.0708632 v -1.25 h -2.649999 v 1.25 h -1.950031 v -5.375 h -3 z"
     id="path2-1" />
  <path
     style="fill:none;fill-rule:evenodd;stroke:#008000;stroke-width:0.1;paint-order:fill markers stroke"
     d="m 145.99121,357.86834 22.75001,2e-5 v 3.00001 h 51.50001 v -3.00001 h 51.49999 v 3.00001 h 51.5 v -3.00001 l 22.74999,-2e-5 v 21 h 3 l -0.003,5.37536 h -3.25001 v 3.25001 h 3.25001 l 0.003,5.37464 h -3 v 21 h -22.74999 v -3 h -24.125 v -1.95001 h 1.25 v -2.64998 h -1.25 v -2.64999 h -3.25001 v 2.64999 h -1.24999 v 2.64998 h 1.24999 v 1.95001 h -24.12499 v 3 h -51.49999 v -3 h -24.125 v -1.95001 h 1.25 v -2.64998 h -1.25 v -2.64999 h -3.25 v 2.64999 h -1.25 v 2.64998 h 1.25 v 1.95001 h -24.12501 v 3 h -22.75001 v -21.00043 h -3 l 1e-5,-5.37498 h 3.25 v -3.25001 h -3.25 l -1e-5,-5.37501 h 3 z"
     id="path4" />
  <path
     style="fill:none;fill-rule:evenodd;stroke:#008000;stroke-width:0.1;paint-order:fill markers stroke"
     d="m 145.74997,299.99997 22.75001,2e-5 V 303 h 51.50001 v -3.00001 h 51.49999 V 303 h 51.5 v -3.00001 l 22.74999,-2e-5 v 21 h 3 l -0.003,5.37536 h -3.25001 v 3.25001 h 3.25001 l 0.003,5.37464 h -3 v 21 h -22.74999 v -3 h -24.125 v -1.95001 h 1.25 v -2.64998 h -1.25 V 345.75 h -3.25001 v 2.64999 h -1.24999 v 2.64998 h 1.24999 v 1.95001 h -24.12499 v 3 h -51.49999 v -3 h -24.125 v -1.95001 h 1.25 v -2.64998 h -1.25 V 345.75 h -3.25 v 2.64999 h -1.25 v 2.64998 h 1.25 v 1.95001 h -24.12501 v 3 h -22.75001 v -21.00043 h -3 l 1e-5,-5.37498 h 3.25 v -3.25001 h -3.25 l -1e-5,-5.37501 h 3 z"
     id="path4-3" />
  <path
     style="fill:none;fill-rule:evenodd;stroke:#008000;stroke-width:0.1;paint-order:fill markers stroke"
     d="m 141.12079,294.65838 v -22.75 h 3 v -51.5 h -3 v -51.5 h 3 v -51.5 h -3 V 94.658336 h -14.625 v -3 H 91.245828 v 3 h -35.25001 v -3 h -35.24998 v 3 H 6.1208314 V 117.40838 H 3.1208326 v 51.5 h 2.9999988 v 51.5 H 3.1208326 v 51.5 h 2.9999988 v 22.75 H 20.745838 v 3 h 35.24998 v -3 h 35.25001 v 3 h 35.249962 v -3 z"
     id="path5" />
  <g
     id="svgGroup"
     stroke-linecap="round"
     fill-rule="evenodd"
     font-size="12px"
     stroke="#000"
     stroke-width="0.5mm"
     fill="#00000000"
     style="fill:none;stroke:#000000;stroke-width:0.5mm"
     transform="matrix(0.18096249,0,0,0.25120657,165.67704,124.70428)">
    <path
       d="M 584.424,79.151 H 515.283 V 62.305 h 7.813 V 18.262 h -7.813 V 1.416 h 69.141 V 32.325 H 568.311 L 566.602,18.018 H 547.9 v 13.183 h 13.184 V 47.803 H 547.9 v 14.746 h 18.702 l 1.709,-16.455 h 16.113 z m -391.26,-70.069 2.49,-7.666 h 13.428 v 28.272 h -18.066 a 26.597,26.597 0 0 0 -0.741,-3.569 q -0.516,-1.805 -1.265,-3.221 a 10.57,10.57 0 0 0 -1.998,-2.707 9.972,9.972 0 0 0 -4.153,-2.348 q -1.536,-0.455 -3.376,-0.568 a 20.437,20.437 0 0 0 -1.26,-0.038 15.752,15.752 0 0 0 -8.301,2.27 14.413,14.413 0 0 0 -4.283,4.032 19.494,19.494 0 0 0 -1.723,2.951 20.943,20.943 0 0 0 -1.516,4.531 q -0.479,2.184 -0.644,4.733 a 42.99,42.99 0 0 0 -0.086,2.772 36.631,36.631 0 0 0 0.508,6.304 q 1.117,6.385 4.692,10.346 a 16.884,16.884 0 0 0 8.967,5.138 25.858,25.858 0 0 0 5.852,0.624 26.617,26.617 0 0 0 3.55,-0.225 19.292,19.292 0 0 0 3.531,-0.801 v -7.91 h -9.278 V 37.354 h 31.25 v 36.328 q -3.711,2.002 -8.789,3.564 a 75.633,75.633 0 0 1 -9.298,2.211 84.006,84.006 0 0 1 -1.395,0.231 71.902,71.902 0 0 1 -11.133,0.879 66.237,66.237 0 0 1 -11.69,-0.982 47.637,47.637 0 0 1 -12.846,-4.145 37.47,37.47 0 0 1 -15.943,-14.551 39.307,39.307 0 0 1 -4.951,-13.862 51.89,51.89 0 0 1 -0.664,-8.452 50.235,50.235 0 0 1 0.993,-10.211 38.491,38.491 0 0 1 3.524,-10.029 33.2,33.2 0 0 1 12.646,-13.501 Q 159.326,0 170.166,0 a 48.344,48.344 0 0 1 5.987,0.35 q 4.37,0.547 7.807,1.945 a 22.754,22.754 0 0 1 7.035,4.434 21.502,21.502 0 0 1 2.169,2.353 z m 132.91,0 2.49,-7.666 h 13.428 v 28.272 h -18.066 a 26.597,26.597 0 0 0 -0.74,-3.569 q -0.516,-1.805 -1.266,-3.221 a 10.57,10.57 0 0 0 -1.998,-2.707 9.972,9.972 0 0 0 -4.153,-2.348 q -1.536,-0.455 -3.376,-0.568 a 20.437,20.437 0 0 0 -1.26,-0.038 15.752,15.752 0 0 0 -8.301,2.27 14.413,14.413 0 0 0 -4.283,4.032 19.494,19.494 0 0 0 -1.723,2.951 20.943,20.943 0 0 0 -1.515,4.531 q -0.48,2.184 -0.645,4.733 a 42.99,42.99 0 0 0 -0.086,2.772 36.631,36.631 0 0 0 0.508,6.304 q 1.117,6.385 4.692,10.346 a 16.884,16.884 0 0 0 8.967,5.138 25.858,25.858 0 0 0 5.853,0.624 26.617,26.617 0 0 0 3.549,-0.225 19.292,19.292 0 0 0 3.531,-0.801 v -7.91 h -9.278 V 37.354 h 31.25 v 36.328 q -3.711,2.002 -8.789,3.564 a 75.633,75.633 0 0 1 -9.298,2.211 84.006,84.006 0 0 1 -1.395,0.231 71.902,71.902 0 0 1 -11.133,0.879 66.237,66.237 0 0 1 -11.69,-0.982 47.637,47.637 0 0 1 -12.846,-4.145 37.47,37.47 0 0 1 -15.942,-14.551 39.307,39.307 0 0 1 -4.952,-13.862 51.89,51.89 0 0 1 -0.664,-8.452 50.235,50.235 0 0 1 0.993,-10.211 38.491,38.491 0 0 1 3.524,-10.029 33.2,33.2 0 0 1 12.646,-13.501 Q 292.236,0 303.076,0 a 48.344,48.344 0 0 1 5.987,0.35 q 4.37,0.547 7.807,1.945 a 22.754,22.754 0 0 1 7.035,4.434 21.502,21.502 0 0 1 2.169,2.353 z M 497.266,79.151 H 443.555 V 62.305 h 14.16 v -45.02 h -8.74 l -1.954,16.456 H 430.908 V 1.416 h 79.004 v 32.325 h -16.113 l -1.953,-16.456 h -8.741 v 45.02 h 14.161 z m -115.381,0 H 349.707 V 62.305 h 7.08 l 14.6,-44.043 H 360.889 V 1.416 h 48.242 l 18.262,60.889 h 7.08 V 79.151 H 390.674 V 62.305 h 8.056 l -2.246,-8.545 h -20.117 l -2.539,8.545 h 8.057 z m -346.485,0 H 0 V 62.305 H 7.813 V 18.262 H 0 V 1.416 h 35.449 a 75.292,75.292 0 0 1 12.509,0.971 q 6.669,1.125 11.978,3.557 a 34.178,34.178 0 0 1 8.423,5.409 31.936,31.936 0 0 1 9.819,16.473 q 1.347,5.241 1.452,11.489 a 63.341,63.341 0 0 1 0.009,1.066 51.402,51.402 0 0 1 -1.202,11.477 q -2.472,10.793 -10.029,17.429 -8.831,7.757 -24.185,9.414 a 82.325,82.325 0 0 1 -8.823,0.45 z m 92.432,0 H 85.84 V 62.305 h 8.301 V 18.262 H 85.84 V 1.416 h 41.992 v 16.846 h -8.301 v 44.043 h 8.301 z m 132.91,0 H 218.75 V 62.305 h 8.301 V 18.262 H 218.75 V 1.416 h 41.992 v 16.846 h -8.301 v 44.043 h 8.301 z M 33.203,17.774 v 45.019 h 2.686 q 5.706,0 9.259,-2.292 a 11.106,11.106 0 0 0 3.045,-2.908 q 3.196,-4.479 3.64,-14.119 a 70.584,70.584 0 0 0 0.071,-3.239 62.453,62.453 0 0 0 -0.262,-5.944 q -0.566,-5.902 -2.359,-9.513 a 13.218,13.218 0 0 0 -1.09,-1.828 11.626,11.626 0 0 0 -6.128,-4.322 q -2.014,-0.641 -4.481,-0.801 a 26.178,26.178 0 0 0 -1.695,-0.053 z m 353.858,0.049 -7.081,23.73 h 13.282 z"
       vector-effect="non-scaling-stroke"
       id="path1"
       style="fill:none" />
  </g>
  <g
     id="svgGroup-8"
     stroke-linecap="round"
     fill-rule="evenodd"
     font-size="12px"
     stroke="#000"
     stroke-width="0.5mm"
     fill="#00000000"
     style="fill:none;stroke:#000000;stroke-width:0.5mm"
     transform="matrix(0.26458333,0,0,0.26458333,174.30468,155.2463)">
    <path
       d="m 269.873,71.582 -2.49,7.666 H 253.955 V 53.076 h 18.213 a 14.306,14.306 0 0 0 5.664,9.302 17.188,17.188 0 0 0 7.19,3.188 24.163,24.163 0 0 0 4.773,0.45 15.896,15.896 0 0 0 2.295,-0.155 q 2.331,-0.341 3.808,-1.432 a 5.042,5.042 0 0 0 2.111,-3.652 6.642,6.642 0 0 0 0.038,-0.718 6.054,6.054 0 0 0 -0.323,-2.026 q -0.556,-1.575 -2.07,-2.564 -2.392,-1.562 -6.347,-2.441 -3.955,-0.879 -8.692,-1.709 a 77.066,77.066 0 0 1 -9.472,-2.295 q -4.737,-1.465 -8.692,-4.297 a 19.467,19.467 0 0 1 -5.226,-5.662 23.923,23.923 0 0 1 -1.121,-2.029 q -2.393,-4.858 -2.393,-12.475 a 25.913,25.913 0 0 1 0.927,-7.06 21.58,21.58 0 0 1 2.613,-5.831 22.557,22.557 0 0 1 7.611,-7.243 28.357,28.357 0 0 1 2.57,-1.351 31.7,31.7 0 0 1 7.549,-2.354 Q 278.856,0 283.35,0 a 47.806,47.806 0 0 1 5.841,0.337 q 2.984,0.368 5.508,1.138 a 24.447,24.447 0 0 1 2.518,0.918 23.969,23.969 0 0 1 6.554,4.119 21.934,21.934 0 0 1 2.528,2.668 l 2.49,-7.666 h 13.428 v 25.195 h -18.604 a 17.566,17.566 0 0 0 -1.776,-4.57 13.985,13.985 0 0 0 -3.863,-4.365 15.949,15.949 0 0 0 -9.444,-3.122 19.611,19.611 0 0 0 -0.346,-0.003 q -3.955,0 -6.299,1.489 a 5.027,5.027 0 0 0 -1.633,1.619 q -0.599,0.98 -0.693,2.26 a 6.659,6.659 0 0 0 -0.018,0.491 4.75,4.75 0 0 0 0.418,2.023 q 0.473,1.019 1.481,1.755 a 6.171,6.171 0 0 0 0.494,0.324 q 1.823,1.079 4.553,1.846 a 33.528,33.528 0 0 0 1.794,0.449 309.833,309.833 0 0 0 4.151,0.891 402.664,402.664 0 0 0 4.541,0.915 72.907,72.907 0 0 1 9.472,2.539 q 4.737,1.612 8.692,4.517 a 20.291,20.291 0 0 1 5.395,5.994 24.491,24.491 0 0 1 0.952,1.745 21.07,21.07 0 0 1 1.636,4.725 q 0.52,2.307 0.683,5.002 a 41.994,41.994 0 0 1 0.074,2.529 28.111,28.111 0 0 1 -1.079,7.996 21.211,21.211 0 0 1 -6.636,10.266 25.792,25.792 0 0 1 -9.851,5.181 q -3.806,1.095 -8.337,1.368 a 51.46,51.46 0 0 1 -3.101,0.091 57.504,57.504 0 0 1 -6.379,-0.332 q -5.122,-0.573 -8.953,-2.133 a 29.212,29.212 0 0 1 -5.14,-2.682 22.285,22.285 0 0 1 -4.528,-3.935 z m -62.402,7.666 H 168.262 V 62.403 h 7.812 V 18.36 h -7.812 V 1.514 h 44.873 q 14.551,0 22.363,5.444 a 17.561,17.561 0 0 1 7.622,12.785 25.303,25.303 0 0 1 0.191,3.158 q 0,6.787 -3.37,11.279 a 17.951,17.951 0 0 1 -8.028,6 22.184,22.184 0 0 1 -1.102,0.396 16.213,16.213 0 0 1 3.224,1.444 11.289,11.289 0 0 1 3.587,3.293 12.846,12.846 0 0 1 2.001,4.839 17.305,17.305 0 0 1 0.318,3.022 l 0.098,4.053 a 10.774,10.774 0 0 0 0.142,1.422 q 0.125,0.727 0.354,1.313 a 4.272,4.272 0 0 0 0.652,1.147 q 0.805,0.993 2.489,1.224 a 8.111,8.111 0 0 0 1.099,0.07 h 5.176 v 16.845 h -16.992 a 31.936,31.936 0 0 1 -5.078,-0.375 q -2.609,-0.422 -4.687,-1.315 a 13.251,13.251 0 0 1 -4.029,-2.631 Q 214.697,70.606 214.6,62.256 l -0.098,-6.494 q -0.126,-6.698 -5.348,-7.654 a 10.448,10.448 0 0 0 -1.879,-0.158 h -6.396 v 14.453 h 6.592 z m -175.293,0 H 0 V 62.403 H 7.08 L 21.68,18.36 H 11.182 V 1.514 h 48.242 l 18.262,60.889 h 7.08 V 79.248 H 40.967 V 62.403 h 8.056 L 46.777,53.858 H 26.66 l -2.539,8.545 h 8.057 z m 103.515,0 H 88.916 V 62.403 h 7.813 V 18.36 H 88.916 V 1.514 h 41.943 a 65.748,65.748 0 0 1 8.763,0.544 q 4.473,0.604 8.1,1.875 a 25.787,25.787 0 0 1 7.161,3.758 19.928,19.928 0 0 1 7.533,12.377 30.874,30.874 0 0 1 0.572,6.104 27.945,27.945 0 0 1 -0.93,7.43 19.449,19.449 0 0 1 -7.126,10.612 26.243,26.243 0 0 1 -7.779,3.968 q -3.653,1.198 -8.117,1.732 a 64.898,64.898 0 0 1 -7.688,0.428 h -9.815 v 12.061 h 14.16 z M 37.354,17.92 30.273,41.651 h 13.282 z m 171.093,-0.049 h -7.568 v 16.504 h 7.568 a 15.502,15.502 0 0 0 3.538,-0.367 q 4.802,-1.13 5.654,-5.737 a 11.826,11.826 0 0 0 0.183,-2.148 10.38,10.38 0 0 0 -0.515,-3.414 q -1.682,-4.838 -8.86,-4.838 z m -80.42,0 h -6.494 V 35.45 h 6.006 q 3.12,0 5.263,-0.824 a 7.651,7.651 0 0 0 2.208,-1.276 6.47,6.47 0 0 0 1.941,-2.927 q 0.549,-1.607 0.549,-3.763 0,-2.867 -0.924,-4.755 a 6.046,6.046 0 0 0 -1.493,-1.958 7.755,7.755 0 0 0 -2.647,-1.455 q -1.872,-0.621 -4.409,-0.621 z"
       vector-effect="non-scaling-stroke"
       id="path1-4"
       style="fill:none" />
  </g>
</svg>
