<?xml version="1.0" encoding="UTF-8" standalone="no"?>
<svg
   width="263mm"
   height="193mm"
   viewBox="0 0 263 193"
   version="1.1"
   preserveAspectRatio="xMidYMid meet"
   id="svg1"
   sodipodi:docname="box-ultimo-tracker-hsjcomm.svg"
   inkscape:version="1.3.2 (091e20e, 2023-11-25)"
   xmlns:inkscape="http://www.inkscape.org/namespaces/inkscape"
   xmlns:sodipodi="http://sodipodi.sourceforge.net/DTD/sodipodi-0.dtd"
   xmlns="http://www.w3.org/2000/svg"
   xmlns:svg="http://www.w3.org/2000/svg">
  <defs
     id="defs1" />
  <sodipodi:namedview
     id="namedview1"
     pagecolor="#ffffff"
     bordercolor="#000000"
     borderopacity="0.25"
     inkscape:showpageshadow="2"
     inkscape:pageopacity="0.0"
     inkscape:pagecheckerboard="0"
     inkscape:deskcolor="#d1d1d1"
     inkscape:document-units="mm"
     showgrid="true"
     inkscape:zoom="3.1908533"
     inkscape:cx="144.47546"
     inkscape:cy="259.96181"
     inkscape:window-width="1088"
     inkscape:window-height="1920"
     inkscape:window-x="0"
     inkscape:window-y="0"
     inkscape:window-maximized="0"
     inkscape:current-layer="svg1">
    <inkscape:grid
       id="grid1"
       units="mm"
       originx="0"
       originy="0"
       spacingx="1"
       spacingy="1"
       empcolor="#0099e5"
       empopacity="0.30196078"
       color="#0099e5"
       opacity="0.14901961"
       empspacing="5"
       dotted="false"
       gridanglex="30"
       gridanglez="30"
       visible="true" />
  </sodipodi:namedview>
  <path
     style="font-size:12px;fill:none;fill-rule:evenodd;stroke:#000000;stroke-width:0.1;stroke-linecap:round"
     d="m 0,157 v 9 h 3 v 7.375 h 3.95 v -1.25 H 9.6 v 1.25 h 2.65 v 3.25 H 9.6 v 1.25 H 6.95 v -1.25 H 3 V 184 H 0 v 9 h 20.25 v -3 h 18.625 v -3.95 h -1.25 v -2.65 h 1.25 v -2.65 h 3.25 v 2.65 h 1.25 v 2.65 h -1.25 V 190 H 60.75 v 3 H 81 v -9 h -3 v -7.375 h -3.95 v 1.25 H 71.4 v -1.25 h -2.65 v -3.25 h 2.65 v -1.25 h 2.65 v 1.25 H 78 V 166 h 3 v -9 H 60.75 v 3 H 42.125 v 3.95 h 1.25 v 2.65 h -1.25 v 2.65 h -3.25 v -2.65 h -1.25 v -2.65 h 1.25 V 160 H 20.25 v -3 z"
     id="front_outsideCutPath" />
  <path
     style="font-size:12px;fill:none;fill-rule:evenodd;stroke:#000000;stroke-width:0.1;stroke-linecap:round"
     d="m 87,157 v 9 h -3 v 7.375 h 3.25 V 175 176.625 H 84 V 184 h 3 v 9 h 20.75 v -3 h 22.125 v -3.95 h -1.25 v -2.65 h 1.25 v -2.65 h 3.25 v 2.65 h 1.25 v 2.65 h -1.25 V 190 h 22.125 v 3 H 176 v -9 h 3 v -7.375 h -3.25 V 175 173.375 H 179 V 166 h -3 v -9 h -20.75 v 3 h -22.125 v 3.95 h 1.25 v 2.65 h -1.25 v 2.65 h -3.25 v -2.65 h -1.25 v -2.65 h 1.25 V 160 H 107.75 v -3 z"
     id="left_outsideCutPath" />
  <path
     style="font-size:12px;fill:none;fill-rule:evenodd;stroke:#000000;stroke-width:0.1;stroke-linecap:round"
     d="m 185,101 v 20.75 h -3 v 22.125 h 3.25 v 1.625 1.625 H 182 v 22.125 h 3 V 190 h 17.25 v 3 h 18.625 v -3.25 h 1.625 1.625 V 193 h 18.625 v -3 H 260 v -20.75 h 3 v -22.125 h -3.25 V 145.5 143.875 H 263 V 121.75 h -3 V 101 h -17.25 v -3 h -18.625 v 3.25 H 222.5 220.875 V 98 H 202.25 v 3 z"
     id="top_outsideCutPath" />
  <path
     style="font-size:12px;fill:none;fill-rule:evenodd;stroke:#000000;stroke-width:0.1;stroke-linecap:round"
     d="m 0,118 v 9 h 3 v 7.375 h 3.95 v -1.25 H 9.6 v 1.25 h 2.65 v 3.25 H 9.6 v 1.25 H 6.95 v -1.25 H 3 V 145 H 0 v 9 h 20.25 v -3 h 18.625 v -3.95 h -1.25 v -2.65 h 1.25 v -2.65 h 3.25 v 2.65 h 1.25 v 2.65 h -1.25 V 151 H 60.75 v 3 H 81 v -9 h -3 v -7.375 h -3.95 v 1.25 H 71.4 v -1.25 h -2.65 v -3.25 h 2.65 v -1.25 h 2.65 v 1.25 H 78 V 127 h 3 v -9 H 60.75 v 3 H 42.125 v 3.95 h 1.25 v 2.65 h -1.25 v 2.65 h -3.25 v -2.65 h -1.25 v -2.65 h 1.25 V 121 H 20.25 v -3 z"
     id="back_outsideCutPath" />
  <path
     style="font-size:12px;fill:none;fill-rule:evenodd;stroke:#000000;stroke-width:0.1;stroke-linecap:round"
     d="m 83.9,33.173567 v 9 h -3 v 7.375 h -3.95 v -1.25 H 74.3 v 1.25 h -2.65 v 3.25 h 2.65 v 1.25 h 2.65 v -1.25 h 3.95 v 7.375 h 3 v 9 H 63.65 v -3 H 45.025 v -3.95 h 1.25 v -2.65 h -1.25 v -2.65 h -3.25 v 2.65 h -1.25 v 2.65 h 1.25 v 3.95 H 23.15 v 3 H 2.9 v -9 h 3 v -7.375 h 3.95 v 1.25 h 2.65 v -1.25 h 2.65 v -3.25 H 12.5 v -1.25 H 9.85 v 1.25 H 5.9 v -7.375 h -3 v -9 h 20.25 v 3 h 18.625 v 3.95 h -1.25 v 2.65 h 1.25 v 2.65 h 3.25 v -2.65 h 1.25 v -2.65 h -1.25 v -3.95 H 63.65 v -3 z"
     id="back_outsideCutPath-8" />
  <path
     style="font-size:12px;fill:none;fill-rule:evenodd;stroke:#000000;stroke-width:0.1;stroke-linecap:round"
     d="m 87,118 v 9 h -3 v 7.375 h 3.25 V 136 137.625 H 84 V 145 h 3 v 9 h 20.75 v -3 h 22.125 v -3.95 h -1.25 v -2.65 h 1.25 v -2.65 h 3.25 v 2.65 h 1.25 v 2.65 h -1.25 V 151 h 22.125 v 3 H 176 v -9 h 3 v -7.375 h -3.25 V 136 134.375 H 179 V 127 h -3 v -9 h -20.75 v 3 h -22.125 v 3.95 h 1.25 v 2.65 h -1.25 v 2.65 h -3.25 v -2.65 h -1.25 v -2.65 h 1.25 V 121 H 107.75 v -3 z"
     id="right_outsideCutPath" />
  <path
     style="font-size:12px;fill:none;fill-rule:evenodd;stroke:#000000;stroke-width:0.1;stroke-linecap:round"
     d="m 185,3 v 20.75 h -3 v 22.125 h 3.25 V 47.5 49.125 H 182 V 71.25 h 3 V 92 h 17.25 v 3 h 18.625 v -3.25 h 1.625 1.625 V 95 H 242.75 V 92 H 260 V 71.25 h 3 V 49.125 h -3.25 V 47.5 45.875 H 263 V 23.75 h -3 V 3 H 242.75 V 0 H 224.125 V 3.25 H 222.5 220.875 V 0 H 202.25 v 3 z"
     id="bottom_outsideCutPath" />
  <rect
     style="fill:none;fill-rule:evenodd;stroke:#ff00ff;stroke-width:0.1;paint-order:fill markers stroke"
     id="rect1-0"
     width="14"
     height="8"
     x="-29.887501"
     y="56.153999"
     ry="1.4305826e-14"
     transform="scale(-1,1)" />
  <ellipse
     style="fill:none;fill-rule:evenodd;stroke:#ff00ff;stroke-width:0.13049;paint-order:fill markers stroke"
     id="path2"
     cx="-18.708"
     cy="-45.223568"
     rx="2.9347546"
     ry="2.9347548"
     transform="scale(-1)" />
  <ellipse
     style="fill:none;fill-rule:evenodd;stroke:#ff00ff;stroke-width:0.13049;paint-order:fill markers stroke"
     id="path2-4"
     cx="-31.808002"
     cy="-45.223568"
     rx="2.9347546"
     ry="2.9347548"
     transform="scale(-1)" />
  <ellipse
     style="fill:none;fill-rule:evenodd;stroke:#ff00ff;stroke-width:0.13049;paint-order:fill markers stroke"
     id="path2-4-4"
     cx="-54.899124"
     cy="-45.223568"
     rx="2.9347546"
     ry="2.9347548"
     transform="scale(-1)" />
</svg>
