<svg width="263mm" height="193mm" viewBox="0 0 263 193" xmlns="http://www.w3.org/2000/svg" version="1.1" preserveAspectRatio="xMidYMid meet"><g id="svgGroup" stroke-linecap="round" fill-rule="evenodd" font-size="9pt" stroke="#000" stroke-width="0.25mm" fill="none" style="stroke:#000;stroke-width:0.25mm;fill:none"><path d="M 0 157 L 0 166 L 3 166 L 3 173.375 L 6.95 173.375 L 6.95 172.125 L 9.6 172.125 L 9.6 173.375 L 12.25 173.375 L 12.25 176.625 L 9.6 176.625 L 9.6 177.875 L 6.95 177.875 L 6.95 176.625 L 3 176.625 L 3 184 L 0 184 L 0 193 L 20.25 193 L 20.25 190 L 38.875 190 L 38.875 186.05 L 37.625 186.05 L 37.625 183.4 L 38.875 183.4 L 38.875 180.75 L 42.125 180.75 L 42.125 183.4 L 43.375 183.4 L 43.375 186.05 L 42.125 186.05 L 42.125 190 L 60.75 190 L 60.75 193 L 81 193 L 81 184 L 78 184 L 78 176.625 L 74.05 176.625 L 74.05 177.875 L 71.4 177.875 L 71.4 176.625 L 68.75 176.625 L 68.75 173.375 L 71.4 173.375 L 71.4 172.125 L 74.05 172.125 L 74.05 173.375 L 78 173.375 L 78 166 L 81 166 L 81 157 L 60.75 157 L 60.75 160 L 42.125 160 L 42.125 163.95 L 43.375 163.95 L 43.375 166.6 L 42.125 166.6 L 42.125 169.25 L 38.875 169.25 L 38.875 166.6 L 37.625 166.6 L 37.625 163.95 L 38.875 163.95 L 38.875 160 L 20.25 160 L 20.25 157 L 0 157 Z" id="front_outsideCutPath" stroke="#000000" stroke-width="0.1" style="stroke:#000000;stroke-width:0.1" vector-effect="non-scaling-stroke"/><path d="M 87 157 L 87 166 L 84 166 L 84 173.375 L 87.25 173.375 L 87.25 175 L 87.25 176.625 L 84 176.625 L 84 184 L 87 184 L 87 193 L 107.75 193 L 107.75 190 L 129.875 190 L 129.875 186.05 L 128.625 186.05 L 128.625 183.4 L 129.875 183.4 L 129.875 180.75 L 133.125 180.75 L 133.125 183.4 L 134.375 183.4 L 134.375 186.05 L 133.125 186.05 L 133.125 190 L 155.25 190 L 155.25 193 L 176 193 L 176 184 L 179 184 L 179 176.625 L 175.75 176.625 L 175.75 175 L 175.75 173.375 L 179 173.375 L 179 166 L 176 166 L 176 157 L 155.25 157 L 155.25 160 L 133.125 160 L 133.125 163.95 L 134.375 163.95 L 134.375 166.6 L 133.125 166.6 L 133.125 169.25 L 129.875 169.25 L 129.875 166.6 L 128.625 166.6 L 128.625 163.95 L 129.875 163.95 L 129.875 160 L 107.75 160 L 107.75 157 L 87 157 Z" id="left_outsideCutPath" stroke="#000000" stroke-width="0.1" style="stroke:#000000;stroke-width:0.1" vector-effect="non-scaling-stroke"/><path d="M 185 101 L 185 121.75 L 182 121.75 L 182 143.875 L 185.25 143.875 L 185.25 145.5 L 185.25 147.125 L 182 147.125 L 182 169.25 L 185 169.25 L 185 190 L 202.25 190 L 202.25 193 L 220.875 193 L 220.875 189.75 L 222.5 189.75 L 224.125 189.75 L 224.125 193 L 242.75 193 L 242.75 190 L 260 190 L 260 169.25 L 263 169.25 L 263 147.125 L 259.75 147.125 L 259.75 145.5 L 259.75 143.875 L 263 143.875 L 263 121.75 L 260 121.75 L 260 101 L 242.75 101 L 242.75 98 L 224.125 98 L 224.125 101.25 L 222.5 101.25 L 220.875 101.25 L 220.875 98 L 202.25 98 L 202.25 101 L 185 101 Z" id="top_outsideCutPath" stroke="#000000" stroke-width="0.1" style="stroke:#000000;stroke-width:0.1" vector-effect="non-scaling-stroke"/><path d="M 0 118 L 0 127 L 3 127 L 3 134.375 L 6.95 134.375 L 6.95 133.125 L 9.6 133.125 L 9.6 134.375 L 12.25 134.375 L 12.25 137.625 L 9.6 137.625 L 9.6 138.875 L 6.95 138.875 L 6.95 137.625 L 3 137.625 L 3 145 L 0 145 L 0 154 L 20.25 154 L 20.25 151 L 38.875 151 L 38.875 147.05 L 37.625 147.05 L 37.625 144.4 L 38.875 144.4 L 38.875 141.75 L 42.125 141.75 L 42.125 144.4 L 43.375 144.4 L 43.375 147.05 L 42.125 147.05 L 42.125 151 L 60.75 151 L 60.75 154 L 81 154 L 81 145 L 78 145 L 78 137.625 L 74.05 137.625 L 74.05 138.875 L 71.4 138.875 L 71.4 137.625 L 68.75 137.625 L 68.75 134.375 L 71.4 134.375 L 71.4 133.125 L 74.05 133.125 L 74.05 134.375 L 78 134.375 L 78 127 L 81 127 L 81 118 L 60.75 118 L 60.75 121 L 42.125 121 L 42.125 124.95 L 43.375 124.95 L 43.375 127.6 L 42.125 127.6 L 42.125 130.25 L 38.875 130.25 L 38.875 127.6 L 37.625 127.6 L 37.625 124.95 L 38.875 124.95 L 38.875 121 L 20.25 121 L 20.25 118 L 0 118 Z" id="back_outsideCutPath" stroke="#000000" stroke-width="0.1" style="stroke:#000000;stroke-width:0.1" vector-effect="non-scaling-stroke"/><path d="M 87 118 L 87 127 L 84 127 L 84 134.375 L 87.25 134.375 L 87.25 136 L 87.25 137.625 L 84 137.625 L 84 145 L 87 145 L 87 154 L 107.75 154 L 107.75 151 L 129.875 151 L 129.875 147.05 L 128.625 147.05 L 128.625 144.4 L 129.875 144.4 L 129.875 141.75 L 133.125 141.75 L 133.125 144.4 L 134.375 144.4 L 134.375 147.05 L 133.125 147.05 L 133.125 151 L 155.25 151 L 155.25 154 L 176 154 L 176 145 L 179 145 L 179 137.625 L 175.75 137.625 L 175.75 136 L 175.75 134.375 L 179 134.375 L 179 127 L 176 127 L 176 118 L 155.25 118 L 155.25 121 L 133.125 121 L 133.125 124.95 L 134.375 124.95 L 134.375 127.6 L 133.125 127.6 L 133.125 130.25 L 129.875 130.25 L 129.875 127.6 L 128.625 127.6 L 128.625 124.95 L 129.875 124.95 L 129.875 121 L 107.75 121 L 107.75 118 L 87 118 Z" id="right_outsideCutPath" stroke="#000000" stroke-width="0.1" style="stroke:#000000;stroke-width:0.1" vector-effect="non-scaling-stroke"/><path d="M 185 3 L 185 23.75 L 182 23.75 L 182 45.875 L 185.25 45.875 L 185.25 47.5 L 185.25 49.125 L 182 49.125 L 182 71.25 L 185 71.25 L 185 92 L 202.25 92 L 202.25 95 L 220.875 95 L 220.875 91.75 L 222.5 91.75 L 224.125 91.75 L 224.125 95 L 242.75 95 L 242.75 92 L 260 92 L 260 71.25 L 263 71.25 L 263 49.125 L 259.75 49.125 L 259.75 47.5 L 259.75 45.875 L 263 45.875 L 263 23.75 L 260 23.75 L 260 3 L 242.75 3 L 242.75 0 L 224.125 0 L 224.125 3.25 L 222.5 3.25 L 220.875 3.25 L 220.875 0 L 202.25 0 L 202.25 3 L 185 3 Z" id="bottom_outsideCutPath" stroke="#000000" stroke-width="0.1" style="stroke:#000000;stroke-width:0.1" vector-effect="non-scaling-stroke"/></g></svg>