<?xml version="1.0" encoding="UTF-8" standalone="no"?>
<svg
   width="263mm"
   height="193mm"
   viewBox="0 0 263 193"
   version="1.1"
   preserveAspectRatio="xMidYMid meet"
   id="svg1"
   sodipodi:docname="box-ultimo-tracker-hsjcomm.svg"
   inkscape:version="1.3.2 (091e20e, 2023-11-25)"
   xmlns:inkscape="http://www.inkscape.org/namespaces/inkscape"
   xmlns:sodipodi="http://sodipodi.sourceforge.net/DTD/sodipodi-0.dtd"
   xmlns="http://www.w3.org/2000/svg"
   xmlns:svg="http://www.w3.org/2000/svg">
  <defs
     id="defs1" />
  <sodipodi:namedview
     id="namedview1"
     pagecolor="#ffffff"
     bordercolor="#000000"
     borderopacity="0.25"
     inkscape:showpageshadow="2"
     inkscape:pageopacity="0.0"
     inkscape:pagecheckerboard="0"
     inkscape:deskcolor="#d1d1d1"
     inkscape:document-units="mm"
     showgrid="true"
     inkscape:zoom="0.71140948"
     inkscape:cx="384.44807"
     inkscape:cy="458.24523"
     inkscape:window-width="1088"
     inkscape:window-height="1811"
     inkscape:window-x="0"
     inkscape:window-y="25"
     inkscape:window-maximized="0"
     inkscape:current-layer="svg1">
    <inkscape:grid
       id="grid1"
       units="mm"
       originx="0"
       originy="0"
       spacingx="1"
       spacingy="1"
       empcolor="#0099e5"
       empopacity="0.30196078"
       color="#0099e5"
       opacity="0.14901961"
       empspacing="5"
       dotted="false"
       gridanglex="30"
       gridanglez="30"
       visible="true" />
  </sodipodi:namedview>
  <path
     style="font-size:12px;fill:none;fill-rule:evenodd;stroke:#000000;stroke-width:0.1;stroke-linecap:round"
     d="m 87,157 v 9 h -3 v 7.375 h 3.25 V 175 176.625 H 84 V 184 h 3 v 9 h 20.75 v -3 h 22.125 v -3.95 h -1.25 v -2.65 h 1.25 v -2.65 h 3.25 v 2.65 h 1.25 v 2.65 h -1.25 V 190 h 22.125 v 3 H 176 v -9 h 3 v -7.375 h -3.25 V 175 173.375 H 179 V 166 h -3 v -9 h -20.75 v 3 h -22.125 v 3.95 h 1.25 v 2.65 h -1.25 v 2.65 h -3.25 v -2.65 h -1.25 v -2.65 h 1.25 V 160 H 107.75 v -3 z"
     id="left_outsideCutPath" />
  <path
     style="font-size:12px;fill:none;fill-rule:evenodd;stroke:#000000;stroke-width:0.1;stroke-linecap:round"
     d="m 96.375,14.999999 v 20.75 h -3 v 22.125 h 3.25 v 1.625 1.625 h -3.25 v 22.125 h 3 V 104 h 17.25 v 3 h 18.625 v -3.25 h 1.625 1.625 V 107 h 18.625 v -3 h 17.25 V 83.249999 h 3 v -22.125 h -3.25 v -1.625 -1.625 h 3.25 v -22.125 h -3 v -20.75 h -17.25 v -3 H 135.5 v 3.25 h -1.625 -1.625 v -3.25 h -18.625 v 3 z"
     id="top_outsideCutPath" />
  <path
     style="font-size:12px;fill:none;fill-rule:evenodd;stroke:#000000;stroke-width:0.1;stroke-linecap:round"
     d="m 82.65,112.39022 v 9 h -3 v 7.375 H 75.7 v -1.25 h -2.65 v 1.25 H 70.4 v 3.25 h 2.65 v 1.25 h 2.65 v -1.25 h 3.95 v 7.375 h 3 v 9 H 62.4 v -3 H 43.775 v -3.95 h 1.25 v -2.65 h -1.25 v -2.65 h -3.25 v 2.65 h -1.25 v 2.65 h 1.25 v 3.95 H 21.9 v 3 H 1.65 v -9 h 3 v -7.375 H 8.6 v 1.25 h 2.65 v -1.25 h 2.65 v -3.25 h -2.65 v -1.25 H 8.6 v 1.25 H 4.65 v -7.375 h -3 v -9 H 21.9 v 3 h 18.625 v 3.95 h -1.25 v 2.65 h 1.25 v 2.65 h 3.25 v -2.65 h 1.25 v -2.65 h -1.25 v -3.95 H 62.4 v -3 z"
     id="back_outsideCutPath-8" />
  <path
     style="font-size:12px;fill:none;fill-rule:evenodd;stroke:#000000;stroke-width:0.1;stroke-linecap:round"
     d="m 87,118 v 9 h -3 v 7.375 h 3.25 V 136 137.625 H 84 V 145 h 3 v 9 h 20.75 v -3 h 22.125 v -3.95 h -1.25 v -2.65 h 1.25 v -2.65 h 3.25 v 2.65 h 1.25 v 2.65 h -1.25 V 151 h 22.125 v 3 H 176 v -9 h 3 v -7.375 h -3.25 V 136 134.375 H 179 V 127 h -3 v -9 h -20.75 v 3 h -22.125 v 3.95 h 1.25 v 2.65 h -1.25 v 2.65 h -3.25 v -2.65 h -1.25 v -2.65 h 1.25 V 121 H 107.75 v -3 z"
     id="right_outsideCutPath" />
  <path
     style="font-size:12px;fill:none;fill-rule:evenodd;stroke:#000000;stroke-width:0.1;stroke-linecap:round"
     d="m 8,13.187498 v 20.75 H 5 v 22.125 h 3.25 v 1.625 1.625 H 5 v 22.125 H 8 V 102.1875 h 17.25 v 3 h 18.625 v -3.25 h 1.625 1.625 v 3.25 H 65.75 v -3 H 83 V 81.437498 h 3 v -22.125 h -3.25 v -1.625 -1.625 H 86 v -22.125 h -3 v -20.75 H 65.75 v -3 H 47.125 v 3.25 H 45.5 43.875 v -3.25 H 25.25 v 3 z"
     id="bottom_outsideCutPath" />
  <ellipse
     style="fill:none;fill-rule:evenodd;stroke:#ff00ff;stroke-width:0.13049;paint-order:fill markers stroke"
     id="path2"
     cx="-17.458"
     cy="-124.44025"
     rx="2.9347546"
     ry="2.9347548"
     transform="scale(-1)" />
  <ellipse
     style="fill:none;fill-rule:evenodd;stroke:#ff00ff;stroke-width:0.13049;paint-order:fill markers stroke"
     id="path2-4"
     cx="-30.558002"
     cy="-124.44025"
     rx="2.9347546"
     ry="2.9347548"
     transform="scale(-1)" />
  <ellipse
     style="fill:none;fill-rule:evenodd;stroke:#ff00ff;stroke-width:0.13049;paint-order:fill markers stroke"
     id="path2-4-4"
     cx="-53.649124"
     cy="-124.44025"
     rx="2.9347546"
     ry="2.9347548"
     transform="scale(-1)" />
  <rect
     style="fill:none;fill-rule:evenodd;stroke:#ff00ff;stroke-width:0.1;paint-order:fill markers stroke"
     id="rect4"
     width="14"
     height="8"
     x="14.637501"
     y="135.37067"
     ry="2.0000005" />
  <path
     style="font-size:12px;fill:none;fill-rule:evenodd;stroke:#000000;stroke-width:0.1;stroke-linecap:round"
     d="m 1.125,155.94165 v 9 h 3 v 7.375 h 3.95 v -1.25 h 2.65 v 1.25 h 2.65 v 3.25 h -2.65 v 1.25 h -2.65 v -1.25 h -3.95 v 7.375 h -3 v 9 h 20.25 v -3 H 40 v -3.95 h -1.25 v -2.65 H 40 v -2.65 h 3.25 v 2.65 h 1.25 v 2.65 h -1.25 v 3.95 h 18.625 v 3 h 20.25 v -9 h -3 v -7.375 h -3.95 v 1.25 h -2.65 v -1.25 h -2.65 v -3.25 h 2.65 v -1.25 h 2.65 v 1.25 h 3.95 v -7.375 h 3 v -9 h -20.25 v 3 H 43.25 v 3.95 h 1.25 v 2.65 h -1.25 v 2.65 H 40 v -2.65 h -1.25 v -2.65 H 40 v -3.95 H 21.375 v -3 z"
     id="back_outsideCutPath-8-8" />
  <rect
     style="fill:none;fill-rule:evenodd;stroke:#ff00ff;stroke-width:0.1;paint-order:fill markers stroke"
     id="rect4-8"
     width="14"
     height="8"
     x="-69.137505"
     y="178.9221"
     ry="2.0000005"
     transform="scale(-1,1)" />
</svg>
