<svg width="194mm" height="155mm" viewBox="0 0 194 155" xmlns="http://www.w3.org/2000/svg" version="1.1" preserveAspectRatio="xMidYMid meet"><g id="svgGroup" stroke-linecap="round" fill-rule="evenodd" font-size="9pt" stroke="#000" stroke-width="0.25mm" fill="none" style="stroke:#000;stroke-width:0.25mm;fill:none"><path d="M 0 119 L 0 128 L 3 128 L 3 135.375 L 4.95 135.375 L 4.95 134.125 L 7.6 134.125 L 7.6 135.375 L 10.25 135.375 L 10.25 138.625 L 7.6 138.625 L 7.6 139.875 L 4.95 139.875 L 4.95 138.625 L 3 138.625 L 3 146 L 0 146 L 0 155 L 14 155 L 14 152 L 26.375 152 L 26.375 150.05 L 25.125 150.05 L 25.125 147.4 L 26.375 147.4 L 26.375 144.75 L 29.625 144.75 L 29.625 147.4 L 30.875 147.4 L 30.875 150.05 L 29.625 150.05 L 29.625 152 L 42 152 L 42 155 L 56 155 L 56 146 L 53 146 L 53 138.625 L 51.05 138.625 L 51.05 139.875 L 48.4 139.875 L 48.4 138.625 L 45.75 138.625 L 45.75 135.375 L 48.4 135.375 L 48.4 134.125 L 51.05 134.125 L 51.05 135.375 L 53 135.375 L 53 128 L 56 128 L 56 119 L 42 119 L 42 122 L 29.625 122 L 29.625 123.95 L 30.875 123.95 L 30.875 126.6 L 29.625 126.6 L 29.625 129.25 L 26.375 129.25 L 26.375 126.6 L 25.125 126.6 L 25.125 123.95 L 26.375 123.95 L 26.375 122 L 14 122 L 14 119 L 0 119 Z" id="front_outsideCutPath" stroke="#FF0000" stroke-width="0.1" style="stroke:#FF0000;stroke-width:0.1" vector-effect="non-scaling-stroke"/><path d="M 62 119 L 62 128 L 59 128 L 59 135.375 L 62.25 135.375 L 62.25 137 L 62.25 138.625 L 59 138.625 L 59 146 L 62 146 L 62 155 L 78 155 L 78 152 L 95.375 152 L 95.375 150.05 L 94.125 150.05 L 94.125 147.4 L 95.375 147.4 L 95.375 144.75 L 98.625 144.75 L 98.625 147.4 L 99.875 147.4 L 99.875 150.05 L 98.625 150.05 L 98.625 152 L 116 152 L 116 155 L 132 155 L 132 146 L 135 146 L 135 138.625 L 131.75 138.625 L 131.75 137 L 131.75 135.375 L 135 135.375 L 135 128 L 132 128 L 132 119 L 116 119 L 116 122 L 98.625 122 L 98.625 123.95 L 99.875 123.95 L 99.875 126.6 L 98.625 126.6 L 98.625 129.25 L 95.375 129.25 L 95.375 126.6 L 94.125 126.6 L 94.125 123.95 L 95.375 123.95 L 95.375 122 L 78 122 L 78 119 L 62 119 Z" id="left_outsideCutPath" stroke="#FF0000" stroke-width="0.1" style="stroke:#FF0000;stroke-width:0.1" vector-effect="non-scaling-stroke"/><path d="M 141 82 L 141 98 L 138 98 L 138 115.375 L 141.25 115.375 L 141.25 117 L 141.25 118.625 L 138 118.625 L 138 136 L 141 136 L 141 152 L 152 152 L 152 155 L 164.375 155 L 164.375 151.75 L 166 151.75 L 167.625 151.75 L 167.625 155 L 180 155 L 180 152 L 191 152 L 191 136 L 194 136 L 194 118.625 L 190.75 118.625 L 190.75 117 L 190.75 115.375 L 194 115.375 L 194 98 L 191 98 L 191 82 L 180 82 L 180 79 L 167.625 79 L 167.625 82.25 L 166 82.25 L 164.375 82.25 L 164.375 79 L 152 79 L 152 82 L 141 82 Z" id="top_outsideCutPath" stroke="#FF0000" stroke-width="0.1" style="stroke:#FF0000;stroke-width:0.1" vector-effect="non-scaling-stroke"/><path d="M 0 80 L 0 89 L 3 89 L 3 96.375 L 4.95 96.375 L 4.95 95.125 L 7.6 95.125 L 7.6 96.375 L 10.25 96.375 L 10.25 99.625 L 7.6 99.625 L 7.6 100.875 L 4.95 100.875 L 4.95 99.625 L 3 99.625 L 3 107 L 0 107 L 0 116 L 14 116 L 14 113 L 26.375 113 L 26.375 111.05 L 25.125 111.05 L 25.125 108.4 L 26.375 108.4 L 26.375 105.75 L 29.625 105.75 L 29.625 108.4 L 30.875 108.4 L 30.875 111.05 L 29.625 111.05 L 29.625 113 L 42 113 L 42 116 L 56 116 L 56 107 L 53 107 L 53 99.625 L 51.05 99.625 L 51.05 100.875 L 48.4 100.875 L 48.4 99.625 L 45.75 99.625 L 45.75 96.375 L 48.4 96.375 L 48.4 95.125 L 51.05 95.125 L 51.05 96.375 L 53 96.375 L 53 89 L 56 89 L 56 80 L 42 80 L 42 83 L 29.625 83 L 29.625 84.95 L 30.875 84.95 L 30.875 87.6 L 29.625 87.6 L 29.625 90.25 L 26.375 90.25 L 26.375 87.6 L 25.125 87.6 L 25.125 84.95 L 26.375 84.95 L 26.375 83 L 14 83 L 14 80 L 0 80 Z" id="back_outsideCutPath" stroke="#FF0000" stroke-width="0.1" style="stroke:#FF0000;stroke-width:0.1" vector-effect="non-scaling-stroke"/><path d="M 62 80 L 62 89 L 59 89 L 59 96.375 L 62.25 96.375 L 62.25 98 L 62.25 99.625 L 59 99.625 L 59 107 L 62 107 L 62 116 L 78 116 L 78 113 L 95.375 113 L 95.375 111.05 L 94.125 111.05 L 94.125 108.4 L 95.375 108.4 L 95.375 105.75 L 98.625 105.75 L 98.625 108.4 L 99.875 108.4 L 99.875 111.05 L 98.625 111.05 L 98.625 113 L 116 113 L 116 116 L 132 116 L 132 107 L 135 107 L 135 99.625 L 131.75 99.625 L 131.75 98 L 131.75 96.375 L 135 96.375 L 135 89 L 132 89 L 132 80 L 116 80 L 116 83 L 98.625 83 L 98.625 84.95 L 99.875 84.95 L 99.875 87.6 L 98.625 87.6 L 98.625 90.25 L 95.375 90.25 L 95.375 87.6 L 94.125 87.6 L 94.125 84.95 L 95.375 84.95 L 95.375 83 L 78 83 L 78 80 L 62 80 Z" id="right_outsideCutPath" stroke="#FF0000" stroke-width="0.1" style="stroke:#FF0000;stroke-width:0.1" vector-effect="non-scaling-stroke"/><path d="M 141 3 L 141 19 L 138 19 L 138 36.375 L 141.25 36.375 L 141.25 38 L 141.25 39.625 L 138 39.625 L 138 57 L 141 57 L 141 73 L 152 73 L 152 76 L 164.375 76 L 164.375 72.75 L 166 72.75 L 167.625 72.75 L 167.625 76 L 180 76 L 180 73 L 191 73 L 191 57 L 194 57 L 194 39.625 L 190.75 39.625 L 190.75 38 L 190.75 36.375 L 194 36.375 L 194 19 L 191 19 L 191 3 L 180 3 L 180 0 L 167.625 0 L 167.625 3.25 L 166 3.25 L 164.375 3.25 L 164.375 0 L 152 0 L 152 3 L 141 3 Z" id="bottom_outsideCutPath" stroke="#FF0000" stroke-width="0.1" style="stroke:#FF0000;stroke-width:0.1" vector-effect="non-scaling-stroke"/></g></svg>