<svg width="245.5mm" height="210mm" viewBox="0 0 245.5 210" xmlns="http://www.w3.org/2000/svg" version="1.1" preserveAspectRatio="xMidYMid meet"><g id="svgGroup" stroke-linecap="round" fill-rule="evenodd" font-size="9pt" stroke="#000" stroke-width="0.25mm" fill="none" style="stroke:#000;stroke-width:0.25mm;fill:none"><path d="M 0 182 L 0 189 L 3 189 L 3 194.375 L 6.95 194.375 L 6.95 193.125 L 9.6 193.125 L 9.6 194.375 L 12.25 194.375 L 12.25 197.625 L 9.6 197.625 L 9.6 198.875 L 6.95 198.875 L 6.95 197.625 L 3 197.625 L 3 203 L 0 203 L 0 210 L 17 210 L 17 207 L 32.375 207 L 32.375 203.05 L 31.125 203.05 L 31.125 200.4 L 32.375 200.4 L 32.375 197.75 L 35.625 197.75 L 35.625 200.4 L 36.875 200.4 L 36.875 203.05 L 35.625 203.05 L 35.625 207 L 51 207 L 51 210 L 68 210 L 68 203 L 65 203 L 65 197.625 L 61.05 197.625 L 61.05 198.875 L 58.4 198.875 L 58.4 197.625 L 55.75 197.625 L 55.75 194.375 L 58.4 194.375 L 58.4 193.125 L 61.05 193.125 L 61.05 194.375 L 65 194.375 L 65 189 L 68 189 L 68 182 L 51 182 L 51 185 L 35.625 185 L 35.625 188.95 L 36.875 188.95 L 36.875 191.6 L 35.625 191.6 L 35.625 194.25 L 32.375 194.25 L 32.375 191.6 L 31.125 191.6 L 31.125 188.95 L 32.375 188.95 L 32.375 185 L 17 185 L 17 182 L 0 182 Z" id="front_outsideCutPath" stroke="#FF0000" stroke-width="0.1" style="stroke:#FF0000;stroke-width:0.1" vector-effect="non-scaling-stroke"/><path d="M 38.081 198.115 L 37.627 198.115 L 37.627 196.176 Q 37.627 195.943 37.559 195.785 A 0.54 0.54 0 0 0 37.46 195.629 A 0.512 0.512 0 0 0 37.25 195.496 Q 37.168 195.466 37.067 195.456 A 1.203 1.203 0 0 0 36.938 195.449 A 1.374 1.374 0 0 0 36.681 195.471 Q 36.538 195.499 36.428 195.559 A 0.64 0.64 0 0 0 36.249 195.703 A 0.742 0.742 0 0 0 36.12 195.929 Q 36.042 196.136 36.032 196.444 A 2.908 2.908 0 0 0 36.03 196.543 L 36.03 198.115 L 35.576 198.115 L 35.576 195.118 L 35.946 195.118 L 36.019 195.528 L 36.041 195.528 A 0.919 0.919 0 0 1 36.401 195.201 A 1.105 1.105 0 0 1 36.432 195.185 A 1.229 1.229 0 0 1 36.87 195.068 A 1.486 1.486 0 0 1 36.993 195.063 A 1.792 1.792 0 0 1 37.298 195.088 Q 37.617 195.143 37.808 195.325 A 0.787 0.787 0 0 1 37.999 195.625 Q 38.081 195.846 38.081 196.16 L 38.081 198.115 Z M 29.361 195.118 L 29.361 195.471 L 28.598 195.471 L 28.598 198.115 L 28.144 198.115 L 28.144 195.471 L 27.608 195.471 L 27.608 195.266 L 28.144 195.102 L 28.144 194.935 A 1.84 1.84 0 0 1 28.187 194.518 Q 28.32 193.949 28.864 193.851 A 1.38 1.38 0 0 1 29.11 193.83 A 1.462 1.462 0 0 1 29.316 193.846 Q 29.417 193.86 29.529 193.888 A 2.938 2.938 0 0 1 29.667 193.926 L 29.55 194.29 Q 29.363 194.229 29.216 194.212 A 0.976 0.976 0 0 0 29.101 194.205 A 0.612 0.612 0 0 0 28.954 194.222 A 0.393 0.393 0 0 0 28.721 194.376 Q 28.61 194.531 28.599 194.856 A 2.143 2.143 0 0 0 28.598 194.924 L 28.598 195.118 L 29.361 195.118 Z M 40.392 197.74 L 40.392 198.088 Q 40.325 198.12 40.201 198.142 A 1.696 1.696 0 0 1 40.174 198.146 Q 40.04 198.168 39.931 198.17 A 1.165 1.165 0 0 1 39.916 198.17 A 1.186 1.186 0 0 1 39.566 198.123 Q 39.182 198.004 39.082 197.587 A 1.427 1.427 0 0 1 39.046 197.254 L 39.046 195.471 L 38.617 195.471 L 38.617 195.252 L 39.046 195.063 L 39.238 194.424 L 39.5 194.424 L 39.5 195.118 L 40.37 195.118 L 40.37 195.471 L 39.5 195.471 L 39.5 197.235 A 0.914 0.914 0 0 0 39.513 197.395 Q 39.529 197.483 39.564 197.553 A 0.44 0.44 0 0 0 39.629 197.65 A 0.422 0.422 0 0 0 39.888 197.788 A 0.607 0.607 0 0 0 39.981 197.795 A 1.491 1.491 0 0 0 40.2 197.779 A 1.378 1.378 0 0 0 40.214 197.777 A 2.455 2.455 0 0 0 40.279 197.766 Q 40.342 197.754 40.386 197.742 A 0.681 0.681 0 0 0 40.392 197.74 Z M 31.633 195.096 L 31.571 195.517 A 2 2 0 0 0 31.427 195.491 Q 31.327 195.476 31.242 195.476 A 0.786 0.786 0 0 0 30.661 195.727 A 1.076 1.076 0 0 0 30.62 195.772 A 1.037 1.037 0 0 0 30.37 196.354 A 1.378 1.378 0 0 0 30.362 196.507 L 30.362 198.115 L 29.908 198.115 L 29.908 195.118 L 30.283 195.118 L 30.335 195.673 L 30.356 195.673 A 1.533 1.533 0 0 1 30.528 195.428 A 1.171 1.171 0 0 1 30.758 195.222 Q 30.994 195.063 31.275 195.063 A 2.084 2.084 0 0 1 31.462 195.071 A 1.521 1.521 0 0 1 31.633 195.096 Z M 34.412 197.758 A 1.266 1.266 0 0 0 34.562 197.551 Q 34.781 197.177 34.781 196.614 A 2.665 2.665 0 0 0 34.78 196.542 Q 34.762 195.879 34.41 195.482 A 1.188 1.188 0 0 0 33.859 195.126 A 1.525 1.525 0 0 0 33.411 195.063 A 1.763 1.763 0 0 0 33.094 195.091 A 1.201 1.201 0 0 0 32.394 195.472 A 1.254 1.254 0 0 0 32.24 195.686 Q 32.027 196.056 32.027 196.614 A 2.271 2.271 0 0 0 32.056 196.982 A 1.679 1.679 0 0 0 32.197 197.44 A 1.492 1.492 0 0 0 32.23 197.504 A 1.229 1.229 0 0 0 32.678 197.981 A 1.264 1.264 0 0 0 32.968 198.11 A 1.458 1.458 0 0 0 33.392 198.17 A 1.763 1.763 0 0 0 33.699 198.144 A 1.21 1.21 0 0 0 34.412 197.758 Z M 32.497 196.614 A 2.299 2.299 0 0 0 32.519 196.942 Q 32.543 197.109 32.594 197.244 A 0.952 0.952 0 0 0 32.727 197.489 A 0.744 0.744 0 0 0 33.212 197.774 A 1.127 1.127 0 0 0 33.403 197.79 A 1.054 1.054 0 0 0 33.681 197.755 A 0.734 0.734 0 0 0 34.079 197.49 Q 34.251 197.268 34.295 196.891 A 2.391 2.391 0 0 0 34.31 196.614 A 2.265 2.265 0 0 0 34.289 196.291 Q 34.24 195.952 34.079 195.746 A 0.747 0.747 0 0 0 33.615 195.469 A 1.145 1.145 0 0 0 33.397 195.449 A 1.08 1.08 0 0 0 33.128 195.48 A 0.723 0.723 0 0 0 32.724 195.742 A 0.939 0.939 0 0 0 32.579 196.023 Q 32.535 196.153 32.515 196.312 A 2.399 2.399 0 0 0 32.497 196.614 Z" id="front_labelLayer" stroke="#777777" fill="#777777" style="stroke:#777777;fill:#777777" vector-effect="non-scaling-stroke"/><path d="M 74 182 L 74 189 L 71 189 L 71 194.375 L 74.25 194.375 L 74.25 196 L 74.25 197.625 L 71 197.625 L 71 203 L 74 203 L 74 210 L 96.875 210 L 96.875 207 L 121.125 207 L 121.125 203.05 L 119.875 203.05 L 119.875 200.4 L 121.125 200.4 L 121.125 197.75 L 124.375 197.75 L 124.375 200.4 L 125.625 200.4 L 125.625 203.05 L 124.375 203.05 L 124.375 207 L 148.625 207 L 148.625 210 L 171.5 210 L 171.5 203 L 174.5 203 L 174.5 197.625 L 171.25 197.625 L 171.25 196 L 171.25 194.375 L 174.5 194.375 L 174.5 189 L 171.5 189 L 171.5 182 L 148.625 182 L 148.625 185 L 124.375 185 L 124.375 188.95 L 125.625 188.95 L 125.625 191.6 L 124.375 191.6 L 124.375 194.25 L 121.125 194.25 L 121.125 191.6 L 119.875 191.6 L 119.875 188.95 L 121.125 188.95 L 121.125 185 L 96.875 185 L 96.875 182 L 74 182 Z" id="left_outsideCutPath" stroke="#FF0000" stroke-width="0.1" style="stroke:#FF0000;stroke-width:0.1" vector-effect="non-scaling-stroke"/><path d="M 124.742 195.118 L 124.742 195.471 L 123.979 195.471 L 123.979 198.115 L 123.525 198.115 L 123.525 195.471 L 122.989 195.471 L 122.989 195.266 L 123.525 195.102 L 123.525 194.935 A 1.84 1.84 0 0 1 123.568 194.518 Q 123.701 193.949 124.245 193.851 A 1.38 1.38 0 0 1 124.49 193.83 A 1.462 1.462 0 0 1 124.697 193.846 Q 124.798 193.86 124.91 193.888 A 2.938 2.938 0 0 1 125.048 193.926 L 124.931 194.29 Q 124.744 194.229 124.596 194.212 A 0.976 0.976 0 0 0 124.482 194.205 A 0.612 0.612 0 0 0 124.335 194.222 A 0.393 0.393 0 0 0 124.102 194.376 Q 123.991 194.531 123.98 194.856 A 2.143 2.143 0 0 0 123.979 194.924 L 123.979 195.118 L 124.742 195.118 Z M 122.617 196.411 L 122.617 196.699 L 120.553 196.699 A 1.822 1.822 0 0 0 120.585 197.004 Q 120.618 197.17 120.683 197.301 A 0.852 0.852 0 0 0 120.82 197.5 A 0.825 0.825 0 0 0 121.253 197.744 A 1.25 1.25 0 0 0 121.532 197.773 A 2.397 2.397 0 0 0 122.43 197.595 A 2.748 2.748 0 0 0 122.489 197.571 L 122.489 197.976 A 2.725 2.725 0 0 1 122.241 198.069 A 2.084 2.084 0 0 1 122.034 198.125 A 1.905 1.905 0 0 1 121.845 198.154 Q 121.751 198.164 121.646 198.167 A 3.698 3.698 0 0 1 121.515 198.17 Q 120.851 198.17 120.467 197.765 Q 120.105 197.384 120.084 196.723 A 2.593 2.593 0 0 1 120.083 196.641 A 2.383 2.383 0 0 1 120.127 196.168 Q 120.185 195.881 120.32 195.658 A 1.344 1.344 0 0 1 120.439 195.49 A 1.163 1.163 0 0 1 121.287 195.067 A 1.605 1.605 0 0 1 121.398 195.063 A 1.383 1.383 0 0 1 121.787 195.116 A 1.052 1.052 0 0 1 122.289 195.434 Q 122.617 195.804 122.617 196.411 Z M 126.667 197.74 L 126.667 198.088 Q 126.6 198.12 126.477 198.142 A 1.696 1.696 0 0 1 126.45 198.146 Q 126.316 198.168 126.207 198.17 A 1.165 1.165 0 0 1 126.191 198.17 A 1.186 1.186 0 0 1 125.842 198.123 Q 125.458 198.004 125.357 197.587 A 1.427 1.427 0 0 1 125.322 197.254 L 125.322 195.471 L 124.892 195.471 L 124.892 195.252 L 125.322 195.063 L 125.513 194.424 L 125.776 194.424 L 125.776 195.118 L 126.645 195.118 L 126.645 195.471 L 125.776 195.471 L 125.776 197.235 A 0.914 0.914 0 0 0 125.789 197.395 Q 125.805 197.483 125.839 197.553 A 0.44 0.44 0 0 0 125.904 197.65 A 0.422 0.422 0 0 0 126.163 197.788 A 0.607 0.607 0 0 0 126.257 197.795 A 1.491 1.491 0 0 0 126.475 197.779 A 1.378 1.378 0 0 0 126.489 197.777 A 2.455 2.455 0 0 0 126.555 197.766 Q 126.617 197.754 126.661 197.742 A 0.681 0.681 0 0 0 126.667 197.74 Z M 119.287 193.86 L 119.287 198.115 L 118.833 198.115 L 118.833 193.86 L 119.287 193.86 Z M 120.564 196.329 L 122.131 196.329 A 1.547 1.547 0 0 0 122.112 196.081 Q 122.071 195.829 121.939 195.672 A 0.622 0.622 0 0 0 121.565 195.459 A 0.933 0.933 0 0 0 121.392 195.443 A 0.895 0.895 0 0 0 121.134 195.479 A 0.691 0.691 0 0 0 120.817 195.679 A 0.897 0.897 0 0 0 120.639 195.979 Q 120.582 196.135 120.564 196.329 Z" id="left_labelLayer" stroke="#777777" fill="#777777" style="stroke:#777777;fill:#777777" vector-effect="non-scaling-stroke"/><path d="M 180.5 109.5 L 180.5 132.375 L 177.5 132.375 L 177.5 156.625 L 180.75 156.625 L 180.75 158.25 L 180.75 159.875 L 177.5 159.875 L 177.5 184.125 L 180.5 184.125 L 180.5 207 L 194.5 207 L 194.5 210 L 209.875 210 L 209.875 206.75 L 211.5 206.75 L 213.125 206.75 L 213.125 210 L 228.5 210 L 228.5 207 L 242.5 207 L 242.5 184.125 L 245.5 184.125 L 245.5 159.875 L 242.25 159.875 L 242.25 158.25 L 242.25 156.625 L 245.5 156.625 L 245.5 132.375 L 242.5 132.375 L 242.5 109.5 L 228.5 109.5 L 228.5 106.5 L 213.125 106.5 L 213.125 109.75 L 211.5 109.75 L 209.875 109.75 L 209.875 106.5 L 194.5 106.5 L 194.5 109.5 L 180.5 109.5 Z" id="top_outsideCutPath" stroke="#FF0000" stroke-width="0.1" style="stroke:#FF0000;stroke-width:0.1" vector-effect="non-scaling-stroke"/><path d="M 216.387 160.163 L 216.308 160.163 A 10.432 10.432 0 0 1 216.376 160.933 A 8.742 8.742 0 0 1 216.387 161.371 L 216.387 164.366 L 215.285 164.366 L 215.285 153.821 L 216.182 153.821 L 216.334 154.817 L 216.387 154.817 A 2.967 2.967 0 0 1 216.817 154.329 A 2.295 2.295 0 0 1 217.377 153.954 Q 217.941 153.688 218.672 153.688 Q 220.119 153.688 220.906 154.677 Q 221.55 155.486 221.667 156.827 A 7.178 7.178 0 0 1 221.693 157.453 Q 221.693 159.246 220.893 160.239 A 2.61 2.61 0 0 1 219.038 161.214 A 3.739 3.739 0 0 1 218.672 161.232 A 3.344 3.344 0 0 1 217.832 161.129 A 2.909 2.909 0 0 1 217.374 160.969 A 2.441 2.441 0 0 1 216.387 160.162 Z M 205.616 160.189 L 205.616 161.032 Q 205.454 161.11 205.154 161.164 A 4.124 4.124 0 0 1 205.088 161.175 Q 204.763 161.228 204.498 161.231 A 2.827 2.827 0 0 1 204.461 161.232 A 2.879 2.879 0 0 1 203.612 161.117 Q 202.68 160.83 202.436 159.817 A 3.465 3.465 0 0 1 202.349 159.007 L 202.349 154.677 L 201.307 154.677 L 201.307 154.146 L 202.349 153.688 L 202.814 152.134 L 203.452 152.134 L 203.452 153.821 L 205.563 153.821 L 205.563 154.677 L 203.452 154.677 L 203.452 158.961 Q 203.452 159.422 203.606 159.734 A 1.069 1.069 0 0 0 203.764 159.97 A 1.024 1.024 0 0 0 204.393 160.305 A 1.473 1.473 0 0 0 204.62 160.322 A 3.62 3.62 0 0 0 205.151 160.284 A 3.333 3.333 0 0 0 205.185 160.279 A 5.963 5.963 0 0 0 205.344 160.251 Q 205.496 160.223 205.602 160.193 A 1.659 1.659 0 0 0 205.616 160.189 Z M 213.252 158.561 A 5.694 5.694 0 0 0 213.353 157.453 A 6.469 6.469 0 0 0 213.35 157.278 Q 213.334 156.672 213.203 156.158 A 3.433 3.433 0 0 0 212.453 154.704 A 2.886 2.886 0 0 0 211.113 153.84 A 3.704 3.704 0 0 0 210.026 153.688 A 4.281 4.281 0 0 0 209.257 153.754 A 2.916 2.916 0 0 0 207.555 154.681 A 3.045 3.045 0 0 0 207.181 155.199 Q 206.893 155.702 206.766 156.346 A 5.724 5.724 0 0 0 206.666 157.453 A 5.515 5.515 0 0 0 206.735 158.346 A 4.078 4.078 0 0 0 207.077 159.459 A 3.623 3.623 0 0 0 207.158 159.616 A 2.984 2.984 0 0 0 208.246 160.773 A 3.069 3.069 0 0 0 208.951 161.087 A 3.54 3.54 0 0 0 209.979 161.232 A 4.281 4.281 0 0 0 210.727 161.169 A 2.939 2.939 0 0 0 212.456 160.232 A 3.075 3.075 0 0 0 212.822 159.729 Q 213.121 159.218 213.252 158.561 Z M 207.808 157.453 Q 207.808 158.848 208.366 159.578 A 1.807 1.807 0 0 0 209.542 160.271 A 2.738 2.738 0 0 0 210.006 160.309 A 2.56 2.56 0 0 0 210.681 160.225 A 1.782 1.782 0 0 0 211.649 159.581 A 2.366 2.366 0 0 0 212.018 158.864 Q 212.126 158.532 212.174 158.127 A 5.807 5.807 0 0 0 212.21 157.453 A 5.5 5.5 0 0 0 212.158 156.669 Q 212.101 156.27 211.98 155.947 A 2.27 2.27 0 0 0 211.649 155.345 A 1.813 1.813 0 0 0 210.522 154.672 A 2.78 2.78 0 0 0 209.993 154.624 A 2.623 2.623 0 0 0 209.339 154.701 A 1.756 1.756 0 0 0 208.359 155.335 Q 207.808 156.045 207.808 157.453 Z M 216.387 157.207 L 216.387 157.453 Q 216.387 158.756 216.756 159.429 A 1.663 1.663 0 0 0 216.899 159.648 A 1.599 1.599 0 0 0 217.71 160.195 Q 218.072 160.309 218.539 160.309 A 1.857 1.857 0 0 0 219.261 160.173 Q 219.678 159.999 219.975 159.602 A 2.197 2.197 0 0 0 220.017 159.545 A 2.665 2.665 0 0 0 220.382 158.766 Q 220.551 158.194 220.551 157.44 A 5.563 5.563 0 0 0 220.499 156.651 Q 220.441 156.251 220.321 155.926 A 2.337 2.337 0 0 0 220.017 155.351 A 1.715 1.715 0 0 0 218.762 154.637 A 2.372 2.372 0 0 0 218.512 154.624 Q 217.796 154.624 217.335 154.879 A 1.457 1.457 0 0 0 216.899 155.242 A 1.889 1.889 0 0 0 216.603 155.78 Q 216.396 156.344 216.387 157.207 Z" id="top_labelLayer" stroke="#777777" fill="#777777" style="stroke:#777777;fill:#777777" vector-effect="non-scaling-stroke"/><path d="M 0 151 L 0 158 L 3 158 L 3 163.375 L 6.95 163.375 L 6.95 162.125 L 9.6 162.125 L 9.6 163.375 L 12.25 163.375 L 12.25 166.625 L 9.6 166.625 L 9.6 167.875 L 6.95 167.875 L 6.95 166.625 L 3 166.625 L 3 172 L 0 172 L 0 179 L 17 179 L 17 176 L 32.375 176 L 32.375 172.05 L 31.125 172.05 L 31.125 169.4 L 32.375 169.4 L 32.375 166.75 L 35.625 166.75 L 35.625 169.4 L 36.875 169.4 L 36.875 172.05 L 35.625 172.05 L 35.625 176 L 51 176 L 51 179 L 68 179 L 68 172 L 65 172 L 65 166.625 L 61.05 166.625 L 61.05 167.875 L 58.4 167.875 L 58.4 166.625 L 55.75 166.625 L 55.75 163.375 L 58.4 163.375 L 58.4 162.125 L 61.05 162.125 L 61.05 163.375 L 65 163.375 L 65 158 L 68 158 L 68 151 L 51 151 L 51 154 L 35.625 154 L 35.625 157.95 L 36.875 157.95 L 36.875 160.6 L 35.625 160.6 L 35.625 163.25 L 32.375 163.25 L 32.375 160.6 L 31.125 160.6 L 31.125 157.95 L 32.375 157.95 L 32.375 154 L 17 154 L 17 151 L 0 151 Z" id="back_outsideCutPath" stroke="#FF0000" stroke-width="0.1" style="stroke:#FF0000;stroke-width:0.1" vector-effect="non-scaling-stroke"/><path d="M 37.834 165.566 L 37.855 165.566 A 2.687 2.687 0 0 1 37.922 165.476 Q 38.033 165.332 38.214 165.128 L 39.182 164.103 L 39.72 164.103 L 38.506 165.38 L 39.805 167.1 L 39.255 167.1 L 38.197 165.684 L 37.855 165.979 L 37.855 167.1 L 37.407 167.1 L 37.407 162.845 L 37.855 162.845 L 37.855 165.101 Q 37.855 165.249 37.834 165.555 A 18.742 18.742 0 0 1 37.834 165.566 Z M 28.649 166.714 L 28.616 166.714 L 28.52 167.1 L 28.195 167.1 L 28.195 162.845 L 28.649 162.845 L 28.649 163.879 A 9.463 9.463 0 0 1 28.644 164.199 Q 28.638 164.36 28.627 164.502 L 28.649 164.502 Q 28.966 164.054 29.589 164.054 A 1.387 1.387 0 0 1 29.98 164.106 A 1.039 1.039 0 0 1 30.507 164.457 Q 30.768 164.78 30.821 165.318 A 2.913 2.913 0 0 1 30.834 165.599 A 2.661 2.661 0 0 1 30.798 166.047 Q 30.758 166.285 30.67 166.477 A 1.276 1.276 0 0 1 30.504 166.746 A 1.075 1.075 0 0 1 29.74 167.147 A 1.539 1.539 0 0 1 29.589 167.155 Q 29.297 167.155 29.055 167.047 Q 28.813 166.939 28.649 166.714 Z M 33.806 167.1 L 33.47 167.1 L 33.379 166.673 L 33.357 166.673 A 1.882 1.882 0 0 1 33.205 166.844 Q 33.123 166.924 33.041 166.98 A 0.836 0.836 0 0 1 32.91 167.055 A 1.047 1.047 0 0 1 32.694 167.123 Q 32.589 167.145 32.468 167.152 A 2.043 2.043 0 0 1 32.354 167.155 A 1.393 1.393 0 0 1 32.07 167.128 Q 31.897 167.092 31.764 167.008 A 0.782 0.782 0 0 1 31.655 166.925 A 0.746 0.746 0 0 1 31.43 166.531 A 1.142 1.142 0 0 1 31.402 166.271 A 0.785 0.785 0 0 1 31.849 165.53 Q 32.208 165.339 32.854 165.32 L 33.363 165.303 L 33.363 165.118 A 1.304 1.304 0 0 0 33.35 164.929 Q 33.336 164.833 33.306 164.755 A 0.507 0.507 0 0 0 33.211 164.597 Q 33.09 164.462 32.853 164.435 A 1.121 1.121 0 0 0 32.726 164.428 A 1.478 1.478 0 0 0 32.386 164.471 Q 32.148 164.527 31.878 164.658 L 31.739 164.311 A 2.093 2.093 0 0 1 32.143 164.145 A 2.382 2.382 0 0 1 32.224 164.122 A 2.102 2.102 0 0 1 32.753 164.054 A 1.917 1.917 0 0 1 33.045 164.075 Q 33.365 164.124 33.547 164.292 Q 33.806 164.53 33.806 165.055 L 33.806 167.1 Z M 36.74 164.204 L 36.6 164.59 Q 36.45 164.53 36.272 164.49 Q 36.095 164.45 35.958 164.45 Q 35.045 164.45 35.045 165.615 A 2.198 2.198 0 0 0 35.066 165.935 Q 35.114 166.26 35.267 166.463 A 0.721 0.721 0 0 0 35.734 166.742 A 1.098 1.098 0 0 0 35.928 166.758 A 1.9 1.9 0 0 0 36.452 166.682 A 2.346 2.346 0 0 0 36.696 166.597 L 36.696 166.999 Q 36.438 167.133 36.065 167.152 A 2.489 2.489 0 0 1 35.939 167.155 A 1.696 1.696 0 0 1 35.526 167.107 A 1.15 1.15 0 0 1 34.931 166.754 A 1.313 1.313 0 0 1 34.658 166.253 Q 34.574 165.976 34.574 165.621 A 2.504 2.504 0 0 1 34.613 165.165 Q 34.693 164.735 34.937 164.459 A 1.175 1.175 0 0 1 35.58 164.088 A 1.782 1.782 0 0 1 35.969 164.048 A 2.048 2.048 0 0 1 36.401 164.095 A 2.266 2.266 0 0 1 36.527 164.126 Q 36.655 164.161 36.74 164.204 Z M 29.524 164.434 A 1.276 1.276 0 0 0 29.277 164.456 Q 29 164.511 28.854 164.701 Q 28.674 164.935 28.652 165.451 A 3.497 3.497 0 0 0 28.649 165.599 Q 28.649 166.135 28.801 166.412 A 0.685 0.685 0 0 0 28.859 166.503 A 0.658 0.658 0 0 0 29.193 166.728 Q 29.305 166.763 29.441 166.772 A 1.459 1.459 0 0 0 29.535 166.775 Q 29.953 166.775 30.158 166.47 A 1.042 1.042 0 0 0 30.287 166.191 Q 30.328 166.058 30.347 165.898 A 2.601 2.601 0 0 0 30.363 165.593 A 2.682 2.682 0 0 0 30.347 165.288 Q 30.306 164.927 30.158 164.721 A 0.662 0.662 0 0 0 29.737 164.454 A 1.05 1.05 0 0 0 29.524 164.434 Z M 33.352 165.897 L 33.352 165.626 L 32.898 165.645 A 3.333 3.333 0 0 0 32.632 165.665 Q 32.369 165.695 32.205 165.768 A 0.697 0.697 0 0 0 32.117 165.813 Q 31.878 165.962 31.878 166.277 Q 31.878 166.523 32.027 166.652 A 0.494 0.494 0 0 0 32.212 166.75 Q 32.286 166.772 32.373 166.778 A 1.021 1.021 0 0 0 32.444 166.78 A 1.25 1.25 0 0 0 32.714 166.753 Q 32.902 166.711 33.041 166.606 A 0.758 0.758 0 0 0 33.11 166.548 A 0.76 0.76 0 0 0 33.322 166.168 Q 33.351 166.046 33.352 165.901 A 1.462 1.462 0 0 0 33.352 165.897 Z" id="back_labelLayer" stroke="#777777" fill="#777777" style="stroke:#777777;fill:#777777" vector-effect="non-scaling-stroke"/><path d="M 74 151 L 74 158 L 71 158 L 71 163.375 L 74.25 163.375 L 74.25 165 L 74.25 166.625 L 71 166.625 L 71 172 L 74 172 L 74 179 L 96.875 179 L 96.875 176 L 121.125 176 L 121.125 172.05 L 119.875 172.05 L 119.875 169.4 L 121.125 169.4 L 121.125 166.75 L 124.375 166.75 L 124.375 169.4 L 125.625 169.4 L 125.625 172.05 L 124.375 172.05 L 124.375 176 L 148.625 176 L 148.625 179 L 171.5 179 L 171.5 172 L 174.5 172 L 174.5 166.625 L 171.25 166.625 L 171.25 165 L 171.25 163.375 L 174.5 163.375 L 174.5 158 L 171.5 158 L 171.5 151 L 148.625 151 L 148.625 154 L 124.375 154 L 124.375 157.95 L 125.625 157.95 L 125.625 160.6 L 124.375 160.6 L 124.375 163.25 L 121.125 163.25 L 121.125 160.6 L 119.875 160.6 L 119.875 157.95 L 121.125 157.95 L 121.125 154 L 96.875 154 L 96.875 151 L 74 151 Z" id="right_outsideCutPath" stroke="#FF0000" stroke-width="0.1" style="stroke:#FF0000;stroke-width:0.1" vector-effect="non-scaling-stroke"/><path d="M 126.232 166.455 L 125.778 166.455 L 125.778 164.516 Q 125.778 164.282 125.711 164.124 A 0.54 0.54 0 0 0 125.612 163.969 A 0.512 0.512 0 0 0 125.402 163.835 Q 125.319 163.806 125.218 163.795 A 1.203 1.203 0 0 0 125.089 163.789 A 1.374 1.374 0 0 0 124.832 163.811 Q 124.552 163.864 124.399 164.046 A 0.755 0.755 0 0 0 124.271 164.273 Q 124.193 164.481 124.183 164.79 A 2.93 2.93 0 0 0 124.181 164.888 L 124.181 166.455 L 123.728 166.455 L 123.728 162.2 L 124.181 162.2 L 124.181 163.488 A 4.083 4.083 0 0 1 124.179 163.645 Q 124.174 163.775 124.16 163.873 L 124.187 163.873 Q 124.321 163.657 124.568 163.533 A 1.165 1.165 0 0 1 124.951 163.42 A 1.473 1.473 0 0 1 125.133 163.409 A 1.842 1.842 0 0 1 125.442 163.433 Q 125.607 163.461 125.737 163.522 A 0.818 0.818 0 0 1 125.957 163.67 A 0.79 0.79 0 0 1 126.152 163.976 Q 126.232 164.193 126.232 164.5 L 126.232 166.455 Z M 122.076 163.458 L 123.112 163.458 L 123.112 163.745 L 122.557 163.811 A 0.738 0.738 0 0 1 122.621 163.906 Q 122.649 163.955 122.675 164.013 A 1.399 1.399 0 0 1 122.694 164.061 Q 122.754 164.215 122.754 164.409 A 1.041 1.041 0 0 1 122.706 164.732 A 0.842 0.842 0 0 1 122.453 165.112 A 1.007 1.007 0 0 1 122.057 165.321 Q 121.907 165.363 121.729 165.372 A 1.972 1.972 0 0 1 121.628 165.375 A 1.459 1.459 0 0 1 121.459 165.365 A 1.232 1.232 0 0 1 121.376 165.353 A 0.808 0.808 0 0 0 121.246 165.437 Q 121.178 165.491 121.139 165.553 A 0.342 0.342 0 0 0 121.086 165.738 A 0.235 0.235 0 0 0 121.098 165.815 Q 121.12 165.878 121.181 165.916 A 0.252 0.252 0 0 0 121.187 165.92 A 0.318 0.318 0 0 0 121.258 165.949 Q 121.36 165.979 121.535 165.979 L 122.065 165.979 A 1.858 1.858 0 0 1 122.347 165.999 Q 122.495 166.022 122.614 166.07 A 0.82 0.82 0 0 1 122.813 166.184 A 0.664 0.664 0 0 1 123.06 166.607 A 0.997 0.997 0 0 1 123.074 166.78 A 0.983 0.983 0 0 1 123.018 167.12 Q 122.927 167.368 122.69 167.529 A 1.078 1.078 0 0 1 122.675 167.539 Q 122.396 167.721 121.94 167.776 A 3.598 3.598 0 0 1 121.51 167.8 A 2.543 2.543 0 0 1 121.169 167.779 Q 120.996 167.755 120.854 167.706 A 1.055 1.055 0 0 1 120.604 167.581 Q 120.285 167.362 120.285 166.963 Q 120.285 166.69 120.46 166.49 A 0.793 0.793 0 0 1 120.732 166.292 A 1.123 1.123 0 0 1 120.952 166.22 Q 120.837 166.168 120.759 166.058 A 0.421 0.421 0 0 1 120.682 165.831 A 0.521 0.521 0 0 1 120.681 165.804 A 0.519 0.519 0 0 1 120.708 165.637 A 0.46 0.46 0 0 1 120.769 165.517 A 0.65 0.65 0 0 1 120.855 165.42 Q 120.932 165.348 121.045 165.279 A 0.796 0.796 0 0 1 120.699 165.002 A 0.986 0.986 0 0 1 120.666 164.953 A 0.938 0.938 0 0 1 120.522 164.501 A 1.145 1.145 0 0 1 120.52 164.428 A 1.311 1.311 0 0 1 120.555 164.118 A 0.863 0.863 0 0 1 120.815 163.67 A 0.964 0.964 0 0 1 121.185 163.466 Q 121.39 163.403 121.652 163.403 A 1.74 1.74 0 0 1 121.882 163.418 A 1.325 1.325 0 0 1 122.076 163.458 Z M 128.543 166.08 L 128.543 166.427 Q 128.476 166.459 128.352 166.482 A 1.696 1.696 0 0 1 128.325 166.486 Q 128.191 166.508 128.082 166.509 A 1.165 1.165 0 0 1 128.067 166.509 A 1.186 1.186 0 0 1 127.718 166.462 Q 127.334 166.344 127.233 165.927 A 1.427 1.427 0 0 1 127.197 165.593 L 127.197 163.811 L 126.768 163.811 L 126.768 163.592 L 127.197 163.403 L 127.389 162.763 L 127.651 162.763 L 127.651 163.458 L 128.521 163.458 L 128.521 163.811 L 127.651 163.811 L 127.651 165.574 A 0.914 0.914 0 0 0 127.665 165.735 Q 127.68 165.823 127.715 165.893 A 0.44 0.44 0 0 0 127.78 165.99 A 0.422 0.422 0 0 0 128.039 166.128 A 0.607 0.607 0 0 0 128.133 166.135 A 1.491 1.491 0 0 0 128.351 166.119 A 1.378 1.378 0 0 0 128.365 166.117 A 2.455 2.455 0 0 0 128.431 166.106 Q 128.493 166.094 128.537 166.082 A 0.681 0.681 0 0 0 128.543 166.08 Z M 118.683 163.436 L 118.62 163.857 A 2 2 0 0 0 118.476 163.83 Q 118.376 163.816 118.292 163.816 A 0.786 0.786 0 0 0 117.711 164.067 A 1.076 1.076 0 0 0 117.67 164.111 A 1.037 1.037 0 0 0 117.419 164.693 A 1.378 1.378 0 0 0 117.411 164.847 L 117.411 166.455 L 116.957 166.455 L 116.957 163.458 L 117.332 163.458 L 117.384 164.013 L 117.406 164.013 A 1.533 1.533 0 0 1 117.577 163.768 A 1.171 1.171 0 0 1 117.808 163.562 Q 118.043 163.403 118.324 163.403 A 2.084 2.084 0 0 1 118.511 163.411 A 1.521 1.521 0 0 1 118.683 163.436 Z M 119.697 163.458 L 119.697 166.455 L 119.243 166.455 L 119.243 163.458 L 119.697 163.458 Z M 121.92 166.386 L 121.376 166.386 Q 121.067 166.386 120.895 166.534 Q 120.722 166.682 120.722 166.958 A 0.456 0.456 0 0 0 120.753 167.127 Q 120.796 167.236 120.901 167.309 A 0.533 0.533 0 0 0 120.928 167.327 Q 121.133 167.453 121.515 167.453 A 3.051 3.051 0 0 0 121.813 167.439 Q 122.112 167.41 122.3 167.316 A 0.754 0.754 0 0 0 122.362 167.282 Q 122.637 167.111 122.637 166.818 A 0.614 0.614 0 0 0 122.625 166.696 Q 122.611 166.626 122.579 166.574 A 0.286 0.286 0 0 0 122.486 166.481 A 0.431 0.431 0 0 0 122.384 166.436 Q 122.222 166.386 121.92 166.386 Z M 120.969 164.418 A 0.886 0.886 0 0 0 120.987 164.603 Q 121.012 164.719 121.07 164.805 A 0.486 0.486 0 0 0 121.146 164.893 A 0.587 0.587 0 0 0 121.382 165.022 Q 121.497 165.055 121.641 165.055 Q 122.166 165.055 122.276 164.653 A 0.919 0.919 0 0 0 122.306 164.409 A 0.976 0.976 0 0 0 122.272 164.142 Q 122.187 163.842 121.882 163.763 A 0.987 0.987 0 0 0 121.633 163.734 Q 121.313 163.734 121.141 163.906 Q 120.969 164.078 120.969 164.418 Z M 119.205 162.646 Q 119.205 162.49 119.281 162.417 A 0.262 0.262 0 0 1 119.45 162.346 A 0.346 0.346 0 0 1 119.473 162.345 A 0.267 0.267 0 0 1 119.662 162.419 A 0.229 0.229 0 0 1 119.722 162.515 Q 119.734 162.552 119.739 162.597 A 0.519 0.519 0 0 1 119.741 162.646 A 0.47 0.47 0 0 1 119.733 162.732 Q 119.725 162.78 119.705 162.817 A 0.222 0.222 0 0 1 119.662 162.874 A 0.265 0.265 0 0 1 119.473 162.949 Q 119.358 162.949 119.281 162.874 A 0.234 0.234 0 0 1 119.224 162.78 Q 119.212 162.743 119.207 162.697 A 0.536 0.536 0 0 1 119.205 162.646 Z" id="right_labelLayer" stroke="#777777" fill="#777777" style="stroke:#777777;fill:#777777" vector-effect="non-scaling-stroke"/><path d="M 180.5 3 L 180.5 25.875 L 177.5 25.875 L 177.5 50.125 L 180.75 50.125 L 180.75 51.75 L 180.75 53.375 L 177.5 53.375 L 177.5 77.625 L 180.5 77.625 L 180.5 100.5 L 194.5 100.5 L 194.5 103.5 L 209.875 103.5 L 209.875 100.25 L 211.5 100.25 L 213.125 100.25 L 213.125 103.5 L 228.5 103.5 L 228.5 100.5 L 242.5 100.5 L 242.5 77.625 L 245.5 77.625 L 245.5 53.375 L 242.25 53.375 L 242.25 51.75 L 242.25 50.125 L 245.5 50.125 L 245.5 25.875 L 242.5 25.875 L 242.5 3 L 228.5 3 L 228.5 0 L 213.125 0 L 213.125 3.25 L 211.5 3.25 L 209.875 3.25 L 209.875 0 L 194.5 0 L 194.5 3 L 180.5 3 Z" id="bottom_outsideCutPath" stroke="#FF0000" stroke-width="0.1" style="stroke:#FF0000;stroke-width:0.1" vector-effect="non-scaling-stroke"/><path d="M 233.872 56.85 L 232.77 56.85 L 232.77 52.115 A 3.252 3.252 0 0 0 232.737 51.637 Q 232.659 51.116 232.398 50.81 A 1.16 1.16 0 0 0 231.859 50.461 Q 231.667 50.399 231.432 50.382 A 2.559 2.559 0 0 0 231.243 50.375 Q 230.521 50.375 230.063 50.666 A 1.46 1.46 0 0 0 229.722 50.966 A 1.822 1.822 0 0 0 229.413 51.525 Q 229.232 52.033 229.23 52.774 A 6.152 6.152 0 0 0 229.23 52.786 L 229.23 56.85 L 228.128 56.85 L 228.128 52.115 A 3.252 3.252 0 0 0 228.095 51.637 Q 228.018 51.116 227.756 50.81 A 1.156 1.156 0 0 0 227.224 50.465 Q 226.952 50.375 226.594 50.375 A 2.738 2.738 0 0 0 226.028 50.43 Q 225.415 50.56 225.077 50.996 A 1.849 1.849 0 0 0 224.803 51.517 Q 224.595 52.103 224.595 53.031 L 224.595 56.85 L 223.493 56.85 L 223.493 49.572 L 224.389 49.572 L 224.569 50.568 L 224.622 50.568 A 2.166 2.166 0 0 1 225.502 49.738 A 2.617 2.617 0 0 1 226.535 49.448 A 3.161 3.161 0 0 1 226.773 49.439 A 3.609 3.609 0 0 1 227.586 49.523 Q 228.085 49.639 228.434 49.913 A 1.882 1.882 0 0 1 229.005 50.674 L 229.058 50.674 A 2.302 2.302 0 0 1 229.925 49.813 A 2.765 2.765 0 0 1 230.001 49.771 A 2.79 2.79 0 0 1 231.024 49.46 A 3.479 3.479 0 0 1 231.409 49.439 Q 232.644 49.439 233.258 50.073 Q 233.705 50.535 233.827 51.4 A 5.056 5.056 0 0 1 233.872 52.102 L 233.872 56.85 Z M 190.23 55.914 L 190.15 55.914 L 189.918 56.85 L 189.128 56.85 L 189.128 46.517 L 190.23 46.517 L 190.23 49.027 Q 190.23 49.843 190.18 50.498 A 13.75 13.75 0 0 1 190.177 50.541 L 190.23 50.541 A 2.506 2.506 0 0 1 192.059 49.479 A 3.765 3.765 0 0 1 192.514 49.452 Q 193.949 49.452 194.742 50.432 A 3.248 3.248 0 0 1 195.312 51.529 Q 195.452 51.981 195.504 52.522 A 7.076 7.076 0 0 1 195.536 53.204 Q 195.536 54.997 194.736 55.99 A 2.61 2.61 0 0 1 192.881 56.965 A 3.739 3.739 0 0 1 192.514 56.983 A 3.344 3.344 0 0 1 191.674 56.88 A 2.909 2.909 0 0 1 191.216 56.72 A 2.441 2.441 0 0 1 190.23 55.914 Z M 209.023 55.94 L 209.023 56.783 Q 208.861 56.861 208.561 56.915 A 4.124 4.124 0 0 1 208.495 56.926 Q 208.17 56.979 207.905 56.982 A 2.827 2.827 0 0 1 207.868 56.983 A 2.879 2.879 0 0 1 207.019 56.868 Q 206.086 56.581 205.842 55.568 A 3.465 3.465 0 0 1 205.756 54.758 L 205.756 50.428 L 204.713 50.428 L 204.713 49.897 L 205.756 49.439 L 206.221 47.885 L 206.858 47.885 L 206.858 49.572 L 208.97 49.572 L 208.97 50.428 L 206.858 50.428 L 206.858 54.712 Q 206.858 55.173 207.012 55.485 A 1.069 1.069 0 0 0 207.17 55.721 A 1.024 1.024 0 0 0 207.8 56.056 A 1.473 1.473 0 0 0 208.027 56.073 A 3.62 3.62 0 0 0 208.557 56.035 A 3.333 3.333 0 0 0 208.591 56.03 A 5.963 5.963 0 0 0 208.751 56.002 Q 208.903 55.974 209.008 55.944 A 1.659 1.659 0 0 0 209.023 55.94 Z M 213.824 55.94 L 213.824 56.783 Q 213.662 56.861 213.362 56.915 A 4.124 4.124 0 0 1 213.296 56.926 Q 212.971 56.979 212.706 56.982 A 2.827 2.827 0 0 1 212.669 56.983 A 2.879 2.879 0 0 1 211.82 56.868 Q 210.888 56.581 210.644 55.568 A 3.465 3.465 0 0 1 210.557 54.758 L 210.557 50.428 L 209.514 50.428 L 209.514 49.897 L 210.557 49.439 L 211.022 47.885 L 211.659 47.885 L 211.659 49.572 L 213.771 49.572 L 213.771 50.428 L 211.659 50.428 L 211.659 54.712 Q 211.659 55.173 211.813 55.485 A 1.069 1.069 0 0 0 211.971 55.721 A 1.024 1.024 0 0 0 212.601 56.056 A 1.473 1.473 0 0 0 212.828 56.073 A 3.62 3.62 0 0 0 213.358 56.035 A 3.333 3.333 0 0 0 213.393 56.03 A 5.963 5.963 0 0 0 213.552 56.002 Q 213.704 55.974 213.809 55.944 A 1.659 1.659 0 0 0 213.824 55.94 Z M 203.643 54.312 A 5.694 5.694 0 0 0 203.744 53.204 A 6.469 6.469 0 0 0 203.741 53.029 Q 203.725 52.423 203.594 51.909 A 3.433 3.433 0 0 0 202.844 50.455 A 2.886 2.886 0 0 0 201.504 49.591 A 3.704 3.704 0 0 0 200.417 49.439 A 4.281 4.281 0 0 0 199.648 49.505 A 2.916 2.916 0 0 0 197.946 50.432 A 3.045 3.045 0 0 0 197.572 50.95 Q 197.284 51.453 197.157 52.097 A 5.724 5.724 0 0 0 197.057 53.204 A 5.515 5.515 0 0 0 197.126 54.097 A 4.078 4.078 0 0 0 197.468 55.21 A 3.623 3.623 0 0 0 197.549 55.367 A 2.984 2.984 0 0 0 198.637 56.524 A 3.069 3.069 0 0 0 199.342 56.838 A 3.54 3.54 0 0 0 200.37 56.983 A 4.281 4.281 0 0 0 201.118 56.92 A 2.939 2.939 0 0 0 202.847 55.983 A 3.075 3.075 0 0 0 203.213 55.48 Q 203.512 54.969 203.643 54.312 Z M 221.459 54.312 A 5.694 5.694 0 0 0 221.561 53.204 A 6.469 6.469 0 0 0 221.558 53.029 Q 221.542 52.423 221.411 51.909 A 3.433 3.433 0 0 0 220.661 50.455 A 2.886 2.886 0 0 0 219.321 49.591 A 3.704 3.704 0 0 0 218.234 49.439 A 4.281 4.281 0 0 0 217.465 49.505 A 2.916 2.916 0 0 0 215.763 50.432 A 3.045 3.045 0 0 0 215.389 50.95 Q 215.101 51.453 214.974 52.097 A 5.724 5.724 0 0 0 214.873 53.204 A 5.515 5.515 0 0 0 214.943 54.097 A 4.078 4.078 0 0 0 215.285 55.21 A 3.623 3.623 0 0 0 215.365 55.367 A 2.984 2.984 0 0 0 216.454 56.524 A 3.069 3.069 0 0 0 217.158 56.838 A 3.54 3.54 0 0 0 218.187 56.983 A 4.281 4.281 0 0 0 218.935 56.92 A 2.939 2.939 0 0 0 220.664 55.983 A 3.075 3.075 0 0 0 221.03 55.48 Q 221.329 54.969 221.459 54.312 Z M 198.199 53.204 Q 198.199 54.599 198.757 55.329 A 1.807 1.807 0 0 0 199.933 56.022 A 2.738 2.738 0 0 0 200.397 56.06 A 2.56 2.56 0 0 0 201.072 55.976 A 1.782 1.782 0 0 0 202.04 55.332 A 2.366 2.366 0 0 0 202.409 54.615 Q 202.517 54.283 202.565 53.878 A 5.807 5.807 0 0 0 202.602 53.204 A 5.5 5.5 0 0 0 202.549 52.42 Q 202.492 52.021 202.371 51.698 A 2.27 2.27 0 0 0 202.04 51.096 A 1.813 1.813 0 0 0 200.913 50.423 A 2.78 2.78 0 0 0 200.384 50.375 A 2.623 2.623 0 0 0 199.73 50.452 A 1.756 1.756 0 0 0 198.75 51.086 Q 198.199 51.796 198.199 53.204 Z M 216.016 53.204 Q 216.016 54.599 216.573 55.329 A 1.807 1.807 0 0 0 217.75 56.022 A 2.738 2.738 0 0 0 218.214 56.06 A 2.56 2.56 0 0 0 218.889 55.976 A 1.782 1.782 0 0 0 219.857 55.332 A 2.366 2.366 0 0 0 220.226 54.615 Q 220.334 54.283 220.381 53.878 A 5.807 5.807 0 0 0 220.418 53.204 A 5.5 5.5 0 0 0 220.366 52.42 Q 220.309 52.021 220.187 51.698 A 2.27 2.27 0 0 0 219.857 51.096 A 1.813 1.813 0 0 0 218.73 50.423 A 2.78 2.78 0 0 0 218.2 50.375 A 2.623 2.623 0 0 0 217.547 50.452 A 1.756 1.756 0 0 0 216.567 51.086 Q 216.016 51.796 216.016 53.204 Z M 192.355 50.375 A 3.098 3.098 0 0 0 191.755 50.429 Q 191.082 50.562 190.728 51.023 A 1.887 1.887 0 0 0 190.455 51.543 Q 190.23 52.173 190.23 53.204 Q 190.23 54.507 190.599 55.18 A 1.663 1.663 0 0 0 190.741 55.399 A 1.599 1.599 0 0 0 191.553 55.946 Q 191.914 56.06 192.382 56.06 A 2.198 2.198 0 0 0 193.006 55.976 A 1.585 1.585 0 0 0 193.896 55.319 Q 194.251 54.79 194.353 53.931 A 6.316 6.316 0 0 0 194.394 53.191 A 6.513 6.513 0 0 0 194.354 52.449 Q 194.261 51.637 193.946 51.147 A 1.829 1.829 0 0 0 193.896 51.072 A 1.608 1.608 0 0 0 192.872 50.425 A 2.549 2.549 0 0 0 192.355 50.375 Z" id="bottom_labelLayer" stroke="#777777" fill="#777777" style="stroke:#777777;fill:#777777" vector-effect="non-scaling-stroke"/></g></svg>