<?xml version="1.0" encoding="UTF-8" standalone="no"?>
<svg
   width="245.5mm"
   height="210mm"
   viewBox="0 0 245.5 210"
   version="1.1"
   preserveAspectRatio="xMidYMid meet"
   id="svg1"
   sodipodi:docname="caixa-separada2-recorte-carregador.svg"
   inkscape:version="1.3.2 (091e20e, 2023-11-25)"
   xmlns:inkscape="http://www.inkscape.org/namespaces/inkscape"
   xmlns:sodipodi="http://sodipodi.sourceforge.net/DTD/sodipodi-0.dtd"
   xmlns="http://www.w3.org/2000/svg"
   xmlns:svg="http://www.w3.org/2000/svg">
  <defs
     id="defs1" />
  <sodipodi:namedview
     id="namedview1"
     pagecolor="#ffffff"
     bordercolor="#000000"
     borderopacity="0.25"
     inkscape:showpageshadow="2"
     inkscape:pageopacity="0.0"
     inkscape:pagecheckerboard="0"
     inkscape:deskcolor="#d1d1d1"
     inkscape:document-units="mm"
     showgrid="true"
     inkscape:zoom="0.85881105"
     inkscape:cx="240.4487"
     inkscape:cy="553.67243"
     inkscape:window-width="1336"
     inkscape:window-height="772"
     inkscape:window-x="1138"
     inkscape:window-y="1045"
     inkscape:window-maximized="0"
     inkscape:current-layer="svg1">
    <inkscape:grid
       id="grid34"
       units="mm"
       originx="0"
       originy="0"
       spacingx="0.99999999"
       spacingy="0.99999998"
       empcolor="#0099e5"
       empopacity="0.30196078"
       color="#0099e5"
       opacity="0.14901961"
       empspacing="5"
       dotted="false"
       gridanglex="30"
       gridanglez="30"
       visible="true" />
  </sodipodi:namedview>
  <path
     style="font-size:12px;fill:none;fill-rule:evenodd;stroke:#ff0000;stroke-width:0.1;stroke-linecap:round"
     d="m 1.5875,180.94166 v 7 h 3.0000001 v 5.375 h 3.9499998 v -1.25 h 2.6500011 v 1.25 h 2.65 v 3.25 h -2.65 v 1.25 H 8.5374999 v -1.25 H 4.5875001 v 5.375 H 1.5875 v 7 h 17.000001 v -3 h 15.375 v -3.95 h -1.25 v -2.65 h 1.25 v -2.65 h 3.25 v 2.65 h 1.25 v 2.65 h -1.25 v 3.95 h 15.375 v 3 h 17 v -7 h -3 v -5.375 h -3.95 v 1.25 h -2.65 v -1.25 h -2.65 v -3.25 h 2.65 v -1.25 h 2.65 v 1.25 h 3.95 v -5.375 h 3 v -7 h -17 v 3 h -15.375 v 3.95 h 1.25 v 2.65 h -1.25 v 2.65 h -3.25 v -2.65 h -1.25 v -2.65 h 1.25 v -3.95 h -15.375 v -3 z"
     id="front_outsideCutPath" />
  <path
     style="fill:none;fill-rule:evenodd;stroke:#000000;stroke-width:0.1;paint-order:fill markers stroke"
     d="m 39.999999,183.942 v 11 h 16 v -11 h -3.420245"
     id="path2" />
</svg>
