<svg width="239.5mm" height="207mm" viewBox="0 0 239.5 207" xmlns="http://www.w3.org/2000/svg" version="1.1" preserveAspectRatio="xMidYMid meet"><g id="svgGroup" stroke-linecap="round" fill-rule="evenodd" font-size="9pt" stroke="#000" stroke-width="0.25mm" fill="none" style="stroke:#000;stroke-width:0.25mm;fill:none"><path d="M 0 172 L 0 186 L 3 186 L 3 191.375 L 6.95 191.375 L 6.95 190.125 L 9.6 190.125 L 9.6 191.375 L 12.25 191.375 L 12.25 194.625 L 9.6 194.625 L 9.6 195.875 L 6.95 195.875 L 6.95 194.625 L 3 194.625 L 3 200 L 0 200 L 0 207 L 17 207 L 17 204 L 32.375 204 L 32.375 200.05 L 31.125 200.05 L 31.125 197.4 L 32.375 197.4 L 32.375 194.75 L 35.625 194.75 L 35.625 197.4 L 36.875 197.4 L 36.875 200.05 L 35.625 200.05 L 35.625 204 L 51 204 L 51 207 L 68 207 L 68 194.625 M 51 176 L 51 182 L 35.625 182 L 35.625 185.95 L 36.875 185.95 L 36.875 188.6 L 35.625 188.6 L 35.625 191.25 L 32.375 191.25 L 32.375 188.6 L 31.125 188.6 L 31.125 185.95 L 32.375 185.95 L 32.375 182 L 17 182 L 17 176 M 71 200 L 65 200 L 65 194.625 L 61.05 194.625 L 61.05 195.875 L 58.4 195.875 L 58.4 194.625 L 55.75 194.625 L 55.75 191.375 L 58.4 191.375 L 58.4 190.125 L 61.05 190.125 L 61.05 191.375 L 65 191.375 L 65 186 L 71 186 M 68 191.375 68 166.625 M 51 179 68 179 M 0 179 17 179" id="front_outsideCutPath" stroke="#FF0000" stroke-width="0.1" style="stroke:#FF0000;stroke-width:0.1" vector-effect="non-scaling-stroke"/><path d="M 38.081 195.115 L 37.627 195.115 L 37.627 193.176 Q 37.627 192.943 37.559 192.785 A 0.54 0.54 0 0 0 37.46 192.629 A 0.512 0.512 0 0 0 37.25 192.496 Q 37.168 192.466 37.067 192.456 A 1.203 1.203 0 0 0 36.938 192.449 A 1.374 1.374 0 0 0 36.681 192.471 Q 36.538 192.499 36.428 192.559 A 0.64 0.64 0 0 0 36.249 192.703 A 0.742 0.742 0 0 0 36.12 192.929 Q 36.042 193.136 36.032 193.444 A 2.908 2.908 0 0 0 36.03 193.543 L 36.03 195.115 L 35.576 195.115 L 35.576 192.118 L 35.946 192.118 L 36.019 192.528 L 36.041 192.528 A 0.919 0.919 0 0 1 36.401 192.201 A 1.105 1.105 0 0 1 36.432 192.185 A 1.229 1.229 0 0 1 36.87 192.068 A 1.486 1.486 0 0 1 36.993 192.063 A 1.792 1.792 0 0 1 37.298 192.088 Q 37.617 192.143 37.808 192.325 A 0.787 0.787 0 0 1 37.999 192.625 Q 38.081 192.846 38.081 193.16 L 38.081 195.115 Z M 29.361 192.118 L 29.361 192.471 L 28.598 192.471 L 28.598 195.115 L 28.144 195.115 L 28.144 192.471 L 27.608 192.471 L 27.608 192.266 L 28.144 192.102 L 28.144 191.935 A 1.84 1.84 0 0 1 28.187 191.518 Q 28.32 190.949 28.864 190.851 A 1.38 1.38 0 0 1 29.11 190.83 A 1.462 1.462 0 0 1 29.316 190.846 Q 29.417 190.86 29.529 190.888 A 2.938 2.938 0 0 1 29.667 190.926 L 29.55 191.29 Q 29.363 191.229 29.216 191.212 A 0.976 0.976 0 0 0 29.101 191.205 A 0.612 0.612 0 0 0 28.954 191.222 A 0.393 0.393 0 0 0 28.721 191.376 Q 28.61 191.531 28.599 191.856 A 2.143 2.143 0 0 0 28.598 191.924 L 28.598 192.118 L 29.361 192.118 Z M 40.392 194.74 L 40.392 195.088 Q 40.325 195.12 40.201 195.142 A 1.696 1.696 0 0 1 40.174 195.146 Q 40.04 195.168 39.931 195.17 A 1.165 1.165 0 0 1 39.916 195.17 A 1.186 1.186 0 0 1 39.566 195.123 Q 39.182 195.004 39.082 194.587 A 1.427 1.427 0 0 1 39.046 194.254 L 39.046 192.471 L 38.617 192.471 L 38.617 192.252 L 39.046 192.063 L 39.238 191.424 L 39.5 191.424 L 39.5 192.118 L 40.37 192.118 L 40.37 192.471 L 39.5 192.471 L 39.5 194.235 A 0.914 0.914 0 0 0 39.513 194.395 Q 39.529 194.483 39.564 194.553 A 0.44 0.44 0 0 0 39.629 194.65 A 0.422 0.422 0 0 0 39.888 194.788 A 0.607 0.607 0 0 0 39.981 194.795 A 1.491 1.491 0 0 0 40.2 194.779 A 1.378 1.378 0 0 0 40.214 194.777 A 2.455 2.455 0 0 0 40.279 194.766 Q 40.342 194.754 40.386 194.742 A 0.681 0.681 0 0 0 40.392 194.74 Z M 31.633 192.096 L 31.571 192.517 A 2 2 0 0 0 31.427 192.491 Q 31.327 192.476 31.242 192.476 A 0.786 0.786 0 0 0 30.661 192.727 A 1.076 1.076 0 0 0 30.62 192.772 A 1.037 1.037 0 0 0 30.37 193.354 A 1.378 1.378 0 0 0 30.362 193.507 L 30.362 195.115 L 29.908 195.115 L 29.908 192.118 L 30.283 192.118 L 30.335 192.673 L 30.356 192.673 A 1.533 1.533 0 0 1 30.528 192.428 A 1.171 1.171 0 0 1 30.758 192.222 Q 30.994 192.063 31.275 192.063 A 2.084 2.084 0 0 1 31.462 192.071 A 1.521 1.521 0 0 1 31.633 192.096 Z M 34.412 194.758 A 1.266 1.266 0 0 0 34.562 194.551 Q 34.781 194.177 34.781 193.614 A 2.665 2.665 0 0 0 34.78 193.542 Q 34.762 192.879 34.41 192.482 A 1.188 1.188 0 0 0 33.859 192.126 A 1.525 1.525 0 0 0 33.411 192.063 A 1.763 1.763 0 0 0 33.094 192.091 A 1.201 1.201 0 0 0 32.394 192.472 A 1.254 1.254 0 0 0 32.24 192.686 Q 32.027 193.056 32.027 193.614 A 2.271 2.271 0 0 0 32.056 193.982 A 1.679 1.679 0 0 0 32.197 194.44 A 1.492 1.492 0 0 0 32.23 194.504 A 1.229 1.229 0 0 0 32.678 194.981 A 1.264 1.264 0 0 0 32.968 195.11 A 1.458 1.458 0 0 0 33.392 195.17 A 1.763 1.763 0 0 0 33.699 195.144 A 1.21 1.21 0 0 0 34.412 194.758 Z M 32.497 193.614 A 2.299 2.299 0 0 0 32.519 193.942 Q 32.543 194.109 32.594 194.244 A 0.952 0.952 0 0 0 32.727 194.489 A 0.744 0.744 0 0 0 33.212 194.774 A 1.127 1.127 0 0 0 33.403 194.79 A 1.054 1.054 0 0 0 33.681 194.755 A 0.734 0.734 0 0 0 34.079 194.49 Q 34.251 194.268 34.295 193.891 A 2.391 2.391 0 0 0 34.31 193.614 A 2.265 2.265 0 0 0 34.289 193.291 Q 34.24 192.952 34.079 192.746 A 0.747 0.747 0 0 0 33.615 192.469 A 1.145 1.145 0 0 0 33.397 192.449 A 1.08 1.08 0 0 0 33.128 192.48 A 0.723 0.723 0 0 0 32.724 192.742 A 0.939 0.939 0 0 0 32.579 193.023 Q 32.535 193.153 32.515 193.312 A 2.399 2.399 0 0 0 32.497 193.614 Z" id="front_labelLayer" stroke="#777777" fill="#777777" style="stroke:#777777;fill:#777777" vector-effect="non-scaling-stroke"/><path d="M 168.5 172 L 168.5 186 L 171.5 186 L 171.5 191.375 L 168.25 191.375 L 168.25 193 L 168.25 194.625 L 171.5 194.625 L 171.5 200 L 168.5 200 L 168.5 207 L 145.625 207 L 145.625 204 L 121.375 204 L 121.375 200.05 L 122.625 200.05 L 122.625 197.4 L 121.375 197.4 L 121.375 194.75 L 118.125 194.75 L 118.125 197.4 L 116.875 197.4 L 116.875 200.05 L 118.125 200.05 L 118.125 204 L 93.875 204 L 93.875 207 L 71 207 L 71 200 M 145.625 176 L 145.625 182 L 121.375 182 L 121.375 185.95 L 122.625 185.95 L 122.625 188.6 L 121.375 188.6 L 121.375 191.25 L 118.125 191.25 L 118.125 188.6 L 116.875 188.6 L 116.875 185.95 L 118.125 185.95 L 118.125 182 L 93.875 182 L 93.875 176 M 68 194.625 L 71.25 194.625 L 71.25 193 L 71.25 191.375 L 68 191.375 M 71 186 71 172 M 145.625 179 168.5 179 M 71 179 93.875 179" id="left_outsideCutPath" stroke="#FF0000" stroke-width="0.1" style="stroke:#FF0000;stroke-width:0.1" vector-effect="non-scaling-stroke"/><path d="M 121.742 192.118 L 121.742 192.471 L 120.979 192.471 L 120.979 195.115 L 120.525 195.115 L 120.525 192.471 L 119.989 192.471 L 119.989 192.266 L 120.525 192.102 L 120.525 191.935 A 1.84 1.84 0 0 1 120.568 191.518 Q 120.701 190.949 121.245 190.851 A 1.38 1.38 0 0 1 121.49 190.83 A 1.462 1.462 0 0 1 121.697 190.846 Q 121.798 190.86 121.91 190.888 A 2.938 2.938 0 0 1 122.048 190.926 L 121.931 191.29 Q 121.744 191.229 121.596 191.212 A 0.976 0.976 0 0 0 121.482 191.205 A 0.612 0.612 0 0 0 121.335 191.222 A 0.393 0.393 0 0 0 121.102 191.376 Q 120.991 191.531 120.98 191.856 A 2.143 2.143 0 0 0 120.979 191.924 L 120.979 192.118 L 121.742 192.118 Z M 119.617 193.411 L 119.617 193.699 L 117.553 193.699 A 1.822 1.822 0 0 0 117.585 194.004 Q 117.618 194.17 117.683 194.301 A 0.852 0.852 0 0 0 117.82 194.5 A 0.825 0.825 0 0 0 118.253 194.744 A 1.25 1.25 0 0 0 118.532 194.773 A 2.397 2.397 0 0 0 119.43 194.595 A 2.748 2.748 0 0 0 119.489 194.571 L 119.489 194.976 A 2.725 2.725 0 0 1 119.241 195.069 A 2.084 2.084 0 0 1 119.034 195.125 A 1.905 1.905 0 0 1 118.845 195.154 Q 118.751 195.164 118.646 195.167 A 3.698 3.698 0 0 1 118.515 195.17 Q 117.851 195.17 117.467 194.765 Q 117.105 194.384 117.084 193.723 A 2.593 2.593 0 0 1 117.083 193.641 A 2.383 2.383 0 0 1 117.127 193.168 Q 117.185 192.881 117.32 192.658 A 1.344 1.344 0 0 1 117.439 192.49 A 1.163 1.163 0 0 1 118.287 192.067 A 1.605 1.605 0 0 1 118.398 192.063 A 1.383 1.383 0 0 1 118.787 192.116 A 1.052 1.052 0 0 1 119.289 192.434 Q 119.617 192.804 119.617 193.411 Z M 123.667 194.74 L 123.667 195.088 Q 123.6 195.12 123.477 195.142 A 1.696 1.696 0 0 1 123.45 195.146 Q 123.316 195.168 123.207 195.17 A 1.165 1.165 0 0 1 123.191 195.17 A 1.186 1.186 0 0 1 122.842 195.123 Q 122.458 195.004 122.357 194.587 A 1.427 1.427 0 0 1 122.322 194.254 L 122.322 192.471 L 121.892 192.471 L 121.892 192.252 L 122.322 192.063 L 122.513 191.424 L 122.776 191.424 L 122.776 192.118 L 123.645 192.118 L 123.645 192.471 L 122.776 192.471 L 122.776 194.235 A 0.914 0.914 0 0 0 122.789 194.395 Q 122.805 194.483 122.839 194.553 A 0.44 0.44 0 0 0 122.904 194.65 A 0.422 0.422 0 0 0 123.163 194.788 A 0.607 0.607 0 0 0 123.257 194.795 A 1.491 1.491 0 0 0 123.475 194.779 A 1.378 1.378 0 0 0 123.489 194.777 A 2.455 2.455 0 0 0 123.555 194.766 Q 123.617 194.754 123.661 194.742 A 0.681 0.681 0 0 0 123.667 194.74 Z M 116.287 190.86 L 116.287 195.115 L 115.833 195.115 L 115.833 190.86 L 116.287 190.86 Z M 117.564 193.329 L 119.131 193.329 A 1.547 1.547 0 0 0 119.112 193.081 Q 119.071 192.829 118.939 192.672 A 0.622 0.622 0 0 0 118.565 192.459 A 0.933 0.933 0 0 0 118.392 192.443 A 0.895 0.895 0 0 0 118.134 192.479 A 0.691 0.691 0 0 0 117.817 192.679 A 0.897 0.897 0 0 0 117.639 192.979 Q 117.582 193.135 117.564 193.329 Z" id="left_labelLayer" stroke="#777777" fill="#777777" style="stroke:#777777;fill:#777777" vector-effect="non-scaling-stroke"/><path d="M 222.5 100.5 L 222.5 106.5 L 236.5 106.5 L 236.5 129.375 L 239.5 129.375 L 239.5 153.625 L 236.25 153.625 L 236.25 155.25 L 236.25 156.875 L 239.5 156.875 L 239.5 181.125 L 236.5 181.125 L 236.5 204 L 222.5 204 L 222.5 207 L 207.125 207 L 207.125 203.75 L 205.5 203.75 L 203.875 203.75 L 203.875 207 L 188.5 207 L 188.5 204 L 174.5 204 L 174.5 181.125 L 171.5 181.125 L 171.5 156.875 L 174.75 156.875 L 174.75 155.25 L 174.75 153.625 L 171.5 153.625 L 171.5 129.375 L 174.5 129.375 L 174.5 106.5 L 188.5 106.5 L 188.5 100.5 M 207.125 100.25 L 207.125 106.75 L 205.5 106.75 L 203.875 106.75 L 203.875 100.25 M 207.125 103.5 222.5 103.5 M 188.5 103.5 203.875 103.5" id="top_outsideCutPath" stroke="#FF0000" stroke-width="0.1" style="stroke:#FF0000;stroke-width:0.1" vector-effect="non-scaling-stroke"/><path d="M 210.387 157.163 L 210.308 157.163 A 10.432 10.432 0 0 1 210.376 157.933 A 8.742 8.742 0 0 1 210.387 158.371 L 210.387 161.366 L 209.285 161.366 L 209.285 150.821 L 210.182 150.821 L 210.334 151.817 L 210.387 151.817 A 2.967 2.967 0 0 1 210.817 151.329 A 2.295 2.295 0 0 1 211.377 150.954 Q 211.941 150.688 212.672 150.688 Q 214.119 150.688 214.906 151.677 Q 215.55 152.486 215.667 153.827 A 7.178 7.178 0 0 1 215.693 154.453 Q 215.693 156.246 214.893 157.239 A 2.61 2.61 0 0 1 213.038 158.214 A 3.739 3.739 0 0 1 212.672 158.232 A 3.344 3.344 0 0 1 211.832 158.129 A 2.909 2.909 0 0 1 211.374 157.969 A 2.441 2.441 0 0 1 210.387 157.162 Z M 199.616 157.189 L 199.616 158.032 Q 199.454 158.11 199.154 158.164 A 4.124 4.124 0 0 1 199.088 158.175 Q 198.763 158.228 198.498 158.231 A 2.827 2.827 0 0 1 198.461 158.232 A 2.879 2.879 0 0 1 197.612 158.117 Q 196.68 157.83 196.436 156.817 A 3.465 3.465 0 0 1 196.349 156.007 L 196.349 151.677 L 195.307 151.677 L 195.307 151.146 L 196.349 150.688 L 196.814 149.134 L 197.452 149.134 L 197.452 150.821 L 199.563 150.821 L 199.563 151.677 L 197.452 151.677 L 197.452 155.961 Q 197.452 156.422 197.606 156.734 A 1.069 1.069 0 0 0 197.764 156.97 A 1.024 1.024 0 0 0 198.393 157.305 A 1.473 1.473 0 0 0 198.62 157.322 A 3.62 3.62 0 0 0 199.151 157.284 A 3.333 3.333 0 0 0 199.185 157.279 A 5.963 5.963 0 0 0 199.344 157.251 Q 199.496 157.223 199.602 157.193 A 1.659 1.659 0 0 0 199.616 157.189 Z M 207.252 155.561 A 5.694 5.694 0 0 0 207.353 154.453 A 6.469 6.469 0 0 0 207.35 154.278 Q 207.334 153.672 207.203 153.158 A 3.433 3.433 0 0 0 206.453 151.704 A 2.886 2.886 0 0 0 205.113 150.84 A 3.704 3.704 0 0 0 204.026 150.688 A 4.281 4.281 0 0 0 203.257 150.754 A 2.916 2.916 0 0 0 201.555 151.681 A 3.045 3.045 0 0 0 201.181 152.199 Q 200.893 152.702 200.766 153.346 A 5.724 5.724 0 0 0 200.666 154.453 A 5.515 5.515 0 0 0 200.735 155.346 A 4.078 4.078 0 0 0 201.077 156.459 A 3.623 3.623 0 0 0 201.158 156.616 A 2.984 2.984 0 0 0 202.246 157.773 A 3.069 3.069 0 0 0 202.951 158.087 A 3.54 3.54 0 0 0 203.979 158.232 A 4.281 4.281 0 0 0 204.727 158.169 A 2.939 2.939 0 0 0 206.456 157.232 A 3.075 3.075 0 0 0 206.822 156.729 Q 207.121 156.218 207.252 155.561 Z M 201.808 154.453 Q 201.808 155.848 202.366 156.578 A 1.807 1.807 0 0 0 203.542 157.271 A 2.738 2.738 0 0 0 204.006 157.309 A 2.56 2.56 0 0 0 204.681 157.225 A 1.782 1.782 0 0 0 205.649 156.581 A 2.366 2.366 0 0 0 206.018 155.864 Q 206.126 155.532 206.174 155.127 A 5.807 5.807 0 0 0 206.21 154.453 A 5.5 5.5 0 0 0 206.158 153.669 Q 206.101 153.27 205.98 152.947 A 2.27 2.27 0 0 0 205.649 152.345 A 1.813 1.813 0 0 0 204.522 151.672 A 2.78 2.78 0 0 0 203.993 151.624 A 2.623 2.623 0 0 0 203.339 151.701 A 1.756 1.756 0 0 0 202.359 152.335 Q 201.808 153.045 201.808 154.453 Z M 210.387 154.207 L 210.387 154.453 Q 210.387 155.756 210.756 156.429 A 1.663 1.663 0 0 0 210.899 156.648 A 1.599 1.599 0 0 0 211.71 157.195 Q 212.072 157.309 212.539 157.309 A 1.857 1.857 0 0 0 213.261 157.173 Q 213.678 156.999 213.975 156.602 A 2.197 2.197 0 0 0 214.017 156.545 A 2.665 2.665 0 0 0 214.382 155.766 Q 214.551 155.194 214.551 154.44 A 5.563 5.563 0 0 0 214.499 153.651 Q 214.441 153.251 214.321 152.926 A 2.337 2.337 0 0 0 214.017 152.351 A 1.715 1.715 0 0 0 212.762 151.637 A 2.372 2.372 0 0 0 212.512 151.624 Q 211.796 151.624 211.335 151.879 A 1.457 1.457 0 0 0 210.899 152.242 A 1.889 1.889 0 0 0 210.603 152.78 Q 210.396 153.344 210.387 154.207 Z" id="top_labelLayer" stroke="#777777" fill="#777777" style="stroke:#777777;fill:#777777" vector-effect="non-scaling-stroke"/><path d="M 0 172 L 3 172 L 3 166.625 L 6.95 166.625 L 6.95 167.875 L 9.6 167.875 L 9.6 166.625 L 12.25 166.625 L 12.25 163.375 L 9.6 163.375 L 9.6 162.125 L 6.95 162.125 L 6.95 163.375 L 3 163.375 L 3 158 L 0 158 L 0 151 L 17 151 L 17 154 L 32.375 154 L 32.375 157.95 L 31.125 157.95 L 31.125 160.6 L 32.375 160.6 L 32.375 163.25 L 35.625 163.25 L 35.625 160.6 L 36.875 160.6 L 36.875 157.95 L 35.625 157.95 L 35.625 154 L 51 154 L 51 151 L 68 151 L 68 163.375 M 51 176 L 35.625 176 L 35.625 172.05 L 36.875 172.05 L 36.875 169.4 L 35.625 169.4 L 35.625 166.75 L 32.375 166.75 L 32.375 169.4 L 31.125 169.4 L 31.125 172.05 L 32.375 172.05 L 32.375 176 L 17 176 M 71 172 L 65 172 L 65 166.625 L 61.05 166.625 L 61.05 167.875 L 58.4 167.875 L 58.4 166.625 L 55.75 166.625 L 55.75 163.375 L 58.4 163.375 L 58.4 162.125 L 61.05 162.125 L 61.05 163.375 L 65 163.375 L 65 158 L 71 158" id="back_outsideCutPath" stroke="#FF0000" stroke-width="0.1" style="stroke:#FF0000;stroke-width:0.1" vector-effect="non-scaling-stroke"/><path d="M 37.834 165.566 L 37.855 165.566 A 2.687 2.687 0 0 1 37.922 165.476 Q 38.033 165.332 38.214 165.128 L 39.182 164.103 L 39.72 164.103 L 38.506 165.38 L 39.805 167.1 L 39.255 167.1 L 38.197 165.684 L 37.855 165.979 L 37.855 167.1 L 37.407 167.1 L 37.407 162.845 L 37.855 162.845 L 37.855 165.101 Q 37.855 165.249 37.834 165.555 A 18.742 18.742 0 0 1 37.834 165.566 Z M 28.649 166.714 L 28.616 166.714 L 28.52 167.1 L 28.195 167.1 L 28.195 162.845 L 28.649 162.845 L 28.649 163.879 A 9.463 9.463 0 0 1 28.644 164.199 Q 28.638 164.36 28.627 164.502 L 28.649 164.502 Q 28.966 164.054 29.589 164.054 A 1.387 1.387 0 0 1 29.98 164.106 A 1.039 1.039 0 0 1 30.507 164.457 Q 30.768 164.78 30.821 165.318 A 2.913 2.913 0 0 1 30.834 165.599 A 2.661 2.661 0 0 1 30.798 166.047 Q 30.758 166.285 30.67 166.477 A 1.276 1.276 0 0 1 30.504 166.746 A 1.075 1.075 0 0 1 29.74 167.147 A 1.539 1.539 0 0 1 29.589 167.155 Q 29.297 167.155 29.055 167.047 Q 28.813 166.939 28.649 166.714 Z M 33.806 167.1 L 33.47 167.1 L 33.379 166.673 L 33.357 166.673 A 1.882 1.882 0 0 1 33.205 166.844 Q 33.123 166.924 33.041 166.98 A 0.836 0.836 0 0 1 32.91 167.055 A 1.047 1.047 0 0 1 32.694 167.123 Q 32.589 167.145 32.468 167.152 A 2.043 2.043 0 0 1 32.354 167.155 A 1.393 1.393 0 0 1 32.07 167.128 Q 31.897 167.092 31.764 167.008 A 0.782 0.782 0 0 1 31.655 166.925 A 0.746 0.746 0 0 1 31.43 166.531 A 1.142 1.142 0 0 1 31.402 166.271 A 0.785 0.785 0 0 1 31.849 165.53 Q 32.208 165.339 32.854 165.32 L 33.363 165.303 L 33.363 165.118 A 1.304 1.304 0 0 0 33.35 164.929 Q 33.336 164.833 33.306 164.755 A 0.507 0.507 0 0 0 33.211 164.597 Q 33.09 164.462 32.853 164.435 A 1.121 1.121 0 0 0 32.726 164.428 A 1.478 1.478 0 0 0 32.386 164.471 Q 32.148 164.527 31.878 164.658 L 31.739 164.311 A 2.093 2.093 0 0 1 32.143 164.145 A 2.382 2.382 0 0 1 32.224 164.122 A 2.102 2.102 0 0 1 32.753 164.054 A 1.917 1.917 0 0 1 33.045 164.075 Q 33.365 164.124 33.547 164.292 Q 33.806 164.53 33.806 165.055 L 33.806 167.1 Z M 36.74 164.204 L 36.6 164.59 Q 36.45 164.53 36.272 164.49 Q 36.095 164.45 35.958 164.45 Q 35.045 164.45 35.045 165.615 A 2.198 2.198 0 0 0 35.066 165.935 Q 35.114 166.26 35.267 166.463 A 0.721 0.721 0 0 0 35.734 166.742 A 1.098 1.098 0 0 0 35.928 166.758 A 1.9 1.9 0 0 0 36.452 166.682 A 2.346 2.346 0 0 0 36.696 166.597 L 36.696 166.999 Q 36.438 167.133 36.065 167.152 A 2.489 2.489 0 0 1 35.939 167.155 A 1.696 1.696 0 0 1 35.526 167.107 A 1.15 1.15 0 0 1 34.931 166.754 A 1.313 1.313 0 0 1 34.658 166.253 Q 34.574 165.976 34.574 165.621 A 2.504 2.504 0 0 1 34.613 165.165 Q 34.693 164.735 34.937 164.459 A 1.175 1.175 0 0 1 35.58 164.088 A 1.782 1.782 0 0 1 35.969 164.048 A 2.048 2.048 0 0 1 36.401 164.095 A 2.266 2.266 0 0 1 36.527 164.126 Q 36.655 164.161 36.74 164.204 Z M 29.524 164.434 A 1.276 1.276 0 0 0 29.277 164.456 Q 29 164.511 28.854 164.701 Q 28.674 164.935 28.652 165.451 A 3.497 3.497 0 0 0 28.649 165.599 Q 28.649 166.135 28.801 166.412 A 0.685 0.685 0 0 0 28.859 166.503 A 0.658 0.658 0 0 0 29.193 166.728 Q 29.305 166.763 29.441 166.772 A 1.459 1.459 0 0 0 29.535 166.775 Q 29.953 166.775 30.158 166.47 A 1.042 1.042 0 0 0 30.287 166.191 Q 30.328 166.058 30.347 165.898 A 2.601 2.601 0 0 0 30.363 165.593 A 2.682 2.682 0 0 0 30.347 165.288 Q 30.306 164.927 30.158 164.721 A 0.662 0.662 0 0 0 29.737 164.454 A 1.05 1.05 0 0 0 29.524 164.434 Z M 33.352 165.897 L 33.352 165.626 L 32.898 165.645 A 3.333 3.333 0 0 0 32.632 165.665 Q 32.369 165.695 32.205 165.768 A 0.697 0.697 0 0 0 32.117 165.813 Q 31.878 165.962 31.878 166.277 Q 31.878 166.523 32.027 166.652 A 0.494 0.494 0 0 0 32.212 166.75 Q 32.286 166.772 32.373 166.778 A 1.021 1.021 0 0 0 32.444 166.78 A 1.25 1.25 0 0 0 32.714 166.753 Q 32.902 166.711 33.041 166.606 A 0.758 0.758 0 0 0 33.11 166.548 A 0.76 0.76 0 0 0 33.322 166.168 Q 33.351 166.046 33.352 165.901 A 1.462 1.462 0 0 0 33.352 165.897 Z" id="back_labelLayer" stroke="#777777" fill="#777777" style="stroke:#777777;fill:#777777" vector-effect="non-scaling-stroke"/><path d="M 71 158 L 71 151 L 93.875 151 L 93.875 154 L 118.125 154 L 118.125 157.95 L 116.875 157.95 L 116.875 160.6 L 118.125 160.6 L 118.125 163.25 L 121.375 163.25 L 121.375 160.6 L 122.625 160.6 L 122.625 157.95 L 121.375 157.95 L 121.375 154 L 145.625 154 L 145.625 151 L 168.5 151 L 168.5 158 L 171.5 158 M 145.625 176 L 121.375 176 L 121.375 172.05 L 122.625 172.05 L 122.625 169.4 L 121.375 169.4 L 121.375 166.75 L 118.125 166.75 L 118.125 169.4 L 116.875 169.4 L 116.875 172.05 L 118.125 172.05 L 118.125 176 L 93.875 176 M 68 166.625 L 71.25 166.625 L 71.25 165 L 71.25 163.375 L 68 163.375 M 171.5 163.375 L 168.25 163.375 L 168.25 165 L 168.25 166.625 L 171.5 166.625 M 168.5 172 171.5 172" id="right_outsideCutPath" stroke="#FF0000" stroke-width="0.1" style="stroke:#FF0000;stroke-width:0.1" vector-effect="non-scaling-stroke"/><path d="M 123.232 166.455 L 122.778 166.455 L 122.778 164.516 Q 122.778 164.282 122.711 164.124 A 0.54 0.54 0 0 0 122.612 163.969 A 0.512 0.512 0 0 0 122.402 163.835 Q 122.319 163.806 122.218 163.795 A 1.203 1.203 0 0 0 122.089 163.789 A 1.374 1.374 0 0 0 121.832 163.811 Q 121.552 163.864 121.399 164.046 A 0.755 0.755 0 0 0 121.271 164.273 Q 121.193 164.481 121.183 164.79 A 2.93 2.93 0 0 0 121.181 164.888 L 121.181 166.455 L 120.728 166.455 L 120.728 162.2 L 121.181 162.2 L 121.181 163.488 A 4.083 4.083 0 0 1 121.179 163.645 Q 121.174 163.775 121.16 163.873 L 121.187 163.873 Q 121.321 163.657 121.568 163.533 A 1.165 1.165 0 0 1 121.951 163.42 A 1.473 1.473 0 0 1 122.133 163.409 A 1.842 1.842 0 0 1 122.442 163.433 Q 122.607 163.461 122.737 163.522 A 0.818 0.818 0 0 1 122.957 163.67 A 0.79 0.79 0 0 1 123.152 163.976 Q 123.232 164.193 123.232 164.5 L 123.232 166.455 Z M 119.076 163.458 L 120.112 163.458 L 120.112 163.745 L 119.557 163.811 A 0.738 0.738 0 0 1 119.621 163.906 Q 119.649 163.955 119.675 164.013 A 1.399 1.399 0 0 1 119.694 164.061 Q 119.754 164.215 119.754 164.409 A 1.041 1.041 0 0 1 119.706 164.732 A 0.842 0.842 0 0 1 119.453 165.112 A 1.007 1.007 0 0 1 119.057 165.321 Q 118.907 165.363 118.729 165.372 A 1.972 1.972 0 0 1 118.628 165.375 A 1.459 1.459 0 0 1 118.459 165.365 A 1.232 1.232 0 0 1 118.376 165.353 A 0.808 0.808 0 0 0 118.246 165.437 Q 118.178 165.491 118.139 165.553 A 0.342 0.342 0 0 0 118.086 165.738 A 0.235 0.235 0 0 0 118.098 165.815 Q 118.12 165.878 118.181 165.916 A 0.252 0.252 0 0 0 118.187 165.92 A 0.318 0.318 0 0 0 118.258 165.949 Q 118.36 165.979 118.535 165.979 L 119.065 165.979 A 1.858 1.858 0 0 1 119.347 165.999 Q 119.495 166.022 119.614 166.07 A 0.82 0.82 0 0 1 119.813 166.184 A 0.664 0.664 0 0 1 120.06 166.607 A 0.997 0.997 0 0 1 120.074 166.78 A 0.983 0.983 0 0 1 120.018 167.12 Q 119.927 167.368 119.69 167.529 A 1.078 1.078 0 0 1 119.675 167.539 Q 119.396 167.721 118.94 167.776 A 3.598 3.598 0 0 1 118.51 167.8 A 2.543 2.543 0 0 1 118.169 167.779 Q 117.996 167.755 117.854 167.706 A 1.055 1.055 0 0 1 117.604 167.581 Q 117.285 167.362 117.285 166.963 Q 117.285 166.69 117.46 166.49 A 0.793 0.793 0 0 1 117.732 166.292 A 1.123 1.123 0 0 1 117.952 166.22 Q 117.837 166.168 117.759 166.058 A 0.421 0.421 0 0 1 117.682 165.831 A 0.521 0.521 0 0 1 117.681 165.804 A 0.519 0.519 0 0 1 117.708 165.637 A 0.46 0.46 0 0 1 117.769 165.517 A 0.65 0.65 0 0 1 117.855 165.42 Q 117.932 165.348 118.045 165.279 A 0.796 0.796 0 0 1 117.699 165.002 A 0.986 0.986 0 0 1 117.666 164.953 A 0.938 0.938 0 0 1 117.522 164.501 A 1.145 1.145 0 0 1 117.52 164.428 A 1.311 1.311 0 0 1 117.555 164.118 A 0.863 0.863 0 0 1 117.815 163.67 A 0.964 0.964 0 0 1 118.185 163.466 Q 118.39 163.403 118.652 163.403 A 1.74 1.74 0 0 1 118.882 163.418 A 1.325 1.325 0 0 1 119.076 163.458 Z M 125.543 166.08 L 125.543 166.427 Q 125.476 166.459 125.352 166.482 A 1.696 1.696 0 0 1 125.325 166.486 Q 125.191 166.508 125.082 166.509 A 1.165 1.165 0 0 1 125.067 166.509 A 1.186 1.186 0 0 1 124.718 166.462 Q 124.334 166.344 124.233 165.927 A 1.427 1.427 0 0 1 124.197 165.593 L 124.197 163.811 L 123.768 163.811 L 123.768 163.592 L 124.197 163.403 L 124.389 162.763 L 124.651 162.763 L 124.651 163.458 L 125.521 163.458 L 125.521 163.811 L 124.651 163.811 L 124.651 165.574 A 0.914 0.914 0 0 0 124.665 165.735 Q 124.68 165.823 124.715 165.893 A 0.44 0.44 0 0 0 124.78 165.99 A 0.422 0.422 0 0 0 125.039 166.128 A 0.607 0.607 0 0 0 125.133 166.135 A 1.491 1.491 0 0 0 125.351 166.119 A 1.378 1.378 0 0 0 125.365 166.117 A 2.455 2.455 0 0 0 125.431 166.106 Q 125.493 166.094 125.537 166.082 A 0.681 0.681 0 0 0 125.543 166.08 Z M 115.683 163.436 L 115.62 163.857 A 2 2 0 0 0 115.476 163.83 Q 115.376 163.816 115.292 163.816 A 0.786 0.786 0 0 0 114.711 164.067 A 1.076 1.076 0 0 0 114.67 164.111 A 1.037 1.037 0 0 0 114.419 164.693 A 1.378 1.378 0 0 0 114.411 164.847 L 114.411 166.455 L 113.957 166.455 L 113.957 163.458 L 114.332 163.458 L 114.384 164.013 L 114.406 164.013 A 1.533 1.533 0 0 1 114.577 163.768 A 1.171 1.171 0 0 1 114.808 163.562 Q 115.043 163.403 115.324 163.403 A 2.084 2.084 0 0 1 115.511 163.411 A 1.521 1.521 0 0 1 115.683 163.436 Z M 116.697 163.458 L 116.697 166.455 L 116.243 166.455 L 116.243 163.458 L 116.697 163.458 Z M 118.92 166.386 L 118.376 166.386 Q 118.067 166.386 117.895 166.534 Q 117.722 166.682 117.722 166.958 A 0.456 0.456 0 0 0 117.753 167.127 Q 117.796 167.236 117.901 167.309 A 0.533 0.533 0 0 0 117.928 167.327 Q 118.133 167.453 118.515 167.453 A 3.051 3.051 0 0 0 118.813 167.439 Q 119.112 167.41 119.3 167.316 A 0.754 0.754 0 0 0 119.362 167.282 Q 119.637 167.111 119.637 166.818 A 0.614 0.614 0 0 0 119.625 166.696 Q 119.611 166.626 119.579 166.574 A 0.286 0.286 0 0 0 119.486 166.481 A 0.431 0.431 0 0 0 119.384 166.436 Q 119.222 166.386 118.92 166.386 Z M 117.969 164.418 A 0.886 0.886 0 0 0 117.987 164.603 Q 118.012 164.719 118.07 164.805 A 0.486 0.486 0 0 0 118.146 164.893 A 0.587 0.587 0 0 0 118.382 165.022 Q 118.497 165.055 118.641 165.055 Q 119.166 165.055 119.276 164.653 A 0.919 0.919 0 0 0 119.306 164.409 A 0.976 0.976 0 0 0 119.272 164.142 Q 119.187 163.842 118.882 163.763 A 0.987 0.987 0 0 0 118.633 163.734 Q 118.313 163.734 118.141 163.906 Q 117.969 164.078 117.969 164.418 Z M 116.205 162.646 Q 116.205 162.49 116.281 162.417 A 0.262 0.262 0 0 1 116.45 162.346 A 0.346 0.346 0 0 1 116.473 162.345 A 0.267 0.267 0 0 1 116.662 162.419 A 0.229 0.229 0 0 1 116.722 162.515 Q 116.734 162.552 116.739 162.597 A 0.519 0.519 0 0 1 116.741 162.646 A 0.47 0.47 0 0 1 116.733 162.732 Q 116.725 162.78 116.705 162.817 A 0.222 0.222 0 0 1 116.662 162.874 A 0.265 0.265 0 0 1 116.473 162.949 Q 116.358 162.949 116.281 162.874 A 0.234 0.234 0 0 1 116.224 162.78 Q 116.212 162.743 116.207 162.697 A 0.536 0.536 0 0 1 116.205 162.646 Z" id="right_labelLayer" stroke="#777777" fill="#777777" style="stroke:#777777;fill:#777777" vector-effect="non-scaling-stroke"/><path d="M 188.5 100.5 L 174.5 100.5 L 174.5 77.625 L 171.5 77.625 L 171.5 53.375 L 174.75 53.375 L 174.75 51.75 L 174.75 50.125 L 171.5 50.125 L 171.5 25.875 L 174.5 25.875 L 174.5 3 L 188.5 3 L 188.5 0 L 203.875 0 L 203.875 3.25 L 205.5 3.25 L 207.125 3.25 L 207.125 0 L 222.5 0 L 222.5 3 L 236.5 3 L 236.5 25.875 L 239.5 25.875 L 239.5 50.125 L 236.25 50.125 L 236.25 51.75 L 236.25 53.375 L 239.5 53.375 L 239.5 77.625 L 236.5 77.625 L 236.5 100.5 L 222.5 100.5 M 207.125 100.25 L 205.5 100.25 L 203.875 100.25" id="bottom_outsideCutPath" stroke="#FF0000" stroke-width="0.1" style="stroke:#FF0000;stroke-width:0.1" vector-effect="non-scaling-stroke"/><path d="M 227.872 56.85 L 226.77 56.85 L 226.77 52.115 A 3.252 3.252 0 0 0 226.737 51.637 Q 226.659 51.116 226.398 50.81 A 1.16 1.16 0 0 0 225.859 50.461 Q 225.667 50.399 225.432 50.382 A 2.559 2.559 0 0 0 225.243 50.375 Q 224.521 50.375 224.063 50.666 A 1.46 1.46 0 0 0 223.722 50.966 A 1.822 1.822 0 0 0 223.413 51.525 Q 223.232 52.033 223.23 52.774 A 6.152 6.152 0 0 0 223.23 52.786 L 223.23 56.85 L 222.128 56.85 L 222.128 52.115 A 3.252 3.252 0 0 0 222.095 51.637 Q 222.018 51.116 221.756 50.81 A 1.156 1.156 0 0 0 221.224 50.465 Q 220.952 50.375 220.594 50.375 A 2.738 2.738 0 0 0 220.028 50.43 Q 219.415 50.56 219.077 50.996 A 1.849 1.849 0 0 0 218.803 51.517 Q 218.595 52.103 218.595 53.031 L 218.595 56.85 L 217.493 56.85 L 217.493 49.572 L 218.389 49.572 L 218.569 50.568 L 218.622 50.568 A 2.166 2.166 0 0 1 219.502 49.738 A 2.617 2.617 0 0 1 220.535 49.448 A 3.161 3.161 0 0 1 220.773 49.439 A 3.609 3.609 0 0 1 221.586 49.523 Q 222.085 49.639 222.434 49.913 A 1.882 1.882 0 0 1 223.005 50.674 L 223.058 50.674 A 2.302 2.302 0 0 1 223.925 49.813 A 2.765 2.765 0 0 1 224.001 49.771 A 2.79 2.79 0 0 1 225.024 49.46 A 3.479 3.479 0 0 1 225.409 49.439 Q 226.644 49.439 227.258 50.073 Q 227.705 50.535 227.827 51.4 A 5.056 5.056 0 0 1 227.872 52.102 L 227.872 56.85 Z M 184.23 55.914 L 184.15 55.914 L 183.918 56.85 L 183.128 56.85 L 183.128 46.517 L 184.23 46.517 L 184.23 49.027 Q 184.23 49.843 184.18 50.498 A 13.75 13.75 0 0 1 184.177 50.541 L 184.23 50.541 A 2.506 2.506 0 0 1 186.059 49.479 A 3.765 3.765 0 0 1 186.514 49.452 Q 187.949 49.452 188.742 50.432 A 3.248 3.248 0 0 1 189.312 51.529 Q 189.452 51.981 189.504 52.522 A 7.076 7.076 0 0 1 189.536 53.204 Q 189.536 54.997 188.736 55.99 A 2.61 2.61 0 0 1 186.881 56.965 A 3.739 3.739 0 0 1 186.514 56.983 A 3.344 3.344 0 0 1 185.674 56.88 A 2.909 2.909 0 0 1 185.216 56.72 A 2.441 2.441 0 0 1 184.23 55.914 Z M 203.023 55.94 L 203.023 56.783 Q 202.861 56.861 202.561 56.915 A 4.124 4.124 0 0 1 202.495 56.926 Q 202.17 56.979 201.905 56.982 A 2.827 2.827 0 0 1 201.868 56.983 A 2.879 2.879 0 0 1 201.019 56.868 Q 200.086 56.581 199.842 55.568 A 3.465 3.465 0 0 1 199.756 54.758 L 199.756 50.428 L 198.713 50.428 L 198.713 49.897 L 199.756 49.439 L 200.221 47.885 L 200.858 47.885 L 200.858 49.572 L 202.97 49.572 L 202.97 50.428 L 200.858 50.428 L 200.858 54.712 Q 200.858 55.173 201.012 55.485 A 1.069 1.069 0 0 0 201.17 55.721 A 1.024 1.024 0 0 0 201.8 56.056 A 1.473 1.473 0 0 0 202.027 56.073 A 3.62 3.62 0 0 0 202.557 56.035 A 3.333 3.333 0 0 0 202.591 56.03 A 5.963 5.963 0 0 0 202.751 56.002 Q 202.903 55.974 203.008 55.944 A 1.659 1.659 0 0 0 203.023 55.94 Z M 207.824 55.94 L 207.824 56.783 Q 207.662 56.861 207.362 56.915 A 4.124 4.124 0 0 1 207.296 56.926 Q 206.971 56.979 206.706 56.982 A 2.827 2.827 0 0 1 206.669 56.983 A 2.879 2.879 0 0 1 205.82 56.868 Q 204.888 56.581 204.644 55.568 A 3.465 3.465 0 0 1 204.557 54.758 L 204.557 50.428 L 203.514 50.428 L 203.514 49.897 L 204.557 49.439 L 205.022 47.885 L 205.659 47.885 L 205.659 49.572 L 207.771 49.572 L 207.771 50.428 L 205.659 50.428 L 205.659 54.712 Q 205.659 55.173 205.813 55.485 A 1.069 1.069 0 0 0 205.971 55.721 A 1.024 1.024 0 0 0 206.601 56.056 A 1.473 1.473 0 0 0 206.828 56.073 A 3.62 3.62 0 0 0 207.358 56.035 A 3.333 3.333 0 0 0 207.393 56.03 A 5.963 5.963 0 0 0 207.552 56.002 Q 207.704 55.974 207.809 55.944 A 1.659 1.659 0 0 0 207.824 55.94 Z M 197.643 54.312 A 5.694 5.694 0 0 0 197.744 53.204 A 6.469 6.469 0 0 0 197.741 53.029 Q 197.725 52.423 197.594 51.909 A 3.433 3.433 0 0 0 196.844 50.455 A 2.886 2.886 0 0 0 195.504 49.591 A 3.704 3.704 0 0 0 194.417 49.439 A 4.281 4.281 0 0 0 193.648 49.505 A 2.916 2.916 0 0 0 191.946 50.432 A 3.045 3.045 0 0 0 191.572 50.95 Q 191.284 51.453 191.157 52.097 A 5.724 5.724 0 0 0 191.057 53.204 A 5.515 5.515 0 0 0 191.126 54.097 A 4.078 4.078 0 0 0 191.468 55.21 A 3.623 3.623 0 0 0 191.549 55.367 A 2.984 2.984 0 0 0 192.637 56.524 A 3.069 3.069 0 0 0 193.342 56.838 A 3.54 3.54 0 0 0 194.37 56.983 A 4.281 4.281 0 0 0 195.118 56.92 A 2.939 2.939 0 0 0 196.847 55.983 A 3.075 3.075 0 0 0 197.213 55.48 Q 197.512 54.969 197.643 54.312 Z M 215.459 54.312 A 5.694 5.694 0 0 0 215.561 53.204 A 6.469 6.469 0 0 0 215.558 53.029 Q 215.542 52.423 215.411 51.909 A 3.433 3.433 0 0 0 214.661 50.455 A 2.886 2.886 0 0 0 213.321 49.591 A 3.704 3.704 0 0 0 212.234 49.439 A 4.281 4.281 0 0 0 211.465 49.505 A 2.916 2.916 0 0 0 209.763 50.432 A 3.045 3.045 0 0 0 209.389 50.95 Q 209.101 51.453 208.974 52.097 A 5.724 5.724 0 0 0 208.873 53.204 A 5.515 5.515 0 0 0 208.943 54.097 A 4.078 4.078 0 0 0 209.285 55.21 A 3.623 3.623 0 0 0 209.365 55.367 A 2.984 2.984 0 0 0 210.454 56.524 A 3.069 3.069 0 0 0 211.158 56.838 A 3.54 3.54 0 0 0 212.187 56.983 A 4.281 4.281 0 0 0 212.935 56.92 A 2.939 2.939 0 0 0 214.664 55.983 A 3.075 3.075 0 0 0 215.03 55.48 Q 215.329 54.969 215.459 54.312 Z M 192.199 53.204 Q 192.199 54.599 192.757 55.329 A 1.807 1.807 0 0 0 193.933 56.022 A 2.738 2.738 0 0 0 194.397 56.06 A 2.56 2.56 0 0 0 195.072 55.976 A 1.782 1.782 0 0 0 196.04 55.332 A 2.366 2.366 0 0 0 196.409 54.615 Q 196.517 54.283 196.565 53.878 A 5.807 5.807 0 0 0 196.602 53.204 A 5.5 5.5 0 0 0 196.549 52.42 Q 196.492 52.021 196.371 51.698 A 2.27 2.27 0 0 0 196.04 51.096 A 1.813 1.813 0 0 0 194.913 50.423 A 2.78 2.78 0 0 0 194.384 50.375 A 2.623 2.623 0 0 0 193.73 50.452 A 1.756 1.756 0 0 0 192.75 51.086 Q 192.199 51.796 192.199 53.204 Z M 210.016 53.204 Q 210.016 54.599 210.573 55.329 A 1.807 1.807 0 0 0 211.75 56.022 A 2.738 2.738 0 0 0 212.214 56.06 A 2.56 2.56 0 0 0 212.889 55.976 A 1.782 1.782 0 0 0 213.857 55.332 A 2.366 2.366 0 0 0 214.226 54.615 Q 214.334 54.283 214.381 53.878 A 5.807 5.807 0 0 0 214.418 53.204 A 5.5 5.5 0 0 0 214.366 52.42 Q 214.309 52.021 214.187 51.698 A 2.27 2.27 0 0 0 213.857 51.096 A 1.813 1.813 0 0 0 212.73 50.423 A 2.78 2.78 0 0 0 212.2 50.375 A 2.623 2.623 0 0 0 211.547 50.452 A 1.756 1.756 0 0 0 210.567 51.086 Q 210.016 51.796 210.016 53.204 Z M 186.355 50.375 A 3.098 3.098 0 0 0 185.755 50.429 Q 185.082 50.562 184.728 51.023 A 1.887 1.887 0 0 0 184.455 51.543 Q 184.23 52.173 184.23 53.204 Q 184.23 54.507 184.599 55.18 A 1.663 1.663 0 0 0 184.741 55.399 A 1.599 1.599 0 0 0 185.553 55.946 Q 185.914 56.06 186.382 56.06 A 2.198 2.198 0 0 0 187.006 55.976 A 1.585 1.585 0 0 0 187.896 55.319 Q 188.251 54.79 188.353 53.931 A 6.316 6.316 0 0 0 188.394 53.191 A 6.513 6.513 0 0 0 188.354 52.449 Q 188.261 51.637 187.946 51.147 A 1.829 1.829 0 0 0 187.896 51.072 A 1.608 1.608 0 0 0 186.872 50.425 A 2.549 2.549 0 0 0 186.355 50.375 Z" id="bottom_labelLayer" stroke="#777777" fill="#777777" style="stroke:#777777;fill:#777777" vector-effect="non-scaling-stroke"/></g></svg>