<svg width="584.424" height="80.568" viewBox="0 0 584.424 80.568" xmlns="http://www.w3.org/2000/svg"><g id="svgGroup" stroke-linecap="round" fill-rule="evenodd" font-size="9pt" stroke="#000" stroke-width="0.5mm" fill="#00000000" style="stroke:#000;stroke-width:0.5mm;fill:#00000000"><path d="M 584.424 79.151 L 515.283 79.151 L 515.283 62.305 L 523.096 62.305 L 523.096 18.262 L 515.283 18.262 L 515.283 1.416 L 584.424 1.416 L 584.424 32.325 L 568.311 32.325 L 566.602 18.018 L 547.9 18.018 L 547.9 31.201 L 561.084 31.201 L 561.084 47.803 L 547.9 47.803 L 547.9 62.549 L 566.602 62.549 L 568.311 46.094 L 584.424 46.094 L 584.424 79.151 Z M 193.164 9.082 L 195.654 1.416 L 209.082 1.416 L 209.082 29.688 L 191.016 29.688 A 26.597 26.597 0 0 0 190.275 26.119 Q 189.759 24.314 189.01 22.898 A 10.57 10.57 0 0 0 187.012 20.191 A 9.972 9.972 0 0 0 182.859 17.843 Q 181.323 17.388 179.483 17.275 A 20.437 20.437 0 0 0 178.223 17.237 A 15.752 15.752 0 0 0 169.922 19.507 A 14.413 14.413 0 0 0 165.639 23.539 A 19.494 19.494 0 0 0 163.916 26.49 A 20.943 20.943 0 0 0 162.4 31.021 Q 161.921 33.205 161.756 35.754 A 42.99 42.99 0 0 0 161.67 38.526 A 36.631 36.631 0 0 0 162.178 44.83 Q 163.295 51.215 166.87 55.176 A 16.884 16.884 0 0 0 175.837 60.314 A 25.858 25.858 0 0 0 181.689 60.938 A 26.617 26.617 0 0 0 185.239 60.713 A 19.292 19.292 0 0 0 188.77 59.912 L 188.77 52.002 L 179.492 52.002 L 179.492 37.354 L 210.742 37.354 L 210.742 73.682 Q 207.031 75.684 201.953 77.246 A 75.633 75.633 0 0 1 192.655 79.457 A 84.006 84.006 0 0 1 191.26 79.688 A 71.902 71.902 0 0 1 180.127 80.567 A 66.237 66.237 0 0 1 168.437 79.585 A 47.637 47.637 0 0 1 155.591 75.44 A 37.47 37.47 0 0 1 139.648 60.889 A 39.307 39.307 0 0 1 134.697 47.027 A 51.89 51.89 0 0 1 134.033 38.575 A 50.235 50.235 0 0 1 135.026 28.364 A 38.491 38.491 0 0 1 138.55 18.335 A 33.2 33.2 0 0 1 151.196 4.834 Q 159.326 0 170.166 0 A 48.344 48.344 0 0 1 176.153 0.35 Q 180.523 0.897 183.96 2.295 A 22.754 22.754 0 0 1 190.995 6.729 A 21.502 21.502 0 0 1 193.164 9.082 Z M 326.074 9.082 L 328.564 1.416 L 341.992 1.416 L 341.992 29.688 L 323.926 29.688 A 26.597 26.597 0 0 0 323.186 26.119 Q 322.67 24.314 321.92 22.898 A 10.57 10.57 0 0 0 319.922 20.191 A 9.972 9.972 0 0 0 315.769 17.843 Q 314.233 17.388 312.393 17.275 A 20.437 20.437 0 0 0 311.133 17.237 A 15.752 15.752 0 0 0 302.832 19.507 A 14.413 14.413 0 0 0 298.549 23.539 A 19.494 19.494 0 0 0 296.826 26.49 A 20.943 20.943 0 0 0 295.311 31.021 Q 294.831 33.205 294.666 35.754 A 42.99 42.99 0 0 0 294.58 38.526 A 36.631 36.631 0 0 0 295.088 44.83 Q 296.205 51.215 299.78 55.176 A 16.884 16.884 0 0 0 308.747 60.314 A 25.858 25.858 0 0 0 314.6 60.938 A 26.617 26.617 0 0 0 318.149 60.713 A 19.292 19.292 0 0 0 321.68 59.912 L 321.68 52.002 L 312.402 52.002 L 312.402 37.354 L 343.652 37.354 L 343.652 73.682 Q 339.941 75.684 334.863 77.246 A 75.633 75.633 0 0 1 325.565 79.457 A 84.006 84.006 0 0 1 324.17 79.688 A 71.902 71.902 0 0 1 313.037 80.567 A 66.237 66.237 0 0 1 301.347 79.585 A 47.637 47.637 0 0 1 288.501 75.44 A 37.47 37.47 0 0 1 272.559 60.889 A 39.307 39.307 0 0 1 267.607 47.027 A 51.89 51.89 0 0 1 266.943 38.575 A 50.235 50.235 0 0 1 267.936 28.364 A 38.491 38.491 0 0 1 271.46 18.335 A 33.2 33.2 0 0 1 284.106 4.834 Q 292.236 0 303.076 0 A 48.344 48.344 0 0 1 309.063 0.35 Q 313.433 0.897 316.87 2.295 A 22.754 22.754 0 0 1 323.905 6.729 A 21.502 21.502 0 0 1 326.074 9.082 Z M 497.266 79.151 L 443.555 79.151 L 443.555 62.305 L 457.715 62.305 L 457.715 17.285 L 448.975 17.285 L 447.021 33.741 L 430.908 33.741 L 430.908 1.416 L 509.912 1.416 L 509.912 33.741 L 493.799 33.741 L 491.846 17.285 L 483.105 17.285 L 483.105 62.305 L 497.266 62.305 L 497.266 79.151 Z M 381.885 79.151 L 349.707 79.151 L 349.707 62.305 L 356.787 62.305 L 371.387 18.262 L 360.889 18.262 L 360.889 1.416 L 409.131 1.416 L 427.393 62.305 L 434.473 62.305 L 434.473 79.151 L 390.674 79.151 L 390.674 62.305 L 398.73 62.305 L 396.484 53.76 L 376.367 53.76 L 373.828 62.305 L 381.885 62.305 L 381.885 79.151 Z M 35.4 79.151 L 0 79.151 L 0 62.305 L 7.813 62.305 L 7.813 18.262 L 0 18.262 L 0 1.416 L 35.449 1.416 A 75.292 75.292 0 0 1 47.958 2.387 Q 54.627 3.512 59.936 5.944 A 34.178 34.178 0 0 1 68.359 11.353 A 31.936 31.936 0 0 1 78.178 27.826 Q 79.525 33.067 79.63 39.315 A 63.341 63.341 0 0 1 79.639 40.381 A 51.402 51.402 0 0 1 78.437 51.858 Q 75.965 62.651 68.408 69.287 Q 59.577 77.044 44.223 78.701 A 82.325 82.325 0 0 1 35.4 79.151 Z M 127.832 79.151 L 85.84 79.151 L 85.84 62.305 L 94.141 62.305 L 94.141 18.262 L 85.84 18.262 L 85.84 1.416 L 127.832 1.416 L 127.832 18.262 L 119.531 18.262 L 119.531 62.305 L 127.832 62.305 L 127.832 79.151 Z M 260.742 79.151 L 218.75 79.151 L 218.75 62.305 L 227.051 62.305 L 227.051 18.262 L 218.75 18.262 L 218.75 1.416 L 260.742 1.416 L 260.742 18.262 L 252.441 18.262 L 252.441 62.305 L 260.742 62.305 L 260.742 79.151 Z M 33.203 17.774 L 33.203 62.793 L 35.889 62.793 Q 41.595 62.793 45.148 60.501 A 11.106 11.106 0 0 0 48.193 57.593 Q 51.389 53.114 51.833 43.474 A 70.584 70.584 0 0 0 51.904 40.235 A 62.453 62.453 0 0 0 51.642 34.291 Q 51.076 28.389 49.283 24.778 A 13.218 13.218 0 0 0 48.193 22.95 A 11.626 11.626 0 0 0 42.065 18.628 Q 40.051 17.987 37.584 17.827 A 26.178 26.178 0 0 0 35.889 17.774 L 33.203 17.774 Z M 387.061 17.823 L 379.98 41.553 L 393.262 41.553 L 387.061 17.823 Z" vector-effect="non-scaling-stroke"/></g></svg>