<svg width="166mm" height="171mm" viewBox="0 0 166 171" xmlns="http://www.w3.org/2000/svg" version="1.1" preserveAspectRatio="xMidYMid meet"><g id="svgGroup" stroke-linecap="round" fill-rule="evenodd" font-size="9pt" stroke="#000" stroke-width="0.25mm" fill="none" style="stroke:#000;stroke-width:0.25mm;fill:none"><path d="M 0 143 L 0 151.634 L 3 151.634 L 3 162.366 L 0 162.366 L 0 171 L 13.634 171 L 13.634 168 L 24.366 168 L 24.366 171 L 35.098 171 L 38 171 L 38 162.366 L 35 162.366 L 35 151.634 L 38 151.634 L 38 143 L 24.366 143 L 24.366 146 L 13.634 146 L 13.634 143 L 2.902 143 L 0 143 Z" id="front_outsideCutPath" stroke="#FF0000" stroke-width="0.1" style="stroke:#FF0000;stroke-width:0.1" vector-effect="non-scaling-stroke"/><path d="M 44 143 L 44 151.634 L 41 151.634 L 41 162.366 L 44 162.366 L 44 171 L 56.171 171 L 56.171 168 L 66.902 168 L 66.902 171 L 77.634 171 L 77.634 168 L 88.366 168 L 88.366 171 L 99.098 171 L 99.098 168 L 109.829 168 L 109.829 171 L 120.561 171 L 122 171 L 122 162.366 L 125 162.366 L 125 151.634 L 122 151.634 L 122 143 L 109.829 143 L 109.829 146 L 99.098 146 L 99.098 143 L 88.366 143 L 88.366 146 L 77.634 146 L 77.634 143 L 66.902 143 L 66.902 146 L 56.171 146 L 56.171 143 L 45.439 143 L 44 143 Z" id="left_outsideCutPath" stroke="#FF0000" stroke-width="0.1" style="stroke:#FF0000;stroke-width:0.1" vector-effect="non-scaling-stroke"/><path d="M 131 90 L 131 102.171 L 128 102.171 L 128 112.902 L 131 112.902 L 131 123.634 L 128 123.634 L 128 134.366 L 131 134.366 L 131 145.098 L 128 145.098 L 128 155.829 L 131 155.829 L 131 166.561 L 131 168 L 141.634 168 L 141.634 171 L 152.366 171 L 152.366 168 L 163 168 L 163 155.829 L 166 155.829 L 166 145.098 L 163 145.098 L 163 134.366 L 166 134.366 L 166 123.634 L 163 123.634 L 163 112.902 L 166 112.902 L 166 102.171 L 163 102.171 L 163 91.439 L 163 90 L 152.366 90 L 152.366 87 L 141.634 87 L 141.634 90 L 131 90 Z" id="top_outsideCutPath" stroke="#FF0000" stroke-width="0.1" style="stroke:#FF0000;stroke-width:0.1" vector-effect="non-scaling-stroke"/><path d="M 0 112 L 0 120.634 L 3 120.634 L 3 131.366 L 0 131.366 L 0 140 L 13.634 140 L 13.634 137 L 24.366 137 L 24.366 140 L 35.098 140 L 38 140 L 38 131.366 L 35 131.366 L 35 120.634 L 38 120.634 L 38 112 L 24.366 112 L 24.366 115 L 13.634 115 L 13.634 112 L 2.902 112 L 0 112 Z" id="back_outsideCutPath" stroke="#FF0000" stroke-width="0.1" style="stroke:#FF0000;stroke-width:0.1" vector-effect="non-scaling-stroke"/><path d="M 44 112 L 44 120.634 L 41 120.634 L 41 131.366 L 44 131.366 L 44 140 L 56.171 140 L 56.171 137 L 66.902 137 L 66.902 140 L 77.634 140 L 77.634 137 L 88.366 137 L 88.366 140 L 99.098 140 L 99.098 137 L 109.829 137 L 109.829 140 L 120.561 140 L 122 140 L 122 131.366 L 125 131.366 L 125 120.634 L 122 120.634 L 122 112 L 109.829 112 L 109.829 115 L 99.098 115 L 99.098 112 L 88.366 112 L 88.366 115 L 77.634 115 L 77.634 112 L 66.902 112 L 66.902 115 L 56.171 115 L 56.171 112 L 45.439 112 L 44 112 Z" id="right_outsideCutPath" stroke="#FF0000" stroke-width="0.1" style="stroke:#FF0000;stroke-width:0.1" vector-effect="non-scaling-stroke"/><path d="M 131 3 L 131 15.171 L 128 15.171 L 128 25.902 L 131 25.902 L 131 36.634 L 128 36.634 L 128 47.366 L 131 47.366 L 131 58.098 L 128 58.098 L 128 68.829 L 131 68.829 L 131 79.561 L 131 81 L 141.634 81 L 141.634 84 L 152.366 84 L 152.366 81 L 163 81 L 163 68.829 L 166 68.829 L 166 58.098 L 163 58.098 L 163 47.366 L 166 47.366 L 166 36.634 L 163 36.634 L 163 25.902 L 166 25.902 L 166 15.171 L 163 15.171 L 163 4.439 L 163 3 L 152.366 3 L 152.366 0 L 141.634 0 L 141.634 3 L 131 3 Z" id="bottom_outsideCutPath" stroke="#FF0000" stroke-width="0.1" style="stroke:#FF0000;stroke-width:0.1" vector-effect="non-scaling-stroke"/></g></svg>