<svg width="164mm" height="167mm" viewBox="0 0 164 167" xmlns="http://www.w3.org/2000/svg" version="1.1" preserveAspectRatio="xMidYMid meet"><g id="svgGroup" stroke-linecap="round" fill-rule="evenodd" font-size="9pt" stroke="#000" stroke-width="0.25mm" fill="none" style="stroke:#000;stroke-width:0.25mm;fill:none"><path d="M 0 139 L 0 147.634 L 3 147.634 L 3 158.366 L 0 158.366 L 0 167 L 13.634 167 L 13.634 164 L 24.366 164 L 24.366 167 L 35.098 167 L 38 167 L 38 158.366 L 35 158.366 L 35 147.634 L 38 147.634 L 38 139 L 24.366 139 L 24.366 142 L 13.634 142 L 13.634 139 L 2.902 139 L 0 139 Z" id="front_outsideCutPath" stroke="#FF0000" stroke-width="0.1" style="stroke:#FF0000;stroke-width:0.1" vector-effect="non-scaling-stroke"/><path d="M 44 139 L 44 147.634 L 41 147.634 L 41 158.366 L 44 158.366 L 44 167 L 55.171 167 L 55.171 164 L 65.902 164 L 65.902 167 L 76.634 167 L 76.634 164 L 87.366 164 L 87.366 167 L 98.098 167 L 98.098 164 L 108.829 164 L 108.829 167 L 119.561 167 L 120 167 L 120 158.366 L 123 158.366 L 123 147.634 L 120 147.634 L 120 139 L 108.829 139 L 108.829 142 L 98.098 142 L 98.098 139 L 87.366 139 L 87.366 142 L 76.634 142 L 76.634 139 L 65.902 139 L 65.902 142 L 55.171 142 L 55.171 139 L 44.439 139 L 44 139 Z" id="left_outsideCutPath" stroke="#FF0000" stroke-width="0.1" style="stroke:#FF0000;stroke-width:0.1" vector-effect="non-scaling-stroke"/><path d="M 129 88 L 129 99.171 L 126 99.171 L 126 109.902 L 129 109.902 L 129 120.634 L 126 120.634 L 126 131.366 L 129 131.366 L 129 142.098 L 126 142.098 L 126 152.829 L 129 152.829 L 129 163.561 L 129 164 L 139.634 164 L 139.634 167 L 150.366 167 L 150.366 164 L 161 164 L 161 152.829 L 164 152.829 L 164 142.098 L 161 142.098 L 161 131.366 L 164 131.366 L 164 120.634 L 161 120.634 L 161 109.902 L 164 109.902 L 164 99.171 L 161 99.171 L 161 88.439 L 161 88 L 150.366 88 L 150.366 85 L 139.634 85 L 139.634 88 L 129 88 Z" id="top_outsideCutPath" stroke="#FF0000" stroke-width="0.1" style="stroke:#FF0000;stroke-width:0.1" vector-effect="non-scaling-stroke"/><path d="M 0 108 L 0 116.634 L 3 116.634 L 3 127.366 L 0 127.366 L 0 136 L 13.634 136 L 13.634 133 L 24.366 133 L 24.366 136 L 35.098 136 L 38 136 L 38 127.366 L 35 127.366 L 35 116.634 L 38 116.634 L 38 108 L 24.366 108 L 24.366 111 L 13.634 111 L 13.634 108 L 2.902 108 L 0 108 Z" id="back_outsideCutPath" stroke="#FF0000" stroke-width="0.1" style="stroke:#FF0000;stroke-width:0.1" vector-effect="non-scaling-stroke"/><path d="M 44 108 L 44 116.634 L 41 116.634 L 41 127.366 L 44 127.366 L 44 136 L 55.171 136 L 55.171 133 L 65.902 133 L 65.902 136 L 76.634 136 L 76.634 133 L 87.366 133 L 87.366 136 L 98.098 136 L 98.098 133 L 108.829 133 L 108.829 136 L 119.561 136 L 120 136 L 120 127.366 L 123 127.366 L 123 116.634 L 120 116.634 L 120 108 L 108.829 108 L 108.829 111 L 98.098 111 L 98.098 108 L 87.366 108 L 87.366 111 L 76.634 111 L 76.634 108 L 65.902 108 L 65.902 111 L 55.171 111 L 55.171 108 L 44.439 108 L 44 108 Z" id="right_outsideCutPath" stroke="#FF0000" stroke-width="0.1" style="stroke:#FF0000;stroke-width:0.1" vector-effect="non-scaling-stroke"/><path d="M 129 3 L 129 14.171 L 126 14.171 L 126 24.902 L 129 24.902 L 129 35.634 L 126 35.634 L 126 46.366 L 129 46.366 L 129 57.098 L 126 57.098 L 126 67.829 L 129 67.829 L 129 78.561 L 129 79 L 139.634 79 L 139.634 82 L 150.366 82 L 150.366 79 L 161 79 L 161 67.829 L 164 67.829 L 164 57.098 L 161 57.098 L 161 46.366 L 164 46.366 L 164 35.634 L 161 35.634 L 161 24.902 L 164 24.902 L 164 14.171 L 161 14.171 L 161 3.439 L 161 3 L 150.366 3 L 150.366 0 L 139.634 0 L 139.634 3 L 129 3 Z" id="bottom_outsideCutPath" stroke="#FF0000" stroke-width="0.1" style="stroke:#FF0000;stroke-width:0.1" vector-effect="non-scaling-stroke"/></g></svg>