<?xml version="1.0" encoding="UTF-8"?>
<svg viewBox="-42.6 -42.6 101.2 85.2" height="85.2mm" width="101.2mm" xmlns:svgjs="http://svgjs.com/svgjs" xmlns:xlink="http://www.w3.org/1999/xlink" version="1.1" xmlns="http://www.w3.org/2000/svg" id="SvgjsSvg1152">
  <defs id="SvgjsDefs1153">
  </defs>
  <defs id="SvgjsDefs1153">
  </defs>
  <g id="SvgjsG1154">
    <g transform="matrix(1,0,0,1,44,0)" id="SvgjsG1155">
      <g fill="none" stroke-width="0.04" stroke="blue" id="SvgjsG1156">
      </g>
      <g fill="none" stroke-width="0.1" stroke="black" id="SvgjsG1157">
        <circle cy="0" cx="0" r="2.5" id="SvgjsCircle1158">
        </circle>
        <path d="M-4.38097905779062 8.788375624926372  L-4.436168742062231 8.536497118399911 L-4.4784325143737505 8.29594646250806 L-4.509099735473811 8.064885179619733 L-4.528630024770184 7.848510504576649 L-4.538522448638983 7.643923299575945 L-4.539774027641684 7.451427620533532 L-4.533445421950064 7.272791234402373 L-4.520618504939339 7.107186826248483 L-4.480002291427985 6.817527604403227 L-4.42725919661928 6.584769265240051 L-4.370916928294337 6.4066066406522895 L-4.317120244381664 6.276470708642717 L-4.163140671710481 6.13752422613956 L-4.025834676939677 5.994900788374234 L-3.9075569256506038 5.85210057391361 L-3.8080740726054683 5.710445872438509 L-3.72703963548149 5.571244831494125 L-3.6640647055490163 5.43579145649003 L-3.61866845019684 5.305344397496736 L-3.590292255067823 5.181126949245694 L-3.578335079397959 5.064305837925866 L-3.5820898164060595 4.956040718658393 L-3.6007998618362556 4.857413464818494 L-3.6336591139579943 4.769484736577946 L-3.6797766182269807 4.693230341294789 L-3.7302711134715123 4.636838575495162 L-4.038951507730688 4.369170374544806 L-4.2072853480599575 4.207285348059958 L-4.369170374544805 4.038951507730689 L-4.636838575495161 3.730271113471513 L-4.693230341294788 3.6797766182269815 L-4.769484736577946 3.633659113957995 L-4.857413464818493 3.6007998618362564 L-4.956040718658393 3.5820898164060604 L-5.064305837925865 3.5783350793979602 L-5.181126949245694 3.590292255067824 L-5.305344397496736 3.61866845019684 L-5.43579145649003 3.6640647055490163 L-5.571244831494124 3.727039635481491 L-5.710445872438509 3.8080740726054696 L-5.852100573913609 3.9075569256506046 L-5.994900788374233 4.025834676939678 L-6.1375242261395595 4.163140671710482 L-6.276470708642716 4.317120244381665 L-6.406606640652289 4.370916928294338 L-6.58476926524005 4.427259196619281 L-6.817527604403226 4.480002291427986 L-7.107186826248483 4.520618504939341 L-7.272791234402372 4.533445421950065 L-7.451427620533531 4.539774027641685 L-7.6439232995759445 4.538522448638984 L-7.848510504576648 4.528630024770185 L-8.064885179619731 4.5090997354738125 L-8.29594646250806 4.478432514373751 L-8.536497118399911 4.4361687420622316 L-8.78837562492637 4.380979057790622 L-9.01830853988126 4.320676206560764 A10 10 0 0 1 -9.432086568353075 3.321727678412108 L-9.31214 3.1165000000000003 L-9.17306 2.8993700000000002 L-9.03285 2.6993900000000006 L-8.89115 2.5143200000000006 L-8.75196 2.3475100000000007 L-8.61429 2.1958500000000005 L-8.47906 2.0588500000000005 L-8.34827 1.9370100000000003 L-8.2221 1.8289800000000005 L-7.98856 1.6528800000000003 L-7.78668 1.5255900000000004 L-7.62086 1.4394500000000003 L-7.4908 1.3854700000000004 L-7.28367 1.3961000000000003 L-7.08573 1.3923400000000004 L-6.90112 1.3750000000000004 L-6.73061 1.3451800000000005 L-6.57488 1.3040500000000004 L-6.43457 1.2528000000000004 L-6.31023 1.1926600000000005 L-6.20233 1.1248900000000004 L-6.11127 1.0507400000000005 L-6.03737 0.9715300000000003 L-5.98086 0.8885600000000003 L-5.94192 0.8031500000000004 L-5.92061 0.7166200000000004 L-5.91644 0.6410400000000004 L-5.94544 0.23350000000000037 L-5.95 3.643324227463376e-16 L-5.94544 -0.23349999999999965 L-5.91644 -0.6410399999999997 L-5.92061 -0.7166199999999997 L-5.94192 -0.8031499999999997 L-5.98086 -0.8885599999999997 L-6.03737 -0.9715299999999997 L-6.11127 -1.0507399999999996 L-6.20233 -1.1248899999999995 L-6.31023 -1.1926599999999996 L-6.43457 -1.2527999999999995 L-6.57488 -1.3040499999999995 L-6.73061 -1.3451799999999996 L-6.90112 -1.3749999999999996 L-7.08573 -1.3923399999999995 L-7.28367 -1.3960999999999995 L-7.4908 -1.3854699999999995 L-7.62086 -1.4394499999999995 L-7.78668 -1.5255899999999996 L-7.98856 -1.6528799999999995 L-8.2221 -1.8289799999999996 L-8.34827 -1.9370099999999995 L-8.47906 -2.0588499999999996 L-8.61429 -2.1958499999999996 L-8.75196 -2.3475099999999998 L-8.89115 -2.5143199999999997 L-9.03285 -2.6993899999999997 L-9.17306 -2.8993699999999993 L-9.31214 -3.1164999999999994 L-9.432086568353075 -3.321727678412107 A10 10 0 0 1 -9.01830853988126 -4.320676206560762 L-8.788375624926372 -4.38097905779062 L-8.536497118399911 -4.436168742062231 L-8.29594646250806 -4.4784325143737505 L-8.064885179619733 -4.509099735473811 L-7.848510504576649 -4.528630024770184 L-7.643923299575945 -4.538522448638983 L-7.451427620533532 -4.539774027641684 L-7.272791234402373 -4.533445421950064 L-7.107186826248483 -4.520618504939339 L-6.817527604403227 -4.480002291427985 L-6.584769265240051 -4.42725919661928 L-6.4066066406522895 -4.370916928294337 L-6.276470708642717 -4.317120244381664 L-6.13752422613956 -4.163140671710481 L-5.994900788374234 -4.025834676939677 L-5.85210057391361 -3.9075569256506038 L-5.710445872438509 -3.8080740726054683 L-5.571244831494125 -3.72703963548149 L-5.43579145649003 -3.6640647055490163 L-5.305344397496736 -3.61866845019684 L-5.181126949245694 -3.590292255067823 L-5.064305837925866 -3.578335079397959 L-4.956040718658393 -3.5820898164060595 L-4.857413464818494 -3.6007998618362556 L-4.769484736577946 -3.6336591139579943 L-4.693230341294789 -3.6797766182269807 L-4.636838575495162 -3.7302711134715123 L-4.369170374544806 -4.038951507730688 L-4.207285348059958 -4.2072853480599575 L-4.038951507730689 -4.369170374544805 L-3.730271113471513 -4.636838575495161 L-3.6797766182269815 -4.693230341294788 L-3.633659113957995 -4.769484736577946 L-3.6007998618362564 -4.857413464818493 L-3.5820898164060604 -4.956040718658393 L-3.5783350793979602 -5.064305837925865 L-3.590292255067824 -5.181126949245694 L-3.61866845019684 -5.305344397496736 L-3.6640647055490163 -5.43579145649003 L-3.727039635481491 -5.571244831494124 L-3.8080740726054696 -5.710445872438509 L-3.9075569256506046 -5.852100573913609 L-4.025834676939678 -5.994900788374233 L-4.163140671710482 -6.1375242261395595 L-4.317120244381665 -6.276470708642716 L-4.370916928294338 -6.406606640652289 L-4.427259196619281 -6.58476926524005 L-4.480002291427986 -6.817527604403226 L-4.520618504939341 -7.107186826248483 L-4.533445421950065 -7.272791234402372 L-4.539774027641685 -7.451427620533531 L-4.538522448638984 -7.6439232995759445 L-4.528630024770185 -7.848510504576648 L-4.5090997354738125 -8.064885179619731 L-4.478432514373751 -8.29594646250806 L-4.4361687420622316 -8.536497118399911 L-4.380979057790622 -8.78837562492637 L-4.320676206560764 -9.01830853988126 A10 10 0 0 1 -3.321727678412109 -9.432086568353075 L-3.116500000000001 -9.31214 L-2.899370000000001 -9.17306 L-2.699390000000001 -9.03285 L-2.514320000000001 -8.89115 L-2.347510000000001 -8.75196 L-2.195850000000001 -8.61429 L-2.058850000000001 -8.47906 L-1.937010000000001 -8.34827 L-1.8289800000000012 -8.2221 L-1.6528800000000008 -7.98856 L-1.525590000000001 -7.78668 L-1.4394500000000008 -7.62086 L-1.3854700000000009 -7.4908 L-1.3961000000000008 -7.28367 L-1.3923400000000008 -7.08573 L-1.3750000000000009 -6.90112 L-1.345180000000001 -6.73061 L-1.3040500000000008 -6.57488 L-1.2528000000000008 -6.43457 L-1.1926600000000007 -6.31023 L-1.1248900000000006 -6.20233 L-1.0507400000000007 -6.11127 L-0.9715300000000008 -6.03737 L-0.8885600000000008 -5.98086 L-0.8031500000000008 -5.94192 L-0.7166200000000008 -5.92061 L-0.6410400000000008 -5.91644 L-0.23350000000000073 -5.94544 L-7.286648454926752e-16 -5.95 L0.2334999999999993 -5.94544 L0.6410399999999993 -5.91644 L0.7166199999999993 -5.92061 L0.8031499999999993 -5.94192 L0.8885599999999992 -5.98086 L0.9715299999999992 -6.03737 L1.0507399999999993 -6.11127 L1.1248899999999993 -6.20233 L1.1926599999999994 -6.31023 L1.252799999999999 -6.43457 L1.304049999999999 -6.57488 L1.3451799999999992 -6.73061 L1.3749999999999991 -6.90112 L1.392339999999999 -7.08573 L1.396099999999999 -7.28367 L1.385469999999999 -7.4908 L1.439449999999999 -7.62086 L1.5255899999999991 -7.78668 L1.652879999999999 -7.98856 L1.828979999999999 -8.2221 L1.9370099999999988 -8.34827 L2.058849999999999 -8.47906 L2.195849999999999 -8.61429 L2.3475099999999993 -8.75196 L2.5143199999999992 -8.89115 L2.6993899999999993 -9.03285 L2.8993699999999984 -9.17306 L3.1164999999999985 -9.31214 L3.321727678412106 -9.432086568353075 A10 10 0 0 1 4.320676206560762 -9.01830853988126 L4.38097905779062 -8.788375624926374 L4.436168742062231 -8.536497118399913 L4.47843251437375 -8.295946462508063 L4.509099735473811 -8.064885179619733 L4.528630024770183 -7.84851050457665 L4.538522448638983 -7.643923299575947 L4.539774027641684 -7.451427620533533 L4.533445421950063 -7.272791234402374 L4.520618504939339 -7.107186826248484 L4.480002291427985 -6.817527604403228 L4.42725919661928 -6.584769265240052 L4.370916928294337 -6.40660664065229 L4.317120244381664 -6.276470708642718 L4.163140671710481 -6.13752422613956 L4.025834676939677 -5.994900788374234 L3.9075569256506033 -5.85210057391361 L3.8080740726054683 -5.71044587243851 L3.7270396354814896 -5.571244831494126 L3.6640647055490163 -5.435791456490031 L3.6186684501968394 -5.305344397496736 L3.5902922550678227 -5.181126949245695 L3.578335079397959 -5.0643058379258665 L3.5820898164060595 -4.956040718658394 L3.600799861836255 -4.857413464818494 L3.6336591139579943 -4.7694847365779465 L3.6797766182269807 -4.6932303412947896 L3.730271113471512 -4.636838575495163 L4.038951507730688 -4.369170374544806 L4.2072853480599575 -4.207285348059959 L4.369170374544805 -4.038951507730689 L4.636838575495161 -3.730271113471514 L4.693230341294788 -3.6797766182269824 L4.769484736577946 -3.6336591139579957 L4.857413464818493 -3.6007998618362564 L4.956040718658393 -3.5820898164060613 L5.064305837925865 -3.578335079397961 L5.181126949245694 -3.590292255067825 L5.305344397496736 -3.6186684501968407 L5.43579145649003 -3.664064705549017 L5.571244831494124 -3.727039635481492 L5.710445872438509 -3.8080740726054705 L5.852100573913609 -3.9075569256506046 L5.994900788374233 -4.025834676939678 L6.1375242261395595 -4.163140671710482 L6.276470708642716 -4.317120244381666 L6.406606640652289 -4.3709169282943385 L6.58476926524005 -4.427259196619282 L6.817527604403226 -4.4800022914279864 L7.107186826248483 -4.520618504939342 L7.272791234402373 -4.5334454219500655 L7.451427620533531 -4.539774027641686 L7.6439232995759445 -4.538522448638986 L7.848510504576649 -4.528630024770186 L8.064885179619731 -4.509099735473813 L8.29594646250806 -4.478432514373753 L8.536497118399911 -4.436168742062232 L8.78837562492637 -4.380979057790623 L9.01830853988126 -4.320676206560765 A10 10 0 0 1 9.432086568353075 -3.3217276784121093 L9.31214 -3.1165000000000016 L9.17306 -2.8993700000000016 L9.03285 -2.699390000000002 L8.89115 -2.514320000000002 L8.75196 -2.347510000000002 L8.61429 -2.195850000000002 L8.47906 -2.058850000000002 L8.34827 -1.9370100000000015 L8.2221 -1.8289800000000016 L7.98856 -1.6528800000000015 L7.78668 -1.5255900000000013 L7.62086 -1.4394500000000012 L7.4908 -1.3854700000000013 L7.28367 -1.3961000000000012 L7.08573 -1.3923400000000012 L6.90112 -1.3750000000000013 L6.73061 -1.3451800000000014 L6.57488 -1.304050000000001 L6.43457 -1.252800000000001 L6.31023 -1.1926600000000012 L6.20233 -1.124890000000001 L6.11127 -1.0507400000000011 L6.03737 -0.9715300000000011 L5.98086 -0.8885600000000011 L5.94192 -0.8031500000000011 L5.92061 -0.7166200000000011 L5.91644 -0.6410400000000012 L5.94544 -0.2335000000000011 L5.95 -1.0929972682390127e-15 L5.94544 0.23349999999999893 L5.91644 0.6410399999999989 L5.92061 0.7166199999999989 L5.94192 0.8031499999999989 L5.98086 0.8885599999999989 L6.03737 0.9715299999999989 L6.11127 1.050739999999999 L6.20233 1.1248899999999988 L6.31023 1.192659999999999 L6.43457 1.2527999999999988 L6.57488 1.3040499999999988 L6.73061 1.3451799999999987 L6.90112 1.3749999999999987 L7.08573 1.3923399999999986 L7.28367 1.3960999999999986 L7.4908 1.3854699999999986 L7.62086 1.4394499999999986 L7.78668 1.5255899999999987 L7.98856 1.6528799999999984 L8.2221 1.8289799999999985 L8.34827 1.9370099999999983 L8.47906 2.0588499999999983 L8.61429 2.1958499999999983 L8.75196 2.3475099999999984 L8.89115 2.5143199999999983 L9.03285 2.6993899999999984 L9.17306 2.899369999999998 L9.31214 3.116499999999998 L9.432086568353075 3.3217276784121057 A10 10 0 0 1 9.01830853988126 4.32067620656076 L8.788375624926372 4.3809790577906185 L8.536497118399913 4.436168742062229 L8.295946462508061 4.478432514373749 L8.064885179619733 4.509099735473809 L7.84851050457665 4.528630024770182 L7.643923299575946 4.538522448638982 L7.451427620533533 4.539774027641683 L7.272791234402374 4.533445421950063 L7.107186826248484 4.520618504939338 L6.817527604403228 4.480002291427984 L6.584769265240052 4.4272591966192785 L6.40660664065229 4.370916928294336 L6.276470708642718 4.3171202443816625 L6.1375242261395595 4.16314067171048 L5.994900788374233 4.0258346769396764 L5.85210057391361 3.9075569256506024 L5.71044587243851 3.8080740726054674 L5.571244831494126 3.7270396354814888 L5.435791456490031 3.6640647055490154 L5.305344397496736 3.6186684501968385 L5.181126949245695 3.5902922550678227 L5.0643058379258665 3.578335079397958 L4.956040718658394 3.5820898164060586 L4.857413464818493 3.6007998618362542 L4.7694847365779465 3.6336591139579935 L4.6932303412947896 3.6797766182269807 L4.636838575495163 3.730271113471511 L4.369170374544806 4.038951507730687 L4.207285348059959 4.207285348059957 L4.038951507730689 4.3691703745448045 L3.730271113471514 4.63683857549516 L3.679776618226983 4.693230341294788 L3.6336591139579957 4.769484736577946 L3.6007998618362564 4.857413464818492 L3.5820898164060617 4.956040718658392 L3.578335079397961 5.064305837925865 L3.5902922550678253 5.181126949245694 L3.618668450196841 5.305344397496735 L3.6640647055490176 5.435791456490029 L3.727039635481492 5.571244831494123 L3.8080740726054705 5.710445872438508 L3.9075569256506046 5.852100573913608 L4.025834676939679 5.994900788374232 L4.163140671710483 6.137524226139559 L4.317120244381666 6.276470708642716 L4.3709169282943385 6.406606640652288 L4.427259196619282 6.58476926524005 L4.4800022914279864 6.817527604403225 L4.520618504939342 7.1071868262484825 L4.5334454219500655 7.272791234402371 L4.539774027641686 7.45142762053353 L4.538522448638987 7.643923299575944 L4.528630024770186 7.848510504576648 L4.509099735473813 8.064885179619731 L4.478432514373753 8.29594646250806 L4.436168742062232 8.536497118399911 L4.380979057790624 8.78837562492637 L4.320676206560766 9.018308539881259 A10 10 0 0 1 3.3217276784121097 9.432086568353075 L3.116500000000002 9.31214 L2.899370000000002 9.17306 L2.6993900000000024 9.03285 L2.5143200000000023 8.89115 L2.3475100000000024 8.75196 L2.1958500000000023 8.61429 L2.0588500000000023 8.47906 L1.937010000000002 8.34827 L1.828980000000002 8.2221 L1.652880000000002 7.98856 L1.525590000000002 7.78668 L1.4394500000000017 7.62086 L1.3854700000000018 7.4908 L1.3961000000000017 7.28367 L1.3923400000000017 7.08573 L1.3750000000000018 6.90112 L1.3451800000000016 6.73061 L1.3040500000000015 6.57488 L1.2528000000000015 6.43457 L1.1926600000000016 6.31023 L1.1248900000000015 6.20233 L1.0507400000000016 6.11127 L0.9715300000000014 6.03737 L0.8885600000000015 5.98086 L0.8031500000000015 5.94192 L0.7166200000000015 5.92061 L0.6410400000000015 5.91644 L0.23350000000000146 5.94544 L1.4573296909853504e-15 5.95 L-0.23349999999999857 5.94544 L-0.6410399999999986 5.91644 L-0.7166199999999986 5.92061 L-0.8031499999999986 5.94192 L-0.8885599999999986 5.98086 L-0.9715299999999986 6.03737 L-1.0507399999999985 6.11127 L-1.1248899999999984 6.20233 L-1.1926599999999985 6.31023 L-1.2527999999999984 6.43457 L-1.3040499999999984 6.57488 L-1.3451799999999985 6.73061 L-1.3749999999999982 6.90112 L-1.3923399999999981 7.08573 L-1.3960999999999981 7.28367 L-1.3854699999999982 7.4908 L-1.4394499999999981 7.62086 L-1.525589999999998 7.78668 L-1.652879999999998 7.98856 L-1.828979999999998 8.2221 L-1.937009999999998 8.34827 L-2.058849999999998 8.47906 L-2.195849999999998 8.61429 L-2.347509999999998 8.75196 L-2.514319999999998 8.89115 L-2.699389999999998 9.03285 L-2.8993699999999976 9.17306 L-3.1164999999999976 9.31214 L-3.3217276784121053 9.432086568353075 A10 10 0 0 1 -4.320676206560762 9.01830853988126 Z" id="SvgjsPath1159">
        </path>
      </g>
    </g>
    <g transform="matrix(1,0,0,1,0,0)" id="SvgjsG1160">
      <g fill="none" stroke-width="0.04" stroke="blue" id="SvgjsG1161">
      </g>
      <g fill="none" stroke-width="0.1" stroke="black" id="SvgjsG1162">
        <circle cy="0" cx="0" r="2.5" id="SvgjsCircle1163">
        </circle>
        <path d="M37.04198058778576 -5.504116154679453  L36.76687692354825 -5.323712801265228 L36.500301327223255 -5.156783992655177 L35.99613844758289 -4.862533590798634 L35.53329213809347 -4.617742372426676 L35.11196319563992 -4.417017316066049 L34.73976737514096 -4.258444896953843 L34.415736683308744 -4.136108233394879 L34.13030009149336 -4.041340174151166 L34.02501379557638 -4.001361738813092 L33.93638283635384 -3.9590660940338243 L33.864455786222635 -3.9151601632337334 L33.80923576563184 -3.870296702311143 L33.77073237074785 -3.8251691865097284 L33.74893614540048 -3.7804593860113287 L33.7437886952421 -3.7368347512636664 L33.76110174564557 -3.5774973561370764 L33.82081000021476 -2.9589374662829897 L33.86942064584721 -2.339406661454693 L33.88003926787951 -2.17948357973684 L33.89268385502905 -2.1374155465546507 L33.92191272211794 -2.0971698631997864 L33.96766747479853 -2.0594139801199676 L34.029839037430875 -2.024820951922761 L34.108297538923594 -1.9940720520478565 L34.20292655636202 -1.9678095777044498 L34.31355549930944 -1.9467212780495007 L34.61111196871132 -1.9029585025765743 L34.951463444930454 -1.8387477469708784 L35.34554058620365 -1.7472155251801706 L35.79532413554945 -1.622702936507805 L36.29364631856688 -1.4620030649684985 L36.841245877277814 -1.2597699531900772 L37.132758474717775 -1.141667534782119 L37.435009409706325 -1.0117761636347269 L37.99253423851042 -0.7525620934369361 A38 38 0 0 1 37.99253423851042 0.7525620934369495 L37.435009409706325 1.0117761636347398 L37.132758474717775 1.141667534782132 L36.841245877277814 1.25976995319009 L36.29364631856688 1.462003064968511 L35.79532413554945 1.6227029365078174 L35.34554058620365 1.747215525180183 L34.951463444930454 1.8387477469708904 L34.61111196871132 1.9029585025765863 L34.31355549930944 1.9467212780495127 L34.20292655636202 1.9678095777044617 L34.108297538923594 1.9940720520478685 L34.029839037430875 2.024820951922773 L33.96766747479853 2.059413980119979 L33.92191272211794 2.097169863199798 L33.89268385502905 2.1374155465546627 L33.88003926787951 2.1794835797368526 L33.86942064584721 2.339406661454705 L33.82081000021476 2.9589374662830017 L33.76110174564557 3.5774973561370884 L33.7437886952421 3.736834751263678 L33.74893614540048 3.7804593860113407 L33.77073237074785 3.82516918650974 L33.80923576563184 3.8702967023111547 L33.864455786222635 3.9151601632337454 L33.93638283635384 3.9590660940338367 L34.02501379557638 4.001361738813103 L34.13030009149336 4.041340174151179 L34.415736683308744 4.13610823339489 L34.73976737514096 4.258444896953855 L35.11196319563992 4.417017316066062 L35.53329213809347 4.617742372426688 L35.99613844758289 4.862533590798646 L36.500301327223255 5.15678399265519 L36.76687692354825 5.323712801265241 L37.04198058778576 5.504116154679466 L37.54602331077337 5.856205351226 A38 38 0 0 1 37.2846612385603 7.338463319705598 L36.690594413741735 7.496926175200333 L36.37037994971542 7.572358880496784 L36.062787813921226 7.638046426482031 L35.48839011163239 7.742117497415834 L34.96973332245475 7.813843237843827 L34.50516161176211 7.858360106827531 L34.101176984239615 7.880070971055168 L33.75484613101231 7.884204807390727 L33.45421088677588 7.875632589305157 L33.34160070124856 7.877189995963158 L33.2438488804045 7.886621327877232 L33.16124284941621 7.903278907063946 L33.09400879621257 7.926550410878914 L33.04239292074254 7.955787467835154 L33.006619516248115 7.990346189323044 L32.9868619914895 8.029579405038971 L32.94863433847859 8.185228991435075 L32.79318180251387 8.786906581230587 L32.62696885284428 9.385700926863656 L32.582250178280724 9.539611249276673 L32.57974408877963 9.58346697313813 L32.593445405107715 9.63128240611617 L32.623527536025215 9.682410377907182 L32.67011818219147 9.736181117997031 L32.73332831393978 9.791910020232418 L32.81326820809988 9.848953703683557 L32.910012786162426 9.906607550177077 L33.174656653986894 10.049501413666405 L33.4725210528283 10.226246847561736 L33.81152657088736 10.447041321282233 L34.19159903973492 10.717879916065385 L34.604906124794034 11.039324623970094 L35.05031359138467 11.416651666342236 L35.28385242199413 11.627334817774818 L35.52344992985192 11.852768688850887 L35.95869546394298 12.287034959674829 A38 38 0 0 1 35.443912673825444 13.701389051446602 L34.831354272852224 13.754285878560149 L34.502905834241254 13.772967933426017 L34.18858019148979 13.784244724143292 L33.604837129147846 13.786991607404657 L33.08160485789615 13.767563866393406 L32.61636076220144 13.730732393151001 L32.214743516910836 13.68196222619224 L31.872956374398814 13.625893538732425 L31.578377005095184 13.565246789597136 L31.467207180491677 13.547225982244973 L31.36930269585354 13.539539605481991 L31.28505907782059 13.541599731866068 L31.214805406730175 13.552842618431328 L31.158896730727985 13.57267249608304 L31.117665745621355 13.600494206439103 L31.091395605645648 13.635700523282205 L31.026720449548755 13.782347280436404 L30.76914936989427 14.347889986096748 L30.50148202149218 14.908724724321292 L30.430716477066415 15.052531486756601 L30.420632994167182 15.095285765754392 L30.425823093912566 15.144753983476814 L30.44656993053793 15.20032891370655 L30.483115569071913 15.261373136235335 L30.535688174570012 15.327231715411784 L30.604508070435152 15.397290194078627 L30.689771395593958 15.470867668776137 L30.92558146941992 15.657545578776743 L31.188229116238382 15.88332946243704 L31.483743820736365 16.159637262409223 L31.811011506337977 16.492360101963353 L32.16222124033073 16.88069136461 L32.535339813386344 17.329630156251962 L32.72874591908856 17.57766614956161 L32.92555722153254 17.841280844201922 L33.27878085141857 18.34452922841362 A38 38 0 0 1 32.526218757981624 19.648005010096803 L31.913781057897808 19.593728565504403 L31.58707838430643 19.555092325156167 L31.27556986019626 19.511615721025855 L30.700218175362227 19.412954953956877 L30.188308569830163 19.302964033586097 L29.736528295556187 19.185903323794427 L29.349481369267497 19.068133982493414 L29.02262296684334 18.953566389934572 L28.743050117544445 18.842687830533304 L28.636698492730694 18.805636362283405 L28.541616122522147 18.781065823511813 L28.45829461714914 18.768465901195547 L28.387155950417952 18.767338561091986 L28.328653230712774 18.777158738641127 L28.283217447612525 18.797398089274658 L28.251232897329565 18.827507781122915 L28.16207536003748 18.960695921525918 L27.810211903611272 19.472920014118017 L27.44922309341167 19.978754465209164 L27.354560854381972 20.108088171959896 L27.33720635961002 20.148441938961376 L27.33372754421825 20.198059874664814 L27.344508704419024 20.256393147200516 L27.36989891458685 20.322856054356564 L27.410236601819708 20.39684323087185 L27.465845441678574 20.477787813331407 L27.537036830944007 20.565053301896224 L27.73684814100393 20.789843144576317 L27.956298619956986 21.057805148948717 L28.199343446135384 21.38123080248893 L28.46386248546947 21.765728271700066 L28.7423035383492 22.209146840178235 L29.031796198834602 22.716056603079963 L29.17919303297601 22.993908990122236 L29.327238118172765 23.287694709225608 L29.58770732259945 23.844634259326767 A38 38 0 0 1 28.62023214423739 24.997626278885473 L28.026523754651592 24.83782572489086 L27.71149354149736 24.743045131940615 L27.41226716490265 24.646136147579 L26.862788627378208 24.449065487662306 L26.377755801891105 24.251853406389376 L25.953166464059834 24.058120290479888 L25.59245008177314 23.87493013667789 L25.290451846596177 23.70534471734592 L25.034380196857278 23.547603336598822 L24.936078212136728 23.492646997565007 L24.846706986062554 23.451938860172096 L24.766839275127538 23.425061731419195 L24.696977125146304 23.4115984183054 L24.637657937272568 23.411110514626387 L24.589397899456586 23.423152543109996 L24.552670773241758 23.447250742212834 L24.44173986140921 23.56293341161495 L24.00627522128329 24.006275221283293 L23.562933411614942 24.44173986140921 L23.44725074221283 24.55267077324176 L23.423152543109993 24.58939789945659 L23.411110514626383 24.63765793727257 L23.411598418305395 24.696977125146308 L23.42506173141919 24.76683927512754 L23.45193886017209 24.84670698606256 L23.492646997565004 24.93607821213673 L23.54760333659882 25.03438019685728 L23.705344717345916 25.29045184659618 L23.874930136677886 25.592450081773144 L24.058120290479884 25.953166464059837 L24.251853406389372 26.37775580189111 L24.449065487662303 26.86278862737821 L24.646136147578993 27.41226716490265 L24.74304513194061 27.711493541497365 L24.837825724890855 28.026523754651596 L24.99762627888547 28.620232144237395 A38 38 0 0 1 23.844634259326764 29.587707322599453 L23.287694709225605 29.32723811817277 L22.993908990122236 29.179193032976016 L22.71605660307996 29.031796198834606 L22.20914684017823 28.74230353834921 L21.765728271700063 28.463862485469473 L21.381230802488922 28.199343446135387 L21.057805148948713 27.95629861995699 L20.789843144576313 27.736848141003932 L20.56505330189622 27.53703683094401 L20.477787813331403 27.465845441678578 L20.396843230871845 27.41023660181971 L20.32285605435656 27.369898914586855 L20.256393147200512 27.344508704419027 L20.19805987466481 27.333727544218252 L20.148441938961373 27.337206359610022 L20.108088171959892 27.354560854381976 L19.97875446520916 27.449223093411675 L19.472920014118014 27.810211903611275 L18.960695921525915 28.162075360037484 L18.82750778112291 28.25123289732957 L18.797398089274655 28.28321744761253 L18.777158738641123 28.328653230712778 L18.767338561091982 28.387155950417956 L18.768465901195544 28.458294617149143 L18.78106582351181 28.54161612252215 L18.8056363622834 28.636698492730698 L18.8426878305333 28.74305011754445 L18.95356638993457 29.022622966843343 L19.06813398249341 29.3494813692675 L19.185903323794427 29.73652829555619 L19.302964033586093 30.188308569830166 L19.412954953956874 30.700218175362235 L19.51161572102585 31.275569860196264 L19.55509232515616 31.587078384306437 L19.5937285655044 31.91378105789781 L19.6480050100968 32.526218757981624 A38 38 0 0 1 18.34452922841362 33.27878085141857 L17.84128084420192 32.92555722153254 L17.57766614956161 32.72874591908856 L17.329630156251962 32.535339813386344 L16.88069136461 32.16222124033073 L16.49236010196335 31.811011506337977 L16.15963726240922 31.483743820736365 L15.883329462437038 31.188229116238382 L15.657545578776741 30.92558146941992 L15.470867668776135 30.689771395593958 L15.397290194078625 30.604508070435152 L15.327231715411783 30.535688174570012 L15.261373136235333 30.483115569071913 L15.200328913706548 30.44656993053793 L15.144753983476813 30.425823093912566 L15.09528576575439 30.420632994167182 L15.0525314867566 30.430716477066415 L14.90872472432129 30.50148202149218 L14.347889986096746 30.76914936989427 L13.782347280436403 31.026720449548755 L13.635700523282203 31.091395605645648 L13.600494206439102 31.117665745621355 L13.572672496083038 31.158896730727985 L13.552842618431326 31.214805406730175 L13.541599731866066 31.28505907782059 L13.53953960548199 31.36930269585354 L13.54722598224497 31.467207180491677 L13.565246789597134 31.578377005095184 L13.625893538732424 31.872956374398814 L13.681962226192239 32.214743516910836 L13.730732393151 32.61636076220144 L13.767563866393404 33.08160485789615 L13.786991607404655 33.604837129147846 L13.78424472414329 34.18858019148979 L13.772967933426013 34.502905834241254 L13.754285878560147 34.831354272852224 L13.701389051446599 35.443912673825444 A38 38 0 0 1 12.287034959674818 35.95869546394298 L11.852768688850876 35.52344992985192 L11.627334817774807 35.28385242199414 L11.416651666342228 35.05031359138467 L11.039324623970085 34.60490612479404 L10.717879916065375 34.191599039734925 L10.447041321282223 33.81152657088736 L10.226246847561729 33.472521052828306 L10.049501413666395 33.1746566539869 L9.906607550177066 32.91001278616243 L9.848953703683549 32.81326820809988 L9.791910020232411 32.733328313939786 L9.73618111799702 32.67011818219148 L9.682410377907171 32.623527536025215 L9.631282406116163 32.59344540510772 L9.58346697313812 32.57974408877963 L9.539611249276664 32.582250178280724 L9.385700926863645 32.62696885284428 L8.786906581230578 32.79318180251387 L8.185228991435064 32.94863433847859 L8.029579405038962 32.9868619914895 L7.990346189323035 33.006619516248115 L7.955787467835145 33.04239292074255 L7.926550410878903 33.09400879621257 L7.903278907063935 33.16124284941622 L7.886621327877223 33.24384888040451 L7.877189995963147 33.34160070124856 L7.8756325893051455 33.45421088677589 L7.8842048073907165 33.754846131012314 L7.880070971055159 34.10117698423962 L7.85836010682752 34.50516161176211 L7.813843237843816 34.96973332245476 L7.742117497415824 35.4883901116324 L7.638046426482021 36.062787813921226 L7.572358880496774 36.37037994971543 L7.496926175200322 36.690594413741735 L7.338463319705587 37.2846612385603 A38 38 0 0 1 5.85620535122599 37.54602331077337 L5.504116154679455 37.04198058778576 L5.323712801265231 36.76687692354825 L5.156783992655179 36.500301327223255 L4.862533590798636 35.99613844758289 L4.617742372426678 35.53329213809347 L4.417017316066051 35.11196319563992 L4.258444896953844 34.73976737514096 L4.13610823339488 34.415736683308744 L4.041340174151169 34.13030009149336 L4.0013617388130935 34.02501379557638 L3.959066094033826 33.93638283635384 L3.915160163233735 33.864455786222635 L3.870296702311145 33.80923576563184 L3.82516918650973 33.77073237074785 L3.7804593860113305 33.74893614540048 L3.736834751263668 33.7437886952421 L3.577497356137078 33.76110174564557 L2.9589374662829915 33.82081000021476 L2.339406661454695 33.86942064584721 L2.179483579736842 33.88003926787951 L2.1374155465546525 33.89268385502905 L2.097169863199788 33.92191272211794 L2.0594139801199693 33.96766747479853 L2.024820951922763 34.029839037430875 L1.9940720520478583 34.108297538923594 L1.9678095777044515 34.20292655636202 L1.946721278049503 34.31355549930944 L1.902958502576576 34.61111196871132 L1.8387477469708802 34.951463444930454 L1.7472155251801724 35.34554058620365 L1.6227029365078067 35.79532413554945 L1.4620030649685003 36.29364631856688 L1.2597699531900795 36.841245877277814 L1.1416675347821212 37.132758474717775 L1.0117761636347287 37.435009409706325 L0.7525620934369384 37.99253423851042 A38 38 0 0 1 -0.7525620934369468 37.99253423851042 L-1.011776163634737 37.435009409706325 L-1.1416675347821297 37.132758474717775 L-1.2597699531900874 36.841245877277814 L-1.4620030649685083 36.29364631856688 L-1.6227029365078147 35.79532413554945 L-1.7472155251801804 35.34554058620365 L-1.8387477469708882 34.951463444930454 L-1.902958502576584 34.61111196871132 L-1.9467212780495105 34.31355549930944 L-1.967809577704459 34.20292655636202 L-1.9940720520478659 34.108297538923594 L-2.024820951922771 34.029839037430875 L-2.0594139801199773 33.96766747479853 L-2.0971698631997957 33.92191272211794 L-2.13741554655466 33.89268385502905 L-2.17948357973685 33.88003926787951 L-2.3394066614547024 33.86942064584721 L-2.958937466282999 33.82081000021476 L-3.5774973561370857 33.76110174564557 L-3.7368347512636753 33.7437886952421 L-3.780459386011338 33.74893614540048 L-3.8251691865097377 33.77073237074785 L-3.870296702311152 33.80923576563184 L-3.915160163233743 33.864455786222635 L-3.959066094033834 33.93638283635384 L-4.001361738813101 34.02501379557638 L-4.041340174151176 34.13030009149336 L-4.136108233394888 34.415736683308744 L-4.258444896953852 34.73976737514096 L-4.417017316066058 35.11196319563992 L-4.617742372426686 35.53329213809347 L-4.862533590798644 35.99613844758289 L-5.156783992655187 36.500301327223255 L-5.323712801265239 36.76687692354825 L-5.504116154679464 37.04198058778576 L-5.856205351225999 37.54602331077337 A38 38 0 0 1 -7.338463319705596 37.2846612385603 L-7.496926175200331 36.690594413741735 L-7.5723588804967825 36.37037994971542 L-7.638046426482029 36.062787813921226 L-7.742117497415832 35.48839011163239 L-7.813843237843823 34.96973332245475 L-7.858360106827529 34.50516161176211 L-7.880070971055166 34.101176984239615 L-7.884204807390724 33.75484613101231 L-7.8756325893051535 33.45421088677588 L-7.877189995963156 33.34160070124856 L-7.88662132787723 33.2438488804045 L-7.903278907063944 33.16124284941621 L-7.926550410878912 33.09400879621257 L-7.955787467835152 33.04239292074254 L-7.990346189323042 33.006619516248115 L-8.02957940503897 32.9868619914895 L-8.185228991435073 32.94863433847859 L-8.786906581230586 32.79318180251387 L-9.385700926863654 32.62696885284428 L-9.539611249276671 32.582250178280724 L-9.583466973138128 32.57974408877963 L-9.631282406116169 32.593445405107715 L-9.68241037790718 32.623527536025215 L-9.73618111799703 32.67011818219147 L-9.791910020232418 32.73332831393978 L-9.848953703683556 32.81326820809988 L-9.906607550177073 32.910012786162426 L-10.049501413666402 33.174656653986894 L-10.226246847561736 33.4725210528283 L-10.447041321282232 33.81152657088736 L-10.717879916065382 34.19159903973492 L-11.039324623970092 34.604906124794034 L-11.416651666342235 35.05031359138467 L-11.627334817774816 35.28385242199413 L-11.852768688850885 35.52344992985192 L-12.287034959674827 35.95869546394298 A38 38 0 0 1 -13.701389051446599 35.443912673825444 L-13.754285878560147 34.831354272852224 L-13.772967933426013 34.502905834241254 L-13.78424472414329 34.18858019148979 L-13.786991607404655 33.604837129147846 L-13.767563866393404 33.08160485789615 L-13.730732393151 32.61636076220144 L-13.681962226192239 32.214743516910836 L-13.625893538732424 31.872956374398814 L-13.565246789597134 31.578377005095184 L-13.54722598224497 31.467207180491677 L-13.53953960548199 31.36930269585354 L-13.541599731866066 31.28505907782059 L-13.552842618431326 31.214805406730175 L-13.572672496083038 31.158896730727985 L-13.600494206439102 31.117665745621355 L-13.635700523282203 31.091395605645648 L-13.782347280436403 31.026720449548755 L-14.347889986096746 30.76914936989427 L-14.90872472432129 30.50148202149218 L-15.0525314867566 30.430716477066415 L-15.09528576575439 30.420632994167182 L-15.144753983476813 30.425823093912566 L-15.200328913706548 30.44656993053793 L-15.261373136235333 30.483115569071913 L-15.327231715411783 30.535688174570012 L-15.397290194078625 30.604508070435152 L-15.470867668776135 30.689771395593958 L-15.657545578776741 30.92558146941992 L-15.883329462437038 31.188229116238382 L-16.15963726240922 31.483743820736365 L-16.49236010196335 31.811011506337977 L-16.88069136461 32.16222124033073 L-17.329630156251962 32.535339813386344 L-17.57766614956161 32.72874591908856 L-17.84128084420192 32.92555722153254 L-18.34452922841362 33.27878085141857 A38 38 0 0 1 -19.648005010096806 32.526218757981624 L-19.59372856550441 31.913781057897808 L-19.555092325156167 31.58707838430643 L-19.51161572102586 31.27556986019626 L-19.41295495395688 30.700218175362227 L-19.3029640335861 30.188308569830163 L-19.185903323794435 29.736528295556187 L-19.06813398249342 29.349481369267497 L-18.953566389934576 29.02262296684334 L-18.842687830533308 28.743050117544445 L-18.80563636228341 28.636698492730694 L-18.781065823511817 28.541616122522147 L-18.76846590119555 28.458294617149143 L-18.76733856109199 28.387155950417956 L-18.77715873864113 28.328653230712774 L-18.79739808927466 28.283217447612525 L-18.827507781122918 28.251232897329565 L-18.96069592152592 28.16207536003748 L-19.47292001411802 27.810211903611272 L-19.978754465209168 27.44922309341167 L-20.1080881719599 27.354560854381972 L-20.14844193896138 27.33720635961002 L-20.198059874664818 27.33372754421825 L-20.25639314720052 27.34450870441902 L-20.322856054356567 27.369898914586848 L-20.396843230871852 27.410236601819708 L-20.47778781333141 27.465845441678574 L-20.565053301896228 27.537036830944007 L-20.78984314457632 27.73684814100393 L-21.057805148948724 27.956298619956986 L-21.38123080248893 28.199343446135384 L-21.76572827170007 28.46386248546947 L-22.20914684017824 28.7423035383492 L-22.716056603079966 29.031796198834602 L-22.993908990122243 29.17919303297601 L-23.287694709225615 29.327238118172765 L-23.84463425932677 29.58770732259945 A38 38 0 0 1 -24.99762627888547 28.620232144237395 L-24.837825724890855 28.026523754651596 L-24.74304513194061 27.711493541497365 L-24.646136147578993 27.41226716490265 L-24.449065487662303 26.86278862737821 L-24.251853406389372 26.37775580189111 L-24.058120290479884 25.953166464059837 L-23.874930136677886 25.592450081773144 L-23.705344717345916 25.29045184659618 L-23.54760333659882 25.03438019685728 L-23.492646997565004 24.93607821213673 L-23.45193886017209 24.84670698606256 L-23.42506173141919 24.76683927512754 L-23.411598418305395 24.696977125146308 L-23.411110514626383 24.63765793727257 L-23.423152543109993 24.58939789945659 L-23.44725074221283 24.55267077324176 L-23.562933411614942 24.44173986140921 L-24.00627522128329 24.006275221283293 L-24.44173986140921 23.56293341161495 L-24.552670773241758 23.447250742212834 L-24.589397899456586 23.423152543109996 L-24.637657937272568 23.411110514626387 L-24.696977125146304 23.4115984183054 L-24.766839275127538 23.425061731419195 L-24.846706986062554 23.451938860172096 L-24.936078212136728 23.492646997565007 L-25.034380196857278 23.547603336598822 L-25.290451846596177 23.70534471734592 L-25.59245008177314 23.87493013667789 L-25.953166464059834 24.058120290479888 L-26.377755801891105 24.251853406389376 L-26.862788627378208 24.449065487662306 L-27.41226716490265 24.646136147579 L-27.71149354149736 24.743045131940615 L-28.026523754651592 24.83782572489086 L-28.62023214423739 24.997626278885473 A38 38 0 0 1 -29.587707322599456 23.84463425932676 L-29.327238118172772 23.287694709225605 L-29.179193032976023 22.99390899012223 L-29.03179619883461 22.716056603079956 L-28.742303538349212 22.209146840178228 L-28.463862485469477 21.76572827170006 L-28.199343446135394 21.381230802488922 L-27.956298619956993 21.05780514894871 L-27.736848141003936 20.78984314457631 L-27.537036830944018 20.565053301896217 L-27.46584544167858 20.4777878133314 L-27.410236601819715 20.39684323087184 L-27.36989891458686 20.322856054356556 L-27.34450870441903 20.25639314720051 L-27.333727544218256 20.198059874664807 L-27.337206359610025 20.14844193896137 L-27.35456085438198 20.10808817195989 L-27.44922309341168 19.978754465209157 L-27.81021190361128 19.47292001411801 L-28.162075360037488 18.96069592152591 L-28.251232897329572 18.827507781122907 L-28.283217447612532 18.79739808927465 L-28.32865323071278 18.77715873864112 L-28.38715595041796 18.76733856109198 L-28.458294617149146 18.76846590119554 L-28.541616122522154 18.781065823511806 L-28.6366984927307 18.805636362283398 L-28.743050117544456 18.842687830533297 L-29.022622966843347 18.953566389934565 L-29.349481369267505 19.068133982493407 L-29.736528295556198 19.18590332379442 L-30.18830856983017 19.30296403358609 L-30.700218175362238 19.41295495395687 L-31.275569860196267 19.511615721025848 L-31.587078384306437 19.555092325156153 L-31.913781057897815 19.593728565504392 L-32.52621875798163 19.648005010096796 A38 38 0 0 1 -33.27878085141857 18.34452922841362 L-32.92555722153254 17.841280844201922 L-32.72874591908856 17.57766614956161 L-32.535339813386344 17.329630156251962 L-32.16222124033073 16.88069136461 L-31.811011506337977 16.492360101963353 L-31.483743820736365 16.159637262409223 L-31.188229116238382 15.88332946243704 L-30.92558146941992 15.657545578776743 L-30.689771395593958 15.470867668776137 L-30.604508070435152 15.397290194078627 L-30.535688174570012 15.327231715411784 L-30.483115569071913 15.261373136235335 L-30.44656993053793 15.20032891370655 L-30.425823093912566 15.144753983476814 L-30.420632994167182 15.095285765754392 L-30.430716477066415 15.052531486756601 L-30.50148202149218 14.908724724321292 L-30.76914936989427 14.347889986096748 L-31.026720449548755 13.782347280436404 L-31.091395605645648 13.635700523282205 L-31.117665745621355 13.600494206439103 L-31.158896730727985 13.57267249608304 L-31.214805406730175 13.552842618431328 L-31.28505907782059 13.541599731866068 L-31.36930269585354 13.539539605481991 L-31.467207180491677 13.547225982244973 L-31.578377005095184 13.565246789597136 L-31.872956374398814 13.625893538732425 L-32.214743516910836 13.68196222619224 L-32.61636076220144 13.730732393151001 L-33.08160485789615 13.767563866393406 L-33.604837129147846 13.786991607404657 L-34.18858019148979 13.784244724143292 L-34.502905834241254 13.772967933426017 L-34.831354272852224 13.754285878560149 L-35.443912673825444 13.701389051446602 A38 38 0 0 1 -35.95869546394298 12.287034959674829 L-35.52344992985192 11.852768688850887 L-35.28385242199413 11.627334817774818 L-35.05031359138467 11.416651666342236 L-34.604906124794034 11.039324623970094 L-34.19159903973492 10.717879916065385 L-33.81152657088736 10.447041321282233 L-33.4725210528283 10.226246847561736 L-33.174656653986894 10.049501413666405 L-32.910012786162426 9.906607550177077 L-32.81326820809988 9.848953703683557 L-32.73332831393978 9.791910020232418 L-32.67011818219147 9.736181117997031 L-32.623527536025215 9.682410377907182 L-32.593445405107715 9.63128240611617 L-32.57974408877963 9.58346697313813 L-32.582250178280724 9.539611249276673 L-32.62696885284428 9.385700926863656 L-32.79318180251387 8.786906581230587 L-32.94863433847859 8.185228991435075 L-32.9868619914895 8.029579405038971 L-33.006619516248115 7.990346189323044 L-33.04239292074254 7.955787467835154 L-33.09400879621257 7.926550410878914 L-33.16124284941621 7.903278907063946 L-33.2438488804045 7.886621327877232 L-33.34160070124856 7.877189995963158 L-33.45421088677588 7.875632589305157 L-33.75484613101231 7.884204807390727 L-34.101176984239615 7.880070971055168 L-34.50516161176211 7.858360106827531 L-34.96973332245475 7.813843237843827 L-35.48839011163239 7.742117497415834 L-36.062787813921226 7.638046426482031 L-36.37037994971542 7.572358880496784 L-36.690594413741735 7.496926175200333 L-37.2846612385603 7.338463319705598 A38 38 0 0 1 -37.54602331077337 5.856205351225992 L-37.04198058778576 5.504116154679458 L-36.76687692354825 5.323712801265232 L-36.500301327223255 5.156783992655182 L-35.99613844758289 4.8625335907986384 L-35.53329213809347 4.61774237242668 L-35.11196319563992 4.417017316066053 L-34.73976737514096 4.258444896953847 L-34.415736683308744 4.136108233394883 L-34.13030009149336 4.041340174151171 L-34.02501379557638 4.001361738813096 L-33.93638283635384 3.9590660940338287 L-33.864455786222635 3.915160163233738 L-33.80923576563184 3.8702967023111468 L-33.77073237074785 3.825169186509733 L-33.74893614540048 3.780459386011333 L-33.7437886952421 3.736834751263671 L-33.76110174564557 3.577497356137081 L-33.82081000021476 2.958937466282994 L-33.86942064584721 2.3394066614546976 L-33.88003926787951 2.1794835797368446 L-33.89268385502905 2.137415546554655 L-33.92191272211794 2.097169863199791 L-33.96766747479853 2.059413980119972 L-34.029839037430875 2.0248209519227656 L-34.108297538923594 1.994072052047861 L-34.20292655636202 1.9678095777044542 L-34.31355549930944 1.9467212780495051 L-34.61111196871132 1.9029585025765787 L-34.951463444930454 1.8387477469708828 L-35.34554058620365 1.747215525180175 L-35.79532413554945 1.6227029365078094 L-36.29364631856688 1.462003064968503 L-36.841245877277814 1.2597699531900821 L-37.132758474717775 1.141667534782124 L-37.435009409706325 1.0117761636347313 L-37.99253423851042 0.752562093436941 A38 38 0 0 1 -37.99253423851042 -0.7525620934369361 L-37.435009409706325 -1.0117761636347269 L-37.132758474717775 -1.141667534782119 L-36.841245877277814 -1.2597699531900772 L-36.29364631856688 -1.4620030649684985 L-35.79532413554945 -1.622702936507805 L-35.34554058620365 -1.7472155251801706 L-34.951463444930454 -1.8387477469708784 L-34.61111196871132 -1.9029585025765743 L-34.31355549930944 -1.9467212780495007 L-34.20292655636202 -1.9678095777044498 L-34.108297538923594 -1.9940720520478565 L-34.029839037430875 -2.024820951922761 L-33.96766747479853 -2.0594139801199676 L-33.92191272211794 -2.0971698631997864 L-33.89268385502905 -2.1374155465546507 L-33.88003926787951 -2.17948357973684 L-33.86942064584721 -2.339406661454693 L-33.82081000021476 -2.9589374662829897 L-33.76110174564557 -3.5774973561370764 L-33.7437886952421 -3.7368347512636664 L-33.74893614540048 -3.7804593860113287 L-33.77073237074785 -3.8251691865097284 L-33.80923576563184 -3.870296702311143 L-33.864455786222635 -3.9151601632337334 L-33.93638283635384 -3.9590660940338243 L-34.02501379557638 -4.001361738813092 L-34.13030009149336 -4.041340174151166 L-34.415736683308744 -4.136108233394879 L-34.73976737514096 -4.258444896953843 L-35.11196319563992 -4.417017316066049 L-35.53329213809347 -4.617742372426676 L-35.99613844758289 -4.862533590798634 L-36.500301327223255 -5.156783992655177 L-36.76687692354825 -5.323712801265228 L-37.04198058778576 -5.504116154679453 L-37.54602331077337 -5.856205351225988 A38 38 0 0 1 -37.2846612385603 -7.338463319705594 L-36.690594413741735 -7.496926175200329 L-36.37037994971543 -7.572358880496781 L-36.062787813921226 -7.638046426482027 L-35.4883901116324 -7.742117497415831 L-34.96973332245476 -7.813843237843821 L-34.50516161176211 -7.8583601068275275 L-34.10117698423962 -7.880070971055164 L-33.754846131012314 -7.884204807390722 L-33.45421088677589 -7.875632589305151 L-33.34160070124856 -7.877189995963152 L-33.24384888040451 -7.886621327877228 L-33.16124284941622 -7.903278907063941 L-33.09400879621257 -7.926550410878908 L-33.04239292074255 -7.95578746783515 L-33.006619516248115 -7.9903461893230405 L-32.9868619914895 -8.029579405038968 L-32.94863433847859 -8.185228991435071 L-32.79318180251387 -8.786906581230584 L-32.62696885284428 -9.385700926863652 L-32.582250178280724 -9.53961124927667 L-32.57974408877963 -9.583466973138126 L-32.59344540510772 -9.631282406116167 L-32.623527536025215 -9.682410377907177 L-32.67011818219148 -9.736181117997026 L-32.733328313939786 -9.791910020232416 L-32.81326820809988 -9.848953703683552 L-32.91001278616243 -9.906607550177071 L-33.1746566539869 -10.0495014136664 L-33.472521052828306 -10.226246847561734 L-33.81152657088736 -10.44704132128223 L-34.191599039734925 -10.71787991606538 L-34.60490612479404 -11.039324623970092 L-35.05031359138467 -11.416651666342233 L-35.28385242199414 -11.627334817774814 L-35.52344992985192 -11.852768688850883 L-35.95869546394298 -12.287034959674825 A38 38 0 0 1 -35.44391267382545 -13.701389051446595 L-34.83135427285223 -13.754285878560143 L-34.502905834241254 -13.772967933426012 L-34.1885801914898 -13.784244724143289 L-33.60483712914785 -13.786991607404651 L-33.08160485789616 -13.767563866393402 L-32.616360762201445 -13.730732393150998 L-32.21474351691084 -13.681962226192237 L-31.872956374398818 -13.625893538732422 L-31.578377005095188 -13.565246789597133 L-31.46720718049168 -13.547225982244969 L-31.369302695853545 -13.539539605481988 L-31.285059077820595 -13.541599731866063 L-31.21480540673018 -13.552842618431324 L-31.15889673072799 -13.572672496083037 L-31.11766574562136 -13.6004942064391 L-31.09139560564565 -13.635700523282202 L-31.02672044954876 -13.782347280436401 L-30.769149369894272 -14.347889986096744 L-30.501482021492183 -14.908724724321289 L-30.43071647706642 -15.052531486756598 L-30.420632994167185 -15.095285765754388 L-30.42582309391257 -15.14475398347681 L-30.446569930537933 -15.200328913706546 L-30.483115569071916 -15.26137313623533 L-30.535688174570016 -15.32723171541178 L-30.604508070435156 -15.397290194078623 L-30.68977139559396 -15.470867668776133 L-30.925581469419924 -15.65754557877674 L-31.188229116238386 -15.883329462437036 L-31.483743820736372 -16.15963726240922 L-31.811011506337984 -16.49236010196335 L-32.16222124033074 -16.880691364609998 L-32.53533981338635 -17.32963015625196 L-32.72874591908856 -17.577666149561608 L-32.92555722153255 -17.84128084420192 L-33.278780851418574 -18.344529228413617 A38 38 0 0 1 -32.526218757981624 -19.648005010096803 L-31.913781057897808 -19.593728565504403 L-31.58707838430643 -19.555092325156167 L-31.27556986019626 -19.511615721025855 L-30.700218175362227 -19.412954953956877 L-30.188308569830163 -19.302964033586097 L-29.736528295556187 -19.185903323794427 L-29.349481369267497 -19.068133982493414 L-29.02262296684334 -18.953566389934572 L-28.743050117544445 -18.842687830533304 L-28.636698492730694 -18.805636362283405 L-28.541616122522147 -18.781065823511813 L-28.45829461714914 -18.768465901195547 L-28.387155950417952 -18.767338561091986 L-28.328653230712774 -18.777158738641127 L-28.283217447612525 -18.797398089274658 L-28.251232897329565 -18.827507781122915 L-28.16207536003748 -18.960695921525918 L-27.810211903611272 -19.472920014118017 L-27.44922309341167 -19.978754465209164 L-27.354560854381972 -20.108088171959896 L-27.33720635961002 -20.148441938961376 L-27.33372754421825 -20.198059874664814 L-27.344508704419024 -20.256393147200516 L-27.36989891458685 -20.322856054356564 L-27.410236601819708 -20.39684323087185 L-27.465845441678574 -20.477787813331407 L-27.537036830944007 -20.565053301896224 L-27.73684814100393 -20.789843144576317 L-27.956298619956986 -21.057805148948717 L-28.199343446135384 -21.38123080248893 L-28.46386248546947 -21.765728271700066 L-28.7423035383492 -22.209146840178235 L-29.031796198834602 -22.716056603079963 L-29.17919303297601 -22.993908990122236 L-29.327238118172765 -23.287694709225608 L-29.58770732259945 -23.844634259326767 A38 38 0 0 1 -28.620232144237395 -24.99762627888547 L-28.026523754651596 -24.837825724890855 L-27.711493541497365 -24.74304513194061 L-27.41226716490265 -24.646136147578993 L-26.86278862737821 -24.449065487662303 L-26.37775580189111 -24.251853406389372 L-25.953166464059837 -24.058120290479884 L-25.592450081773144 -23.874930136677886 L-25.29045184659618 -23.705344717345916 L-25.03438019685728 -23.54760333659882 L-24.93607821213673 -23.492646997565004 L-24.84670698606256 -23.45193886017209 L-24.76683927512754 -23.42506173141919 L-24.696977125146308 -23.411598418305395 L-24.63765793727257 -23.411110514626383 L-24.58939789945659 -23.423152543109993 L-24.55267077324176 -23.44725074221283 L-24.44173986140921 -23.562933411614942 L-24.006275221283293 -24.00627522128329 L-23.56293341161495 -24.44173986140921 L-23.447250742212834 -24.552670773241758 L-23.423152543109996 -24.589397899456586 L-23.411110514626387 -24.637657937272568 L-23.4115984183054 -24.696977125146304 L-23.425061731419195 -24.766839275127538 L-23.451938860172096 -24.846706986062554 L-23.492646997565007 -24.936078212136728 L-23.547603336598822 -25.034380196857278 L-23.70534471734592 -25.290451846596177 L-23.87493013667789 -25.59245008177314 L-24.058120290479888 -25.953166464059834 L-24.251853406389376 -26.377755801891105 L-24.449065487662306 -26.862788627378208 L-24.646136147579 -27.41226716490265 L-24.743045131940615 -27.71149354149736 L-24.83782572489086 -28.026523754651592 L-24.997626278885473 -28.62023214423739 A38 38 0 0 1 -23.844634259326774 -29.587707322599446 L-23.28769470922562 -29.32723811817276 L-22.993908990122243 -29.179193032976006 L-22.71605660307997 -29.0317961988346 L-22.209146840178242 -28.742303538349198 L-21.765728271700073 -28.463862485469466 L-21.381230802488933 -28.19934344613538 L-21.057805148948727 -27.956298619956982 L-20.789843144576327 -27.73684814100392 L-20.56505330189623 -27.537036830944004 L-20.477787813331414 -27.46584544167857 L-20.396843230871855 -27.410236601819705 L-20.32285605435657 -27.369898914586845 L-20.256393147200523 -27.344508704419017 L-20.19805987466482 -27.333727544218245 L-20.148441938961387 -27.33720635961001 L-20.108088171959903 -27.35456085438197 L-19.97875446520917 -27.449223093411668 L-19.472920014118028 -27.810211903611265 L-18.960695921525925 -28.162075360037477 L-18.82750778112292 -28.25123289732956 L-18.79739808927467 -28.283217447612518 L-18.777158738641134 -28.32865323071277 L-18.767338561091993 -28.387155950417952 L-18.768465901195555 -28.45829461714914 L-18.78106582351182 -28.541616122522143 L-18.805636362283412 -28.63669849273069 L-18.84268783053331 -28.743050117544442 L-18.953566389934583 -29.022622966843333 L-19.068133982493425 -29.349481369267494 L-19.185903323794438 -29.736528295556184 L-19.302964033586104 -30.18830856983016 L-19.412954953956884 -30.700218175362224 L-19.511615721025862 -31.275569860196256 L-19.555092325156174 -31.587078384306427 L-19.593728565504414 -31.913781057897804 L-19.64800501009681 -32.526218757981624 A38 38 0 0 1 -18.344529228413634 -33.27878085141856 L-17.841280844201936 -32.925557221532536 L-17.57766614956163 -32.728745919088546 L-17.32963015625198 -32.53533981338634 L-16.88069136461002 -32.16222124033072 L-16.492360101963367 -31.81101150633797 L-16.159637262409237 -31.483743820736358 L-15.883329462437054 -31.188229116238375 L-15.657545578776759 -30.925581469419914 L-15.470867668776153 -30.689771395593944 L-15.397290194078643 -30.604508070435145 L-15.3272317154118 -30.535688174570005 L-15.261373136235347 -30.483115569071902 L-15.200328913706564 -30.446569930537922 L-15.144753983476829 -30.42582309391256 L-15.095285765754406 -30.420632994167175 L-15.052531486756614 -30.430716477066408 L-14.908724724321308 -30.501482021492173 L-14.347889986096762 -30.76914936989426 L-13.78234728043642 -31.026720449548748 L-13.635700523282221 -31.09139560564564 L-13.600494206439118 -31.11766574562135 L-13.572672496083054 -31.158896730727978 L-13.552842618431342 -31.214805406730168 L-13.541599731866084 -31.285059077820588 L-13.539539605482007 -31.369302695853534 L-13.547225982244989 -31.46720718049167 L-13.565246789597152 -31.578377005095177 L-13.625893538732441 -31.872956374398807 L-13.681962226192255 -32.21474351691083 L-13.730732393151017 -32.61636076220143 L-13.767563866393422 -33.081604857896146 L-13.786991607404673 -33.60483712914784 L-13.784244724143308 -34.188580191489784 L-13.772967933426033 -34.50290583424124 L-13.754285878560164 -34.83135427285222 L-13.701389051446617 -35.44391267382544 A38 38 0 0 1 -12.287034959674815 -35.95869546394298 L-11.852768688850873 -35.52344992985192 L-11.627334817774804 -35.28385242199414 L-11.416651666342222 -35.05031359138467 L-11.039324623970082 -34.60490612479404 L-10.717879916065371 -34.191599039734925 L-10.447041321282219 -33.81152657088736 L-10.226246847561725 -33.472521052828306 L-10.049501413666391 -33.1746566539869 L-9.906607550177062 -32.91001278616243 L-9.848953703683545 -32.81326820809988 L-9.791910020232407 -32.733328313939786 L-9.736181117997017 -32.67011818219148 L-9.682410377907168 -32.623527536025215 L-9.63128240611616 -32.59344540510772 L-9.583466973138117 -32.57974408877963 L-9.53961124927666 -32.582250178280724 L-9.385700926863642 -32.62696885284428 L-8.786906581230575 -32.79318180251387 L-8.18522899143506 -32.94863433847859 L-8.029579405038959 -32.9868619914895 L-7.990346189323032 -33.006619516248115 L-7.955787467835141 -33.04239292074255 L-7.9265504108788996 -33.09400879621257 L-7.903278907063932 -33.16124284941622 L-7.8866213278772195 -33.24384888040451 L-7.8771899959631435 -33.34160070124856 L-7.875632589305142 -33.45421088677589 L-7.884204807390713 -33.754846131012314 L-7.880070971055155 -34.10117698423962 L-7.858360106827517 -34.50516161176211 L-7.8138432378438125 -34.96973332245476 L-7.74211749741582 -35.4883901116324 L-7.638046426482016 -36.062787813921226 L-7.57235888049677 -36.37037994971543 L-7.4969261752003185 -36.690594413741735 L-7.338463319705584 -37.2846612385603 A38 38 0 0 1 -5.856205351225994 -37.54602331077337 L-5.50411615467946 -37.04198058778576 L-5.323712801265235 -36.76687692354825 L-5.156783992655184 -36.500301327223255 L-4.86253359079864 -35.99613844758289 L-4.617742372426683 -35.53329213809347 L-4.417017316066055 -35.11196319563992 L-4.258444896953849 -34.73976737514096 L-4.136108233394885 -34.415736683308744 L-4.0413401741511725 -34.13030009149336 L-4.001361738813098 -34.02501379557638 L-3.9590660940338305 -33.93638283635384 L-3.9151601632337396 -33.864455786222635 L-3.8702967023111494 -33.80923576563184 L-3.8251691865097346 -33.77073237074785 L-3.780459386011335 -33.74893614540048 L-3.7368347512636726 -33.7437886952421 L-3.5774973561370826 -33.76110174564557 L-2.958937466282996 -33.82081000021476 L-2.3394066614546993 -33.86942064584721 L-2.1794835797368464 -33.88003926787951 L-2.137415546554657 -33.89268385502905 L-2.0971698631997926 -33.92191272211794 L-2.059413980119974 -33.96766747479853 L-2.0248209519227673 -34.029839037430875 L-1.9940720520478628 -34.108297538923594 L-1.967809577704456 -34.20292655636202 L-1.946721278049507 -34.31355549930944 L-1.9029585025765805 -34.61111196871132 L-1.8387477469708846 -34.951463444930454 L-1.7472155251801769 -35.34554058620365 L-1.6227029365078116 -35.79532413554945 L-1.4620030649685047 -36.29364631856688 L-1.259769953190084 -36.841245877277814 L-1.1416675347821261 -37.132758474717775 L-1.0117761636347335 -37.435009409706325 L-0.7525620934369428 -37.99253423851042 A38 38 0 0 1 0.7525620934369335 -37.99253423851042 L1.0117761636347242 -37.435009409706325 L1.1416675347821168 -37.132758474717775 L1.259769953190075 -36.841245877277814 L1.4620030649684959 -36.29364631856688 L1.6227029365078023 -35.79532413554945 L1.747215525180168 -35.34554058620365 L1.8387477469708757 -34.951463444930454 L1.9029585025765716 -34.61111196871132 L1.9467212780494985 -34.31355549930944 L1.9678095777044475 -34.20292655636202 L1.9940720520478543 -34.108297538923594 L2.024820951922759 -34.029839037430875 L2.059413980119965 -33.96766747479853 L2.097169863199784 -33.92191272211794 L2.1374155465546485 -33.89268385502905 L2.1794835797368384 -33.88003926787951 L2.339406661454691 -33.86942064584721 L2.9589374662829875 -33.82081000021476 L3.577497356137074 -33.76110174564557 L3.7368347512636637 -33.7437886952421 L3.7804593860113265 -33.74893614540048 L3.825169186509726 -33.77073237074785 L3.8702967023111405 -33.80923576563184 L3.915160163233731 -33.864455786222635 L3.9590660940338225 -33.93638283635384 L4.001361738813089 -34.02501379557638 L4.0413401741511645 -34.13030009149336 L4.136108233394876 -34.415736683308744 L4.25844489695384 -34.73976737514096 L4.417017316066046 -35.11196319563992 L4.617742372426673 -35.53329213809347 L4.862533590798631 -35.99613844758289 L5.156783992655175 -36.500301327223255 L5.323712801265225 -36.76687692354825 L5.504116154679451 -37.04198058778576 L5.856205351225984 -37.54602331077337 A38 38 0 0 1 7.338463319705575 -37.284661238560304 L7.49692617520031 -36.69059441374174 L7.572358880496763 -36.370379949715435 L7.638046426482009 -36.06278781392123 L7.742117497415813 -35.4883901116324 L7.813843237843804 -34.96973332245475 L7.858360106827509 -34.50516161176212 L7.880070971055146 -34.10117698423962 L7.884204807390706 -33.754846131012314 L7.875632589305135 -33.45421088677589 L7.877189995963136 -33.34160070124857 L7.886621327877211 -33.24384888040451 L7.903278907063925 -33.16124284941622 L7.9265504108788924 -33.09400879621258 L7.955787467835134 -33.04239292074255 L7.990346189323023 -33.00661951624812 L8.02957940503895 -32.986861991489505 L8.185228991435054 -32.9486343384786 L8.786906581230566 -32.79318180251388 L9.385700926863635 -32.626968852844286 L9.539611249276652 -32.58225017828073 L9.583466973138108 -32.579744088779634 L9.631282406116153 -32.59344540510772 L9.68241037790716 -32.62352753602522 L9.73618111799701 -32.67011818219148 L9.791910020232399 -32.733328313939786 L9.848953703683538 -32.813268208099885 L9.906607550177057 -32.91001278616243 L10.049501413666384 -33.1746566539869 L10.226246847561717 -33.472521052828306 L10.447041321282212 -33.81152657088737 L10.717879916065362 -34.19159903973493 L11.039324623970074 -34.60490612479404 L11.416651666342215 -35.05031359138468 L11.627334817774797 -35.28385242199415 L11.852768688850864 -35.52344992985193 L12.287034959674806 -35.95869546394299 A38 38 0 0 1 13.70138905144661 -35.443912673825444 L13.754285878560157 -34.831354272852224 L13.772967933426026 -34.50290583424125 L13.7842447241433 -34.188580191489784 L13.786991607404664 -33.604837129147846 L13.767563866393413 -33.08160485789615 L13.730732393151008 -32.61636076220144 L13.681962226192248 -32.214743516910836 L13.625893538732434 -31.87295637439881 L13.565246789597145 -31.57837700509518 L13.547225982244981 -31.467207180491673 L13.539539605481998 -31.369302695853538 L13.541599731866075 -31.28505907782059 L13.552842618431335 -31.21480540673017 L13.572672496083047 -31.15889673072798 L13.60049420643911 -31.117665745621352 L13.635700523282214 -31.091395605645644 L13.782347280436413 -31.02672044954875 L14.347889986096755 -30.769149369894265 L14.908724724321301 -30.501482021492176 L15.052531486756607 -30.43071647706641 L15.095285765754399 -30.42063299416718 L15.144753983476821 -30.425823093912562 L15.200328913706556 -30.446569930537926 L15.261373136235342 -30.483115569071906 L15.327231715411791 -30.53568817457001 L15.397290194078636 -30.60450807043515 L15.470867668776146 -30.689771395593954 L15.657545578776752 -30.925581469419917 L15.883329462437047 -31.18822911623838 L16.15963726240923 -31.483743820736365 L16.49236010196336 -31.811011506337977 L16.88069136461001 -32.16222124033073 L17.32963015625197 -32.53533981338634 L17.577666149561622 -32.72874591908855 L17.84128084420193 -32.92555722153254 L18.344529228413627 -33.27878085141857 A38 38 0 0 1 19.648005010096803 -32.526218757981624 L19.593728565504403 -31.91378105789781 L19.555092325156163 -31.587078384306437 L19.511615721025855 -31.275569860196264 L19.412954953956877 -30.700218175362235 L19.302964033586097 -30.188308569830166 L19.185903323794427 -29.73652829555619 L19.068133982493414 -29.3494813692675 L18.953566389934572 -29.022622966843343 L18.842687830533304 -28.74305011754445 L18.805636362283405 -28.636698492730698 L18.781065823511813 -28.54161612252215 L18.768465901195547 -28.458294617149143 L18.767338561091986 -28.387155950417956 L18.777158738641127 -28.328653230712778 L18.797398089274658 -28.28321744761253 L18.827507781122915 -28.25123289732957 L18.960695921525918 -28.162075360037484 L19.472920014118017 -27.810211903611275 L19.978754465209164 -27.449223093411675 L20.108088171959896 -27.354560854381976 L20.148441938961376 -27.337206359610022 L20.198059874664814 -27.333727544218252 L20.256393147200516 -27.344508704419027 L20.322856054356564 -27.369898914586855 L20.39684323087185 -27.41023660181971 L20.477787813331407 -27.465845441678578 L20.565053301896224 -27.53703683094401 L20.789843144576317 -27.736848141003932 L21.057805148948717 -27.95629861995699 L21.38123080248893 -28.199343446135387 L21.765728271700066 -28.463862485469473 L22.209146840178235 -28.74230353834921 L22.716056603079963 -29.031796198834606 L22.99390899012224 -29.179193032976016 L23.287694709225608 -29.32723811817277 L23.844634259326767 -29.587707322599453 A38 38 0 0 1 24.99762627888547 -28.6202321442374 L24.837825724890855 -28.026523754651603 L24.74304513194061 -27.71149354149737 L24.646136147578993 -27.41226716490266 L24.449065487662303 -26.862788627378215 L24.251853406389372 -26.377755801891112 L24.058120290479884 -25.95316646405984 L23.874930136677886 -25.592450081773148 L23.705344717345916 -25.290451846596184 L23.54760333659882 -25.034380196857285 L23.492646997565004 -24.936078212136735 L23.45193886017209 -24.846706986062564 L23.42506173141919 -24.766839275127545 L23.411598418305395 -24.69697712514631 L23.411110514626383 -24.637657937272575 L23.423152543109993 -24.589397899456593 L23.44725074221283 -24.552670773241765 L23.562933411614942 -24.441739861409218 L24.00627522128329 -24.006275221283296 L24.44173986140921 -23.56293341161495 L24.552670773241758 -23.447250742212837 L24.589397899456586 -23.42315254311 L24.637657937272568 -23.41111051462639 L24.696977125146304 -23.411598418305402 L24.766839275127538 -23.4250617314192 L24.846706986062554 -23.4519388601721 L24.936078212136728 -23.49264699756501 L25.034380196857278 -23.547603336598826 L25.290451846596177 -23.705344717345923 L25.59245008177314 -23.874930136677893 L25.953166464059834 -24.05812029047989 L26.377755801891105 -24.25185340638938 L26.862788627378208 -24.44906548766231 L27.41226716490265 -24.646136147579 L27.71149354149736 -24.74304513194062 L28.026523754651592 -24.837825724890866 L28.62023214423739 -24.997626278885477 A38 38 0 0 1 29.587707322599446 -23.844634259326774 L29.32723811817276 -23.28769470922562 L29.179193032976006 -22.993908990122243 L29.0317961988346 -22.71605660307997 L28.742303538349198 -22.209146840178242 L28.463862485469466 -21.765728271700073 L28.19934344613538 -21.381230802488933 L27.956298619956982 -21.057805148948727 L27.73684814100392 -20.789843144576327 L27.537036830944004 -20.56505330189623 L27.46584544167857 -20.477787813331414 L27.410236601819705 -20.396843230871855 L27.369898914586845 -20.32285605435657 L27.344508704419017 -20.256393147200523 L27.333727544218245 -20.19805987466482 L27.33720635961001 -20.148441938961387 L27.35456085438197 -20.108088171959903 L27.449223093411668 -19.97875446520917 L27.810211903611265 -19.472920014118028 L28.162075360037477 -18.960695921525925 L28.25123289732956 -18.82750778112292 L28.283217447612518 -18.79739808927467 L28.32865323071277 -18.777158738641134 L28.387155950417952 -18.767338561091993 L28.45829461714914 -18.768465901195555 L28.541616122522143 -18.78106582351182 L28.63669849273069 -18.805636362283412 L28.743050117544442 -18.84268783053331 L29.022622966843333 -18.953566389934583 L29.349481369267494 -19.068133982493425 L29.736528295556184 -19.185903323794438 L30.18830856983016 -19.302964033586104 L30.700218175362224 -19.412954953956884 L31.275569860196256 -19.511615721025862 L31.587078384306427 -19.555092325156174 L31.913781057897804 -19.593728565504414 L32.526218757981624 -19.64800501009681 A38 38 0 0 1 33.27878085141856 -18.344529228413638 L32.925557221532536 -17.84128084420194 L32.728745919088546 -17.57766614956163 L32.53533981338634 -17.32963015625198 L32.16222124033072 -16.88069136461002 L31.81101150633797 -16.49236010196337 L31.483743820736358 -16.15963726240924 L31.188229116238375 -15.883329462437057 L30.925581469419914 -15.65754557877676 L30.689771395593944 -15.470867668776155 L30.604508070435145 -15.397290194078645 L30.535688174570005 -15.327231715411802 L30.483115569071902 -15.261373136235349 L30.446569930537922 -15.200328913706567 L30.42582309391256 -15.14475398347683 L30.420632994167175 -15.095285765754408 L30.430716477066404 -15.052531486756617 L30.501482021492173 -14.90872472432131 L30.76914936989426 -14.347889986096764 L31.026720449548748 -13.782347280436422 L31.091395605645644 -13.635700523282221 L31.11766574562135 -13.60049420643912 L31.158896730727978 -13.572672496083056 L31.214805406730168 -13.552842618431345 L31.285059077820588 -13.541599731866086 L31.369302695853534 -13.539539605482009 L31.46720718049167 -13.54722598224499 L31.578377005095177 -13.565246789597154 L31.872956374398807 -13.625893538732443 L32.21474351691083 -13.681962226192258 L32.61636076220143 -13.730732393151019 L33.081604857896146 -13.767563866393424 L33.60483712914784 -13.786991607404676 L34.188580191489784 -13.78424472414331 L34.50290583424124 -13.772967933426035 L34.83135427285222 -13.754285878560168 L35.44391267382544 -13.70138905144662 A38 38 0 0 1 35.95869546394298 -12.287034959674816 L35.52344992985192 -11.852768688850874 L35.28385242199414 -11.627334817774805 L35.05031359138467 -11.416651666342224 L34.60490612479404 -11.039324623970082 L34.191599039734925 -10.717879916065373 L33.81152657088736 -10.44704132128222 L33.472521052828306 -10.226246847561727 L33.1746566539869 -10.049501413666393 L32.91001278616243 -9.906607550177064 L32.81326820809988 -9.848953703683545 L32.733328313939786 -9.79191002023241 L32.67011818219148 -9.736181117997019 L32.623527536025215 -9.68241037790717 L32.59344540510772 -9.63128240611616 L32.57974408877963 -9.583466973138119 L32.582250178280724 -9.539611249276662 L32.62696885284428 -9.385700926863644 L32.79318180251387 -8.786906581230577 L32.94863433847859 -8.185228991435062 L32.9868619914895 -8.02957940503896 L33.006619516248115 -7.990346189323033 L33.04239292074255 -7.955787467835143 L33.09400879621257 -7.926550410878901 L33.16124284941622 -7.9032789070639335 L33.24384888040451 -7.886621327877221 L33.34160070124856 -7.877189995963145 L33.45421088677589 -7.875632589305144 L33.754846131012314 -7.884204807390715 L34.10117698423962 -7.880070971055157 L34.50516161176211 -7.858360106827519 L34.96973332245476 -7.813843237843814 L35.4883901116324 -7.742117497415822 L36.062787813921226 -7.638046426482018 L36.37037994971543 -7.572358880496772 L36.690594413741735 -7.49692617520032 L37.2846612385603 -7.3384633197055855 A38 38 0 0 1 37.54602331077337 -5.856205351225988 Z" id="SvgjsPath1164">
        </path>
      </g>
    </g>
  </g>
</svg>
