<?xml version="1.0" encoding="UTF-8" standalone="no"?>
<!-- Created by JSCAD SVG Serializer -->

<svg
   width="149.9994mm"
   height="149.9994mm"
   viewBox="0 0 149.9994 149.9994"
   fill="none"
   fill-rule="evenodd"
   stroke-width="0.1px"
   version="1.1"
   id="svg1"
   sodipodi:docname="mask-150mm.svg"
   inkscape:version="1.3.2 (091e20e, 2023-11-25)"
   xmlns:inkscape="http://www.inkscape.org/namespaces/inkscape"
   xmlns:sodipodi="http://sodipodi.sourceforge.net/DTD/sodipodi-0.dtd"
   xmlns="http://www.w3.org/2000/svg"
   xmlns:svg="http://www.w3.org/2000/svg">
  <defs
     id="defs1" />
  <sodipodi:namedview
     id="namedview1"
     pagecolor="#ffffff"
     bordercolor="#000000"
     borderopacity="0.25"
     inkscape:showpageshadow="2"
     inkscape:pageopacity="0.0"
     inkscape:pagecheckerboard="0"
     inkscape:deskcolor="#d1d1d1"
     inkscape:document-units="mm"
     inkscape:zoom="1.2247885"
     inkscape:cx="280.45658"
     inkscape:cy="284.53892"
     inkscape:window-width="1440"
     inkscape:window-height="900"
     inkscape:window-x="1080"
     inkscape:window-y="509"
     inkscape:window-maximized="0"
     inkscape:current-layer="svg1" />
  <g
     id="g1">
    <path
       fill="black"
       d="M149.9994 74.9997L149.9541 72.3824L149.8172 69.768L149.5887 67.1598L149.2695 64.5616L148.8598 61.9764L148.3605 59.4064L147.7716 56.8555L147.0941 54.3268L146.3291 51.8232L145.4764 49.3478L144.5382 46.9046L143.5154 44.4947L142.4091 42.122L141.2212 39.7895L139.9518 37.4993L138.6029 35.2555L137.1775 33.0599L135.6755 30.9157L134.1001 28.8249L132.4532 26.7904L130.7358 24.8153L128.95 22.9007L127.0987 21.0494L125.184 19.2636L123.209 17.5462L121.1745 15.8993L119.0836 14.3239L116.9394 12.8219L114.7439 11.3965L112.5 10.0475L110.2099 8.7781L107.8774 7.5903L105.5047 6.4839L103.0947 5.4612L100.6516 4.523L98.1762 3.6703L95.6726 2.9052L93.1438 2.2278L90.593 1.6389L88.0229 1.1395L85.4378 0.7298L82.8396 0.4107L80.2313 0.1822L77.617 0.0453L74.9997 0L72.3824 0.0453L69.768 0.1822L67.1598 0.4107L64.5616 0.7298L61.9764 1.1395L59.4064 1.6389L56.8555 2.2278L54.3268 2.9052L51.8232 3.6703L49.3478 4.523L46.9046 5.4612L44.4947 6.4839L42.122 7.5903L39.7895 8.7781L37.4993 10.0475L35.2555 11.3965L33.0599 12.8219L30.9157 14.3239L28.8249 15.8993L26.7904 17.5462L24.8153 19.2636L22.9007 21.0494L21.0494 22.9007L19.2636 24.8153L17.5462 26.7904L15.8993 28.8249L14.3239 30.9157L12.8219 33.0599L11.3965 35.2555L10.0475 37.4993L8.7781 39.7895L7.5903 42.122L6.4839 44.4947L5.4612 46.9046L4.523 49.3478L3.6703 51.8232L2.9052 54.3268L2.2278 56.8555L1.6389 59.4064L1.1395 61.9764L0.7298 64.5616L0.4107 67.1598L0.1822 69.768L0.0453 72.3824L0 74.9997L0.0453 77.617L0.1822 80.2313L0.4107 82.8396L0.7298 85.4378L1.1395 88.0229L1.6389 90.593L2.2278 93.1438L2.9052 95.6726L3.6703 98.1762L4.523 100.6516L5.4612 103.0947L6.4839 105.5047L7.5903 107.8774L8.7781 110.2099L10.0475 112.5L11.3965 114.7439L12.8219 116.9394L14.3239 119.0836L15.8993 121.1745L17.5462 123.209L19.2636 125.184L21.0494 127.0987L22.9007 128.95L24.8153 130.7358L26.7904 132.4532L28.8249 134.1001L30.9157 135.6755L33.0599 137.1775L35.2555 138.6029L37.4993 139.9518L39.7895 141.2212L42.122 142.4091L44.4947 143.5154L46.9046 144.5382L49.3478 145.4764L51.8232 146.3291L54.3268 147.0941L56.8555 147.7716L59.4064 148.3605L61.9764 148.8598L64.5616 149.2695L67.1598 149.5887L69.768 149.8172L72.3824 149.9541L74.9997 149.9994L77.617 149.9541L80.2313 149.8172L82.8396 149.5887L85.4378 149.2695L88.0229 148.8598L90.593 148.3605L93.1438 147.7716L95.6726 147.0941L98.1762 146.3291L100.6516 145.4764L103.0947 144.5382L105.5047 143.5154L107.8774 142.4091L110.2099 141.2212L112.5 139.9518L114.7439 138.6029L116.9394 137.1775L119.0836 135.6755L121.1745 134.1001L123.209 132.4532L125.184 130.7358L127.0987 128.95L128.95 127.0987L130.7358 125.184L132.4532 123.209L134.1001 121.1745L135.6755 119.0836L137.1775 116.9394L138.6029 114.7439L139.9518 112.5L141.2212 110.2099L142.4091 107.8774L143.5154 105.5047L144.5382 103.0947L145.4764 100.6516L146.3291 98.1762L147.0941 95.6726L147.7716 93.1438L148.3605 90.593L148.8598 88.0229L149.2695 85.4378L149.5887 82.8396L149.8172 80.2313L149.9541 77.617L149.9994 74.9997M15.4574 73.832L15.4574 67.6228L15.5892 66.6383L15.9104 64.5978L16.31 62.518L16.7892 60.4765L17.3096 58.4773L17.7928 56.9693L17.7928 73.832L15.4574 73.832M20.1283 73.832L20.1283 50.739L20.1907 50.5961L21.0715 48.7156L22.0309 46.8352L22.4618 46.0419L22.4618 73.832L20.1283 73.832M24.7972 73.832L24.7972 42.1532L25.2714 41.4344L26.4713 39.714L27.1327 38.8402L27.1327 73.832L24.7972 73.832M29.4671 73.832L29.4671 35.9209L30.3923 34.8327L31.8026 33.3448L31.8026 73.832L29.4671 73.832M34.1371 73.832L34.1371 31.0526L34.8327 30.3923L36.4333 29.0323L36.4715 29.0011L36.4715 73.832L34.1371 73.832M38.807 73.832L38.807 27.1579L39.714 26.4713L41.1425 25.4747L41.1425 73.832L38.807 73.832M43.4779 73.832L43.4779 23.9416L44.995 23.0315L45.8114 22.5866L45.8114 73.832L43.4779 73.832M48.1469 73.832L48.1469 21.3615L48.7156 21.0715L50.4823 20.2441L50.4823 73.832L48.1469 73.832M52.8178 73.832L52.8178 19.2394L54.4758 18.6304L55.1522 18.4009L55.1522 73.832L52.8178 73.832M57.4867 73.832L57.4867 17.6277L58.4773 17.3096L59.8222 16.9603L59.8222 73.832L57.4867 73.832M62.1566 73.832L62.1566 16.3946L62.518 16.31L64.4931 15.9305L64.4931 73.832L62.1566 73.832M66.8276 73.832L66.8276 15.5651L68.7181 15.3094L69.161 15.2752L69.161 73.832L66.8276 73.832M71.4975 73.832L71.4975 15.1101L72.9189 15.0295L73.832 15.0124L73.832 73.832L71.4975 73.832M76.1674 73.832L76.1674 15.0124L77.0805 15.0295L78.5019 15.1101L78.5019 73.832L76.1674 73.832M80.8384 73.832L80.8384 15.2752L81.2813 15.3094L83.1718 15.5651L83.1718 73.832L80.8384 73.832M85.5063 73.832L85.5063 15.9305L87.4813 16.31L87.8427 16.3946L87.8427 73.832L85.5063 73.832M90.1772 73.832L90.1772 16.9603L91.5221 17.3096L92.5127 17.6277L92.5127 73.832L90.1772 73.832M94.8471 73.832L94.8471 18.4009L95.5236 18.6304L97.1816 19.2394L97.1816 73.832L94.8471 73.832M99.5171 73.832L99.5171 20.2441L101.2838 21.0715L101.8525 21.3615L101.8525 73.832L99.5171 73.832M104.188 73.832L104.188 22.5866L105.0044 23.0315L106.5214 23.9416L106.5214 73.832L104.188 73.832M108.8569 73.832L108.8569 25.4747L110.2854 26.4713L111.1924 27.1579L111.1924 73.832L108.8569 73.832M113.5278 73.832L113.5278 29.0011L113.5661 29.0323L115.1667 30.3923L115.8623 31.0526L115.8623 73.832L113.5278 73.832M118.1968 73.832L118.1968 33.3448L119.6071 34.8327L120.5322 35.9209L120.5322 73.832L118.1968 73.832M122.8667 73.832L122.8667 38.8402L123.5281 39.714L124.728 41.4344L125.2022 42.1532L125.2022 73.832L122.8667 73.832M127.5376 73.832L127.5376 46.0419L127.9685 46.8352L128.9278 48.7156L129.8087 50.5961L129.8711 50.739L129.8711 73.832L127.5376 73.832M132.2065 73.832L132.2065 56.9693L132.6897 58.4773L133.2102 60.4765L133.6894 62.518L134.089 64.5978L134.4101 66.6383L134.542 67.6228L134.542 73.832L132.2065 73.832M76.1654 81.6185L94.4112 131.7475L93.5224 132.0495L92.1915 132.4753L76.1654 88.4437L76.1654 81.6185M76.1654 95.274L89.9346 133.1015L89.5229 133.2102L87.6495 133.6501L76.1654 102.0992L76.1654 95.274M76.1654 108.9254L85.3291 134.1001L83.3611 134.4101L82.9745 134.4615L76.1654 115.7546L76.1654 108.9254M76.1654 122.5818L80.5927 134.7423L79.2005 134.849L78.1677 134.9084L76.1654 129.408L76.1654 122.5818M133.8182 76.1654L134.8591 79.0264L134.849 79.2005L134.69 81.2813L134.4101 83.3611L134.2722 84.2379L131.3338 76.1654L133.8182 76.1654M128.8493 76.1654L133.4065 88.6853L133.2102 89.5229L132.6897 91.5221L132.3445 92.5992L126.3638 76.1654L128.8493 76.1654M123.8794 76.1654L131.1455 96.1306L130.6482 97.4836L129.8318 99.351L121.3929 76.1654L123.8794 76.1654M118.9095 76.1654L128.4164 102.2874L127.9685 103.1642L126.9678 105.0044L126.9387 105.0547L116.425 76.1654L118.9095 76.1654M113.9396 76.1654L125.3753 107.5835L124.728 108.565L123.7556 109.9602L111.4551 76.1654L113.9396 76.1654M108.9697 76.1654L122.0795 112.1839L120.9671 113.5661L120.3581 114.2828L106.4852 76.1654L108.9697 76.1654M103.9997 76.1654L118.5873 116.2438L118.1666 116.6868L116.7713 118.082L101.5153 76.1654L103.9997 76.1654M99.0298 76.1654L114.918 119.8185L113.5661 120.9671L113.0134 121.4121L96.5454 76.1654L99.0298 76.1654M94.0609 76.1654L111.0806 122.9261L110.2854 123.5281L109.1116 124.3475L91.5755 76.1654L94.0609 76.1654M89.091 76.1654L107.1134 125.6843L106.8053 125.8877L105.0789 126.9236L86.6055 76.1654L89.091 76.1654M84.1211 76.1654L103.0052 128.05L101.2838 128.9278L100.9052 129.106L81.6356 76.1654L84.1211 76.1654M79.1502 76.1654L98.7751 130.0835L97.4836 130.6482L96.6128 130.9693L76.6657 76.1654L79.1502 76.1654M73.3337 76.1654L53.3866 130.9693L52.5158 130.6482L51.2242 130.0835L70.8492 76.1654L73.3337 76.1654M68.3637 76.1654L49.0941 129.106L48.7156 128.9278L46.9942 128.05L65.8783 76.1654L68.3637 76.1654M63.3938 76.1654L44.9205 126.9236L43.1941 125.8877L42.886 125.6843L60.9084 76.1654L63.3938 76.1654M58.4239 76.1654L40.8878 124.3475L39.714 123.5281L38.9187 122.9261L55.9385 76.1654L58.4239 76.1654M53.454 76.1654L36.9859 121.4121L36.4333 120.9671L35.0813 119.8185L50.9695 76.1654L53.454 76.1654M48.4841 76.1654L33.2281 118.082L31.8328 116.6868L31.412 116.2438L45.9996 76.1654L48.4841 76.1654M43.5142 76.1654L29.6413 114.2828L29.0323 113.5661L27.9199 112.1839L41.0297 76.1654L43.5142 76.1654M38.5443 76.1654L26.2438 109.9602L25.2714 108.565L24.6241 107.5835L36.0598 76.1654L38.5443 76.1654M33.5743 76.1654L23.0607 105.0547L23.0315 105.0044L22.0309 103.1642L21.5829 102.2874L31.0899 76.1654L33.5743 76.1654M28.6064 76.1654L20.1676 99.351L19.3512 97.4836L18.8539 96.1306L26.12 76.1654L28.6064 76.1654M23.6355 76.1654L17.6549 92.5992L17.3096 91.5221L16.7892 89.5229L16.5929 88.6853L21.1501 76.1654L23.6355 76.1654M18.6656 76.1654L15.7272 84.2379L15.5892 83.3611L15.3094 81.2813L15.1503 79.2005L15.1403 79.0264L16.1812 76.1654L18.6656 76.1654M73.834 129.408L71.8317 134.9084L70.7989 134.849L69.4066 134.7423L73.834 122.5818L73.834 129.408M73.834 115.7546L67.0249 134.4615L66.6383 134.4101L64.6703 134.1001L73.834 108.9254L73.834 115.7546M73.834 102.0992L62.3499 133.6501L60.4765 133.2102L60.0648 133.1015L73.834 95.274L73.834 102.0992M73.834 88.4437L57.8078 132.4753L56.477 132.0495L55.5881 131.7475L73.834 81.6185L73.834 88.4437"
       id="path1" />
  </g>
  <rect
     style="fill:#00ffff;fill-rule:evenodd;stroke:#ff0000;stroke-width:0.108885;paint-order:fill markers stroke"
     id="rect1"
     width="2.9911151"
     height="11.891115"
     x="73.504143"
     y="1.3053136"
     ry="1.9247493" />
  <rect
     style="fill:#00ffff;fill-rule:evenodd;stroke:#ff0000;stroke-width:0.108885;paint-order:fill markers stroke"
     id="rect1-6"
     width="2.9911151"
     height="11.891115"
     x="30.244829"
     y="164.77231"
     ry="1.9247493"
     transform="rotate(-36.003346)" />
  <rect
     style="fill:#00ffff;fill-rule:evenodd;stroke:#ff0000;stroke-width:0.108885;paint-order:fill markers stroke"
     id="rect1-4"
     width="2.9911151"
     height="11.891115"
     x="81.821846"
     y="85.119995"
     ry="1.9247493"
     transform="rotate(30.673387)" />
</svg>
