<?xml version="1.0" encoding="UTF-8" standalone="no"?>
<!-- Created by JSCAD SVG Serializer -->

<svg
   width="119.9997mm"
   height="119.9997mm"
   viewBox="0 0 119.9997 119.9997"
   fill="none"
   fill-rule="evenodd"
   stroke-width="0.1px"
   version="1.1"
   id="svg1"
   sodipodi:docname="mask.svg"
   inkscape:version="1.3.2 (091e20e, 2023-11-25)"
   xmlns:inkscape="http://www.inkscape.org/namespaces/inkscape"
   xmlns:sodipodi="http://sodipodi.sourceforge.net/DTD/sodipodi-0.dtd"
   xmlns="http://www.w3.org/2000/svg"
   xmlns:svg="http://www.w3.org/2000/svg">
  <defs
     id="defs1" />
  <sodipodi:namedview
     id="namedview1"
     pagecolor="#ffffff"
     bordercolor="#000000"
     borderopacity="0.25"
     inkscape:showpageshadow="2"
     inkscape:pageopacity="0.0"
     inkscape:pagecheckerboard="0"
     inkscape:deskcolor="#d1d1d1"
     inkscape:document-units="mm"
     inkscape:zoom="1.2114206"
     inkscape:cx="205.13106"
     inkscape:cy="111.02667"
     inkscape:window-width="1440"
     inkscape:window-height="900"
     inkscape:window-x="1080"
     inkscape:window-y="509"
     inkscape:window-maximized="0"
     inkscape:current-layer="svg1" />
  <g
     id="g1">
    <path
       fill="#000000"
       d="m 119.9997,59.9999 -0.0363,-2.0941 -0.1097,-2.0909 -0.1823,-2.0869 -0.2557,-2.0787 -0.3275,-2.0683 -0.3993,-2.0562 -0.4711,-2.0401 -0.5421,-2.0231 -0.6122,-2.003 -0.6825,-1.9803 -0.7502,-1.9546 -0.8179,-1.9279 -0.8858,-1.8981 -0.9502,-1.8658 -1.0156,-1.832 -1.0785,-1.7948 -1.1406,-1.7569 -1.2012,-1.7158 -1.2608,-1.6722 -1.3173,-1.6279 -1.3745,-1.5802 -1.4278,-1.5319 -1.4811,-1.481 -1.5318,-1.4278 L 98.5674,14.0368 96.9396,12.7195 95.2673,11.4587 93.5516,10.2576 91.7946,9.1169 89.9998,8.0384 88.1679,7.0228 86.302,6.0726 84.404,5.1869 82.476,4.3689 80.5215,3.6187 78.5411,2.9363 76.5381,2.324 74.515,1.7819 72.475,1.3108 70.4188,0.9115 68.3505,0.584 66.2717,0.3283 64.1849,0.146 62.094,0.0363 59.9999,0 57.9058,0.0363 55.8149,0.146 53.728,0.3283 51.6493,0.584 49.581,0.9115 47.5248,1.3108 45.4847,1.7819 43.4616,2.324 l -2.003,0.6123 -1.9803,0.6824 -1.9546,0.7502 -1.9279,0.818 -1.8981,0.8857 -1.8658,0.9502 -1.832,1.0156 -1.7948,1.0785 -1.7569,1.1407 -1.7158,1.2011 -1.6722,1.2608 -1.6279,1.3173 -1.5802,1.3746 -1.5319,1.4278 -1.481,1.481 -1.4278,1.5319 -1.3746,1.5802 -1.3173,1.6279 -1.2608,1.6722 -1.2011,1.7158 -1.1407,1.7569 -1.0785,1.7948 -1.0156,1.832 -0.9502,1.8658 -0.8857,1.8981 -0.818,1.9279 L 3.6187,39.4783 2.9363,41.4586 2.324,43.4616 1.7819,45.4847 1.3108,47.5248 0.9115,49.581 0.584,51.6493 0.3283,53.728 0.146,55.8149 0.0363,57.9058 0,59.9999 l 0.0363,2.0941 0.1097,2.0909 0.1823,2.0868 0.2557,2.0788 0.3275,2.0683 0.3993,2.0562 0.4711,2.04 0.5421,2.0231 0.6123,2.003 0.6824,1.9804 0.7502,1.9545 0.818,1.928 0.8857,1.898 0.9502,1.8659 1.0156,1.8319 1.0785,1.7948 1.1407,1.757 1.2011,1.7157 1.2608,1.6723 1.3173,1.6278 1.3746,1.5803 1.4278,1.5318 1.481,1.4811 1.5319,1.4278 1.5802,1.3745 1.6279,1.3173 1.6722,1.2608 1.7158,1.2012 1.7569,1.1406 1.7948,1.0785 1.832,1.0156 1.8658,0.9502 1.8981,0.8858 1.9279,0.8179 1.9546,0.7502 1.9803,0.6825 2.003,0.6122 2.0231,0.5421 2.0401,0.4711 2.0562,0.3993 2.0683,0.3275 2.0787,0.2557 2.0869,0.1823 2.0909,0.1097 2.0941,0.0363 2.0941,-0.0363 2.0909,-0.1097 2.0868,-0.1823 2.0788,-0.2557 2.0683,-0.3275 2.0562,-0.3993 2.04,-0.4711 2.0231,-0.5421 2.003,-0.6122 1.9804,-0.6825 1.9545,-0.7502 1.928,-0.8179 1.898,-0.8858 1.8659,-0.9502 1.8319,-1.0156 1.7948,-1.0785 1.757,-1.1406 1.7157,-1.2012 1.6723,-1.2608 1.6278,-1.3173 1.5803,-1.3745 1.5318,-1.4278 1.4811,-1.4811 1.4278,-1.5318 1.3745,-1.5803 1.3173,-1.6278 1.2608,-1.6723 1.2012,-1.7157 1.1406,-1.757 1.0785,-1.7948 1.0156,-1.8319 0.9502,-1.8659 0.8858,-1.898 0.8179,-1.928 0.7502,-1.9545 0.6825,-1.9804 0.6122,-2.003 0.5421,-2.0231 0.4711,-2.04 0.3993,-2.0562 0.3275,-2.0683 0.2557,-2.0788 0.1823,-2.0868 0.1097,-2.0909 0.0363,-2.0941 M 15.3751,59.1254 v -4.8335 l 0.0645,-0.5639 0.2404,-1.5294 0.3001,-1.5609 0.3597,-1.5303 0.3905,-1.5004 0.3936,-1.2317 v 12.7501 h -1.7488 m 3.4993,0 V 41.7337 l 0.0161,-0.0379 0.6599,-1.4109 0.7203,-1.41 0.355,-0.6518 v 20.9023 h -1.7513 m 3.5001,0 V 35.3207 l 0.3275,-0.4961 0.8995,-1.2608 0.5235,-0.7091 v 26.2707 h -1.7505 m 3.5001,0 V 30.6808 l 1.7481,-1.9481 0.0024,-0.0025 v 30.3952 h -1.7505 m 3.5002,0 V 27.0467 l 1.6988,-1.5246 0.0516,-0.0411 v 33.6444 h -1.7504 m 3.4993,0 V 24.1105 l 0.6897,-0.509 1.0616,-0.7575 v 36.2814 h -1.7513 m 3.5017,0 V 21.6929 l 1.1189,-0.6712 0.63,-0.3428 v 38.4465 h -1.7489 m 3.4993,0 V 19.7601 l 0.4098,-0.2097 1.3399,-0.6268 v 40.2018 h -1.7497 m 3.5002,0 v -40.927 l 1.2309,-0.4784 0.5179,-0.1758 v 41.5812 h -1.7488 m 3.4993,0 V 16.9642 l 0.7324,-0.2339 1.0181,-0.2646 v 42.6597 h -1.7505 m 3.5009,0 V 16.0422 l 0.2622,-0.0621 1.4883,-0.2856 v 43.4309 h -1.7505 m 3.4993,0 V 15.4227 l 1.4141,-0.163 0.3364,-0.0323 v 43.898 h -1.7505 m 3.5002,0 V 15.0798 l 1.0648,-0.0597 0.6856,-0.0137 v 44.119 H 57.375 m 3.4993,0 v -44.119 l 0.6857,0.0137 1.0648,0.0597 v 44.0456 h -1.7505 m 3.5001,0 v -43.898 l 0.3364,0.0323 1.4141,0.163 v 43.7027 h -1.7505 m 3.4993,0 V 15.6945 l 1.4883,0.2856 0.2622,0.0621 v 43.0832 h -1.7505 m 3.501,0 V 16.4657 l 1.018,0.2646 0.7324,0.2339 v 42.1612 h -1.7504 m 3.5009,0 V 17.5442 l 0.5179,0.1758 1.231,0.4784 v 40.927 h -1.7489 m 3.4993,0 V 18.9236 l 1.3399,0.6268 0.4098,0.2097 v 39.3653 h -1.7497 m 3.5002,0 V 20.6789 l 0.63,0.3428 1.1188,0.6712 v 37.4325 h -1.7488 m 3.4993,0 V 22.844 l 1.0615,0.7575 0.6897,0.509 v 35.0149 h -1.7512 m 3.5001,0 V 25.481 l 0.0516,0.0411 1.6989,1.5246 v 32.0787 h -1.7505 m 3.5001,0 V 28.7302 l 0.0024,0.0025 1.7481,1.9481 v 28.4446 h -1.7505 m 3.5002,0 V 32.8547 l 0.5235,0.7091 0.8994,1.2608 0.3275,0.4961 v 23.8047 h -1.7504 m 3.4993,0 V 38.2231 l 0.3549,0.6518 0.7204,1.41 0.6598,1.4109 0.0161,0.0379 v 17.3917 h -1.7512 m 3.5017,0 V 46.3753 l 0.3937,1.2317 0.3904,1.5004 0.3598,1.5303 0.3,1.5609 0.2404,1.5294 0.0646,0.5639 v 4.8335 h -1.7489 m -42.0023,5.833 13.6867,37.6036 -0.6671,0.2275 -0.9962,0.3186 -12.0234,-33.0322 v -5.1175 m 0,10.2334 10.3318,28.3866 -0.313,0.0815 -1.4004,0.3291 -8.6184,-23.6797 v -5.1175 m 0,10.2318 6.88,18.9034 -1.4818,0.2331 -0.2839,0.0323 -5.1143,-14.0513 v -5.1175 m 0,10.2342 3.3235,9.1314 -1.0463,0.1009 -0.7639,0.0427 -1.5133,-4.1592 v -5.1158 m 43.2091,-34.7843 0.8099,2.2256 -0.002,0.0516 -0.1501,1.5601 -0.1799,1.5609 -0.1137,0.7195 -2.2264,-6.1177 h 1.8626 m -3.726,0 3.438,9.4444 -0.1347,0.5744 -0.3904,1.5004 -0.2727,0.8494 -4.5012,-12.3686 h 1.861 m -3.7236,0 5.4595,15.0008 -0.3839,0.9889 -0.597,1.4335 -6.342,-17.4232 h 1.8634 m -3.7244,0 7.1415,19.6213 -0.3211,0.6301 -0.751,1.3802 -0.0363,0.0613 -7.8957,-21.6929 h 1.8626 m -3.7251,0 8.5853,23.5877 -0.4711,0.7139 -0.7494,1.0503 -9.2266,-25.3519 h 1.8618 m -3.7244,0 9.8389,27.033 -0.8204,1.0196 -0.4767,0.5316 -10.4044,-28.5842 h 1.8626 m -3.726,0 10.9424,30.0612 -0.2985,0.3324 -1.0575,1.0575 -11.4474,-31.4511 h 1.861 m -3.7236,0 11.9072,32.7152 -0.9906,0.8889 -0.4243,0.3412 -12.3541,-33.9453 h 1.8618 m -3.7244,0 12.7647,35.0706 -0.6139,0.4542 -0.8599,0.6139 -13.1535,-36.1387 h 1.8626 m -3.7244,0 13.5198,37.147 -0.2251,0.1476 -1.2995,0.7801 -13.8577,-38.0747 h 1.8625 m -3.7243,0 14.165,38.9184 -1.2866,0.6575 -0.2872,0.1339 -14.4538,-39.7098 h 1.8626 m -3.7252,0 14.7168,40.4342 -0.9648,0.4009 -0.6582,0.2557 -14.9556,-41.0908 h 1.8618 m -4.3609,0 -14.9556,41.0908 -0.6582,-0.2557 -0.9648,-0.4009 14.7169,-40.4342 h 1.8617 m -3.7243,0 -14.4539,39.7098 -0.2872,-0.1339 -1.2866,-0.6575 14.1651,-38.9184 h 1.8626 m -3.7244,0 -13.8577,38.0747 -1.2996,-0.7801 -0.225,-0.1476 13.5197,-37.147 h 1.8626 m -3.7244,0 L 34.4241,97.0122 33.5642,96.3983 32.9503,95.9441 45.715,60.8735 h 1.8626 m -3.7252,0 L 31.4979,94.8188 31.0736,94.4776 30.083,93.5887 41.9902,60.8735 h 1.8618 m -3.7244,0 -11.4474,31.4511 -1.0575,-1.0575 -0.2985,-0.3324 10.9425,-30.0612 h 1.8609 m -3.7243,0 -10.4044,28.5842 -0.4768,-0.5316 -0.8204,-1.0196 9.839,-27.033 h 1.8626 m -3.7252,0 -9.2267,25.3519 -0.7494,-1.0503 -0.4711,-0.7139 8.5854,-23.5877 h 1.8618 m -3.7244,0 -7.8957,21.6929 -0.0363,-0.0613 -0.751,-1.3802 -0.321,-0.6301 7.1414,-19.6213 h 1.8626 m -3.7236,0 -6.342,17.4232 -0.5969,-1.4335 -0.384,-0.9889 5.4595,-15.0008 h 1.8634 m -3.726,0 -4.5012,12.3686 -0.2726,-0.8494 -0.3905,-1.5004 -0.1347,-0.5744 3.438,-9.4444 h 1.861 m -3.7244,0 -2.2264,6.1177 -0.1137,-0.7195 -0.1799,-1.5609 -0.15,-1.5601 -0.0024,-0.0516 0.8098,-2.2256 h 1.8626 m 41.3465,39.9001 -1.5133,4.1592 -0.7639,-0.0427 -1.0462,-0.1009 3.3234,-9.1314 v 5.1158 m 0,-10.2325 -5.1142,14.0513 -0.284,-0.0323 -1.4818,-0.2331 6.88,-18.9034 v 5.1175 m 0,-10.2318 -8.6184,23.6797 -1.4004,-0.3291 -0.3129,-0.0815 10.3317,-28.3866 v 5.1175 m 0,-10.2334 -12.0233,33.0322 -0.9963,-0.3186 -0.6671,-0.2275 13.6867,-37.6036 v 5.1175"
       id="path1" />
  </g>
  <rect
     style="fill:#00ffff;fill-rule:evenodd;stroke:#ff0000;stroke-width:0.1;paint-order:fill markers stroke"
     id="rect1"
     width="3"
     height="10"
     x="58.499851"
     y="1.9413047"
     ry="1.6186448" />
  <rect
     style="fill:#00ffff;fill-rule:evenodd;stroke:#ff0000;stroke-width:0.1;paint-order:fill markers stroke"
     id="rect1-5"
     width="3"
     height="10"
     x="70.832108"
     y="47.834541"
     ry="1.6186448"
     transform="rotate(43.967933)" />
  <rect
     style="fill:#00ffff;fill-rule:evenodd;stroke:#ff0000;stroke-width:0.1;paint-order:fill markers stroke"
     id="rect1-5-1"
     width="3"
     height="10"
     x="-3.9230738"
     y="132.26428"
     ry="1.6186448"
     transform="rotate(-49.99991)" />
</svg>
