<?xml version="1.0" encoding="UTF-8" standalone="no"?>
<!-- Created with Inkscape (http://www.inkscape.org/) -->

<svg
   width="210mm"
   height="297mm"
   viewBox="0 0 210 297"
   version="1.1"
   id="svg1"
   inkscape:version="1.3.2 (091e20e, 2023-11-25)"
   sodipodi:docname="suporte-controlador-carga-18650.svg"
   xmlns:inkscape="http://www.inkscape.org/namespaces/inkscape"
   xmlns:sodipodi="http://sodipodi.sourceforge.net/DTD/sodipodi-0.dtd"
   xmlns="http://www.w3.org/2000/svg"
   xmlns:svg="http://www.w3.org/2000/svg">
  <sodipodi:namedview
     id="namedview1"
     pagecolor="#ffffff"
     bordercolor="#000000"
     borderopacity="0.25"
     inkscape:showpageshadow="2"
     inkscape:pageopacity="0.0"
     inkscape:pagecheckerboard="0"
     inkscape:deskcolor="#d1d1d1"
     inkscape:document-units="mm"
     showgrid="true"
     inkscape:zoom="1.9746766"
     inkscape:cx="24.054572"
     inkscape:cy="64.567535"
     inkscape:window-width="1088"
     inkscape:window-height="1920"
     inkscape:window-x="0"
     inkscape:window-y="0"
     inkscape:window-maximized="0"
     inkscape:current-layer="layer4">
    <inkscape:grid
       id="grid1"
       units="mm"
       originx="0"
       originy="0"
       spacingx="0.99999998"
       spacingy="1"
       empcolor="#0099e5"
       empopacity="0.30196078"
       color="#0099e5"
       opacity="0.14901961"
       empspacing="5"
       dotted="false"
       gridanglex="30"
       gridanglez="30"
       visible="true" />
  </sodipodi:namedview>
  <defs
     id="defs1">
    <clipPath
       clipPathUnits="userSpaceOnUse"
       id="clipPath72">
      <path
         id="path72"
         style="fill:#ff0000;fill-opacity:1;fill-rule:nonzero;stroke:none;stroke-width:0.264583"
         d="M 0.00206706,0.00206706 V 37.998199 H 9.4697063 c -0.059889,-0.08189 0.00254,-0.203438 0.1834513,-0.199472 0.2617274,0.0057 0.5234054,0.01622 0.7849654,0.02687 0.237306,0.01037 0.474612,0.01574 0.712101,0.01963 0.179022,-0.0016 0.358016,0.0088 0.536918,0.01138 0.183643,7.94e-4 0.367237,-0.0016 0.550871,-0.0031 0.135817,-0.0013 0.271388,-0.0016 0.40721,-0.0021 0.145124,-0.0028 0.290663,-0.01072 0.435632,-0.0186 0.194444,-0.01259 0.389179,-0.02127 0.583944,-0.02687 0.173329,-0.0029 0.346229,-0.01505 0.519348,-0.02326 0.156168,-0.0072 0.312398,-0.0093 0.468705,-0.01085 0.176657,-0.0016 0.353538,-0.0024 0.5302,-0.0026 0.147717,-0.0031 0.294922,7.94e-4 0.442351,0.0093 0.105198,0.0065 0.21039,0.01053 0.315743,0.01344 0.08437,0.0021 0.168824,0.0031 0.253214,0.0036 0.118734,5.29e-4 0.237315,5.29e-4 0.356051,5.29e-4 0.144331,8e-5 0.288717,-10e-6 0.433048,0 0.136322,1.1e-5 0.272956,0 0.409278,0 0.120357,3e-6 0.240345,0 0.360701,0 h 0.360702 0.319877 0.29869 0.309025 0.291972 0.296622 0.302307 0.205156 0.141593 0.12299 0.06201 0.03927 0.04031 0.04961 0.0098 c 0.180067,0 0.239126,0.121521 0.178283,0.202057 H 29.99817 V 0.00206706 Z" />
    </clipPath>
    <clipPath
       clipPathUnits="userSpaceOnUse"
       id="clipPath73">
      <path
         id="path73"
         style="fill:#ff0000;fill-opacity:1;fill-rule:nonzero;stroke:none;stroke-width:0.264583"
         d="M 6.2027223,8.0026124 V 38.047808 h 3.3320964 c -0.148577,-0.06586 -0.1063421,-0.254008 0.1183389,-0.249081 0.2617274,0.0057 0.5234054,0.01622 0.7849654,0.02687 0.237306,0.01037 0.474612,0.01574 0.712101,0.01963 0.179022,-0.0016 0.358016,0.0088 0.536918,0.01138 0.183643,7.94e-4 0.367237,-0.0016 0.550871,-0.0031 0.135817,-0.0013 0.271388,-0.0016 0.40721,-0.0021 0.145124,-0.0028 0.290663,-0.01072 0.435632,-0.0186 0.194444,-0.01259 0.389179,-0.02127 0.583944,-0.02687 0.173329,-0.0029 0.346229,-0.01505 0.519348,-0.02326 0.156168,-0.0072 0.312398,-0.0093 0.468705,-0.01085 0.176657,-0.0016 0.353538,-0.0024 0.5302,-0.0026 0.147717,-0.0031 0.294922,7.94e-4 0.442351,0.0093 0.105198,0.0065 0.21039,0.01053 0.315743,0.01344 0.08437,0.0021 0.168824,0.0031 0.253214,0.0036 0.118734,5.29e-4 0.237315,5.29e-4 0.356051,5.29e-4 0.144331,8e-5 0.288717,-10e-6 0.433048,0 0.136322,1.1e-5 0.272956,0 0.409278,0 0.120357,3e-6 0.240345,0 0.360701,0 h 0.360702 0.319877 0.29869 0.309025 0.291972 0.296622 0.302307 0.205156 0.141593 0.12299 0.06201 0.03927 0.04031 0.04961 0.0098 c 0.225231,0 0.261236,0.189524 0.109554,0.251667 H 23.69724 V 8.0026124 Z M 15.183052,38.041606 c -0.175862,2.65e-4 -0.351242,2.65e-4 -0.527099,0.0021 -0.05823,5.29e-4 -0.11643,0.0031 -0.174666,0.0041 h 1.075386 c -0.124429,-0.0061 -0.249003,-0.009 -0.373621,-0.0062 z" />
    </clipPath>
  </defs>
  <g
     inkscape:groupmode="layer"
     id="layer4"
     inkscape:label="Layer 3">
    <path
       style="fill:none;fill-rule:evenodd;stroke:#000080;stroke-width:0.1;paint-order:fill markers stroke"
       d="M 0.0519374,0.0519374 V 37.948063 l 9.1401061,-1.1e-5 0.00543,-2.016755 -2.9449426,0.01617 V 8.0525312 H 23.647472 V 35.947395 l -2.844942,-0.0016 -0.0028,2.002269 h 9.14833 V 0.0519374 Z"
       id="path74" />
  </g>
</svg>
