<?xml version="1.0" encoding="UTF-8" standalone="no"?>
<svg
   width="263mm"
   height="193mm"
   viewBox="0 0 263 193"
   version="1.1"
   preserveAspectRatio="xMidYMid meet"
   id="svg1"
   sodipodi:docname="suporte-5100.svg"
   inkscape:version="1.3.2 (091e20e, 2023-11-25)"
   xmlns:inkscape="http://www.inkscape.org/namespaces/inkscape"
   xmlns:sodipodi="http://sodipodi.sourceforge.net/DTD/sodipodi-0.dtd"
   xmlns="http://www.w3.org/2000/svg"
   xmlns:svg="http://www.w3.org/2000/svg">
  <defs
     id="defs1" />
  <sodipodi:namedview
     id="namedview1"
     pagecolor="#ffffff"
     bordercolor="#000000"
     borderopacity="0.25"
     inkscape:showpageshadow="2"
     inkscape:pageopacity="0.0"
     inkscape:pagecheckerboard="0"
     inkscape:deskcolor="#d1d1d1"
     inkscape:document-units="mm"
     showgrid="true"
     inkscape:zoom="0.54838056"
     inkscape:cx="265.32669"
     inkscape:cy="287.20931"
     inkscape:window-width="1088"
     inkscape:window-height="1416"
     inkscape:window-x="0"
     inkscape:window-y="420"
     inkscape:window-maximized="0"
     inkscape:current-layer="svg1">
    <inkscape:grid
       id="grid1"
       units="mm"
       originx="0"
       originy="0"
       spacingx="1"
       spacingy="1"
       empcolor="#0099e5"
       empopacity="0.30196078"
       color="#0099e5"
       opacity="0.14901961"
       empspacing="5"
       dotted="false"
       gridanglex="30"
       gridanglez="30"
       visible="true" />
  </sodipodi:namedview>
  <rect
     style="fill:none;fill-rule:evenodd;stroke:#ff00ff;stroke-width:0.157388;paint-order:fill markers stroke"
     id="rect3"
     width="96.842613"
     height="84.842613"
     x="157.52585"
     y="99.685234"
     ry="1.2763567" />
  <rect
     style="fill:none;fill-rule:evenodd;stroke:#ff00ff;stroke-width:0.0826934;paint-order:fill markers stroke"
     id="rect7"
     width="2.9173062"
     height="9.9173069"
     x="160.44881"
     y="171.69321"
     ry="1.9405807e-06"
     rx="3.0357794e-06" />
  <ellipse
     style="fill:none;fill-rule:evenodd;stroke:#ff00ff;stroke-width:0.113916;paint-order:fill markers stroke"
     id="path7"
     cx="161.90747"
     cy="167.36412"
     rx="1.4430422"
     ry="1.443042"
     inkscape:transform-center-x="102.05977"
     inkscape:transform-center-y="0.55668965" />
  <ellipse
     style="fill:none;fill-rule:evenodd;stroke:#ff00ff;stroke-width:0.113916;paint-order:fill markers stroke"
     id="path7-4"
     cx="38.587673"
     cy="131.55083"
     rx="1.4430422"
     ry="1.443042"
     inkscape:transform-center-x="102.05977"
     inkscape:transform-center-y="0.55668965" />
  <ellipse
     style="fill:none;fill-rule:evenodd;stroke:#ff00ff;stroke-width:0.113916;paint-order:fill markers stroke"
     id="path7-4-8"
     cx="76.5"
     cy="131.5"
     rx="1.4430422"
     ry="1.443042"
     inkscape:transform-center-x="102.05977"
     inkscape:transform-center-y="0.55668965" />
  <ellipse
     style="fill:none;fill-rule:evenodd;stroke:#ff00ff;stroke-width:0.113916;paint-order:fill markers stroke"
     id="path7-4-5"
     cx="38.587673"
     cy="161.319"
     rx="1.4430422"
     ry="1.443042"
     inkscape:transform-center-x="102.05977"
     inkscape:transform-center-y="0.55668965" />
  <ellipse
     style="fill:none;fill-rule:evenodd;stroke:#ff00ff;stroke-width:0.113916;paint-order:fill markers stroke"
     id="path7-4-8-2"
     cx="76.5"
     cy="161.26817"
     rx="1.4430422"
     ry="1.443042"
     inkscape:transform-center-x="102.05977"
     inkscape:transform-center-y="0.55668965" />
  <rect
     style="fill:none;fill-rule:evenodd;stroke:#ff00ff;stroke-width:0.0826934;paint-order:fill markers stroke"
     id="rect7-4"
     width="2.9173062"
     height="9.9173069"
     x="248.53383"
     y="171.73312"
     ry="1.9405807e-06"
     rx="3.0357794e-06" />
  <ellipse
     style="fill:none;fill-rule:evenodd;stroke:#ff00ff;stroke-width:0.113916;paint-order:fill markers stroke"
     id="path7-8"
     cx="249.99249"
     cy="167.40399"
     rx="1.4430422"
     ry="1.443042"
     inkscape:transform-center-x="102.05977"
     inkscape:transform-center-y="0.55668965" />
  <path
     style="fill:none;fill-rule:evenodd;stroke:#0000ff;stroke-width:0.1;paint-order:fill markers stroke"
     d="m 19.81949,54.74167 2.89948,0.4876 1.51483,-9.78511 -2.86749,-0.44397 z"
     id="path3-9" />
  <path
     style="fill:none;fill-rule:evenodd;stroke:#0000ff;stroke-width:0.1;paint-order:fill markers stroke"
     d="m 22.938,34.847773 2.86749,0.44398 1.51479,-9.78509 -2.86748,-0.44398 z"
     id="path4-9" />
  <path
     style="fill:none;fill-rule:evenodd;stroke:#0000ff;stroke-width:0.1;paint-order:fill markers stroke"
     d="m 46.82049,14.999999 -14.224,89.601741 h -5.52904 v -3.94999 h 1.25 v -2.65002 h -1.25 v -2.65 h -3.25 v 2.65 h -1.25 v 2.65002 h 1.25 v 3.94999 l -2.725,10e-6 v 2.9173 h -9.9173 L 11.14855,104.35174 25,14.999999 Z"
     id="path2" />
  <path
     style="fill:none;fill-rule:evenodd;stroke:#0000ff;stroke-width:0.1;paint-order:fill markers stroke"
     d="m 46.00204,54.389936 2.89948,0.4876 1.51483,-9.78511 -2.86749,-0.44397 z"
     id="path3-9-9" />
  <path
     style="fill:none;fill-rule:evenodd;stroke:#0000ff;stroke-width:0.1;paint-order:fill markers stroke"
     d="m 49.12055,34.496039 2.867485,0.44398 1.51479,-9.78509 -2.867475,-0.44398 z"
     id="path4-9-9" />
  <path
     style="fill:none;fill-rule:evenodd;stroke:#0000ff;stroke-width:0.1;paint-order:fill markers stroke"
     d="m 73.003045,14.648265 -14.224,89.601745 h -5.52904 v -3.94999 h 1.25 v -2.650024 h -1.25 v -2.65 H 50 v 2.65 h -1.25 v 2.650024 H 50 v 3.94999 l -2.725,1e-5 v 2.9173 h -9.9173 l -0.0266,-3.16731 13.85145,-89.351745 z"
     id="path2-3" />
  <path
     style="fill:none;fill-rule:evenodd;stroke:#0000ff;stroke-width:0.1;paint-order:fill markers stroke"
     d="m 195.18823,26.99986 2.65487,1.171013 3.99575,-9.059615 -2.65487,-1.17101 z"
     id="path4-9-9-2-9" />
  <path
     style="fill:none;fill-rule:evenodd;stroke:#0000ff;stroke-width:0.1;paint-order:fill markers stroke"
     d="m 187.02291,45.367374 2.65487,1.171013 3.99575,-9.059615 -2.65487,-1.17101 z"
     id="path4-9-9-2-9-7-6" />
  <path
     style="fill:none;fill-rule:evenodd;stroke:#0000ff;stroke-width:0.1;paint-order:fill markers stroke"
     d="m 14.962335,119.90177 v 9.90166 h -2.901657 v 9.90165 h 2.901657 v 10.27335 h -2.901657 v 9.90166 h 2.901657 v 25.05497 H 99.96233 l 0.0383,-25.09327 v 0 l 2.93999,0.0383 v -9.90166 h -2.90165 v -10.27335 h 2.90165 v -9.90165 h -2.90165 v -9.90166 z"
     id="path4" />
  <path
     style="fill:none;fill-rule:evenodd;stroke:#ff0000;stroke-width:0.1;paint-order:fill markers stroke"
     d="m 189.91272,85.229317 h -5.52904 v -3.94999 h 1.25 v -2.650023 h -1.25 v -2.65 h -3.25001 v 2.65 h -1.25 v 2.650023 h 1.25 v 3.94999 l -2.725,1e-5 v 2.9173 h -9.9173 l -0.0266,-3.16731 33.55995,-76.6759992 18.08331,0.1523229 z"
     id="path1" />
  <path
     style="fill:none;fill-rule:evenodd;stroke:#0000ff;stroke-width:0.1;paint-order:fill markers stroke"
     d="m 221.07148,28.620381 2.65487,1.171013 3.99575,-9.059615 -2.65487,-1.17101 z"
     id="path4-9-9-2-9-2" />
  <path
     style="fill:none;fill-rule:evenodd;stroke:#0000ff;stroke-width:0.1;paint-order:fill markers stroke"
     d="m 212.90616,46.987895 2.65487,1.171013 3.99575,-9.059615 -2.65487,-1.17101 z"
     id="path4-9-9-2-9-7-6-0" />
  <path
     style="fill:none;fill-rule:evenodd;stroke:#ff0000;stroke-width:0.1;paint-order:fill markers stroke"
     d="m 215.79597,86.849835 h -5.52904 v -3.94999 h 1.25 v -2.65002 h -1.25 v -2.65 h -3.25001 v 2.65 h -1.25 v 2.65002 h 1.25 v 3.94999 l -2.725,1e-5 v 2.9173 h -9.9173 l -0.0266,-3.16731 33.55995,-76.675997 18.08331,0.152323 z"
     id="path1-7" />
</svg>
