<?xml version="1.0" encoding="UTF-8" standalone="no"?>
<!-- Created with Inkscape (http://www.inkscape.org/) -->

<svg
   width="210mm"
   height="297mm"
   viewBox="0 0 210 297"
   version="1.1"
   id="svg1"
   inkscape:version="1.3.2 (091e20e, 2023-11-25)"
   sodipodi:docname="suporte-controlador-carga-18650.svg"
   xmlns:inkscape="http://www.inkscape.org/namespaces/inkscape"
   xmlns:sodipodi="http://sodipodi.sourceforge.net/DTD/sodipodi-0.dtd"
   xmlns="http://www.w3.org/2000/svg"
   xmlns:svg="http://www.w3.org/2000/svg">
  <sodipodi:namedview
     id="namedview1"
     pagecolor="#ffffff"
     bordercolor="#000000"
     borderopacity="0.25"
     inkscape:showpageshadow="2"
     inkscape:pageopacity="0.0"
     inkscape:pagecheckerboard="0"
     inkscape:deskcolor="#d1d1d1"
     inkscape:document-units="mm"
     showgrid="true"
     inkscape:zoom="3.0879304"
     inkscape:cx="39.184821"
     inkscape:cy="186.20886"
     inkscape:window-width="1088"
     inkscape:window-height="1867"
     inkscape:window-x="0"
     inkscape:window-y="25"
     inkscape:window-maximized="0"
     inkscape:current-layer="layer7"
     showguides="false">
    <inkscape:grid
       id="grid1"
       units="mm"
       originx="0"
       originy="0"
       spacingx="0.99999998"
       spacingy="1"
       empcolor="#0099e5"
       empopacity="0.30196078"
       color="#0099e5"
       opacity="0.14901961"
       empspacing="5"
       dotted="false"
       gridanglex="30"
       gridanglez="30"
       visible="true" />
  </sodipodi:namedview>
  <defs
     id="defs1">
    <clipPath
       clipPathUnits="userSpaceOnUse"
       id="clipPath72">
      <path
         id="path72"
         style="fill:#ff0000;fill-opacity:1;fill-rule:nonzero;stroke:none;stroke-width:0.264583"
         d="M 0.00206706,0.00206706 V 37.998199 H 9.4697063 c -0.059889,-0.08189 0.00254,-0.203438 0.1834513,-0.199472 0.2617274,0.0057 0.5234054,0.01622 0.7849654,0.02687 0.237306,0.01037 0.474612,0.01574 0.712101,0.01963 0.179022,-0.0016 0.358016,0.0088 0.536918,0.01138 0.183643,7.94e-4 0.367237,-0.0016 0.550871,-0.0031 0.135817,-0.0013 0.271388,-0.0016 0.40721,-0.0021 0.145124,-0.0028 0.290663,-0.01072 0.435632,-0.0186 0.194444,-0.01259 0.389179,-0.02127 0.583944,-0.02687 0.173329,-0.0029 0.346229,-0.01505 0.519348,-0.02326 0.156168,-0.0072 0.312398,-0.0093 0.468705,-0.01085 0.176657,-0.0016 0.353538,-0.0024 0.5302,-0.0026 0.147717,-0.0031 0.294922,7.94e-4 0.442351,0.0093 0.105198,0.0065 0.21039,0.01053 0.315743,0.01344 0.08437,0.0021 0.168824,0.0031 0.253214,0.0036 0.118734,5.29e-4 0.237315,5.29e-4 0.356051,5.29e-4 0.144331,8e-5 0.288717,-10e-6 0.433048,0 0.136322,1.1e-5 0.272956,0 0.409278,0 0.120357,3e-6 0.240345,0 0.360701,0 h 0.360702 0.319877 0.29869 0.309025 0.291972 0.296622 0.302307 0.205156 0.141593 0.12299 0.06201 0.03927 0.04031 0.04961 0.0098 c 0.180067,0 0.239126,0.121521 0.178283,0.202057 H 29.99817 V 0.00206706 Z" />
    </clipPath>
    <clipPath
       clipPathUnits="userSpaceOnUse"
       id="clipPath73">
      <path
         id="path73"
         style="fill:#ff0000;fill-opacity:1;fill-rule:nonzero;stroke:none;stroke-width:0.264583"
         d="M 6.2027223,8.0026124 V 38.047808 h 3.3320964 c -0.148577,-0.06586 -0.1063421,-0.254008 0.1183389,-0.249081 0.2617274,0.0057 0.5234054,0.01622 0.7849654,0.02687 0.237306,0.01037 0.474612,0.01574 0.712101,0.01963 0.179022,-0.0016 0.358016,0.0088 0.536918,0.01138 0.183643,7.94e-4 0.367237,-0.0016 0.550871,-0.0031 0.135817,-0.0013 0.271388,-0.0016 0.40721,-0.0021 0.145124,-0.0028 0.290663,-0.01072 0.435632,-0.0186 0.194444,-0.01259 0.389179,-0.02127 0.583944,-0.02687 0.173329,-0.0029 0.346229,-0.01505 0.519348,-0.02326 0.156168,-0.0072 0.312398,-0.0093 0.468705,-0.01085 0.176657,-0.0016 0.353538,-0.0024 0.5302,-0.0026 0.147717,-0.0031 0.294922,7.94e-4 0.442351,0.0093 0.105198,0.0065 0.21039,0.01053 0.315743,0.01344 0.08437,0.0021 0.168824,0.0031 0.253214,0.0036 0.118734,5.29e-4 0.237315,5.29e-4 0.356051,5.29e-4 0.144331,8e-5 0.288717,-10e-6 0.433048,0 0.136322,1.1e-5 0.272956,0 0.409278,0 0.120357,3e-6 0.240345,0 0.360701,0 h 0.360702 0.319877 0.29869 0.309025 0.291972 0.296622 0.302307 0.205156 0.141593 0.12299 0.06201 0.03927 0.04031 0.04961 0.0098 c 0.225231,0 0.261236,0.189524 0.109554,0.251667 H 23.69724 V 8.0026124 Z M 15.183052,38.041606 c -0.175862,2.65e-4 -0.351242,2.65e-4 -0.527099,0.0021 -0.05823,5.29e-4 -0.11643,0.0031 -0.174666,0.0041 h 1.075386 c -0.124429,-0.0061 -0.249003,-0.009 -0.373621,-0.0062 z" />
    </clipPath>
    <clipPath
       clipPathUnits="userSpaceOnUse"
       id="clipPath83">
      <path
         id="path84"
         style="fill:#ff0000;fill-opacity:1;fill-rule:nonzero;stroke:none;stroke-width:0.264583"
         d="M 0.00206706,0.00206706 V 37.998196 H 29.99817 V 0.00206706 Z M 23.623881,15.253333 c 0.227717,-0.02352 0.443589,0.203228 0.367936,0.640787 -0.03836,0.221849 -0.0735,0.443398 -0.09457,0.66766 -0.02519,0.302861 -0.06505,0.604455 -0.0894,0.907438 -0.02924,0.323279 -0.06054,0.645949 -0.08165,0.969967 -0.0196,0.294236 -0.02739,0.588893 -0.03359,0.883667 -0.0045,0.220301 -0.0061,0.4406 -0.0072,0.660941 -8.46e-4,0.198757 -8.73e-4,0.397588 -0.001,0.596346 0.0015,0.207124 -0.0052,0.414281 0.0062,0.621151 0.0233,0.305359 0.03918,0.611286 0.05168,0.917257 0.0087,0.218325 0.01397,0.436794 0.01757,0.655257 0.0017,0.10918 0.0024,0.218437 0.0031,0.327628 -0.0015,0.02372 0.0257,0.122854 0.03927,0.195854 0.01595,0.08564 0.02687,0.172039 0.03307,0.258899 -0.0014,0.09028 0.0078,0.107528 0.02481,0.185518 0.02489,0.106773 0.03929,0.215466 0.04909,0.324528 0.0023,0.01699 0.01785,0.311569 0.0072,0.161748 0.0081,-0.0066 0.04154,0.08995 0.04444,0.09715 0.02369,0.07149 0.03271,0.145859 0.03721,0.220659 0.0029,0.05805 0.0037,0.116556 0.0041,0.174666 5.03e-4,0.109807 4.5e-4,0.219371 5.29e-4,0.329179 5.5e-5,0.103198 -1.3e-5,0.206344 0,0.309542 8e-6,0.05961 -2e-6,0.11919 0,0.1788 v 0.140043 0.237195 0.199471 c 0.0061,0.09695 -0.01934,0.19095 -0.05633,0.27957 -0.01805,0.04547 -0.01264,0.03607 -0.01654,0.05943 -0.0018,0.0082 -0.0097,0.06824 -0.0052,0.03256 -5.3e-4,0.01717 -7.15e-4,0.03399 -0.001,0.05116 -2.22e-4,0.0218 -5.03e-4,0.04382 -5.29e-4,0.06563 -3.4e-5,0.03645 5e-6,0.07309 0,0.109556 -6e-6,0.0364 1e-6,0.07263 0,0.109037 v 0.04909 0.03824 c -2e-6,0.789424 -0.79737,0.789424 -0.797368,0 v -0.03824 -0.04909 c 1e-6,-0.03644 -4e-6,-0.07311 0,-0.109553 6e-6,-0.03672 -3.4e-5,-0.07335 0,-0.110072 3.1e-5,-0.0263 1.65e-4,-0.05225 5.29e-4,-0.07855 5.02e-4,-0.02802 0.0012,-0.05623 0.0026,-0.08423 0.0034,-0.04154 0.0079,-0.083 0.0155,-0.124023 0.0132,-0.07327 0.03249,-0.145069 0.06098,-0.213941 v -0.186035 -0.237195 -0.140043 c -2e-6,-0.05958 7e-6,-0.11922 0,-0.1788 -1.3e-5,-0.103076 5.5e-5,-0.205952 0,-0.309025 -6.4e-5,-0.108174 -2.7e-5,-0.216356 -5.3e-4,-0.324528 -1.99e-4,-0.04561 -4.76e-4,-0.09137 -0.0026,-0.136943 -7.94e-4,-0.02548 -8.21e-4,-0.01229 0.0021,-0.01188 0.06046,0.13074 -0.0766,-0.152263 -0.06253,-0.159163 -0.01581,-0.09403 -0.02457,-0.186337 -0.02687,-0.281637 -0.0063,-0.07535 -0.01669,-0.150605 -0.03411,-0.224275 -0.02168,-0.0995 -0.04182,-0.199437 -0.04082,-0.301791 -0.0035,-0.05699 -0.01157,-0.113308 -0.0217,-0.169498 -0.01966,-0.111045 -0.05521,-0.220413 -0.05271,-0.334347 -6.09e-4,-0.106398 -0.0015,-0.212973 -0.0031,-0.31936 -0.0035,-0.212037 -0.0087,-0.423717 -0.01705,-0.63562 -0.01235,-0.303302 -0.02824,-0.606285 -0.05116,-0.908989 -0.0105,-0.220703 -0.0073,-0.441568 -0.0072,-0.662492 10e-5,-0.199832 1.67e-4,-0.399614 0.001,-0.599446 0.0011,-0.224632 0.0026,-0.449269 0.0072,-0.673861 0.0065,-0.306497 0.01527,-0.613386 0.03566,-0.919324 0.02143,-0.328102 0.05259,-0.655018 0.08217,-0.982369 0.0249,-0.306914 0.06452,-0.612035 0.09043,-0.918807 0.02301,-0.236417 0.05786,-0.470524 0.09922,-0.704349 0.06015,-0.340095 0.24405,-0.509837 0.421163,-0.528133 z M 6.060612,15.637288 c 0.1993601,0 0.3984252,0.197501 0.3984252,0.592212 v 0.423747 0.499194 0.47284 c 5.291e-4,0.174992 -0.029305,0.348127 -0.047026,0.521932 -0.010454,0.107281 -0.021278,0.214743 -0.025839,0.322461 -0.0048,0.133638 -0.00457,0.267302 -0.00517,0.401009 -8.731e-4,0.263107 -9.26e-4,0.52599 -0.00103,0.789099 -1.095e-4,0.317811 -5.027e-4,0.635619 -5.291e-4,0.95343 -1.59e-5,0.272494 2.9e-6,0.545029 0,0.817521 -2.2e-6,0.245076 5e-7,0.49028 0,0.735356 v 0.557072 0.365869 c 0.00841,0.186905 0.031922,0.373166 0.044442,0.560172 0.012753,0.24763 0.048176,0.493276 0.07183,0.740007 0.020405,0.205003 0.028503,0.410666 0.034623,0.6165 0.00321,0.151894 0.03305,0.301849 0.050126,0.452685 0.015378,0.140455 0.024379,0.281585 0.030489,0.422714 -0.013803,-0.05618 -0.00823,9e-4 -0.00103,0.06201 0.00148,0.0035 1.008e-4,-4.23e-4 0.00206,0.0041 0.031202,0.0698 0.049069,0.14468 0.065112,0.219108 0.011533,0.05178 0.015354,0.104794 0.018603,0.157614 0.00198,0.03431 0.0022,0.06848 0.00259,0.102836 2.91e-4,0.03042 -3.28e-5,0.06105 0,0.09146 2.54e-5,0.03115 -5.3e-6,0.06239 0,0.09354 3.4e-6,0.02535 -1.1e-6,0.05063 0,0.07596 v 0.06718 0.0083 c 2.9e-6,0.789424 -0.7973642,0.789424 -0.7973674,0 v -0.0083 -0.06718 c -1.3e-6,-0.02532 3.7e-6,-0.05065 0,-0.07596 -5.3e-6,-0.03092 2.49e-5,-0.06159 0,-0.0925 -2.96e-5,-0.02773 2.381e-4,-0.05547 0,-0.0832 -2.4e-4,-0.02116 -6.35e-4,-0.04243 -0.00156,-0.06356 -0.00196,-0.03253 -0.00101,-0.03357 -0.00206,-0.03927 -0.0078,-0.03666 -0.00899,-0.05172 -0.017571,-0.0708 -0.04759,-0.111322 -0.068729,-0.226553 -0.065629,-0.347266 -0.00521,-0.122905 -0.012576,-0.245611 -0.025839,-0.367936 -0.019047,-0.172491 -0.053627,-0.343793 -0.054777,-0.517798 -0.00556,-0.188387 -0.012814,-0.376679 -0.031523,-0.564307 -0.024221,-0.254396 -0.0612,-0.507826 -0.073896,-0.763226 C 5.6146597,23.49734 5.587284,23.293374 5.5820741,23.088514 V 22.723162 22.16609 c 3e-7,-0.245079 -2.4e-6,-0.490278 0,-0.735356 2.7e-6,-0.272507 -1.61e-5,-0.545012 0,-0.817521 2.17e-5,-0.317904 -1.095e-4,-0.635525 0,-0.95343 1.085e-4,-0.264179 1.485e-4,-0.528539 0.00103,-0.792717 6.615e-4,-0.144335 0.00127,-0.288793 0.00672,-0.433048 0.00566,-0.122975 0.016515,-0.245467 0.028939,-0.367936 0.015076,-0.146878 0.040501,-0.293281 0.042891,-0.4408 v -0.47284 -0.499194 -0.423747 c 0,-0.394712 0.1995824,-0.592212 0.3989422,-0.592212 z" />
    </clipPath>
    <clipPath
       clipPathUnits="userSpaceOnUse"
       id="clipPath86">
      <path
         id="path87"
         style="fill:#ff0000;fill-opacity:1;fill-rule:nonzero;stroke:none;stroke-width:0.264583"
         d="m 6.2022053,14.959294 v 0.713651 c 0.1421681,0.07246 0.2568319,0.257387 0.2568319,0.556555 v 0.423747 0.499194 0.47284 c 5.291e-4,0.174992 -0.029305,0.348127 -0.047026,0.521932 -0.010454,0.107281 -0.021278,0.214743 -0.025839,0.322461 -0.0048,0.133638 -0.00457,0.267302 -0.00517,0.401009 -8.731e-4,0.263107 -9.26e-4,0.52599 -0.00103,0.789099 -1.095e-4,0.317811 -5.027e-4,0.635619 -5.291e-4,0.95343 -1.59e-5,0.272494 2.9e-6,0.545029 0,0.817521 -2.2e-6,0.245076 5e-7,0.49028 0,0.735356 v 0.557072 0.365869 c 0.00841,0.186905 0.031922,0.373166 0.044442,0.560172 0.012753,0.24763 0.048176,0.493276 0.07183,0.740007 0.020405,0.205003 0.028503,0.410666 0.034623,0.6165 0.00321,0.151894 0.03305,0.301849 0.050126,0.452685 0.015378,0.140455 0.024379,0.281585 0.030489,0.422714 -0.013803,-0.05618 -0.00823,9e-4 -0.00103,0.06201 0.00148,0.0035 1.008e-4,-4.23e-4 0.00206,0.0041 0.031202,0.0698 0.049069,0.14468 0.065112,0.219108 0.011533,0.05178 0.015354,0.104794 0.018603,0.157614 0.00198,0.03431 0.0022,0.06848 0.00259,0.102836 2.91e-4,0.03042 -3.28e-5,0.06105 0,0.09146 2.54e-5,0.03115 -5.3e-6,0.06239 0,0.09354 3.4e-6,0.02535 -1.1e-6,0.05063 0,0.07596 v 0.06718 0.0083 c 1.6e-6,0.459867 -0.2701748,0.650036 -0.4960938,0.574127 v 0.721921 H 23.664184 v -0.592727 c -0.232835,0.11653 -0.53847,-0.06878 -0.538469,-0.557588 v -0.03825 -0.04909 c 2e-6,-0.03644 -3e-6,-0.07311 0,-0.109553 7e-6,-0.03672 -3.3e-5,-0.07335 0,-0.110072 3.1e-5,-0.0263 1.66e-4,-0.05225 5.3e-4,-0.07855 5.02e-4,-0.02802 0.0012,-0.05623 0.0026,-0.08423 0.0034,-0.04154 0.0079,-0.083 0.0155,-0.124023 0.0132,-0.07327 0.03249,-0.145069 0.06098,-0.213941 v -0.186023 -0.237195 -0.140043 c -10e-7,-0.05958 8e-6,-0.11922 0,-0.1788 -1.2e-5,-0.103076 5.6e-5,-0.205952 0,-0.309025 -6.3e-5,-0.108174 -2.6e-5,-0.216356 -5.29e-4,-0.324528 -1.99e-4,-0.04561 -4.76e-4,-0.09137 -0.0026,-0.136943 -7.93e-4,-0.02548 -8.2e-4,-0.01229 0.0021,-0.01188 0.06046,0.13074 -0.0766,-0.152263 -0.06253,-0.159163 -0.01581,-0.09403 -0.02457,-0.186337 -0.02687,-0.281637 -0.0063,-0.07535 -0.01669,-0.150605 -0.03411,-0.224275 -0.02168,-0.0995 -0.04182,-0.199437 -0.04083,-0.301791 -0.0035,-0.05699 -0.01157,-0.113308 -0.0217,-0.169498 -0.01966,-0.111045 -0.05521,-0.220413 -0.05271,-0.334347 -6.09e-4,-0.106398 -0.0015,-0.212973 -0.0031,-0.31936 -0.0035,-0.212037 -0.0087,-0.423717 -0.01705,-0.63562 -0.01235,-0.303302 -0.02824,-0.606285 -0.05116,-0.908989 -0.0105,-0.220703 -0.0073,-0.441568 -0.0072,-0.662492 1e-4,-0.199832 1.67e-4,-0.399614 0.001,-0.599446 0.0011,-0.224632 0.0026,-0.449269 0.0072,-0.673861 0.0065,-0.306497 0.01527,-0.613386 0.03566,-0.919324 0.02143,-0.328102 0.05259,-0.655018 0.08217,-0.982369 0.0249,-0.306914 0.06452,-0.612035 0.09043,-0.918807 0.02301,-0.236417 0.05786,-0.470524 0.09922,-0.704349 0.06015,-0.340095 0.24405,-0.509837 0.421163,-0.528133 0.01362,-0.0014 0.02683,6.61e-4 0.04031,10e-4 V 14.95927 Z" />
    </clipPath>
    <clipPath
       clipPathUnits="userSpaceOnUse"
       id="clipPath129">
      <path
         id="path130"
         style="fill:#ff0000;fill-opacity:1;fill-rule:nonzero;stroke:none;stroke-width:0.264583"
         d="m 72.055032,83.88015 c -0.03487,0.05628 -0.112636,0.100254 -0.234093,0.100254 h -0.01291 -0.06976 -0.04857 -0.01497 -0.03411 -0.03359 -0.05374 -0.07028 -0.105417 c -0.03262,2e-6 -0.06505,-1.6e-5 -0.09767,0 -0.02043,1.6e-5 -0.04108,-9e-5 -0.06149,0 -0.0236,1.13e-4 -0.0472,5.29e-4 -0.0708,0.0011 -0.02461,5.29e-4 -0.04885,0.0016 -0.07338,0.0036 -0.0013,9.2e-5 -0.0016,-1.9e-5 -0.0026,0 -0.0047,0.0019 -0.0088,0.0036 -0.01601,0.0062 -0.04152,0.01601 -0.08489,0.02662 -0.129706,0.02376 h -0.05788 -0.05943 -0.168982 -0.03669 c 0.0084,0.08117 0.01087,0.162994 0.01394,0.24443 0.0019,0.113493 0.01707,0.226023 0.02687,0.338997 0.01005,0.10155 -0.0013,0.203861 -0.0062,0.305406 -0.0049,0.100364 -0.0071,0.200811 -0.0088,0.301276 -0.0016,0.09198 -0.0019,0.183964 -0.0021,0.275949 0.0034,0.128868 -0.0041,0.257019 -0.01241,0.385506 -0.0077,0.112842 -0.01328,0.22597 -0.01704,0.339 -0.003,0.0915 -0.0035,0.18337 -0.0041,0.274918 -5.29e-4,0.110594 -0.0011,0.221173 -0.0011,0.331761 -9.6e-5,0.113636 1.5e-5,0.226918 0,0.340551 -1.4e-5,0.107323 2e-6,0.214617 0,0.321942 -2.31e-4,0.11031 0.01172,0.220216 0.01913,0.330213 0.0068,0.09857 0.0097,0.197345 0.01188,0.296106 -0.0026,0.06495 0.0041,0.12868 0.01291,0.192752 0.01304,0.07945 0.0126,0.159909 0.02119,0.239779 0.01304,0.09913 0.0209,0.19895 0.02739,0.29869 7.94e-4,0.06107 0.0071,0.120888 0.01757,0.180867 0.01246,0.06364 0.01799,0.128124 0.02169,0.192754 0.0028,0.05634 0.0038,0.113101 0.0047,0.169497 5.29e-4,0.0327 7.94e-4,0.06497 0.0011,0.09767 1.17e-4,0.02527 -1.3e-5,0.0507 0,0.07597 0.0021,-0.01066 -1.24e-4,0.04656 -5.29e-4,0.07648 0.06876,-2.54e-4 0.137427,-5.29e-4 0.206187,-5.29e-4 0.05223,-6.3e-5 0.104868,2.9e-5 0.157097,0 0.06263,-0.003 0.124563,0.0053 0.186552,0.01291 0.04871,0.0053 0.09694,0.01252 0.145727,0.01707 0.02268,0.0021 0.04546,0.0026 0.06821,0.0031 0.03297,-0.01754 0.06955,-0.02492 0.106969,-0.02894 0.02156,-0.0021 0.04295,-0.003 0.06459,-0.0036 0.0087,-2.54e-4 0.01725,-5.29e-4 0.02585,-5.29e-4 0.01286,-4.8e-5 0.0259,8e-6 0.03876,0 0.04765,-0.02537 0.09876,-0.01942 0.14573,0.04806 0.03821,0.0549 0.02849,0.141157 -0.0083,0.206705 h 18.29656 c -0.01588,-0.04507 0.02315,-0.130979 0.05374,-0.323492 0.007,-3.8e-5 0.01418,8.2e-5 0.02119,0 0.0034,-4.3e-5 -0.0042,5.29e-4 0.0088,-5.3e-4 0.0064,-5.29e-4 0.01275,-0.0011 0.01913,-0.0016 7.94e-4,-0.0031 0.003,-0.0037 0.0062,-0.0011 0.01154,-0.0011 0.0231,-0.0019 0.03462,-0.0031 0.03467,-0.0035 0.06922,-0.0067 0.103355,-0.01394 0.03199,-0.0092 0.06476,-0.01606 0.09819,-0.01447 0.02233,2.1e-5 0.04484,5.29e-4 0.06718,5.29e-4 0.03607,1.03e-4 0.07245,5e-5 0.108522,5.29e-4 0.02609,5.29e-4 0.05212,0.0013 0.07803,0.0047 0.03396,0.0042 0.06728,0.01095 0.100253,0.02016 0.0272,0.0083 0.03074,0.01119 0.06305,0.0088 0.03235,-5e-6 0.0648,4.5e-5 0.09715,0 0.04106,-6.9e-5 0.08193,-2.65e-4 0.122991,-5.29e-4 0.04801,-2.65e-4 0.09618,-7.94e-4 0.144177,-0.0021 0.06226,-0.0019 0.124542,-0.0041 0.186552,-0.01035 0.06895,-0.008 0.136867,-0.02027 0.205156,-0.03256 0.04267,-0.0047 0.08311,-0.01294 0.124539,-0.02479 0.01442,-0.0013 0.02883,-0.0029 0.04289,-0.0067 0.05454,-0.01117 0.109077,-0.02344 0.164848,-0.02635 h 0.185002 c 0.05572,2e-6 0.111194,-1.1e-5 0.166915,0 0.06999,1.6e-5 0.139817,5.29e-4 0.209807,5.29e-4 0.06792,7.1e-5 0.136199,1.96e-4 0.204121,5.29e-4 0.11767,5.29e-4 0.23528,0.0011 0.352948,0.0021 0.02809,2.14e-4 0.05615,2.54e-4 0.08423,5.29e-4 0.0021,-0.06165 0.0039,-0.123362 0.0062,-0.184999 -0.01056,-0.033 -0.01958,-0.06665 -0.0181,-0.101804 -7.4e-5,-0.02088 -5.29e-4,-0.04166 -0.0011,-0.06253 -7.94e-4,-0.0286 -0.0021,-0.05721 -0.0036,-0.08578 -0.0043,-0.08305 -0.0083,-0.166121 -0.01394,-0.249081 -0.0062,-0.09687 -0.01236,-0.193551 -0.0021,-0.290423 0.0039,-0.06033 -0.0033,-0.119078 -0.01035,-0.179316 -0.0049,-0.09147 -0.0034,-0.182814 -0.0036,-0.274402 0,-0.01228 -6e-6,-0.02442 0,-0.03669 8e-6,-0.01725 -1.6e-5,-0.03444 0,-0.05168 3.7e-5,-0.03069 2.64e-4,-0.06181 5.29e-4,-0.0925 2.64e-4,-0.03546 5.29e-4,-0.0705 0.0016,-0.105936 0.0013,-0.03942 0.0031,-0.07933 0.0093,-0.118338 0.0057,-0.03332 0.01349,-0.06582 0.02119,-0.0987 0.01434,-0.04411 -0.0064,-0.0987 0.0021,-0.144177 v -0.156064 -0.14056 -0.131773 c 3e-6,-0.05609 -5e-6,-0.112377 0,-0.168466 1.1e-5,-0.08483 -4.2e-5,-0.169418 0,-0.254248 5.3e-5,-0.09423 1.54e-4,-0.188439 5.3e-4,-0.28267 2.64e-4,-0.06988 7.93e-4,-0.139947 0.0026,-0.209807 0.0021,-0.06783 0.0044,-0.1357 0.01291,-0.203086 0.0056,-0.04197 0.01638,-0.08385 0.0181,-0.125574 -1.1e-5,-0.04636 4.5e-5,-0.09265 0,-0.13901 -5.9e-5,-0.05162 -1.78e-4,-0.102894 -5.3e-4,-0.154514 -5.29e-4,-0.06242 -7.93e-4,-0.125185 -0.0021,-0.187584 -0.0019,-0.07591 -0.0039,-0.151736 -0.01085,-0.227378 -0.0065,-0.06488 -0.02138,-0.129389 -0.02066,-0.194818 2e-6,-0.04367 -8e-6,-0.08707 0,-0.130743 5e-6,-0.02326 -7.7e-5,-0.0465 0,-0.06976 6.3e-5,-0.0145 2.14e-4,-0.02892 5.29e-4,-0.04341 5.29e-4,-0.03198 0.0011,-0.06417 0.0026,-0.09612 0.0024,-0.04381 0.0063,-0.08758 0.01447,-0.130741 0.0062,-0.03298 0.01699,-0.06545 0.01654,-0.0987 -2.4e-5,-0.05096 1.06e-4,-0.102004 0,-0.152963 -0.0045,-8e-5 -0.009,9.2e-5 -0.01344,0 -0.04363,-0.0013 -0.08729,-0.004 -0.130738,-0.0083 -0.04822,-0.005 -0.09656,-0.01035 -0.143145,-0.02379 0.03953,-0.0019 -0.06733,-2.46e-4 -0.09302,-0.0011 h -0.14056 -0.077 c -0.03141,0 -0.06316,6e-6 -0.09457,0 -0.02096,-2e-6 -0.04158,3.8e-5 -0.06253,0 -0.01654,-3.4e-5 -0.03308,1.57e-4 -0.04961,0 -0.03113,-2.64e-4 -0.06241,-7.93e-4 -0.09353,-0.0016 -0.04957,-0.0013 -0.09896,-0.0033 -0.148312,-0.0083 -0.04042,-0.0048 -0.09166,-0.01336 -0.124539,-0.02429 -0.0154,-2.14e-4 -0.03745,-5.29e-4 -0.04393,0 h -0.12454 c -0.03922,0 -0.07809,3e-6 -0.117305,0 -0.0254,-2e-6 -0.05107,1.6e-5 -0.07648,0 -0.02577,-1.6e-5 -0.05122,1.11e-4 -0.077,0 -0.01521,-8.2e-5 -0.0308,-2.43e-4 -0.04599,-0.0011 -0.02188,-0.0011 -0.04366,-0.003 -0.06511,-0.0078 -0.02551,-0.0055 -0.04994,-0.01476 -0.07338,-0.02585 h -0.05271 -0.06614 c -0.02808,-3e-6 -0.05616,8e-6 -0.08424,0 -0.02117,-8e-6 -0.04237,5e-5 -0.06356,0 -0.02064,-5.6e-5 -0.04087,-2.57e-4 -0.06149,-5.29e-4 -0.0515,-5.3e-4 -0.103024,-0.0013 -0.154511,-0.0026 -0.06593,-0.0019 -0.131877,-0.0045 -0.197406,-0.01241 -0.05747,-0.007 -0.114975,-0.01932 -0.173114,-0.01603 -0.08953,0.0021 -0.17938,0.0049 -0.268719,0.01138 -0.08878,0.0063 -0.177252,0.01696 -0.266134,0.02016 -0.128751,0.0046 -0.208425,-0.04089 -0.239779,-0.100253 z m 0.154514,0.241329 c 0.08604,0 0.172083,0.08544 0.172083,0.2558 v 0.17105 0.203086 c 0,0.05809 1.87e-4,0.115798 -0.0036,0.173633 0.04244,0.04108 0.07234,0.11207 0.07234,0.212908 v 0.02635 0.03927 0.04754 0.05323 0.166397 0.24443 c 0,0.106476 -0.03337,0.179697 -0.07958,0.219625 0.0019,0.02898 0.0038,0.05796 0.0072,0.08682 0.0093,0.06535 0.01958,0.130762 0.02687,0.196371 0.0053,0.04764 0.0079,0.09525 0.0093,0.143145 0.0013,0.04853 0.0013,0.09719 0.0016,0.145727 -0.0034,0.06868 0.0051,0.136414 0.01138,0.20464 0.0089,0.09515 0.01368,0.190817 0.01757,0.286287 0.0024,0.05887 0.0038,0.117821 0.0047,0.176733 5.29e-4,0.03227 7.94e-4,0.06437 0.0011,0.09663 1.11e-4,0.02511 -8e-6,0.05034 0,0.07545 2.7e-5,0.0501 0,0.10028 0,0.150381 8e-6,0.07234 0,0.144701 0,0.217041 -5.29e-4,0.08395 0.0019,0.167873 -0.0036,0.251663 -0.0075,0.06517 -0.01651,0.129966 -0.02223,0.195337 -0.0037,0.0432 -0.0055,0.08637 -0.0067,0.129709 -7.94e-4,0.02933 -0.0013,0.05903 -0.0016,0.08837 -1.8e-4,0.03061 2.9e-5,0.06086 0,0.09147 -2.9e-5,0.03748 5e-6,0.07519 0,0.112655 -3e-6,0.0456 0,0.09134 0,0.136943 v 0.08217 c -1.67e-4,0.0016 6.8e-5,0.0037 0,0.0057 0.0082,0.02445 0.0199,0.06215 0.02016,0.06305 0.0074,0.03093 0.0092,0.06291 0.01085,0.09457 0.0019,0.0029 0.0052,0.01077 0.01138,0.02585 0.01439,0.03865 0.01881,0.07963 0.02222,0.120407 0.0013,0.01754 0.0024,0.03513 0.0031,0.05271 2.64e-4,0.01162 5.29e-4,0.02352 5.29e-4,0.03514 3.1e-5,0.0029 5.29e-4,0.0054 5.29e-4,0.0083 0.0024,0.340696 -0.341765,0.343249 -0.344165,0.0026 -1.8e-5,-0.0026 -5.29e-4,-0.0052 -5.29e-4,-0.0078 -9.3e-5,-0.0093 1.98e-4,-0.01902 0,-0.02842 -5.29e-4,-0.01154 -0.0013,-0.0231 -0.0021,-0.03462 -7.93e-4,-0.0092 -0.0035,-0.03062 -0.0021,-0.02842 0.0011,0.0021 0.004,0.0083 0.0031,0.0062 -0.01752,-0.0388 -0.03531,-0.07794 -0.03462,-0.121957 -7.94e-4,-0.01447 -0.0011,-0.02907 -0.0026,-0.04341 0.0066,0.01643 -0.01778,-0.05279 -0.0181,-0.04599 -0.007,-0.03709 -0.01471,-0.06748 -0.01241,-0.10387 v -0.08217 c 0,-0.0456 -5e-6,-0.09133 0,-0.136943 3e-6,-0.03757 -3.4e-5,-0.07508 0,-0.112654 2.4e-5,-0.03131 2.25e-4,-0.06274 5.29e-4,-0.09405 1.99e-4,-0.03175 7.94e-4,-0.06335 0.0016,-0.09509 0.0016,-0.05014 0.0034,-0.100399 0.0078,-0.150378 0.0057,-0.06412 0.01392,-0.1279 0.02222,-0.19172 0.0072,-0.07475 -1.64e-4,-0.150339 0.0026,-0.225309 0,-0.07234 3e-6,-0.144703 0,-0.21704 0,-0.05005 2.1e-5,-0.100325 0,-0.150381 -1.1e-5,-0.02463 1.11e-4,-0.04926 0,-0.0739 -1.43e-4,-0.03117 -5.29e-4,-0.06233 -0.0011,-0.09354 -7.94e-4,-0.05586 -0.0019,-0.111612 -0.0041,-0.167431 -0.0037,-0.0897 -0.0087,-0.179316 -0.01707,-0.268716 -0.0071,-0.07809 -0.01548,-0.156041 -0.01241,-0.234612 -2.01e-4,-0.04577 -5.3e-4,-0.0917 -0.0016,-0.137461 -0.0011,-0.03856 -0.003,-0.07688 -0.0072,-0.115237 -0.0072,-0.06579 -0.01818,-0.131286 -0.02687,-0.196887 -0.0086,-0.08283 -0.01058,-0.165833 -0.02066,-0.248563 -0.0092,-0.09101 -0.0159,-0.182306 -0.01241,-0.273886 2e-6,-0.05962 -3.7e-5,-0.119179 0,-0.1788 2.6e-5,-0.02495 2.24e-4,-0.04999 5.29e-4,-0.07493 2.64e-4,-0.03768 7.93e-4,-0.07499 0.0016,-0.112657 0.0013,-0.04596 0.0027,-0.09236 0.0088,-0.137975 0.0056,-0.04163 0.01291,-0.08294 0.0217,-0.124023 0.01413,-0.049 -0.0064,-0.10645 0.0021,-0.156581 V 84.54836 84.37731 c 0,-0.170363 0.08604,-0.2558 0.172082,-0.2558 z m 17.371034,0.03462 c 0.05508,-3e-6 0.110963,0.03504 0.146243,0.104386 0.07367,0.01918 0.139009,0.102817 0.139009,0.251148 v 0.0047 0.06201 0.08061 0.09612 c 0,0.01971 3e-6,0.0392 0,0.05891 -2e-6,0.0172 1.6e-5,0.03448 0,0.05167 -2.6e-5,0.02713 6.1e-5,0.05452 0,0.08165 -1e-4,0.0425 -5.29e-4,0.08462 -0.0011,0.127124 -5.29e-4,0.04127 -0.0013,0.08282 -0.0041,0.124024 -0.0035,0.05193 -0.0085,0.103513 -0.01601,0.155027 -0.0062,0.04576 -0.0093,0.01656 -0.0016,0.06459 0.0096,0.05047 0.02574,0.100381 0.02273,0.152445 v 0.163298 c 3e-6,0.05567 -2e-6,0.111763 0,0.167434 3e-6,0.0425 -1.3e-5,0.08461 0,0.127124 1.6e-5,0.03342 5.3e-4,0.06683 5.3e-4,0.100251 9.2e-5,0.02556 -8.2e-5,0.05144 5.29e-4,0.077 5.29e-4,0.02339 0.0016,0.04646 0.0036,0.06976 0.0026,0.02968 0.0046,0.06005 0.01241,0.08888 0.01209,0.04567 0.02053,0.09211 0.01654,0.139528 -7.94e-4,0.03152 -0.0026,0.06265 -0.0057,0.09405 -0.0048,0.04483 -0.01146,0.08985 -0.02739,0.132291 -0.004,0.01061 -0.005,0.01236 -0.0062,0.01447 -0.0013,0.01048 -0.0024,0.01754 -0.0031,0.01963 -0.0074,0.03687 -0.01582,0.07391 -0.02946,0.109038 -0.01117,0.03006 -0.02379,0.05936 -0.03617,0.08888 0.01307,0.04616 0.02649,0.09254 0.04186,0.137977 0.02761,0.07309 0.05251,0.146929 0.07338,0.222208 0.01008,0.03595 0.02909,0.06868 0.04341,0.103352 0.02191,0.05675 0.04364,0.113072 0.05891,0.172085 0.01151,0.0477 0.01826,0.09643 0.02326,0.145208 0.0038,0.04054 0.0047,0.08127 0.0052,0.121957 2.65e-4,0.0713 -0.01315,0.141573 -0.02016,0.212389 -0.0035,0.07409 -0.01318,0.1474 -0.02429,0.22066 -0.01228,0.07455 -0.02811,0.148648 -0.04548,0.222208 -0.01476,0.05305 -0.02669,0.106582 -0.03669,0.160716 -0.0051,0.02466 -0.0068,0.04986 -0.0083,0.07493 -0.0024,0.04857 -0.02146,0.09438 -0.04031,0.138493 -0.01024,0.01842 -0.01913,0.03746 -0.02223,0.05839 -0.0037,0.01839 -0.0054,0.03713 -0.0067,0.05581 5.29e-4,0.02109 -0.003,0.04093 -0.0083,0.06046 7.94e-4,0.05863 -7.94e-4,0.117377 -0.0093,0.175702 -0.0081,0.04181 -0.01701,0.0969 -0.02479,0.09663 -0.341275,-0.01151 -0.337968,0.06027 -0.337965,-0.06356 v -0.05219 c 0,-0.0069 -3e-6,-0.01378 0,-0.02066 5e-6,-0.0086 -8e-6,-0.01722 0,-0.02582 1.6e-5,-0.01357 -1.19e-4,-0.02724 0,-0.04082 1.69e-4,-0.01056 0.0011,-0.02098 0.0016,-0.03152 0.0013,-0.02347 0.0043,-0.04692 0.01188,-0.06925 0.0035,-0.0109 0.0081,-0.02061 0.01241,-0.03049 -0.0016,-0.03564 -0.0035,-0.0714 -0.0052,-0.106971 -0.0095,-0.172516 -0.02035,-0.345299 -0.03721,-0.517281 -0.01437,-0.125103 -0.02896,-0.250135 -0.03876,-0.375687 -0.0061,-0.0795 -0.0093,-0.159057 -0.01138,-0.238744 -0.0013,-0.04703 -0.0019,-0.09403 -0.0021,-0.141079 -2.65e-4,-0.07165 3.7e-5,-0.143325 0,-0.214974 -3.5e-5,-0.0653 5e-6,-0.130553 0,-0.195852 -0.0028,-0.05805 0.01233,-0.114396 0.02223,-0.171051 0.0067,-0.03273 0.01521,-0.06549 0.02479,-0.09767 -0.0089,-0.03445 -0.0182,-0.06874 -0.02635,-0.103352 -0.01714,-0.09353 -0.02458,-0.18751 -0.02066,-0.28267 0,-0.0789 -3e-6,-0.157779 0,-0.236678 2e-6,-0.08514 -1.6e-5,-0.170145 0,-0.25528 1.8e-5,-0.08218 -8.5e-5,-0.16432 0,-0.246499 1.4e-4,-0.134057 5.29e-4,-0.267989 0.0011,-0.402043 5.29e-4,-0.136781 7.94e-4,-0.273558 0.0041,-0.41031 0.0033,-0.12064 0.008,-0.241438 0.0181,-0.361736 0.0062,-0.07917 0.01474,-0.158149 0.01138,-0.237709 h -5.29e-4 c -0.0073,-0.170204 0.07596,-0.25527 0.162263,-0.255284 z m 3.969266,0.389641 c -1.17e-4,0.0069 -2.65e-4,0.01373 -5.29e-4,0.02066 -2.65e-4,0.01294 -5.3e-4,0.02635 -5.3e-4,0.03928 -7.4e-5,0.02278 8e-6,0.04543 0,0.06821 -8e-6,0.04365 3e-6,0.08709 0,0.130744 1.38e-4,0.0036 7.94e-4,0.0072 0.0011,0.01085 z m 0,1.661914 c -8.8e-5,0.01344 -5.29e-4,0.02687 -5.29e-4,0.04031 -2.65e-4,0.09373 -5.3e-4,0.187391 -5.3e-4,0.28112 -4.2e-5,0.08478 1.1e-5,0.169468 0,0.254248 -5e-6,0.05608 3e-6,0.112385 0,0.168466 v 0.131257 0.141076 0.08578 c 2.65e-4,9.3e-5 7.94e-4,5.29e-4 0.0011,5.29e-4 z m -23.099882,3.665408 v 0.0067 h 0.0083 c -0.003,-0.0024 -0.0051,-0.0042 -0.0083,-0.0067 z" />
    </clipPath>
    <clipPath
       clipPathUnits="userSpaceOnUse"
       id="clipPath133">
      <path
         id="path134"
         style="fill:#ff0000;fill-opacity:1;fill-rule:nonzero;stroke:none;stroke-width:0.264583"
         d="M 66.065736,47.950046 V 98.934013 H 96.049952 V 47.950046 Z m 11.499554,5.673553 h 0.309544 c 0.118663,-0.0013 0.236696,0.01297 0.355015,0.02016 0.122595,0.008 0.245877,0.0068 0.368453,0.01447 0.109033,0.01024 0.217755,0.019 0.327113,0.02479 0.06637,0.0033 0.13304,0.0062 0.199472,0.0078 0.0703,0.0016 0.14052,0.0013 0.210838,0.0016 0.105429,1.72e-4 0.210833,-3.7e-5 0.316262,0 0.08529,2.9e-5 0.170508,-3e-6 0.255797,0 0.119631,-0.0029 0.239014,0.0013 0.358118,0.01241 0.06388,0.0071 0.127498,0.01405 0.19172,0.01707 0.08467,0.0033 0.169527,0.0035 0.254246,0.0041 0.06069,-0.004 0.123113,0.0071 0.183454,-0.0016 0.08182,-0.01214 0.164463,-0.01844 0.247013,-0.02273 0.124407,-0.0056 0.249107,-0.0061 0.37362,-0.0072 0.124635,-0.0011 0.248979,-0.0013 0.373621,-0.0016 0.143034,-7.94e-4 0.285668,0.01154 0.428398,0.01963 0.08634,0.0049 0.172976,0.0087 0.259416,0.01138 0.05283,0.0016 0.105785,0.0021 0.158644,0.0026 0.07119,-0.0034 0.142126,-0.01341 0.213426,-0.0186 0.09047,-0.0058 0.181208,-0.0096 0.271817,-0.01241 0.0655,-0.0021 0.130839,-0.0024 0.196371,-0.0026 0.09144,-2.65e-4 0.182962,-5.29e-4 0.274402,-5.29e-4 0.07097,-4.8e-5 0.141936,8e-6 0.212905,0 0.07877,-8e-6 0.157393,0 0.236162,0 h 0.21549 0.221176 0.182935 0.106453 0.13436 0.06666 0.08527 0.120404 5.29e-4 c 0.0019,-0.0693 0.0049,-0.101727 0.0098,0 0.09421,-1.46e-4 0.05164,0.004 0.02016,0.172082 0.03149,0.168238 0.07409,0.172231 -0.02016,0.172082 -0.0049,0.10173 -0.0079,0.0693 -0.0098,0 h -5.29e-4 -0.120404 -0.08527 -0.06666 -0.13436 -0.106453 -0.182935 -0.221176 -0.21549 c -0.07875,3e-6 -0.157411,-7e-6 -0.236162,0 -0.07091,1.1e-5 -0.141997,-4.7e-5 -0.212905,0 -0.09102,6.7e-5 -0.181832,1.99e-4 -0.272851,5.3e-4 -0.06252,2.64e-4 -0.125087,7.93e-4 -0.187587,0.0026 -0.08595,0.0026 -0.172046,0.0059 -0.257866,0.01138 -0.08025,0.0056 -0.159896,0.01812 -0.240295,0.01963 -0.05566,-2.65e-4 -0.111275,-7.94e-4 -0.166915,-0.0026 -0.08934,-0.0028 -0.178445,-0.0068 -0.267684,-0.01188 -0.13607,-0.0077 -0.272404,-0.01969 -0.40876,-0.01913 -0.123804,9.8e-5 -0.247753,5.29e-4 -0.371554,0.0016 -0.119579,0.0011 -0.239149,0.0016 -0.358635,0.0067 -0.07794,0.004 -0.1558,0.01045 -0.233061,0.0217 -0.07247,0.0055 -0.144907,0.0034 -0.217556,0.0031 -0.08945,-5.29e-4 -0.178811,-0.0011 -0.2682,-0.0047 -0.06929,-0.0035 -0.138303,-0.01019 -0.207225,-0.0181 -0.1085,-0.01019 -0.217077,-0.01365 -0.326077,-0.01085 -0.08533,-3e-6 -0.170469,3.2e-5 -0.255797,0 -0.105619,-3.7e-5 -0.211161,1.72e-4 -0.316778,0 -0.07292,-1.99e-4 -0.146198,-5e-5 -0.219109,-0.0016 -0.06969,-0.0016 -0.139142,-0.0048 -0.208772,-0.0083 -0.110744,-0.0059 -0.221364,-0.01423 -0.331761,-0.02479 -0.122026,-0.0084 -0.244343,-0.0061 -0.366387,-0.01498 -0.111326,-0.0069 -0.222729,-0.01987 -0.334346,-0.01913 H 77.56529 c -0.34072,0 -0.34072,-0.344167 0,-0.344167 z m 13.073105,29.980599 c 0.05577,0.0024 0.111513,0.01252 0.166915,0.01913 0.05512,0.0065 0.110431,0.0082 0.16588,0.0098 0.04941,0.0013 0.09889,0.0021 0.148312,0.0026 0.01966,2.46e-4 0.03925,5.29e-4 0.05891,5.29e-4 0.02093,4.8e-5 0.04211,-8e-6 0.06305,0 0.02805,8e-6 0.05568,0 0.08372,0 h 0.06615 0.06615 c 0.053,-0.005 0.09997,0.01625 0.144692,0.04186 0.0027,0.0016 -0.0047,-0.0038 -0.0072,-0.0057 0.02024,0.0098 -0.0075,-0.0035 -0.0078,-0.0036 0.01664,0.0024 -0.0021,1.96e-4 0.01241,0.0011 0.01029,5.3e-4 0.02019,5.3e-4 0.03049,5.3e-4 0.02519,1.05e-4 0.05077,-1.6e-5 0.07596,0 0.02535,1.8e-5 0.05063,5.29e-4 0.07596,5.29e-4 0.0392,2e-6 0.07809,0 0.117306,0 h 0.124023 c 0.03872,-0.0021 0.07582,0.0019 0.114205,0.0072 0.0299,0.01019 0.06111,0.01611 0.0925,0.01913 0.03988,0.0038 0.07985,0.0051 0.119888,0.0062 0.02894,7.94e-4 0.05787,0.0013 0.08682,0.0016 0.01577,1.51e-4 0.03177,-3.2e-5 0.04754,0 0.02074,3.7e-5 0.04128,0 0.06201,0 0.03139,5e-6 0.06266,0 0.09405,0 h 0.07752 0.14056 c 0.05059,-0.0013 0.100674,-2.28e-4 0.150895,0.0057 0.03933,0.01114 0.07932,0.01667 0.119888,0.02066 0.03492,0.0034 0.07035,0.0059 0.10542,0.0067 0.04167,7.94e-4 0.08287,7.94e-4 0.12454,0.0011 0.0643,-0.0019 0.07059,0.01288 0.155546,0.04651 0.04491,0.04448 0.06236,0.09435 0.06666,0.155546 0.0019,0.03905 0.0013,0.07822 0.0016,0.117305 1.53e-4,0.05868 -3.2e-5,0.117528 0,0.176218 0.0029,0.05516 -0.01244,0.108604 -0.02222,0.162264 -0.0054,0.02864 -0.0078,0.05776 -0.0093,0.08682 -0.0013,0.0277 -0.0016,0.05496 -0.0021,0.08268 -2.65e-4,0.01294 -5.29e-4,0.02635 -5.29e-4,0.03928 -7.4e-5,0.02278 8e-6,0.04543 0,0.06821 -8e-6,0.04365 2e-6,0.08709 0,0.130744 0.0021,0.05311 0.01291,0.106122 0.0186,0.159163 0.0081,0.0847 0.01029,0.169733 0.01241,0.254764 0.0013,0.06435 0.0021,0.128381 0.0026,0.192752 2.64e-4,0.05232 5.29e-4,0.104778 5.29e-4,0.157096 4.5e-5,0.04646 -8e-6,0.09307 0,0.139528 0.0019,0.05757 -0.01357,0.113284 -0.02066,0.170014 -0.0067,0.05595 -0.0087,0.112694 -0.01035,0.168984 -0.0019,0.06702 -0.0024,0.133982 -0.0026,0.20102 -2.65e-4,0.09373 -5.29e-4,0.187391 -5.29e-4,0.281119 -4.3e-5,0.08478 1e-5,0.169469 0,0.254249 -5e-6,0.05608 2e-6,0.112384 0,0.168466 v 0.131257 0.141076 0.08578 c 0.03256,0.0081 0.06492,0.01757 0.09612,0.02997 0.01685,0.0067 -0.0019,0.03609 -0.0026,0.05426 -0.0067,0.16373 -0.01204,0.327727 -0.01913,0.491445 0.0036,0.0914 0.0078,0.182555 0.01291,0.273884 0.01098,0.193664 0.02043,0.387292 0.01601,0.581361 1.6e-5,0.228264 -3.7e-5,0.456964 0,0.685228 8e-6,0.0728 5.3e-4,0.145275 -5.29e-4,0.218075 h -5.29e-4 c 0.0011,0.01535 -0.0024,0.02241 -0.01188,0.02376 -0.0087,0.01606 -0.02281,0.03222 -0.03927,0.04703 -0.0038,0.02283 -0.0073,0.04553 -0.01188,0.06821 -0.01302,0.05981 -0.02808,0.119084 -0.03617,0.179835 -0.0013,0.0053 0.0024,0.01606 -0.0031,0.01654 -5e-6,0.0031 8e-6,0.0062 0,0.0093 -0.0028,-7.94e-4 0.0021,0.0068 0,0.0067 -0.05072,-0.0019 -0.0927,-0.0011 -0.130741,0.0011 -0.214098,0.03791 -0.213574,0.09459 -0.213423,-0.0083 3.1e-5,-0.01786 -5.6e-5,-0.03589 0,-0.05374 -0.0026,3.7e-5 -0.0047,5.29e-4 -0.0072,5.29e-4 h -0.0021 -0.03979 c -0.04039,0 -0.08105,-3e-6 -0.121438,0 -0.02924,3e-6 -0.05861,-3.7e-5 -0.08785,0 -0.02238,4e-5 -0.04428,-1.14e-4 -0.06666,0 -0.02811,1e-4 -0.05665,0.0011 -0.08475,0.0021 -0.04155,0.0016 -0.08305,0.0034 -0.124539,0.0062 -0.06145,0.0048 -0.121905,0.01373 -0.182936,0.02222 -0.105632,0.0076 -0.211974,0.0016 -0.31781,0.0036 -0.156403,-1.1e-5 -0.312814,7.6e-5 -0.469222,0 -0.155549,-8.5e-5 -0.311087,-3.2e-5 -0.466638,-5.3e-4 -0.141036,-5.29e-4 -0.28221,-0.0013 -0.42323,-0.0041 -0.152686,-0.0031 -0.305758,-0.0056 -0.457851,-0.02016 -0.277945,-0.03942 -0.191847,-0.03615 -0.135911,-0.388091 0.007,-3.7e-5 0.01418,8.2e-5 0.02119,0 0.0034,-4.2e-5 -0.0042,5.29e-4 0.0088,-5.29e-4 0.0064,-5.29e-4 0.01275,-0.0011 0.01913,-0.0016 7.93e-4,-0.0031 0.003,-0.0036 0.0062,-0.0011 0.01154,-0.0011 0.0231,-0.0019 0.03462,-0.0031 0.03467,-0.0035 0.06922,-0.0067 0.103354,-0.01394 0.03199,-0.0092 0.06476,-0.01606 0.09819,-0.01447 0.02233,2.1e-5 0.04484,5.29e-4 0.06718,5.29e-4 0.03607,1.03e-4 0.07245,4e-5 0.108522,5.29e-4 0.02609,5.29e-4 0.05212,0.0013 0.07803,0.0047 0.03396,0.0042 0.06728,0.01095 0.100253,0.02016 0.0272,0.0083 0.03075,0.01117 0.06305,0.0088 0.03235,-5e-6 0.0648,4.5e-5 0.09715,0 0.04106,-6.8e-5 0.08193,-2.51e-4 0.122991,-5.29e-4 0.04801,-2.64e-4 0.09618,-7.94e-4 0.144177,-0.0021 0.06226,-0.0019 0.124542,-0.0041 0.186552,-0.01035 0.06895,-0.008 0.136867,-0.02027 0.205156,-0.03256 0.04267,-0.0047 0.08311,-0.01296 0.124539,-0.02479 0.01442,-0.0013 0.02883,-0.0029 0.04289,-0.0067 0.05454,-0.01117 0.109077,-0.02344 0.164848,-0.02635 h 0.185002 c 0.05572,5e-6 0.111194,-1.1e-5 0.166915,0 0.06999,1.6e-5 0.139817,5.29e-4 0.209807,5.29e-4 0.06792,7.2e-5 0.136199,1.83e-4 0.204121,5.29e-4 0.11767,5.3e-4 0.23528,0.0011 0.352949,0.0021 0.02809,2.14e-4 0.05615,7.94e-4 0.08423,0.0011 0.0021,-0.06165 0.0039,-0.123364 0.0062,-0.185002 -0.01056,-0.033 -0.01958,-0.06665 -0.0181,-0.101801 -7.4e-5,-0.02087 -5.29e-4,-0.04166 -0.0011,-0.06253 -7.94e-4,-0.0286 -0.0021,-0.05721 -0.0036,-0.08578 -0.0043,-0.08305 -0.0083,-0.166121 -0.01394,-0.249081 -0.0062,-0.09687 -0.01233,-0.193551 -0.0021,-0.290423 0.0039,-0.06033 -0.0033,-0.119078 -0.01035,-0.179316 -0.0049,-0.09148 -0.0034,-0.182814 -0.0036,-0.274402 0,-0.01228 -6e-6,-0.02442 0,-0.03669 8e-6,-0.01725 -1.6e-5,-0.03443 0,-0.05167 3.7e-5,-0.03069 2.51e-4,-0.06181 5.29e-4,-0.0925 2.64e-4,-0.03546 5.29e-4,-0.07049 0.0016,-0.105937 0.0013,-0.03942 0.0031,-0.07933 0.0093,-0.11834 0.0057,-0.03332 0.01349,-0.06582 0.02119,-0.0987 0.01434,-0.04411 -0.0064,-0.0987 0.0021,-0.144177 v -0.156062 -0.140559 -0.131776 c 3e-6,-0.05609 -5e-6,-0.112377 0,-0.168466 1.1e-5,-0.08483 -4.2e-5,-0.169415 0,-0.254246 5.3e-5,-0.09423 1.41e-4,-0.188439 5.3e-4,-0.28267 2.62e-4,-0.06988 7.93e-4,-0.139946 0.0026,-0.209807 0.0021,-0.06783 0.0044,-0.135702 0.01291,-0.203089 0.0056,-0.04197 0.01638,-0.08385 0.0181,-0.125573 -1.4e-5,-0.04636 4.5e-5,-0.09265 0,-0.13901 -6.1e-5,-0.05162 -1.67e-4,-0.102894 -5.3e-4,-0.154514 -5.29e-4,-0.06242 -7.93e-4,-0.125185 -0.0021,-0.187584 -0.0019,-0.07591 -0.0039,-0.151736 -0.01085,-0.227375 -0.0065,-0.06488 -0.02138,-0.129392 -0.02066,-0.194821 3e-6,-0.04367 -8e-6,-0.08707 0,-0.130741 5e-6,-0.02326 -7.7e-5,-0.0465 0,-0.06976 6.3e-5,-0.0145 2.04e-4,-0.02892 5.29e-4,-0.04341 5.29e-4,-0.03198 0.0011,-0.06417 0.0026,-0.09612 0.0024,-0.04381 0.0063,-0.08758 0.01447,-0.130741 0.0062,-0.03298 0.01699,-0.06545 0.01654,-0.0987 -2.4e-5,-0.05096 1.06e-4,-0.102002 0,-0.152961 -0.0045,-7.9e-5 -0.009,9.3e-5 -0.01344,0 -0.04364,-0.0013 -0.08729,-0.0045 -0.130738,-0.0088 -0.04822,-0.005 -0.09656,-0.01035 -0.143145,-0.02379 0.03953,-0.0019 -0.06733,-1.8e-4 -0.09302,-0.0011 h -0.14056 -0.077 c -0.03141,0 -0.06316,5e-6 -0.09457,0 -0.02096,-3e-6 -0.04158,3.7e-5 -0.06253,0 -0.01654,-3.5e-5 -0.03308,1.56e-4 -0.04961,0 -0.03113,-2.65e-4 -0.06241,-7.94e-4 -0.09353,-0.0016 -0.04957,-0.0013 -0.09896,-0.0033 -0.148312,-0.0083 -0.04042,-0.0048 -0.09167,-0.01336 -0.124539,-0.02429 -0.0154,-2.15e-4 -0.03745,-5.3e-4 -0.04393,0 h -0.12454 c -0.03922,0 -0.07809,2e-6 -0.117305,0 -0.0254,-3e-6 -0.05107,1.5e-5 -0.07648,0 -0.02577,-1.6e-5 -0.05122,1.11e-4 -0.077,0 -0.01521,-8.2e-5 -0.0308,-1.78e-4 -0.04599,-0.0011 -0.02188,-0.0011 -0.04366,-0.003 -0.06511,-0.0078 -0.02551,-0.0055 -0.04993,-0.01474 -0.07338,-0.02585 h -0.05271 -0.06615 c -0.02808,-2e-6 -0.05616,8e-6 -0.08424,0 -0.02117,-8e-6 -0.04237,5e-5 -0.06356,0 -0.02064,-5.5e-5 -0.04086,-2.43e-4 -0.06149,-5.29e-4 -0.0515,-5.29e-4 -0.103026,-0.0013 -0.154511,-0.0026 -0.06593,-0.0019 -0.131877,-0.0045 -0.197406,-0.01241 -0.05747,-0.007 -0.114977,-0.01929 -0.173114,-0.01603 -0.08953,0.0021 -0.17938,0.0049 -0.268719,0.01138 -0.08878,0.0063 -0.177252,0.01696 -0.266134,0.02016 -0.340505,0.01217 -0.340249,-0.326226 0,-0.344165 0.08056,-0.0043 0.161229,-0.01333 0.241845,-0.01913 0.09486,-0.0069 0.189667,-0.01021 0.28474,-0.01241 0.01871,-0.0013 0.03722,-0.0013 0.05581,-5.29e-4 z m -19.421552,0.03204 c 0.0209,-9e-5 0.04164,1.6e-5 0.06253,0 0.03269,-1.9e-5 0.06549,3e-6 0.09819,0 0.03516,0 0.07026,3e-6 0.105418,0 h 0.07028 0.05375 0.03359 0.03411 0.01498 0.04857 0.06976 0.01291 c 0.340722,0 0.340722,0.344165 0,0.344165 h -0.01291 -0.06976 -0.04857 -0.01498 -0.03411 -0.03359 -0.05375 -0.07028 -0.105418 c -0.03262,2e-6 -0.06505,-1.6e-5 -0.09767,0 -0.02043,1.6e-5 -0.04108,-9e-5 -0.06149,0 -0.0236,1.13e-4 -0.0472,5.29e-4 -0.0708,0.0011 -0.02461,5.29e-4 -0.04885,0.0016 -0.07338,0.0036 -0.0013,9.2e-5 -0.0016,-1.9e-5 -0.0026,0 -0.0047,0.0019 -0.0088,0.0036 -0.01601,0.0062 -0.04152,0.01601 -0.08489,0.02663 -0.129707,0.02376 h -0.05788 -0.05943 -0.168981 -0.03669 c 0.0084,0.08117 0.01087,0.162994 0.01394,0.24443 0.0019,0.113493 0.01707,0.226023 0.02687,0.338997 0.01005,0.10155 -0.0013,0.203861 -0.0062,0.305406 -0.0049,0.100364 -0.0071,0.200811 -0.0088,0.301276 -0.0016,0.09198 -0.0019,0.183964 -0.0021,0.275949 0.0034,0.128868 -0.0041,0.257022 -0.01241,0.385506 -0.0077,0.112842 -0.01328,0.22597 -0.01704,0.339 -0.003,0.0915 -0.0035,0.18337 -0.0041,0.274918 -5.29e-4,0.110594 -0.0011,0.221173 -0.0011,0.331761 -9.5e-5,0.113636 1.6e-5,0.226918 0,0.340551 -1.3e-5,0.107323 3e-6,0.214617 0,0.321942 -2.3e-4,0.11031 0.01172,0.220216 0.01913,0.330213 0.0068,0.09857 0.0097,0.197345 0.01188,0.296106 -0.0026,0.06495 0.0041,0.12868 0.01291,0.192752 0.01304,0.07945 0.01259,0.159909 0.02119,0.239779 0.01304,0.09913 0.0209,0.19895 0.02739,0.29869 7.93e-4,0.06107 0.0071,0.120888 0.01757,0.180867 0.01246,0.06364 0.01799,0.128124 0.0217,0.192754 0.0028,0.05634 0.0038,0.113101 0.0047,0.169497 5.29e-4,0.0327 7.93e-4,0.06497 0.0011,0.09767 1.16e-4,0.02527 -1.3e-5,0.0507 0,0.07597 0.0021,-0.01066 -1.19e-4,0.04656 -5.29e-4,0.07648 0.06876,-2.54e-4 0.137427,-5.29e-4 0.206187,-5.29e-4 0.05223,-6.3e-5 0.104867,2.9e-5 0.157096,0 0.06263,-0.003 0.124563,0.0053 0.186553,0.01291 0.04871,0.0053 0.09694,0.01252 0.145727,0.01707 0.02267,0.0021 0.04546,0.0026 0.06821,0.0031 0.03297,-0.01754 0.06955,-0.02492 0.106968,-0.02894 0.02156,-0.0021 0.04294,-0.003 0.0646,-0.0036 0.0087,-2.54e-4 0.01725,-5.29e-4 0.02585,-5.29e-4 0.01286,-4.8e-5 0.0259,8e-6 0.03876,0 0.04765,-0.02537 0.09876,-0.01942 0.14573,0.04806 0.0686,0.09856 -0.01487,0.300812 -0.137461,0.296105 -0.01492,1.6e-5 -0.02951,-4.5e-5 -0.04444,0 -0.0062,6.1e-5 -0.01241,2.12e-4 -0.0186,5.3e-4 -0.01291,5.29e-4 -0.02588,5.29e-4 -0.03876,0.0016 -5.29e-4,6.1e-5 -5.29e-4,-3.7e-5 -0.0011,0 -0.0419,0.02066 -0.08664,0.03435 -0.134359,0.03152 -0.03603,-7.94e-4 -0.0721,-0.0019 -0.108002,-0.0052 -0.05182,-0.0051 -0.103312,-0.0122 -0.15503,-0.0181 -0.04818,-0.0059 -0.09595,-0.01363 -0.144696,-0.01035 -0.05214,3.7e-5 -0.104441,-5.8e-5 -0.156577,0 -0.07786,1.06e-4 -0.155718,7.94e-4 -0.23358,0.0011 -0.143976,7.94e-4 -0.111747,0.01466 -0.274399,-0.114721 -0.0057,-0.01902 -0.0104,-0.04241 -0.01241,-0.05581 -0.0087,-0.0361 -0.0173,-0.07216 -0.02479,-0.108522 -0.0052,-0.04732 -0.0063,-0.09398 -0.0052,-0.141591 -1.3e-5,-0.02479 1.11e-4,-0.04963 0,-0.07441 -1.51e-4,-0.03153 -5.29e-4,-0.06304 -0.0011,-0.09457 -7.94e-4,-0.05177 -0.0021,-0.103828 -0.0047,-0.155546 -0.0028,-0.05117 -0.0065,-0.102108 -0.01654,-0.152447 -0.01257,-0.07212 -0.02029,-0.144278 -0.02169,-0.217557 -0.0062,-0.09559 -0.01381,-0.191288 -0.02635,-0.286287 -0.0074,-0.07586 -0.0089,-0.152413 -0.02016,-0.227893 -0.01061,-0.07703 -0.01802,-0.153591 -0.01603,-0.231511 -0.0021,-0.09367 -0.005,-0.187629 -0.01138,-0.28112 -0.0079,-0.11766 -0.02027,-0.235447 -0.01963,-0.353467 3e-6,-0.107339 -1.6e-5,-0.214611 0,-0.321942 1.6e-5,-0.113731 -9.5e-5,-0.227346 0,-0.341067 1.03e-4,-0.111223 -1.56e-4,-0.22261 5.29e-4,-0.33383 5.29e-4,-0.09471 0.0016,-0.189031 0.0047,-0.283702 0.004,-0.116504 0.0097,-0.233024 0.01757,-0.349335 0.0078,-0.121486 0.0154,-0.242996 0.01188,-0.364834 2.62e-4,-0.09358 5.29e-4,-0.187034 0.0021,-0.280603 0.0016,-0.104225 0.0043,-0.208516 0.0093,-0.312643 0.0043,-0.08592 0.01423,-0.172482 0.0067,-0.258381 -0.01029,-0.118563 -0.0254,-0.236935 -0.02739,-0.356053 -0.0035,-0.09352 -0.006,-0.187465 -0.02016,-0.280085 -7.94e-4,-0.0046 -5.29e-4,-0.0084 -0.0011,-0.01291 -0.170172,-0.0861 -0.121566,-0.308506 0.153995,-0.308506 h 0.23358 0.168981 0.05943 0.05788 0.0036 c 0.0334,-0.01722 0.07063,-0.02397 0.107487,-0.02842 0.034,-0.0033 0.06818,-0.0043 0.10232,-0.0052 0.02593,-5.29e-4 0.05157,-7.94e-4 0.07752,-0.0011 z m 0.992703,0.48524 c 0.08604,0 0.172083,0.08544 0.172083,0.2558 v 0.17105 0.203086 c 0,0.05809 1.69e-4,0.115798 -0.0036,0.173633 0.04244,0.04108 0.07234,0.11207 0.07234,0.212908 v 0.02635 0.03927 0.04754 0.05323 0.166397 0.24443 c 0,0.106476 -0.03337,0.179697 -0.07958,0.219625 0.0019,0.02898 0.0038,0.05796 0.0072,0.08682 0.0093,0.06535 0.01958,0.130762 0.02687,0.196371 0.0053,0.04764 0.0079,0.09525 0.0093,0.143145 0.0013,0.04853 0.0013,0.09719 0.0016,0.145727 -0.0034,0.06868 0.0051,0.136411 0.01138,0.20464 0.0089,0.09515 0.01368,0.190817 0.01757,0.286287 0.0024,0.05887 0.0038,0.117821 0.0047,0.176733 5.29e-4,0.03227 7.94e-4,0.06437 0.0011,0.09663 1.11e-4,0.02511 -8e-6,0.05034 0,0.07545 2.9e-5,0.0501 0,0.10028 0,0.150381 8e-6,0.07234 0,0.144701 0,0.217041 -5.29e-4,0.08395 0.0019,0.167873 -0.0036,0.251663 -0.0075,0.06517 -0.01651,0.129966 -0.02223,0.195337 -0.0037,0.0432 -0.0055,0.08637 -0.0067,0.129709 -7.94e-4,0.02933 -0.0013,0.05903 -0.0016,0.08837 -1.8e-4,0.03061 2.9e-5,0.06086 0,0.09147 -2.9e-5,0.03748 5e-6,0.07519 0,0.112655 -3e-6,0.0456 0,0.09134 0,0.136943 v 0.08217 c -1.67e-4,0.0016 6.8e-5,0.0037 0,0.0057 0.0082,0.02445 0.0199,0.06215 0.02016,0.06305 0.0074,0.03093 0.0092,0.06291 0.01085,0.09457 0.0019,0.0029 0.0052,0.01077 0.01138,0.02585 0.01439,0.03865 0.01881,0.07963 0.02222,0.120407 0.0013,0.01754 0.0024,0.03513 0.0031,0.05271 2.64e-4,0.01162 5.29e-4,0.02352 5.29e-4,0.03514 3.1e-5,0.0029 5.29e-4,0.0054 5.29e-4,0.0083 0.0024,0.340696 -0.341765,0.343233 -0.344165,0.0026 -1.8e-5,-0.0026 -5.29e-4,-0.0052 -5.29e-4,-0.0078 -9.3e-5,-0.0093 1.98e-4,-0.01902 0,-0.02842 -5.29e-4,-0.01154 -0.0013,-0.0231 -0.0021,-0.03462 -7.93e-4,-0.0092 -0.0035,-0.03062 -0.0021,-0.02842 0.0011,0.0021 0.004,0.0083 0.0031,0.0062 -0.01752,-0.0388 -0.03531,-0.07794 -0.03462,-0.121957 -7.94e-4,-0.01447 -0.0011,-0.02907 -0.0026,-0.04341 0.0066,0.01643 -0.01778,-0.05279 -0.0181,-0.04599 -0.007,-0.03709 -0.01471,-0.06748 -0.01241,-0.10387 v -0.08217 c 0,-0.0456 -5e-6,-0.09133 0,-0.136943 3e-6,-0.03757 -3.4e-5,-0.07508 0,-0.112654 2.4e-5,-0.03131 2.12e-4,-0.06274 5.29e-4,-0.09405 1.99e-4,-0.03175 7.94e-4,-0.06335 0.0016,-0.09509 0.0016,-0.05014 0.0034,-0.100399 0.0078,-0.150378 0.0057,-0.06412 0.01392,-0.1279 0.02222,-0.19172 0.0072,-0.07475 -1.8e-4,-0.150339 0.0026,-0.225309 0,-0.07234 3e-6,-0.144703 0,-0.21704 0,-0.05005 2.1e-5,-0.100325 0,-0.150381 -1.1e-5,-0.02463 1.11e-4,-0.04926 0,-0.0739 -1.43e-4,-0.03117 -5.29e-4,-0.06233 -0.0011,-0.09354 -7.94e-4,-0.05586 -0.0019,-0.111612 -0.0041,-0.167431 -0.0037,-0.0897 -0.0087,-0.179316 -0.01707,-0.268716 -0.0071,-0.07809 -0.01548,-0.156041 -0.01241,-0.234612 -2.01e-4,-0.04577 -5.3e-4,-0.0917 -0.0016,-0.137461 -0.0011,-0.03856 -0.003,-0.07688 -0.0072,-0.115237 -0.0072,-0.06579 -0.01818,-0.131286 -0.02687,-0.196887 -0.0086,-0.08283 -0.01058,-0.165833 -0.02066,-0.248563 -0.0092,-0.09101 -0.0159,-0.182306 -0.01241,-0.273886 2e-6,-0.05962 -3.7e-5,-0.119179 0,-0.1788 2.6e-5,-0.02495 2.11e-4,-0.04999 5.29e-4,-0.07493 2.64e-4,-0.03768 7.93e-4,-0.07499 0.0016,-0.112657 0.0013,-0.04596 0.0027,-0.09236 0.0088,-0.137975 0.0056,-0.04163 0.01291,-0.08294 0.0217,-0.124023 0.01413,-0.049 -0.0064,-0.10645 0.0021,-0.156581 v -0.203086 -0.17105 c 0,-0.170363 0.08604,-0.2558 0.172082,-0.2558 z m 17.371034,0.03462 c 0.05508,-3e-6 0.110963,0.03504 0.146243,0.104386 0.07367,0.01918 0.139009,0.102817 0.139009,0.251148 v 0.0047 0.06201 0.08061 0.09612 c 0,0.01971 3e-6,0.0392 0,0.05891 -2e-6,0.0172 1.6e-5,0.03448 0,0.05167 -2.6e-5,0.02713 6.1e-5,0.05452 0,0.08165 -1e-4,0.0425 -5.29e-4,0.08462 -0.0011,0.127124 -5.29e-4,0.04127 -0.0013,0.08282 -0.0041,0.124024 -0.0035,0.05193 -0.0085,0.103515 -0.01601,0.155027 -0.0062,0.04576 -0.0093,0.01656 -0.0016,0.06459 0.0096,0.05047 0.02574,0.100383 0.02273,0.152445 v 0.163298 c 3e-6,0.05567 -2e-6,0.111763 0,0.167434 3e-6,0.0425 -1.3e-5,0.08461 0,0.127124 1.6e-5,0.03342 5.3e-4,0.06683 5.3e-4,0.100251 9.2e-5,0.02556 -9.3e-5,0.05144 5.29e-4,0.077 5.29e-4,0.02339 0.0016,0.04646 0.0036,0.06976 0.0026,0.02968 0.0046,0.06005 0.01241,0.08888 0.01209,0.04567 0.02053,0.09211 0.01654,0.139528 -7.94e-4,0.03152 -0.0026,0.06265 -0.0057,0.09405 -0.0048,0.04483 -0.01146,0.08985 -0.02739,0.132291 -0.004,0.01061 -0.005,0.01236 -0.0062,0.01447 -0.0013,0.01048 -0.0024,0.01754 -0.0031,0.01963 -0.0074,0.03687 -0.01582,0.07391 -0.02946,0.109038 -0.01117,0.03006 -0.02379,0.05936 -0.03617,0.08888 0.01307,0.04616 0.02649,0.09254 0.04186,0.137977 0.02761,0.07309 0.05251,0.146929 0.07338,0.222208 0.01008,0.03595 0.02909,0.06868 0.04341,0.103352 0.02191,0.05675 0.04364,0.113069 0.05891,0.172085 0.01151,0.0477 0.01826,0.09643 0.02326,0.145208 0.0038,0.04054 0.0047,0.08127 0.0052,0.121957 2.65e-4,0.0713 -0.01315,0.141573 -0.02016,0.212389 -0.0035,0.07409 -0.01318,0.1474 -0.02429,0.22066 -0.01228,0.07455 -0.02811,0.148648 -0.04548,0.222208 -0.01476,0.05305 -0.02669,0.106579 -0.03669,0.160716 -0.0051,0.02466 -0.0068,0.04986 -0.0083,0.07493 -0.0024,0.04857 -0.02146,0.09438 -0.04031,0.138493 -0.01024,0.01842 -0.01913,0.03746 -0.02223,0.05839 -0.0037,0.01839 -0.0054,0.03713 -0.0067,0.05581 5.29e-4,0.02109 -0.003,0.04093 -0.0083,0.06046 7.94e-4,0.05863 -7.94e-4,0.117374 -0.0093,0.175702 -0.0081,0.04181 -0.01701,0.0969 -0.02479,0.09663 -0.341275,-0.01151 -0.337968,0.06027 -0.337965,-0.06356 v -0.05219 c 0,-0.0069 -3e-6,-0.01378 0,-0.02066 5e-6,-0.0086 -8e-6,-0.01722 0,-0.02582 1.6e-5,-0.01357 -1.19e-4,-0.02724 0,-0.04082 1.69e-4,-0.01056 0.0011,-0.02098 0.0016,-0.03152 0.0013,-0.02347 0.0043,-0.04692 0.01188,-0.06925 0.0035,-0.0109 0.0081,-0.02061 0.01241,-0.03049 -0.0016,-0.03564 -0.0035,-0.0714 -0.0052,-0.106972 -0.0095,-0.172516 -0.02035,-0.345299 -0.03721,-0.517281 -0.01437,-0.125103 -0.02896,-0.250135 -0.03876,-0.375687 -0.0061,-0.0795 -0.0093,-0.15906 -0.01138,-0.238744 -0.0013,-0.04703 -0.0019,-0.09403 -0.0021,-0.141079 -2.65e-4,-0.07165 3.7e-5,-0.143325 0,-0.214974 -3.5e-5,-0.0653 5e-6,-0.130553 0,-0.195852 -0.0028,-0.05805 0.01233,-0.114396 0.02223,-0.171051 0.0067,-0.03273 0.01521,-0.06549 0.02479,-0.09767 -0.0089,-0.03445 -0.0182,-0.06874 -0.02635,-0.103352 -0.01714,-0.09353 -0.02458,-0.18751 -0.02066,-0.28267 0,-0.0789 -3e-6,-0.157779 0,-0.236678 2e-6,-0.08514 -1.6e-5,-0.170145 0,-0.25528 1.8e-5,-0.08218 -8.5e-5,-0.16432 0,-0.246499 1.4e-4,-0.134057 5.29e-4,-0.267989 0.0011,-0.402043 5.29e-4,-0.136779 7.94e-4,-0.273558 0.0041,-0.41031 0.0033,-0.12064 0.008,-0.241438 0.0181,-0.361736 0.0062,-0.07917 0.01474,-0.158149 0.01138,-0.237709 h -5.29e-4 c -0.0073,-0.170204 0.07596,-0.255268 0.162263,-0.255284 z m 4.014224,5.562452 c -0.01394,0.01209 -0.0284,0.02315 -0.04289,0.03307 -5.3e-5,0.0024 5.3e-5,0.0048 0,0.0072 0.02569,-0.0021 0.03614,-0.0172 0.04289,-0.04031 z" />
    </clipPath>
    <clipPath
       clipPathUnits="userSpaceOnUse"
       id="clipPath135">
      <path
         id="path135"
         style="fill:#ff0000;fill-opacity:1;fill-rule:nonzero;stroke:none;stroke-width:0.264583"
         d="m 76.949827,53.866997 v 6.099887 h 9.100219 v -6.099887 h -0.745175 c 0.03142,0.165 0.07295,0.169646 -0.02066,0.169497 -0.0049,0.10173 -0.0079,0.0693 -0.0098,0 h -5.29e-4 -0.120407 -0.08527 -0.06666 -0.134358 -0.106455 -0.182933 -0.221176 -0.21549 c -0.07875,3e-6 -0.157411,-7e-6 -0.236162,0 -0.0709,1.1e-5 -0.141996,-4.5e-5 -0.212907,0 -0.09102,6.7e-5 -0.181832,2.02e-4 -0.272852,5.3e-4 -0.06252,2.64e-4 -0.125084,7.93e-4 -0.187584,0.0026 -0.08595,0.0026 -0.172045,0.0059 -0.257866,0.01138 -0.08025,0.0056 -0.159895,0.01812 -0.240297,0.01963 -0.05566,-2.65e-4 -0.111273,-7.94e-4 -0.166915,-0.0026 -0.08934,-0.0028 -0.178443,-0.0068 -0.267681,-0.01188 -0.136073,-0.0077 -0.272408,-0.01969 -0.408763,-0.01913 -0.123804,10e-5 -0.247751,5.29e-4 -0.371552,0.0016 -0.119581,0.0011 -0.239149,0.0016 -0.358635,0.0067 -0.07794,0.004 -0.155802,0.01045 -0.233061,0.0217 -0.07247,0.0055 -0.144909,0.0034 -0.217558,0.0031 -0.08945,-5.29e-4 -0.178811,-0.0011 -0.268201,-0.0047 -0.06929,-0.0035 -0.138303,-0.01019 -0.207221,-0.0181 -0.108503,-0.01019 -0.217078,-0.01365 -0.326078,-0.01085 -0.08533,-3e-6 -0.170469,3.2e-5 -0.255799,0 -0.105617,-3.7e-5 -0.211159,1.72e-4 -0.316778,0 -0.07292,-1.99e-4 -0.146198,-5e-5 -0.219107,-0.0016 -0.0697,-0.0016 -0.139144,-0.0048 -0.208772,-0.0083 -0.110744,-0.0059 -0.221364,-0.01423 -0.331764,-0.02479 -0.122023,-0.0084 -0.24434,-0.0061 -0.366387,-0.015 -0.111326,-0.0069 -0.222729,-0.01987 -0.334346,-0.01913 h -0.309541 c -0.121785,0 -0.199369,-0.04426 -0.234095,-0.10077 z" />
    </clipPath>
    <clipPath
       clipPathUnits="userSpaceOnUse"
       id="clipPath139">
      <path
         id="path139"
         style="fill:#ff0000;fill-opacity:1;fill-rule:nonzero;stroke:none;stroke-width:0.264583"
         d="m 72.249855,53.830823 v 30.139762 h 4.097941 c -0.131617,-0.138819 -0.02738,-0.395523 0.315225,-0.41651 0.02101,-0.0013 0.04175,-0.0016 0.06253,-0.0011 0.06235,0.0016 0.123883,0.01061 0.185518,0.02273 0.05795,0.01278 0.117078,0.01767 0.176217,0.02066 0.111824,-1.59e-4 0.22243,0.01175 0.333312,0.02479 0.09973,0.01333 0.199782,0.02093 0.300241,0.02532 0.124124,0.0051 0.248613,0.0029 0.372586,0.01085 0.155689,0.01669 0.311796,0.02679 0.468189,0.03359 0.161642,0.0067 0.323484,0.0093 0.485243,0.01085 0.163589,0.0013 0.326813,0.0019 0.49041,0.0021 0.157195,2.57e-4 0.314611,-4.2e-5 0.471805,0 0.158107,0.0016 0.315873,-0.01521 0.473356,-0.02739 0.117324,-0.01029 0.234717,-0.01558 0.352433,-0.0181 0.185393,-0.0029 0.370628,-0.0031 0.556037,-0.0036 0.180819,-5.29e-4 0.361786,-5.29e-4 0.542605,-5.29e-4 0.144921,-6.1e-5 0.289677,1.8e-5 0.434597,0 0.09587,-1.1e-5 0.191968,2e-6 0.287838,0 0.118726,-3e-6 0.237325,0 0.356052,0 h 0.354499 0.234612 0.144176 0.280604 0.267684 0.118338 0.03979 0.110588 0.161231 0.115756 0.09302 0.05994 0.06511 c 0.35613,-0.256173 0.625867,0.04241 0.389123,0.316259 h 4.322218 v -30.13972 z" />
    </clipPath>
    <clipPath
       clipPathUnits="userSpaceOnUse"
       id="clipPath153">
      <path
         id="path153"
         style="fill:#ff0000;fill-opacity:1;fill-rule:nonzero;stroke:none;stroke-width:0.264583"
         d="m 85.670223,83.87085 v 6.019271 h 4.10001 v -0.279053 c -0.145185,0.158562 -0.405662,0.05913 -0.405662,-0.298688 v -0.0011 -0.01241 -0.04289 -0.04754 -0.04961 -0.0217 -0.05013 -0.04961 -0.04703 -0.03927 -0.05374 -0.178284 -0.222208 -0.157096 -0.0801 -0.128675 -0.14986 -0.148312 -0.137975 -0.09457 -0.04651 -0.04909 -0.09095 -0.126092 -0.114721 -0.05219 -0.04444 -0.08113 -0.156064 -0.128156 -0.0832 -0.09095 V 86.3833 86.126985 85.885656 85.747163 85.622105 85.453123 85.222647 84.83249 84.376703 c 0,-0.247944 0.125402,-0.371554 0.250632,-0.371554 0.05549,0 0.110511,0.02426 0.15503,0.07286 v -0.207222 z" />
    </clipPath>
    <clipPath
       clipPathUnits="userSpaceOnUse"
       id="clipPath156">
      <path
         id="path157"
         style="fill:#ff0000;fill-opacity:1;fill-rule:nonzero;stroke:none;stroke-width:0.264583"
         d="M 66.065736,47.950046 V 98.934013 H 96.049952 V 47.950046 Z M 76.72555,83.553041 c 0.06235,0.0016 0.123883,0.01061 0.185518,0.02273 0.05795,0.01278 0.117078,0.01767 0.176215,0.02066 0.111826,-1.58e-4 0.222432,0.01177 0.333314,0.02479 0.09973,0.01333 0.199782,0.02093 0.300241,0.02532 0.124124,0.0051 0.248613,0.0029 0.372586,0.01085 0.155689,0.0167 0.311796,0.02679 0.468189,0.03359 0.161642,0.0067 0.323482,0.0093 0.485243,0.01085 0.163581,0.0013 0.32681,0.0019 0.490408,0.0021 0.157194,2.56e-4 0.314613,-4.3e-5 0.471807,0 0.158105,0.0016 0.315873,-0.01521 0.473356,-0.02739 0.117324,-0.01029 0.234717,-0.01556 0.352433,-0.0181 0.185393,-0.0029 0.370628,-0.0031 0.556037,-0.0036 0.180819,-5.29e-4 0.361784,-5.29e-4 0.542603,-5.29e-4 0.14492,-6.1e-5 0.289679,1.6e-5 0.434599,0 0.09587,-1.1e-5 0.191968,0 0.287838,0 0.118726,-3e-6 0.237323,0 0.356049,0 h 0.354502 0.234612 0.144176 0.280604 0.267682 0.11834 0.03979 0.110588 0.161229 0.115755 0.09302 0.05994 0.06511 c 0.396748,-0.28539 0.688414,0.117882 0.289388,0.408244 -0.0013,7.94e-4 -0.0028,0.0021 -0.0041,0.0031 -0.01953,0.01402 -0.03917,0.02715 -0.05994,0.03927 -0.06046,0.0332 -0.127637,0.05464 -0.197405,0.05013 h -0.09302 -0.05994 -0.09302 -0.115755 -0.161229 -0.110588 -0.03979 -0.11834 -0.267681 -0.280604 -0.144177 -0.234611 -0.354502 -0.35605 c -0.09586,0 -0.191461,-1.6e-5 -0.287322,0 -0.144862,1.3e-5 -0.289742,-6.1e-5 -0.434596,0 -0.180449,8.7e-5 -0.36113,4.2e-5 -0.541571,5.29e-4 -0.182464,5.29e-4 -0.364805,7.93e-4 -0.547253,0.0036 -0.108255,0.0021 -0.216639,0.007 -0.324528,0.01654 -0.170357,0.01315 -0.34055,0.03146 -0.511595,0.02946 -0.157467,-4.2e-5 -0.314868,-2.22e-4 -0.472324,-5.29e-4 -0.164981,-2.65e-4 -0.330084,-5.29e-4 -0.495062,-0.0021 -0.167381,-0.0016 -0.335034,-0.0044 -0.502293,-0.01138 -0.160692,-0.0071 -0.321146,-0.0168 -0.481108,-0.03411 -0.119649,-0.0093 -0.239836,-0.0033 -0.359669,-0.01034 -0.112567,-0.0051 -0.225163,-0.01312 -0.336931,-0.02791 -0.100415,-0.01185 -0.199924,-0.02305 -0.301273,-0.02223 -0.08268,-0.0047 -0.165396,-0.01191 -0.246496,-0.02946 -0.05081,-0.01013 -0.09752,-0.0181 -0.150895,-0.01241 -0.493101,0.05248 -0.494959,-0.470426 0,-0.500745 0.02101,-0.0013 0.04175,-0.0016 0.06253,-0.0011 z m 12.889653,0.452167 c 0.12523,0 0.250113,0.123611 0.250113,0.371555 v 0.455784 0.390157 0.230479 0.168981 0.125056 0.138493 0.241329 0.256315 0.15348 0.09095 0.0832 0.128159 0.156061 0.08113 0.04444 0.05219 0.11472 0.12609 0.09095 0.04909 0.04651 0.09457 0.137977 0.14831 0.149863 0.128674 0.0801 0.157096 0.222208 0.178284 0.05375 0.03928 0.04702 0.04961 0.05013 0.0217 0.04961 0.04754 0.04289 0.01241 0.0011 c 0,0.495887 -0.500745,0.495887 -0.500745,0 v -0.0011 -0.01241 -0.04289 -0.04754 -0.04961 -0.0217 -0.05013 -0.04961 -0.04702 -0.03928 -0.05375 -0.178284 -0.222208 -0.157096 -0.0801 -0.128674 -0.149863 -0.14831 -0.137977 -0.09457 -0.04651 -0.04909 -0.09095 -0.12609 -0.11472 -0.05219 -0.04444 -0.08113 -0.156061 -0.128159 -0.0832 -0.09095 -0.15348 -0.256315 -0.241329 -0.138493 -0.125056 -0.168981 -0.230479 -0.390157 -0.455784 c 0,-0.247944 0.1254,-0.371555 0.250632,-0.371555 z m -17.457335,0.05426 c 0.111339,0.0054 0.23041,0.105992 0.27492,0.318326 0.01625,0.07751 0.02757,0.155921 0.03617,0.234611 0.0057,0.05342 0.0094,0.107053 0.01188,0.160713 0.0016,0.03286 0.0019,0.06582 0.0021,0.0987 2.51e-4,0.02694 5.29e-4,0.05419 5.29e-4,0.08113 4.7e-5,0.03068 -5e-6,0.06129 0,0.09198 0.0021,0.05984 -0.0011,0.118356 -0.0083,0.177765 -0.01429,0.0533 -0.02408,0.107495 -0.03049,0.162264 -0.0061,0.05702 -0.0073,0.114276 -0.0088,0.171566 -0.0011,0.04589 -0.0019,0.09208 -0.0021,0.137978 -2.22e-4,0.03973 -5.29e-4,0.07912 -5.29e-4,0.118856 -4.7e-5,0.04767 6e-6,0.09547 0,0.143142 -5e-6,0.06702 0,0.134001 0,0.201023 v 0.149344 0.128156 0.115755 0.132292 0.077 c 0.0074,0.02707 0.02434,0.120774 0.02635,0.134874 0.0089,0.06946 0.01482,0.139412 0.01913,0.209291 0.0021,0.03311 0.0034,0.06656 0.0041,0.09973 5.29e-4,0.03176 5.29e-4,0.06333 5.29e-4,0.09509 7.7e-5,0.04474 -1.3e-5,0.08962 0,0.134359 1e-5,0.04907 -3e-6,0.09821 0,0.147277 0,0.04427 0,0.08854 0,0.132808 v 0.124542 0.160713 0.174665 0.202057 0.148312 0.09405 c 2.38e-4,0.02273 0.0021,0.01453 0.01654,0.0584 0.01503,0.04252 0.02241,0.08719 0.02791,0.131773 0.0033,0.03236 0.0044,0.06516 0.0052,0.09767 5.29e-4,0.02627 5.29e-4,0.05226 5.29e-4,0.07855 7.2e-5,0.0294 -1.5e-5,0.05897 0,0.08836 6e-6,0.01111 -5e-6,0.02199 0,0.03307 3e-6,0.0079 -2e-6,0.01587 0,0.02379 v 0.031 0.02119 0.02223 0.06149 c -7.93e-4,0.07945 -0.03164,0.205597 -0.115755,0.238744 -0.05951,0.02344 -0.12473,0.02856 -0.187068,0.04289 -0.166185,-0.03812 -0.254461,-0.190468 -0.203089,-0.353983 0.0016,-0.0052 0.0034,-0.0099 0.0052,-0.01498 v -0.01757 -0.03049 c 0,-0.0079 3e-6,-0.01587 0,-0.02376 -2e-6,-0.01106 6e-6,-0.02201 0,-0.03307 -1.3e-5,-0.02895 7.2e-5,-0.05838 0,-0.08733 -7.4e-5,-0.02318 -5.29e-4,-0.04608 -0.0011,-0.06925 -5.29e-4,-0.01836 -5.29e-4,-0.03698 -0.0021,-0.05529 -0.0019,-0.01685 -5.29e-4,-0.01275 -0.0062,-0.02997 -0.02228,-0.06904 -0.04282,-0.140073 -0.04082,-0.213423 v -0.09405 -0.148312 -0.202057 -0.174665 -0.160713 -0.124542 -0.132808 c -3e-6,-0.04904 1e-5,-0.09824 0,-0.147278 -1.4e-5,-0.04441 7.6e-5,-0.08891 0,-0.133323 -6.4e-5,-0.02851 -5.3e-4,-0.05676 -0.0011,-0.08527 -5.29e-4,-0.02662 -0.0013,-0.05353 -0.0031,-0.0801 -0.0035,-0.05724 -0.0078,-0.114128 -0.01498,-0.171048 -0.0075,-0.06133 -0.0273,-0.109675 -0.03101,-0.179835 v -0.100769 -0.132292 -0.115755 -0.128156 -0.149344 c 2e-6,-0.06704 -6e-6,-0.133993 0,-0.201023 5e-6,-0.04788 -4.8e-5,-0.09579 0,-0.14366 5.3e-5,-0.04065 2.64e-4,-0.08131 5.29e-4,-0.121955 2.64e-4,-0.04914 7.94e-4,-0.09816 0.0021,-0.14728 0.0019,-0.0731 0.004,-0.146407 0.01241,-0.219107 0.0079,-0.06358 0.01736,-0.127497 0.03463,-0.189137 0.0016,0.06067 -1.37e-4,-0.08133 5.3e-4,-0.09043 -6e-6,-0.0304 4.7e-5,-0.06106 0,-0.09147 -4.8e-5,-0.02553 -2.65e-4,-0.05096 -5.3e-4,-0.07648 -2.64e-4,-0.02687 -7.93e-4,-0.05377 -0.0021,-0.08061 -0.0021,-0.04355 -0.0047,-0.08686 -0.0093,-0.130225 -0.0067,-0.0637 -0.0158,-0.127461 -0.02894,-0.19017 -0.05725,-0.272999 0.07286,-0.423439 0.216006,-0.416512 z m 5.772777,5.305102 c 0.0439,-7.4e-5 0.08787,1.4e-5 0.131773,0 0.03092,-1e-5 0.0621,3e-6 0.09302,0 0.02703,-2e-6 0.0541,0 0.08113,0 h 0.126608 c 0.06225,-0.0099 0.115829,0.02567 0.174149,0.03566 0.04405,0.0077 0.08918,0.0081 0.133842,0.0098 0.05678,0.0021 0.113723,0.0031 0.170532,0.0036 0.07162,5.29e-4 0.143354,0.0011 0.214974,0.0011 0.09686,-0.0048 0.192368,0.0048 0.28784,0.02016 0.08291,0.01463 0.167156,0.01873 0.251145,0.02223 0.107418,0.004 0.214982,0.0052 0.322461,0.0062 0.08167,7.94e-4 0.163277,7.94e-4 0.244949,0.0011 0.06554,1.27e-4 0.131347,5.29e-4 0.196887,5.29e-4 0.08773,2.9e-5 0.175302,0 0.263033,0 0.115027,8e-6 0.230174,0 0.345196,0 h 0.286806 c 0.131916,1.06e-4 0.263557,-0.0021 0.395324,0.0047 0.155483,0.0132 0.311346,0.02416 0.467154,0.03256 0.102185,0.0056 0.204647,0.0084 0.306959,0.01035 0.09691,0.0016 0.193503,0.0019 0.290423,0.0021 0.08551,1.93e-4 0.17132,5.29e-4 0.256831,5.29e-4 0.08259,4.8e-5 0.164941,-5e-6 0.247531,0 0.116956,5e-6 0.233926,0 0.350882,0 h 0.218075 0.129707 0.22066 0.06718 c 0.02376,-0.0074 0.09444,-0.02209 0.112139,-0.02532 0.0683,-0.01029 0.137279,-0.01595 0.206189,-0.02016 0.0323,-0.0016 0.06433,-0.0026 0.09663,-0.0036 0.01842,-7.93e-4 0.03688,-0.0011 0.05529,-0.0011 0.03872,-6.9e-5 0.07755,1.3e-5 0.116274,0 0.07177,-0.0021 0.140279,0.0199 0.206187,0.04548 0.01627,0.0065 0.03261,0.01349 0.04858,0.02066 0.452152,0.203626 0.246174,0.659976 -0.20619,0.456821 -0.0082,-0.0037 -0.0164,-0.0075 -0.02479,-0.01085 -0.01619,-0.0065 -0.02162,-0.0096 -0.02273,-0.01138 -7.93e-4,-9.8e-5 -1.19e-4,1.11e-4 -0.0011,0 -0.03833,1.3e-5 -0.07639,-6.9e-5 -0.114721,0 -0.01344,3.2e-5 -0.02689,-7.4e-5 -0.04031,5.29e-4 -0.02789,7.94e-4 -0.05585,0.0021 -0.08372,0.0036 -0.05114,0.0029 -0.10219,0.0071 -0.152961,0.01394 -0.05473,0.0063 -0.104277,0.03754 -0.164848,0.03204 h -0.09715 -0.22066 -0.129707 -0.218075 c -0.116967,0 -0.233918,5e-6 -0.350882,0 -0.08269,-8e-6 -0.165357,4.5e-5 -0.248047,0 -0.08585,-5.8e-5 -0.1715,-2.44e-4 -0.25735,-5.29e-4 -0.09952,-2.65e-4 -0.199186,-1.99e-4 -0.298688,-0.0021 -0.108312,-0.0019 -0.216871,-0.0049 -0.325046,-0.01085 -0.155977,-0.0085 -0.311523,-0.01908 -0.467156,-0.03255 -0.122452,-0.0075 -0.2453,-0.0028 -0.367935,-0.0041 h -0.286805 c -0.115031,0 -0.230161,3e-6 -0.345197,0 -0.08779,0 -0.17576,2.4e-5 -0.263551,0 -0.06583,-2.4e-5 -0.131572,1.27e-4 -0.197403,0 -0.0829,-1.96e-4 -0.165659,-7.94e-4 -0.248566,-0.0016 -0.113064,-0.0011 -0.226507,-0.0024 -0.339513,-0.0067 -0.10346,-0.0045 -0.206857,-0.01003 -0.309026,-0.0279 -0.06955,-0.01119 -0.137893,-0.01918 -0.208772,-0.01394 -0.07312,-7.2e-5 -0.145999,7.1e-5 -0.219106,-5.29e-4 -0.06176,-5.3e-4 -0.123804,-0.0019 -0.185518,-0.0041 -0.0786,-0.0031 -0.157763,-0.006 -0.234612,-0.02429 -0.01717,-0.0045 -0.07016,-0.01646 -0.07493,-0.02119 h -0.105421 c -0.02702,0 -0.05411,-2e-6 -0.08113,0 -0.03087,3e-6 -0.06163,-1e-5 -0.0925,0 -0.04362,1.3e-5 -0.08764,-7.4e-5 -0.131257,0 -0.04204,8.2e-5 -0.08405,5.29e-4 -0.12609,0.0011 -0.01609,2.64e-4 -0.03206,1e-4 -0.04806,0.0021 -0.0066,5.29e-4 -0.0047,-1.45e-4 -0.0062,-5.29e-4 -0.07086,0.03082 -0.146121,0.05108 -0.224274,0.04754 h -0.266652 -0.338479 c -0.49589,0 -0.49589,-0.500745 0,-0.500745 h 0.338479 0.266652 c 0.01281,-0.0011 0.01545,-7.94e-4 0.02222,-0.0011 -0.0013,-0.0011 -0.0013,-0.0019 0.0016,-0.0041 0.04886,-0.02461 0.101806,-0.03357 0.155545,-0.03927 0.02999,-0.0033 0.06029,-0.0046 0.09043,-0.0052 0.04471,-5.3e-4 0.08912,-5.3e-4 0.133842,-5.3e-4 z" />
    </clipPath>
    <clipPath
       clipPathUnits="userSpaceOnUse"
       id="clipPath158">
      <path
         id="path158"
         style="fill:#ff0000;fill-opacity:1;fill-rule:nonzero;stroke:none;stroke-width:0.264583"
         d="m 72.249855,83.870334 v 0.216525 c 0.07919,0.04284 0.150697,0.137154 0.182933,0.290938 0.01625,0.07751 0.02757,0.155922 0.03617,0.234612 0.0057,0.05342 0.0094,0.107053 0.01188,0.160713 0.0016,0.03286 0.0019,0.06582 0.0021,0.0987 2.51e-4,0.02694 5.29e-4,0.05419 5.29e-4,0.08113 4.7e-5,0.03068 -5e-6,0.06129 0,0.09198 0.0021,0.05984 -0.0011,0.118359 -0.0083,0.177768 -0.01429,0.0533 -0.02408,0.107492 -0.03049,0.162264 -0.0061,0.05702 -0.0073,0.114276 -0.0088,0.171566 -0.0011,0.04589 -0.0019,0.09207 -0.0021,0.137975 -2.22e-4,0.03973 -5.29e-4,0.07913 -5.29e-4,0.118856 -5e-5,0.04767 3e-6,0.09547 0,0.143142 -5e-6,0.06702 0,0.134004 0,0.201023 v 0.149344 0.128159 0.115755 0.132292 0.077 c 0.0074,0.02707 0.02434,0.120777 0.02635,0.134877 0.0089,0.06945 0.01482,0.139409 0.01913,0.209288 0.0021,0.03311 0.0034,0.06656 0.0041,0.09974 5.29e-4,0.03176 5.29e-4,0.06333 5.29e-4,0.09508 7.9e-5,0.04474 -1.3e-5,0.08962 0,0.134361 1e-5,0.04907 -3e-6,0.09821 0,0.147278 2e-6,0.04426 0,0.08854 0,0.132807 v 0.12454 0.160713 0.174667 0.202055 0.148312 0.09405 c 2.41e-4,0.02273 0.0021,0.01453 0.01654,0.05839 0.01503,0.04252 0.02241,0.0872 0.02791,0.131776 0.0033,0.03236 0.0044,0.06516 0.0052,0.09767 5.29e-4,0.02627 5.29e-4,0.05226 5.29e-4,0.07855 7.5e-5,0.0294 -1.5e-5,0.05897 0,0.08837 6e-6,0.01109 -2e-6,0.02199 0,0.03307 3e-6,0.0079 0,0.01588 0,0.02376 v 0.03101 0.02119 0.02222 0.0615 c -7.93e-4,0.07945 -0.03163,0.205597 -0.115755,0.238746 -0.0535,0.02109 -0.111463,0.02781 -0.167947,0.03927 V 89.8896 h 4.100007 v -6.019271 z" />
    </clipPath>
  </defs>
  <g
     inkscape:groupmode="layer"
     id="layer4"
     inkscape:label="Layer 3"
     style="display:inline">
    <path
       style="fill:none;fill-rule:evenodd;stroke:#000080;stroke-width:0.1;paint-order:fill markers stroke"
       d="m 65.395549,0.05 v 37.896128 l 9.140107,-1.1e-5 0.0054,-2.016755 -2.944943,0.01617 V 8.0505941 H 88.991084 V 35.94546 l -2.844942,-0.0016 -0.0028,2.002269 h 9.14833 V 0.05 Z"
       id="path74-1" />
  </g>
  <g
     inkscape:groupmode="layer"
     id="layer8"
     inkscape:label="Layer 7" />
  <g
     inkscape:groupmode="layer"
     id="layer9"
     inkscape:label="Layer 8">
    <path
       style="fill:none;fill-rule:evenodd;stroke:#ff0000;stroke-width:0.1;stroke-dasharray:none;paint-order:fill markers stroke"
       d="m 34.278739,48.103927 v 50.884145 l 29.884174,-5.3e-5 V 48.103927 Z"
       id="path91" />
  </g>
  <g
     inkscape:groupmode="layer"
     id="layer10"
     inkscape:label="Layer 9"
     style="display:inline">
    <path
       style="fill:none;fill-rule:evenodd;stroke:#000080;stroke-width:0.1;stroke-dasharray:none;paint-order:fill markers stroke"
       d="m 0.41205705,48.103927 v 50.884145 l 9.13644525,-1.6e-5 0.01546,-1.999525 -2.9639622,0.0016 v -43.00013 l 17.4149989,-0.005 -0.0073,42.991108 h -2.868043 l 0.01191,2.01191 h 9.144663 V 48.103927 Z"
       id="path92" />
  </g>
  <g
     inkscape:groupmode="layer"
     id="layer11"
     inkscape:label="Layer 10">
    <path
       style="fill:none;fill-rule:evenodd;stroke:#ff00ff;stroke-width:0.1;stroke-dasharray:none;paint-order:fill markers stroke"
       d="m 65.586662,47.999999 v 50.884142 l 9.136446,-1.3e-5 0.01545,-1.999525 -2.963963,0.0016 -0.0038,-7.04664 h 4 v -5.918999 h -4.000003 l 0.0038,-30.034489 4.696246,-0.0031 -3e-6,6.033984 h 9.000001 l 2e-6,-6.03605 3.718769,1.24e-4 0.0013,30.039924 h -4 v 5.918998 l 3.990144,-5.29e-4 0.0013,7.03275 h -2.868043 l 0.01191,2.011907 h 9.144659 l 3e-5,-50.884092 z"
       id="path159" />
  </g>
  <g
     inkscape:groupmode="layer"
     id="layer7"
     inkscape:label="Layer 6">
    <path
       style="fill:none;fill-rule:evenodd;stroke:#ff00ff;stroke-width:0.1;paint-order:fill markers stroke"
       d="M 0.0519374,0.0519374 V 37.948063 l 9.1401061,-1.1e-5 0.00543,-2.016755 -2.9449426,0.01617 -0.00994,-7.928411 17.4048801,-0.0032 v 7.931534 l -2.844942,-0.0016 -0.0028,2.002269 H 29.94806 V 0.0519374 h -6.290652 l 0.0068,14.9474446 -17.4215955,2.03e-4 0.019881,-14.9476476 z"
       id="path1" />
  </g>
  <g
     inkscape:groupmode="layer"
     id="layer5"
     inkscape:label="Layer 4"
     style="display:inline">
    <path
       style="fill:none;fill-rule:evenodd;stroke:#ff0000;stroke-width:0.1;paint-order:fill markers stroke"
       d="M 33.389453,0.0519374 V 37.948063 H 63.285581 V 0.0519374 Z"
       id="path75" />
  </g>
</svg>
