<?xml version="1.0" encoding="UTF-8" standalone="no"?>
<!-- Created with Inkscape (http://www.inkscape.org/) -->

<svg
   width="210mm"
   height="297mm"
   viewBox="0 0 210 297"
   version="1.1"
   id="svg1"
   inkscape:version="1.3.2 (091e20e, 2023-11-25)"
   sodipodi:docname="suporte-controlador-carga-18650.svg"
   xmlns:inkscape="http://www.inkscape.org/namespaces/inkscape"
   xmlns:sodipodi="http://sodipodi.sourceforge.net/DTD/sodipodi-0.dtd"
   xmlns="http://www.w3.org/2000/svg"
   xmlns:svg="http://www.w3.org/2000/svg">
  <sodipodi:namedview
     id="namedview1"
     pagecolor="#ffffff"
     bordercolor="#000000"
     borderopacity="0.25"
     inkscape:showpageshadow="2"
     inkscape:pageopacity="0.0"
     inkscape:pagecheckerboard="0"
     inkscape:deskcolor="#d1d1d1"
     inkscape:document-units="mm"
     showgrid="true"
     inkscape:zoom="2.738269"
     inkscape:cx="123.80084"
     inkscape:cy="92.211539"
     inkscape:window-width="1088"
     inkscape:window-height="1920"
     inkscape:window-x="0"
     inkscape:window-y="0"
     inkscape:window-maximized="0"
     inkscape:current-layer="layer4"
     showguides="false">
    <inkscape:grid
       id="grid1"
       units="mm"
       originx="0"
       originy="0"
       spacingx="0.99999998"
       spacingy="1"
       empcolor="#0099e5"
       empopacity="0.30196078"
       color="#0099e5"
       opacity="0.14901961"
       empspacing="5"
       dotted="false"
       gridanglex="30"
       gridanglez="30"
       visible="true" />
  </sodipodi:namedview>
  <defs
     id="defs1">
    <clipPath
       clipPathUnits="userSpaceOnUse"
       id="clipPath72">
      <path
         id="path72"
         style="fill:#ff0000;fill-opacity:1;fill-rule:nonzero;stroke:none;stroke-width:0.264583"
         d="M 0.00206706,0.00206706 V 37.998199 H 9.4697063 c -0.059889,-0.08189 0.00254,-0.203438 0.1834513,-0.199472 0.2617274,0.0057 0.5234054,0.01622 0.7849654,0.02687 0.237306,0.01037 0.474612,0.01574 0.712101,0.01963 0.179022,-0.0016 0.358016,0.0088 0.536918,0.01138 0.183643,7.94e-4 0.367237,-0.0016 0.550871,-0.0031 0.135817,-0.0013 0.271388,-0.0016 0.40721,-0.0021 0.145124,-0.0028 0.290663,-0.01072 0.435632,-0.0186 0.194444,-0.01259 0.389179,-0.02127 0.583944,-0.02687 0.173329,-0.0029 0.346229,-0.01505 0.519348,-0.02326 0.156168,-0.0072 0.312398,-0.0093 0.468705,-0.01085 0.176657,-0.0016 0.353538,-0.0024 0.5302,-0.0026 0.147717,-0.0031 0.294922,7.94e-4 0.442351,0.0093 0.105198,0.0065 0.21039,0.01053 0.315743,0.01344 0.08437,0.0021 0.168824,0.0031 0.253214,0.0036 0.118734,5.29e-4 0.237315,5.29e-4 0.356051,5.29e-4 0.144331,8e-5 0.288717,-10e-6 0.433048,0 0.136322,1.1e-5 0.272956,0 0.409278,0 0.120357,3e-6 0.240345,0 0.360701,0 h 0.360702 0.319877 0.29869 0.309025 0.291972 0.296622 0.302307 0.205156 0.141593 0.12299 0.06201 0.03927 0.04031 0.04961 0.0098 c 0.180067,0 0.239126,0.121521 0.178283,0.202057 H 29.99817 V 0.00206706 Z" />
    </clipPath>
    <clipPath
       clipPathUnits="userSpaceOnUse"
       id="clipPath73">
      <path
         id="path73"
         style="fill:#ff0000;fill-opacity:1;fill-rule:nonzero;stroke:none;stroke-width:0.264583"
         d="M 6.2027223,8.0026124 V 38.047808 h 3.3320964 c -0.148577,-0.06586 -0.1063421,-0.254008 0.1183389,-0.249081 0.2617274,0.0057 0.5234054,0.01622 0.7849654,0.02687 0.237306,0.01037 0.474612,0.01574 0.712101,0.01963 0.179022,-0.0016 0.358016,0.0088 0.536918,0.01138 0.183643,7.94e-4 0.367237,-0.0016 0.550871,-0.0031 0.135817,-0.0013 0.271388,-0.0016 0.40721,-0.0021 0.145124,-0.0028 0.290663,-0.01072 0.435632,-0.0186 0.194444,-0.01259 0.389179,-0.02127 0.583944,-0.02687 0.173329,-0.0029 0.346229,-0.01505 0.519348,-0.02326 0.156168,-0.0072 0.312398,-0.0093 0.468705,-0.01085 0.176657,-0.0016 0.353538,-0.0024 0.5302,-0.0026 0.147717,-0.0031 0.294922,7.94e-4 0.442351,0.0093 0.105198,0.0065 0.21039,0.01053 0.315743,0.01344 0.08437,0.0021 0.168824,0.0031 0.253214,0.0036 0.118734,5.29e-4 0.237315,5.29e-4 0.356051,5.29e-4 0.144331,8e-5 0.288717,-10e-6 0.433048,0 0.136322,1.1e-5 0.272956,0 0.409278,0 0.120357,3e-6 0.240345,0 0.360701,0 h 0.360702 0.319877 0.29869 0.309025 0.291972 0.296622 0.302307 0.205156 0.141593 0.12299 0.06201 0.03927 0.04031 0.04961 0.0098 c 0.225231,0 0.261236,0.189524 0.109554,0.251667 H 23.69724 V 8.0026124 Z M 15.183052,38.041606 c -0.175862,2.65e-4 -0.351242,2.65e-4 -0.527099,0.0021 -0.05823,5.29e-4 -0.11643,0.0031 -0.174666,0.0041 h 1.075386 c -0.124429,-0.0061 -0.249003,-0.009 -0.373621,-0.0062 z" />
    </clipPath>
    <clipPath
       clipPathUnits="userSpaceOnUse"
       id="clipPath83">
      <path
         id="path84"
         style="fill:#ff0000;fill-opacity:1;fill-rule:nonzero;stroke:none;stroke-width:0.264583"
         d="M 0.00206706,0.00206706 V 37.998196 H 29.99817 V 0.00206706 Z M 23.623881,15.253333 c 0.227717,-0.02352 0.443589,0.203228 0.367936,0.640787 -0.03836,0.221849 -0.0735,0.443398 -0.09457,0.66766 -0.02519,0.302861 -0.06505,0.604455 -0.0894,0.907438 -0.02924,0.323279 -0.06054,0.645949 -0.08165,0.969967 -0.0196,0.294236 -0.02739,0.588893 -0.03359,0.883667 -0.0045,0.220301 -0.0061,0.4406 -0.0072,0.660941 -8.46e-4,0.198757 -8.73e-4,0.397588 -0.001,0.596346 0.0015,0.207124 -0.0052,0.414281 0.0062,0.621151 0.0233,0.305359 0.03918,0.611286 0.05168,0.917257 0.0087,0.218325 0.01397,0.436794 0.01757,0.655257 0.0017,0.10918 0.0024,0.218437 0.0031,0.327628 -0.0015,0.02372 0.0257,0.122854 0.03927,0.195854 0.01595,0.08564 0.02687,0.172039 0.03307,0.258899 -0.0014,0.09028 0.0078,0.107528 0.02481,0.185518 0.02489,0.106773 0.03929,0.215466 0.04909,0.324528 0.0023,0.01699 0.01785,0.311569 0.0072,0.161748 0.0081,-0.0066 0.04154,0.08995 0.04444,0.09715 0.02369,0.07149 0.03271,0.145859 0.03721,0.220659 0.0029,0.05805 0.0037,0.116556 0.0041,0.174666 5.03e-4,0.109807 4.5e-4,0.219371 5.29e-4,0.329179 5.5e-5,0.103198 -1.3e-5,0.206344 0,0.309542 8e-6,0.05961 -2e-6,0.11919 0,0.1788 v 0.140043 0.237195 0.199471 c 0.0061,0.09695 -0.01934,0.19095 -0.05633,0.27957 -0.01805,0.04547 -0.01264,0.03607 -0.01654,0.05943 -0.0018,0.0082 -0.0097,0.06824 -0.0052,0.03256 -5.3e-4,0.01717 -7.15e-4,0.03399 -0.001,0.05116 -2.22e-4,0.0218 -5.03e-4,0.04382 -5.29e-4,0.06563 -3.4e-5,0.03645 5e-6,0.07309 0,0.109556 -6e-6,0.0364 1e-6,0.07263 0,0.109037 v 0.04909 0.03824 c -2e-6,0.789424 -0.79737,0.789424 -0.797368,0 v -0.03824 -0.04909 c 1e-6,-0.03644 -4e-6,-0.07311 0,-0.109553 6e-6,-0.03672 -3.4e-5,-0.07335 0,-0.110072 3.1e-5,-0.0263 1.65e-4,-0.05225 5.29e-4,-0.07855 5.02e-4,-0.02802 0.0012,-0.05623 0.0026,-0.08423 0.0034,-0.04154 0.0079,-0.083 0.0155,-0.124023 0.0132,-0.07327 0.03249,-0.145069 0.06098,-0.213941 v -0.186035 -0.237195 -0.140043 c -2e-6,-0.05958 7e-6,-0.11922 0,-0.1788 -1.3e-5,-0.103076 5.5e-5,-0.205952 0,-0.309025 -6.4e-5,-0.108174 -2.7e-5,-0.216356 -5.3e-4,-0.324528 -1.99e-4,-0.04561 -4.76e-4,-0.09137 -0.0026,-0.136943 -7.94e-4,-0.02548 -8.21e-4,-0.01229 0.0021,-0.01188 0.06046,0.13074 -0.0766,-0.152263 -0.06253,-0.159163 -0.01581,-0.09403 -0.02457,-0.186337 -0.02687,-0.281637 -0.0063,-0.07535 -0.01669,-0.150605 -0.03411,-0.224275 -0.02168,-0.0995 -0.04182,-0.199437 -0.04082,-0.301791 -0.0035,-0.05699 -0.01157,-0.113308 -0.0217,-0.169498 -0.01966,-0.111045 -0.05521,-0.220413 -0.05271,-0.334347 -6.09e-4,-0.106398 -0.0015,-0.212973 -0.0031,-0.31936 -0.0035,-0.212037 -0.0087,-0.423717 -0.01705,-0.63562 -0.01235,-0.303302 -0.02824,-0.606285 -0.05116,-0.908989 -0.0105,-0.220703 -0.0073,-0.441568 -0.0072,-0.662492 10e-5,-0.199832 1.67e-4,-0.399614 0.001,-0.599446 0.0011,-0.224632 0.0026,-0.449269 0.0072,-0.673861 0.0065,-0.306497 0.01527,-0.613386 0.03566,-0.919324 0.02143,-0.328102 0.05259,-0.655018 0.08217,-0.982369 0.0249,-0.306914 0.06452,-0.612035 0.09043,-0.918807 0.02301,-0.236417 0.05786,-0.470524 0.09922,-0.704349 0.06015,-0.340095 0.24405,-0.509837 0.421163,-0.528133 z M 6.060612,15.637288 c 0.1993601,0 0.3984252,0.197501 0.3984252,0.592212 v 0.423747 0.499194 0.47284 c 5.291e-4,0.174992 -0.029305,0.348127 -0.047026,0.521932 -0.010454,0.107281 -0.021278,0.214743 -0.025839,0.322461 -0.0048,0.133638 -0.00457,0.267302 -0.00517,0.401009 -8.731e-4,0.263107 -9.26e-4,0.52599 -0.00103,0.789099 -1.095e-4,0.317811 -5.027e-4,0.635619 -5.291e-4,0.95343 -1.59e-5,0.272494 2.9e-6,0.545029 0,0.817521 -2.2e-6,0.245076 5e-7,0.49028 0,0.735356 v 0.557072 0.365869 c 0.00841,0.186905 0.031922,0.373166 0.044442,0.560172 0.012753,0.24763 0.048176,0.493276 0.07183,0.740007 0.020405,0.205003 0.028503,0.410666 0.034623,0.6165 0.00321,0.151894 0.03305,0.301849 0.050126,0.452685 0.015378,0.140455 0.024379,0.281585 0.030489,0.422714 -0.013803,-0.05618 -0.00823,9e-4 -0.00103,0.06201 0.00148,0.0035 1.008e-4,-4.23e-4 0.00206,0.0041 0.031202,0.0698 0.049069,0.14468 0.065112,0.219108 0.011533,0.05178 0.015354,0.104794 0.018603,0.157614 0.00198,0.03431 0.0022,0.06848 0.00259,0.102836 2.91e-4,0.03042 -3.28e-5,0.06105 0,0.09146 2.54e-5,0.03115 -5.3e-6,0.06239 0,0.09354 3.4e-6,0.02535 -1.1e-6,0.05063 0,0.07596 v 0.06718 0.0083 c 2.9e-6,0.789424 -0.7973642,0.789424 -0.7973674,0 v -0.0083 -0.06718 c -1.3e-6,-0.02532 3.7e-6,-0.05065 0,-0.07596 -5.3e-6,-0.03092 2.49e-5,-0.06159 0,-0.0925 -2.96e-5,-0.02773 2.381e-4,-0.05547 0,-0.0832 -2.4e-4,-0.02116 -6.35e-4,-0.04243 -0.00156,-0.06356 -0.00196,-0.03253 -0.00101,-0.03357 -0.00206,-0.03927 -0.0078,-0.03666 -0.00899,-0.05172 -0.017571,-0.0708 -0.04759,-0.111322 -0.068729,-0.226553 -0.065629,-0.347266 -0.00521,-0.122905 -0.012576,-0.245611 -0.025839,-0.367936 -0.019047,-0.172491 -0.053627,-0.343793 -0.054777,-0.517798 -0.00556,-0.188387 -0.012814,-0.376679 -0.031523,-0.564307 -0.024221,-0.254396 -0.0612,-0.507826 -0.073896,-0.763226 C 5.6146597,23.49734 5.587284,23.293374 5.5820741,23.088514 V 22.723162 22.16609 c 3e-7,-0.245079 -2.4e-6,-0.490278 0,-0.735356 2.7e-6,-0.272507 -1.61e-5,-0.545012 0,-0.817521 2.17e-5,-0.317904 -1.095e-4,-0.635525 0,-0.95343 1.085e-4,-0.264179 1.485e-4,-0.528539 0.00103,-0.792717 6.615e-4,-0.144335 0.00127,-0.288793 0.00672,-0.433048 0.00566,-0.122975 0.016515,-0.245467 0.028939,-0.367936 0.015076,-0.146878 0.040501,-0.293281 0.042891,-0.4408 v -0.47284 -0.499194 -0.423747 c 0,-0.394712 0.1995824,-0.592212 0.3989422,-0.592212 z" />
    </clipPath>
    <clipPath
       clipPathUnits="userSpaceOnUse"
       id="clipPath86">
      <path
         id="path87"
         style="fill:#ff0000;fill-opacity:1;fill-rule:nonzero;stroke:none;stroke-width:0.264583"
         d="m 6.2022053,14.959294 v 0.713651 c 0.1421681,0.07246 0.2568319,0.257387 0.2568319,0.556555 v 0.423747 0.499194 0.47284 c 5.291e-4,0.174992 -0.029305,0.348127 -0.047026,0.521932 -0.010454,0.107281 -0.021278,0.214743 -0.025839,0.322461 -0.0048,0.133638 -0.00457,0.267302 -0.00517,0.401009 -8.731e-4,0.263107 -9.26e-4,0.52599 -0.00103,0.789099 -1.095e-4,0.317811 -5.027e-4,0.635619 -5.291e-4,0.95343 -1.59e-5,0.272494 2.9e-6,0.545029 0,0.817521 -2.2e-6,0.245076 5e-7,0.49028 0,0.735356 v 0.557072 0.365869 c 0.00841,0.186905 0.031922,0.373166 0.044442,0.560172 0.012753,0.24763 0.048176,0.493276 0.07183,0.740007 0.020405,0.205003 0.028503,0.410666 0.034623,0.6165 0.00321,0.151894 0.03305,0.301849 0.050126,0.452685 0.015378,0.140455 0.024379,0.281585 0.030489,0.422714 -0.013803,-0.05618 -0.00823,9e-4 -0.00103,0.06201 0.00148,0.0035 1.008e-4,-4.23e-4 0.00206,0.0041 0.031202,0.0698 0.049069,0.14468 0.065112,0.219108 0.011533,0.05178 0.015354,0.104794 0.018603,0.157614 0.00198,0.03431 0.0022,0.06848 0.00259,0.102836 2.91e-4,0.03042 -3.28e-5,0.06105 0,0.09146 2.54e-5,0.03115 -5.3e-6,0.06239 0,0.09354 3.4e-6,0.02535 -1.1e-6,0.05063 0,0.07596 v 0.06718 0.0083 c 1.6e-6,0.459867 -0.2701748,0.650036 -0.4960938,0.574127 v 0.721921 H 23.664184 v -0.592727 c -0.232835,0.11653 -0.53847,-0.06878 -0.538469,-0.557588 v -0.03825 -0.04909 c 2e-6,-0.03644 -3e-6,-0.07311 0,-0.109553 7e-6,-0.03672 -3.3e-5,-0.07335 0,-0.110072 3.1e-5,-0.0263 1.66e-4,-0.05225 5.3e-4,-0.07855 5.02e-4,-0.02802 0.0012,-0.05623 0.0026,-0.08423 0.0034,-0.04154 0.0079,-0.083 0.0155,-0.124023 0.0132,-0.07327 0.03249,-0.145069 0.06098,-0.213941 v -0.186023 -0.237195 -0.140043 c -10e-7,-0.05958 8e-6,-0.11922 0,-0.1788 -1.2e-5,-0.103076 5.6e-5,-0.205952 0,-0.309025 -6.3e-5,-0.108174 -2.6e-5,-0.216356 -5.29e-4,-0.324528 -1.99e-4,-0.04561 -4.76e-4,-0.09137 -0.0026,-0.136943 -7.93e-4,-0.02548 -8.2e-4,-0.01229 0.0021,-0.01188 0.06046,0.13074 -0.0766,-0.152263 -0.06253,-0.159163 -0.01581,-0.09403 -0.02457,-0.186337 -0.02687,-0.281637 -0.0063,-0.07535 -0.01669,-0.150605 -0.03411,-0.224275 -0.02168,-0.0995 -0.04182,-0.199437 -0.04083,-0.301791 -0.0035,-0.05699 -0.01157,-0.113308 -0.0217,-0.169498 -0.01966,-0.111045 -0.05521,-0.220413 -0.05271,-0.334347 -6.09e-4,-0.106398 -0.0015,-0.212973 -0.0031,-0.31936 -0.0035,-0.212037 -0.0087,-0.423717 -0.01705,-0.63562 -0.01235,-0.303302 -0.02824,-0.606285 -0.05116,-0.908989 -0.0105,-0.220703 -0.0073,-0.441568 -0.0072,-0.662492 1e-4,-0.199832 1.67e-4,-0.399614 0.001,-0.599446 0.0011,-0.224632 0.0026,-0.449269 0.0072,-0.673861 0.0065,-0.306497 0.01527,-0.613386 0.03566,-0.919324 0.02143,-0.328102 0.05259,-0.655018 0.08217,-0.982369 0.0249,-0.306914 0.06452,-0.612035 0.09043,-0.918807 0.02301,-0.236417 0.05786,-0.470524 0.09922,-0.704349 0.06015,-0.340095 0.24405,-0.509837 0.421163,-0.528133 0.01362,-0.0014 0.02683,6.61e-4 0.04031,10e-4 V 14.95927 Z" />
    </clipPath>
  </defs>
  <g
     inkscape:groupmode="layer"
     id="layer4"
     inkscape:label="Layer 3"
     style="display:inline">
    <path
       style="fill:none;fill-rule:evenodd;stroke:#000080;stroke-width:0.1;paint-order:fill markers stroke"
       d="m 65.395549,0.05 v 37.896128 l 9.140107,-1.1e-5 0.0054,-2.016755 -2.944943,0.01617 V 8.0505941 H 88.991084 V 35.94546 l -2.844942,-0.0016 -0.0028,2.002269 h 9.14833 V 0.05 Z"
       id="path74-1" />
  </g>
  <g
     inkscape:groupmode="layer"
     id="layer6"
     inkscape:label="Layer 5"
     style="display:none">
    <rect
       style="display:none;fill:none;fill-rule:evenodd;stroke:#ff0000;stroke-width:0.0805327;paint-order:fill markers stroke"
       id="rect75-3-5"
       width="17.381468"
       height="13.019469"
       x="6.2425919"
       y="14.999585"
       ry="1.2276216e-14"
       clip-path="url(#clipPath86)" />
  </g>
  <g
     inkscape:groupmode="layer"
     id="layer7"
     inkscape:label="Layer 6">
    <path
       style="display:inline;fill:none;fill-rule:evenodd;stroke:#ff0000;stroke-width:0.1;paint-order:fill markers stroke"
       d="m 6.2525309,8.0525312 -0.00994,6.9470538 17.4215961,-2.03e-4 -0.01672,-6.9468508 z"
       id="path88" />
    <path
       style="display:inline;fill:none;fill-rule:evenodd;stroke:#ff0000;stroke-width:0.1;paint-order:fill markers stroke"
       d="M 0.0519374,0.0519374 V 37.948063 l 9.1401061,-1.1e-5 0.00543,-2.016755 -2.9449426,0.01617 -0.00994,-7.928411 17.4048801,-0.0032 v 7.931534 l -2.844942,-0.0016 -0.0028,2.002269 H 29.94806 V 0.0519374 Z"
       id="path89" />
  </g>
  <g
     inkscape:groupmode="layer"
     id="layer5"
     inkscape:label="Layer 4"
     style="display:inline">
    <path
       style="fill:none;fill-rule:evenodd;stroke:#ff0000;stroke-width:0.1;paint-order:fill markers stroke"
       d="M 33.389453,0.0519374 V 37.948063 H 63.285581 V 0.0519374 Z"
       id="path75" />
  </g>
</svg>
